<svg width="32" height="32" viewBox="0 0 32 32" fill="none" xmlns="http://www.w3.org/2000/svg">
<path d="M26.1304 0L20.2609 2.6087V2.6087C20.2609 6.06485 20.2437 9.953 22.7027 12.3816C23.5681 13.2363 24.6489 13.8064 26.1304 14.3478C27.6119 13.8064 28.6928 13.2363 29.5582 12.3816C32.0172 9.953 32 6.06485 32 2.6087V2.6087L26.1304 0Z" fill="#4A6382"/>
<path d="M13.7391 9.13043C15.1799 9.13043 16.3478 7.96248 16.3478 6.52174C16.3478 5.081 15.1799 3.91304 13.7391 3.91304C12.2984 3.91304 11.1304 5.081 11.1304 6.52174C11.1304 7.96248 12.2984 9.13043 13.7391 9.13043Z" fill="#4A6382"/>
<path d="M2 22.1739C2 18.7662 4.17776 15.8674 7.21739 14.793V17.6546C5.65793 18.5567 4.6087 20.2425 4.6087 22.1739C4.6087 25.0555 6.9446 27.3913 9.82609 27.3913C11.7573 27.3913 13.4434 26.342 14.3455 24.7826H17.2069C16.1325 27.8222 13.2336 30 9.82609 30C5.50384 30 2 26.4962 2 22.1739Z" fill="#4A6382"/>
<path d="M9.82609 14.3478C9.82609 12.9071 10.994 11.7391 12.4348 11.7391H13.7391C15.1799 11.7391 16.3478 12.9071 16.3478 14.3478V19.5652H18.9656C19.379 19.5652 19.7771 19.7215 20.08 20.0027C20.1999 20.114 20.3025 20.2426 20.3842 20.3843L23.8244 26.3427L21.5652 27.647L18.4053 22.1739H12.4348C10.994 22.1739 9.82609 21.006 9.82609 19.5652V14.3478Z" fill="#4A6382"/>
</svg>
