<svg width="144" height="144" viewBox="0 0 144 144" fill="none" xmlns="http://www.w3.org/2000/svg">
<path d="M72.0068 81.0471C87.7258 81.0471 100.469 68.2653 100.469 52.4982C100.469 36.731 87.7258 23.9492 72.0068 23.9492C56.2877 23.9492 43.5449 36.731 43.5449 52.4982C43.5449 68.2653 56.2877 81.0471 72.0068 81.0471Z" fill="#F6BD4E"/>
<path d="M118.225 47.114L114.349 43.4317L116.397 38.473C116.686 37.7738 116.835 37.0242 116.835 36.2671C116.836 35.51 116.687 34.7603 116.397 34.061C116.108 33.3618 115.684 32.7267 115.149 32.1924C114.614 31.658 113.979 31.2348 113.281 30.947L106.992 28.3356L106.802 21.5138C106.76 19.9949 106.122 18.5541 105.026 17.5046C103.931 16.4552 102.466 15.882 100.952 15.9096L95.6133 16.0563L93.5657 11.1123C93.2788 10.412 92.8569 9.77545 92.3241 9.2391C91.7914 8.70276 91.1583 8.27721 90.4612 7.98688C89.7641 7.69655 89.0167 7.54715 88.2618 7.54726C87.507 7.54736 86.7597 7.69697 86.0627 7.98749L79.7735 10.5989L74.7715 5.91894C73.6628 4.86902 72.1844 4.30266 70.6602 4.3439C69.136 4.38515 67.6902 5.03064 66.6396 6.139L62.9685 10.0267L57.981 7.98749C57.283 7.6967 56.5346 7.54687 55.7787 7.54658C55.0228 7.54629 54.2743 7.69554 53.576 7.9858C52.8777 8.27606 52.2434 8.70161 51.7093 9.23811C51.1752 9.7746 50.7517 10.4115 50.4634 11.1123L47.9185 17.362L41.1321 17.5527C39.6178 17.595 38.1814 18.2352 37.1351 19.3341C36.0889 20.433 35.5175 21.9017 35.545 23.421L35.6913 28.7757L30.7624 30.8296C30.0642 31.1174 29.4296 31.5406 28.8949 32.075C28.3601 32.6094 27.9359 33.2444 27.6465 33.9437C27.357 34.6429 27.2081 35.3926 27.2082 36.1497C27.2083 36.9068 27.3575 37.6565 27.6471 38.3556L30.2505 44.664L25.5702 49.6227C25.0515 50.1721 24.646 50.8189 24.377 51.5258C24.108 52.2328 23.9806 52.9861 24.0024 53.7425C24.0241 54.4989 24.1945 55.2435 24.5037 55.9338C24.8129 56.624 25.2548 57.2463 25.8042 57.7648L29.6947 61.4472L27.6471 66.4058C27.3575 67.105 27.2083 67.8546 27.2082 68.6118C27.2081 69.3689 27.357 70.1186 27.6465 70.8178C27.9359 71.5171 28.3601 72.1521 28.8949 72.6865C29.4296 73.2209 30.0642 73.6441 30.7624 73.9319L37.0369 76.5432L37.227 83.365C37.2729 84.8827 37.9123 86.3213 39.007 87.3699C40.1017 88.4186 41.5638 88.993 43.0773 88.9692L48.4304 88.8225L50.4634 93.7665C50.7405 94.4777 51.1558 95.1267 51.6851 95.6756C52.2143 96.2245 52.847 96.6625 53.5464 96.9641C54.2458 97.2658 54.998 97.4251 55.7593 97.4327C56.5206 97.4403 57.2758 97.2962 57.981 97.0087L64.2701 94.3973L69.2137 99.0773C70.3199 100.126 71.7959 100.692 73.3177 100.651C74.8395 100.61 76.2829 99.9647 77.331 98.8572L81.0021 94.9548L85.9456 97.0087C86.6427 97.2992 87.39 97.4488 88.1448 97.4489C88.8996 97.449 89.6471 97.2997 90.3442 97.0093C91.0413 96.719 91.6744 96.2934 92.2071 95.7571C92.7399 95.2208 93.1618 94.5842 93.4487 93.8839L96.0521 87.5902L102.853 87.3848C104.367 87.3425 105.804 86.7023 106.85 85.6034C107.896 84.5045 108.468 83.0358 108.44 81.5165L108.338 76.0444L113.281 73.9905C113.979 73.7028 114.614 73.2795 115.149 72.7452C115.684 72.2108 116.108 71.5757 116.397 70.8765C116.687 70.1773 116.836 69.4276 116.835 68.6704C116.835 67.9133 116.686 67.1637 116.397 66.4645L113.793 60.1562L118.459 55.1975C119.488 54.0905 120.041 52.6209 119.998 51.1075C119.954 49.5942 119.317 48.1592 118.225 47.114V47.114Z" stroke="#6B7D94" stroke-width="2" stroke-linecap="round" stroke-linejoin="round"/>
<path d="M96.1834 87.7808L95.8763 138.394C95.8786 138.898 95.7516 139.393 95.5078 139.833C95.2639 140.273 94.9112 140.643 94.4838 140.907C94.0563 141.171 93.5683 141.32 93.0668 141.339C92.5653 141.359 92.0671 141.249 91.6202 141.02L74.3763 127.113C73.9566 126.868 73.4797 126.739 72.9942 126.739C72.5087 126.739 72.0318 126.868 71.6121 127.113L53.2713 140.947C52.8293 141.158 52.3416 141.255 51.8529 141.228C51.3641 141.201 50.8899 141.052 50.4736 140.793C50.0574 140.535 49.7124 140.176 49.4704 139.749C49.2283 139.322 49.097 138.841 49.0883 138.35L48.708 89.8053" stroke="#6B7D94" stroke-width="2" stroke-linecap="round" stroke-linejoin="round"/>
<path d="M64.8994 95.1606L64.5332 131.544" stroke="#6B7D94" stroke-width="2" stroke-linecap="round" stroke-linejoin="round"/>
<path d="M81.0908 95.4971L80.7246 131.191" stroke="#6B7D94" stroke-width="2" stroke-linecap="round" stroke-linejoin="round"/>
</svg>
