<svg width="32" height="32" viewBox="0 0 32 32" fill="none" xmlns="http://www.w3.org/2000/svg">
<path fill-rule="evenodd" clip-rule="evenodd" d="M15.3333 4.6665C15.3333 3.56193 16.2288 2.6665 17.3333 2.6665C18.4379 2.6665 19.3333 3.56193 19.3333 4.6665V5.33317H23.2395C24.1311 5.33317 24.9637 5.77877 25.4583 6.52064L29.7761 12.9973C29.9221 13.2163 30 13.4736 30 13.7369V22.6665C30 23.4029 29.403 23.9998 28.6667 23.9998H27.2861C26.9626 26.2614 25.0176 27.9998 22.6667 27.9998C20.0893 27.9998 18 25.9105 18 23.3332C18 23.5595 18.0161 23.7821 18.0472 23.9998H13.0859C12.7624 26.2614 10.8175 27.9998 8.46647 27.9998C6.11892 27.9998 4.17622 26.2664 3.84849 24.0097L3.33333 24.1667C2.59695 24.1667 2 23.5697 2 22.8333V6.83333C2 6.09695 2.59695 5.5 3.33333 5.5L15.3333 5.33317V4.6665ZM20.6667 7.99984H22.5784C23.0468 7.99984 23.4808 8.24557 23.7217 8.64718L27.3333 14.6665H20.6667V7.99984ZM9.16699 9.33317H11.8337V11.9998H14.5003V14.6665H11.8337V17.3332H9.16699V14.6665H6.50033V11.9998H9.16699V9.33317ZM8.4668 25.333C9.57137 25.333 10.4668 24.4376 10.4668 23.333C10.4668 22.2284 9.57137 21.333 8.4668 21.333C7.36223 21.333 6.4668 22.2284 6.4668 23.333C6.4668 24.4376 7.36223 25.333 8.4668 25.333ZM22.667 25.333C23.7716 25.333 24.667 24.4376 24.667 23.333C24.667 22.2284 23.7716 21.333 22.667 21.333C21.5624 21.333 20.667 22.2284 20.667 23.333C20.667 24.4376 21.5624 25.333 22.667 25.333Z" fill="#4A6382"/>
</svg>
