<svg width="144" height="144" viewBox="0 0 144 144" fill="none" xmlns="http://www.w3.org/2000/svg">
<path d="M14.1348 132H125.911" stroke="#647891" stroke-width="2" stroke-linecap="round" stroke-linejoin="round"/>
<path d="M112.736 39.9609V130.204" stroke="#647891" stroke-width="2" stroke-linecap="round" stroke-linejoin="round"/>
<path d="M72 30H118V39H72" fill="#F6BD4E"/>
<path d="M76.2995 12H16.417V21.1804H76.2995V12Z" fill="#F6BD4E"/>
<path d="M73.1445 29.6895H117.821V38.8699H73.1445" stroke="#647891" stroke-width="2" stroke-linecap="round" stroke-linejoin="round"/>
<path d="M89.1051 49.0239H81.6533V60.5372H89.1051V49.0239Z" stroke="#647891" stroke-width="2" stroke-linecap="round" stroke-linejoin="round"/>
<path d="M103.035 49.0239H95.583V60.5372H103.035V49.0239Z" stroke="#647891" stroke-width="2" stroke-linecap="round" stroke-linejoin="round"/>
<path d="M89.1051 67.9888H81.6533V79.5021H89.1051V67.9888Z" stroke="#647891" stroke-width="2" stroke-linecap="round" stroke-linejoin="round"/>
<path d="M103.035 67.9888H95.583V79.5021H103.035V67.9888Z" stroke="#647891" stroke-width="2" stroke-linecap="round" stroke-linejoin="round"/>
<path d="M89.1051 86.9541H81.6533V98.4674H89.1051V86.9541Z" stroke="#647891" stroke-width="2" stroke-linecap="round" stroke-linejoin="round"/>
<path d="M103.035 86.9541H95.583V98.4674H103.035V86.9541Z" stroke="#647891" stroke-width="2" stroke-linecap="round" stroke-linejoin="round"/>
<path d="M89.1051 105.634H81.6533V117.147H89.1051V105.634Z" stroke="#647891" stroke-width="2" stroke-linecap="round" stroke-linejoin="round"/>
<path d="M103.035 105.634H95.583V117.147H103.035V105.634Z" stroke="#647891" stroke-width="2" stroke-linecap="round" stroke-linejoin="round"/>
<path d="M21.5029 130.406V22.2715" stroke="#647891" stroke-width="2" stroke-linecap="round" stroke-linejoin="round"/>
<path d="M71.9023 21.1807V130.406" stroke="#647891" stroke-width="2" stroke-linecap="round" stroke-linejoin="round"/>
<path d="M76.2995 12H16.417V21.1804H76.2995V12Z" stroke="#647891" stroke-width="2" stroke-linecap="round" stroke-linejoin="round"/>
<path d="M41 131V113H53V130.983" fill="#F06E61"/>
<path d="M40.7695 130.406V112.917H52.9709V130.389" stroke="#647891" stroke-width="2" stroke-linecap="round" stroke-linejoin="round"/>
<path d="M60.5068 105.919H33.083L33.2341 85.6279H60.6578L60.5068 105.919Z" stroke="#647891" stroke-width="2" stroke-linecap="round" stroke-linejoin="round"/>
<path d="M46.8789 85.6279V96.7216" stroke="#647891" stroke-width="2" stroke-linecap="round" stroke-linejoin="round"/>
<path d="M33.4854 98.3999H60.2714" stroke="#647891" stroke-width="2" stroke-linecap="round" stroke-linejoin="round"/>
<path d="M60.5068 77.1859H33.083L33.2341 56.895H60.6578L60.5068 77.1859Z" stroke="#647891" stroke-width="2" stroke-linecap="round" stroke-linejoin="round"/>
<path d="M46.8789 56.895V67.9887" stroke="#647891" stroke-width="2" stroke-linecap="round" stroke-linejoin="round"/>
<path d="M33.4854 69.667H60.2714" stroke="#647891" stroke-width="2" stroke-linecap="round" stroke-linejoin="round"/>
<path d="M60.5068 49.0243H33.083L33.2341 28.7334H60.6578L60.5068 49.0243Z" stroke="#647891" stroke-width="2" stroke-linecap="round" stroke-linejoin="round"/>
<path d="M46.8789 28.7334V39.8271" stroke="#647891" stroke-width="2" stroke-linecap="round" stroke-linejoin="round"/>
<path d="M33.4854 41.5049H60.2714" stroke="#647891" stroke-width="2" stroke-linecap="round" stroke-linejoin="round"/>
<path d="M120.138 119.547C125.635 119.547 130.09 114.437 130.09 108.134C130.09 101.831 125.635 96.7217 120.138 96.7217C114.641 96.7217 110.186 101.831 110.186 108.134C110.186 114.437 114.641 119.547 120.138 119.547Z" fill="#7CC694"/>
<path d="M120.138 119.547C125.635 119.547 130.09 114.437 130.09 108.134C130.09 101.831 125.635 96.7217 120.138 96.7217C114.641 96.7217 110.186 101.831 110.186 108.134C110.186 114.437 114.641 119.547 120.138 119.547Z" stroke="#647891" stroke-width="2" stroke-linecap="round" stroke-linejoin="round"/>
<path d="M120.138 108.134V131.479" stroke="#647891" stroke-width="2" stroke-linecap="round" stroke-linejoin="round"/>
</svg>
