<svg width="32" height="32" viewBox="0 0 32 32" fill="none" xmlns="http://www.w3.org/2000/svg">
<path fill-rule="evenodd" clip-rule="evenodd" d="M24.737 6.80759L27.8592 13.052C27.9518 13.2371 28 13.4413 28 13.6483V24.6668C28 25.7714 27.1046 26.6668 26 26.6668C24.8954 26.6668 24 25.7714 24 24.6668V24.0002H8V24.6668C8 25.7714 7.10457 26.6668 6 26.6668C4.89543 26.6668 4 25.7714 4 24.6668V13.6483C4 13.4413 4.04819 13.2371 4.14076 13.052L7.26295 6.80759C7.71466 5.90417 8.63803 5.3335 9.64809 5.3335H22.3519C23.362 5.3335 24.2853 5.90417 24.737 6.80759ZM6.85963 12.9476C6.77098 13.1249 6.89991 13.3335 7.09814 13.3335H24.9019C25.1001 13.3335 25.229 13.1249 25.1404 12.9476L23.0352 8.73721C22.8093 8.2855 22.3477 8.00016 21.8426 8.00016H10.1574C9.65235 8.00016 9.19067 8.2855 8.96481 8.73721L6.85963 12.9476ZM10.6667 18.0002C10.6667 19.1047 9.77124 20.0002 8.66667 20.0002C7.56209 20.0002 6.66667 19.1047 6.66667 18.0002C6.66667 16.8957 7.56209 16.0002 8.66667 16.0002C9.77124 16.0002 10.6667 16.8957 10.6667 18.0002ZM25.3333 18.0002C25.3333 19.1047 24.4379 20.0002 23.3333 20.0002C22.2288 20.0002 21.3333 19.1047 21.3333 18.0002C21.3333 16.8957 22.2288 16.0002 23.3333 16.0002C24.4379 16.0002 25.3333 16.8957 25.3333 18.0002Z" fill="#4A6382"/>
<path fill-rule="evenodd" clip-rule="evenodd" d="M3.5 12C2.67157 12 2 12.6716 2 13.5C2 14.3284 2.67157 15 3.5 15H5V12H3.5ZM28.5 12C29.3284 12 30 12.6716 30 13.5C30 14.3284 29.3284 15 28.5 15H27V12H28.5Z" fill="#4A6382"/>
</svg>
