<svg width="32" height="32" viewBox="0 0 32 32" fill="none" xmlns="http://www.w3.org/2000/svg">
<path fill-rule="evenodd" clip-rule="evenodd" d="M6.2 6.2C5.60948 7.34972 5.2757 8.2579 5.07241 9.31848C4.88906 10.275 4.93834 11.2462 5.13584 12.1964C5.41933 12.4548 5.73855 12.7221 6.09541 12.9898C6.87391 13.5736 7.83511 14.1618 9.00103 14.6613V14.5997C9.00103 13.8265 9.62783 13.1997 10.401 13.1997C11.1742 13.1997 11.801 13.8265 11.801 14.5997V15.558C13.0395 15.8339 14.4349 15.9998 16.0004 15.9998C17.59 15.9998 18.9833 15.8288 20.2012 15.5459V14.5997C20.2012 13.8265 20.828 13.1997 21.6012 13.1997C22.371 13.1997 22.9956 13.821 23.0012 14.5894C24.0282 14.1097 24.8625 13.5559 25.5321 13.008C26.1335 12.5159 26.6063 12.0252 26.9688 11.5909C27.0721 10.836 27.0722 10.0727 26.9276 9.31848C26.7243 8.2579 26.3905 7.34972 25.8 6.2H21.6V4.8C21.6 3.2536 20.3464 2 18.8 2H13.2C11.6536 2 10.4 3.2536 10.4 4.8V6.2H6.2ZM20.2012 16.98V17.3997C20.2012 18.1729 20.828 18.7997 21.6012 18.7997C22.3744 18.7997 23.0012 18.1729 23.0012 17.3997V16.1186C24.3017 15.5802 25.3636 14.9232 26.2195 14.2511L25.8 15.3L25.8 25.8C27.2035 22.9931 27.3563 18.9356 27.3033 16.5528C28.5868 16.9384 29.1864 17.4236 30 18.8C29.9987 22.1546 29.6488 24.3884 28.292 27.6149C27.6698 29.0945 26.1819 30 24.5768 30H7.42325C5.8181 30 4.33016 29.0945 3.70796 27.6149C2.3512 24.3884 2.00126 22.1546 2 18.8C2.81359 17.4236 3.41321 16.9384 4.69666 16.5528C4.64367 18.9356 4.79654 22.9931 6.19998 25.8L6.2 15.3L5.90925 14.5731C6.77423 15.152 7.79993 15.7087 9.00103 16.1727V17.3997C9.00103 18.1729 9.62783 18.7997 10.401 18.7997C11.1742 18.7997 11.801 18.1729 11.801 17.3997V16.9897C13.0589 17.2479 14.4555 17.3998 16.0004 17.3998C17.5632 17.3998 18.9586 17.2443 20.2012 16.98ZM13.2 4.8V6.2H18.8V4.8H13.2Z" fill="#4A6382"/>
</svg>
