<svg width="32" height="32" viewBox="0 0 32 32" fill="none" xmlns="http://www.w3.org/2000/svg">
<path fill-rule="evenodd" clip-rule="evenodd" d="M9 29.0004V6.32641C9 6.22112 9.0552 6.12353 9.14544 6.06929L15.8454 2.0419C15.9406 1.98473 16.0594 1.98473 16.1546 2.0419L22.8546 6.06929C22.9448 6.12353 23 6.22112 23 6.32641V29.0004C23 29.5527 22.5523 30.0004 22 30.0004H10C9.44772 30.0004 9 29.5527 9 29.0004ZM11.8005 7.55956H14.6005V10.3647H11.8005V7.55956ZM11.8005 13.1702H14.6005V15.9753H11.8005V13.1702ZM14.6005 18.7798H11.8005V21.5849H14.6005V18.7798ZM11.8005 24.3904H14.6005V27.1956H11.8005V24.3904ZM20.2007 7.55956H17.4007V10.3647H20.2007V7.55956ZM17.4007 13.1702H20.2007V15.9753H17.4007V13.1702ZM20.2007 18.7798H17.4007V21.5849H20.2007V18.7798ZM17.4007 24.3904H20.2007V27.1956H17.4007V24.3904Z" fill="#4A6382"/>
</svg>
