<svg width="144" height="144" viewBox="0 0 144 144" fill="none" xmlns="http://www.w3.org/2000/svg">
<path d="M130.494 27.5181H13.5224C10.6752 27.5181 8.36719 29.8261 8.36719 32.6733V111.326C8.36719 114.173 10.6752 116.481 13.5224 116.481H130.494C133.341 116.481 135.649 114.173 135.649 111.326V32.6733C135.649 29.8261 133.341 27.5181 130.494 27.5181Z" stroke="#6B7D94" stroke-width="2" stroke-linecap="round" stroke-linejoin="round"/>
<path d="M67.9541 40.9971H23.0837C21.6681 40.9971 20.5205 42.1447 20.5205 43.5603V100.771C20.5205 102.187 21.6681 103.335 23.0837 103.335H67.9541C69.3697 103.335 70.5173 102.187 70.5173 100.771V43.5603C70.5173 42.1447 69.3697 40.9971 67.9541 40.9971Z" fill="#7CC694"/>
<path d="M124.445 92.5493H115.027V101.967H124.445V92.5493Z" fill="#6B7D94" stroke="#6B7D94" stroke-width="2" stroke-linecap="round" stroke-linejoin="round"/>
<path d="M107.238 92.5493H97.8203V101.967H107.238V92.5493Z" fill="#6B7D94" stroke="#6B7D94" stroke-width="2" stroke-linecap="round" stroke-linejoin="round"/>
<path d="M90.0304 92.5493H80.6123V101.967H90.0304V92.5493Z" fill="#6B7D94" stroke="#6B7D94" stroke-width="2" stroke-linecap="round" stroke-linejoin="round"/>
<path d="M124.445 75.9893H115.027V85.4073H124.445V75.9893Z" fill="#6B7D94" stroke="#6B7D94" stroke-width="2" stroke-linecap="round" stroke-linejoin="round"/>
<path d="M107.238 75.9893H97.8203V85.4073H107.238V75.9893Z" fill="#6B7D94" stroke="#6B7D94" stroke-width="2" stroke-linecap="round" stroke-linejoin="round"/>
<path d="M90.0304 75.9893H80.6123V85.4073H90.0304V75.9893Z" fill="#6B7D94" stroke="#6B7D94" stroke-width="2" stroke-linecap="round" stroke-linejoin="round"/>
<path d="M124.445 59.4292H115.027V68.8473H124.445V59.4292Z" fill="#6B7D94" stroke="#6B7D94" stroke-width="2" stroke-linecap="round" stroke-linejoin="round"/>
<path d="M107.238 59.4292H97.8203V68.8473H107.238V59.4292Z" fill="#6B7D94" stroke="#6B7D94" stroke-width="2" stroke-linecap="round" stroke-linejoin="round"/>
<path d="M90.0304 59.4292H80.6123V68.8473H90.0304V59.4292Z" fill="#6B7D94" stroke="#6B7D94" stroke-width="2" stroke-linecap="round" stroke-linejoin="round"/>
<path d="M124.445 42.8691H115.027V52.2872H124.445V42.8691Z" fill="#6B7D94" stroke="#6B7D94" stroke-width="2" stroke-linecap="round" stroke-linejoin="round"/>
<path d="M107.238 42.8691H97.8203V52.2872H107.238V42.8691Z" fill="#6B7D94" stroke="#6B7D94" stroke-width="2" stroke-linecap="round" stroke-linejoin="round"/>
<path d="M90.0304 42.8691H80.6123V52.2872H90.0304V42.8691Z" fill="#6B7D94" stroke="#6B7D94" stroke-width="2" stroke-linecap="round" stroke-linejoin="round"/>
<path d="M53.3667 67.1758H37.5411C34.9166 67.1758 32.7891 69.3033 32.7891 71.9278V85.4782C32.7891 88.1026 34.9166 90.2302 37.5411 90.2302H53.3667C55.9911 90.2302 58.1187 88.1026 58.1187 85.4782V71.9278C58.1187 69.3033 55.9911 67.1758 53.3667 67.1758Z" fill="white"/>
<path d="M53.1655 63.9647C53.1655 59.6622 49.6775 56.1743 45.3748 56.1743C41.072 56.1743 37.584 59.6622 37.584 63.9647V70.7903C37.584 75.0928 41.072 78.5807 45.3748 78.5807C49.6775 78.5807 53.1655 75.0928 53.1655 70.7903V63.9647Z" stroke="white" stroke-width="2" stroke-linecap="round" stroke-linejoin="round"/>
</svg>
