<svg width="32" height="32" viewBox="0 0 32 32" fill="none" xmlns="http://www.w3.org/2000/svg">
<path fill-rule="evenodd" clip-rule="evenodd" d="M2 16C2 8.28048 8.28048 2 16 2C23.7195 2 30 8.28048 30 16C30 23.7195 23.7195 30 16 30C8.28048 30 2 23.7195 2 16ZM15.9044 21.6289C16.8245 22.5785 17.4973 22.9815 18.0117 23.1278C18.2801 23.2074 18.562 23.2213 18.8362 23.1683C19.3692 23.0689 19.7399 22.8053 20.1324 22.4402C20.3533 22.232 20.5558 22.0028 20.7371 21.7553C20.7473 21.7415 20.7571 21.7285 20.7665 21.7162C20.7741 21.7061 20.7814 21.6966 20.7884 21.6874L20.7915 21.6833C20.8851 21.56 21.0238 21.3773 20.9965 21.0869C20.9782 20.8919 20.8892 20.6975 20.7205 20.3845C20.3738 19.7405 19.4634 18.7466 19.0531 18.3577L19.0496 18.3543C18.7372 18.0582 18.5479 17.8788 18.2924 17.8061L18.2909 17.8057C17.9962 17.7219 17.7347 17.8157 17.3977 17.9576C17.3551 17.9753 17.3137 17.9934 17.2734 18.0111C17.2663 18.0142 17.2593 18.0172 17.2523 18.0203C16.9247 18.1634 16.8346 18.1899 16.701 18.1174C16.4423 17.9773 15.7622 17.3167 15.2345 16.349C14.7068 15.3812 14.4865 14.393 14.501 14.0862C14.5084 13.9336 14.5728 13.8652 14.844 13.6425L14.8494 13.6381C14.8926 13.6025 14.9372 13.5659 14.9824 13.5272C15.234 13.313 15.4481 13.1091 15.529 12.7888C15.5976 12.5158 15.5523 12.242 15.4838 11.8279L15.4833 11.8251C15.3803 11.2081 15.0077 9.90548 14.6554 9.26797C14.4837 8.95677 14.3689 8.7781 14.2187 8.664C13.9937 8.49208 13.7723 8.53014 13.6261 8.55542C13.6016 8.55954 13.5742 8.56404 13.5448 8.56858C13.2519 8.6105 12.9633 8.68097 12.6826 8.77912C12.1871 8.95749 11.7861 9.16516 11.4391 9.60437C11.1481 9.97165 10.7346 10.9071 11.2323 13.0575C11.6727 14.962 12.068 16.0033 12.992 17.7009C13.951 19.4587 14.7862 20.4714 15.9044 21.6289Z" fill="#4A6382"/>
</svg>
