<svg width="33" height="32" viewBox="0 0 33 32" fill="none" xmlns="http://www.w3.org/2000/svg">
<path d="M3 16C3 8.55662 9.05662 2.5 16.5 2.5C23.9434 2.5 30 8.55662 30 16C30 23.4434 23.9434 29.5 16.5 29.5C9.05662 29.5 3 23.4434 3 16Z" stroke="#4A6382"/>
<path d="M16.3853 23.072C17.4894 24.2374 18.2967 24.732 18.9141 24.9116C19.2361 25.0093 19.5744 25.0263 19.9034 24.9613C20.543 24.8393 20.9879 24.5158 21.4588 24.0677C21.724 23.8122 21.9669 23.5308 22.1846 23.2271C22.1968 23.2101 22.2086 23.1942 22.2198 23.1791L22.2461 23.1438L22.2499 23.1388C22.3621 22.9875 22.5285 22.7632 22.4958 22.4069C22.4739 22.1675 22.367 21.9289 22.1646 21.5447C21.7485 20.7544 20.6561 19.5347 20.1638 19.0573L20.1595 19.0532C19.7846 18.6897 19.5575 18.4696 19.2509 18.3804L19.249 18.3798C18.8954 18.277 18.5816 18.3921 18.1773 18.5663C18.1261 18.5881 18.0765 18.6102 18.0281 18.6319L18.028 18.6319L18.0027 18.6432C17.6096 18.8188 17.5015 18.8514 17.3411 18.7625C17.0307 18.5905 16.2146 17.7798 15.5814 16.5921C14.9482 15.4044 14.6838 14.1916 14.7012 13.815C14.7101 13.6277 14.7874 13.5439 15.1128 13.2705L15.1192 13.2651C15.1711 13.2214 15.2246 13.1764 15.2789 13.129C15.5808 12.8661 15.8377 12.6159 15.9348 12.2228C16.0171 11.8877 15.9628 11.5517 15.8805 11.0435L15.88 11.04C15.7564 10.2828 15.3093 8.68416 14.8865 7.90175C14.6805 7.51983 14.5427 7.30056 14.3624 7.16052C14.0925 6.94953 13.8267 6.99624 13.6513 7.02726C13.6219 7.03233 13.589 7.03785 13.5537 7.04341C13.2023 7.09486 12.856 7.18136 12.5192 7.3018C11.9245 7.52072 11.4433 7.77559 11.0269 8.31461C10.6777 8.76537 10.1815 9.91337 10.7788 12.5526C11.3073 14.8899 11.7816 16.1679 12.8903 18.2512C14.0411 20.4086 15.0435 21.6514 16.3853 23.072Z" stroke="#4A6382"/>
</svg>
