<svg width="144" height="144" viewBox="0 0 144 144" fill="none" xmlns="http://www.w3.org/2000/svg">
<path d="M74.6998 124.2C100.05 124.2 120.6 105.665 120.6 82.8004C120.6 59.9358 100.05 41.4004 74.6998 41.4004C49.3499 41.4004 28.7998 59.9358 28.7998 82.8004C28.7998 105.665 49.3499 124.2 74.6998 124.2Z" stroke="#6B7D94" stroke-width="2" stroke-linecap="round" stroke-linejoin="round"/>
<path d="M52.1996 44.8908C47.3857 34.5101 32.1626 7.67983 28.9744 22.2291C23.0203 49.795 28.9744 81.9 28.9744 81.9" stroke="#6B7D94" stroke-width="2" stroke-linecap="round" stroke-linejoin="round"/>
<path d="M97.2004 44.8456C101.786 34.4824 116.289 7.69717 119.326 22.222C124.998 49.7416 120.6 80.1 120.6 80.1" stroke="#6B7D94" stroke-width="2" stroke-linecap="round" stroke-linejoin="round"/>
<path d="M79.2004 102.803L73.4252 106.2L68.4004 102.6" stroke="#6B7D94" stroke-width="2" stroke-linecap="round" stroke-linejoin="round"/>
<path d="M73.7876 106.2C73.7876 106.2 74.3936 114.866 67.2561 115.187C60.1186 115.508 59.4004 109.845 59.4004 109.845" stroke="#6B7D94" stroke-width="2" stroke-linecap="round" stroke-linejoin="round"/>
<path d="M73.811 106.2C73.811 106.2 73.2807 114.866 79.526 115.187C85.7713 115.508 86.3998 109.845 86.3998 109.845" stroke="#6B7D94" stroke-width="2" stroke-linecap="round" stroke-linejoin="round"/>
<path d="M64.8002 88.2002C64.3918 87.2688 63.685 86.4632 62.7666 85.8822C61.8481 85.3011 60.7579 84.97 59.6297 84.9294C57.3827 84.6942 55.1116 85.0577 52.8646 84.9294C50.8469 84.747 48.9106 84.1292 47.2256 83.1303C45.5406 82.1314 44.1583 80.7819 43.2002 79.2002" stroke="#6B7D94" stroke-width="2" stroke-linecap="round" stroke-linejoin="round"/>
<path d="M102.6 79.2002C102.228 80.1309 101.581 80.9362 100.738 81.5162C99.8957 82.0962 98.8951 82.4254 97.8602 82.4632C95.8005 82.6978 93.7186 82.3353 91.6589 82.4632C89.8088 82.6528 88.0348 83.2745 86.4909 84.2743C84.947 85.2741 83.68 86.6218 82.7998 88.2002" stroke="#6B7D94" stroke-width="2" stroke-linecap="round" stroke-linejoin="round"/>
<path d="M88.2002 104.4C102.216 98.9477 116.704 95.3257 131.4 93.5996" stroke="#6B7D94" stroke-width="2" stroke-linecap="round" stroke-linejoin="round"/>
<path d="M97.2002 106.2C106.116 106.2 115.171 106.2 124.2 106.2" stroke="#6B7D94" stroke-width="2" stroke-linecap="round" stroke-linejoin="round"/>
<path d="M88.2002 104.4C102.216 98.9477 116.704 95.3257 131.4 93.5996" stroke="#6B7D94" stroke-width="2" stroke-linecap="round" stroke-linejoin="round"/>
<path d="M97.2002 106.2C106.116 106.2 115.171 106.2 124.2 106.2" stroke="#6B7D94" stroke-width="2" stroke-linecap="round" stroke-linejoin="round"/>
<path d="M55.7996 102.6C41.78 98.0383 27.292 95.0199 12.5996 93.5996" stroke="#6B7D94" stroke-width="2" stroke-linecap="round" stroke-linejoin="round"/>
<path d="M46.7998 106.2C37.8837 104.624 28.8293 104.081 19.7998 104.58" stroke="#6B7D94" stroke-width="2" stroke-linecap="round" stroke-linejoin="round"/>
</svg>
