<svg width="32" height="32" viewBox="0 0 32 32" fill="none" xmlns="http://www.w3.org/2000/svg">
<path d="M9 3.4C9 2.6268 8.36688 1.9854 7.60894 2.13822C4.40936 2.78332 2 5.61024 2 9C2 11.8704 3.7277 14.3375 6.2 15.4176V30H9V23C9 21.4537 10.2536 20.2 11.8 20.2H14.6C16.1464 20.2 17.4 21.4537 17.4 23V30H20.2V23H23V30H25.8V18.8H24.4C19.7608 18.8 16 15.0392 16 10.4V9H11.8C9.46407 9 7.46217 10.4301 6.62229 12.4627C5.52162 11.7053 4.8 10.4369 4.8 9C4.8 7.16196 5.98085 5.59952 7.62535 5.03014C8.35599 4.77716 9 4.1732 9 3.4V3.4Z" fill="#4A6382"/>
<path fill-rule="evenodd" clip-rule="evenodd" d="M21.9296 6.52949L18.8 3.4L18.8496 11.8C19.1893 14.1745 21.2315 16 23.7 16H25.1C27.5685 16 29.6107 14.1745 29.9504 11.8L30 3.4L26.8704 6.52949C26.3213 6.31689 25.7243 6.2 25.1 6.2H23.7C23.0757 6.2 22.4787 6.31689 21.9296 6.52949ZM23 10.4C23 11.1731 22.3732 11.8 21.6 11.8C20.8268 11.8 20.2 11.1731 20.2 10.4C20.2 9.62686 20.8268 9 21.6 9C22.3732 9 23 9.62686 23 10.4ZM28.6 10.4C28.6 11.1731 27.9732 11.8 27.2 11.8C26.4268 11.8 25.8 11.1731 25.8 10.4C25.8 9.62686 26.4268 9 27.2 9C27.9732 9 28.6 9.62686 28.6 10.4Z" fill="#4A6382"/>
<path d="M11.7998 22.6621V30.0001H14.5998V22.6621H11.7998Z" fill="#4A6382"/>
</svg>
