<svg width="32" height="32" viewBox="0 0 32 32" fill="none" xmlns="http://www.w3.org/2000/svg">
<path fill-rule="evenodd" clip-rule="evenodd" d="M2 16C2 8.28048 8.28048 2 16 2C23.7195 2 30 8.28048 30 16C30 23.7195 23.7195 30 16 30C8.28048 30 2 23.7195 2 16ZM7.68513 12.4484C7.28444 12.8491 7.28444 13.4804 7.68513 13.8811C8.08583 14.2818 8.71713 14.2818 9.11782 13.8811L10.5505 12.4484V22.448C10.5505 22.9919 11.0094 23.4509 11.5534 23.4509C12.0973 23.4509 12.5563 22.9919 12.5563 22.448V12.4484L13.9889 13.8811C14.3896 14.2818 15.0209 14.2818 15.4216 13.8811C15.622 13.6808 15.7082 13.4222 15.7082 13.1648C15.7082 12.9073 15.622 12.6488 15.4216 12.4484L12.2697 9.29653C12.0694 9.09618 11.8108 9.00999 11.5534 9.00999C11.2959 9.00999 11.0374 9.12416 10.837 9.29653L7.68513 12.4484ZM19.473 10.0131V20.0126L18.0403 18.58C17.6396 18.1793 17.0083 18.1793 16.6076 18.58C16.2069 18.9806 16.2069 19.6119 16.6076 20.0126L19.7595 23.1645C20.1602 23.5652 20.7915 23.5652 21.1922 23.1645L24.3441 20.0126C24.5445 19.8123 24.6306 19.5537 24.6306 19.2963C24.6306 19.0389 24.5445 18.7803 24.3441 18.58C23.9434 18.1793 23.3121 18.1793 22.9114 18.58L21.4787 20.0126V10.0131C21.4787 9.46912 21.0198 9.01021 20.4759 9.01021C19.9308 9.01021 19.473 9.44001 19.473 10.0131Z" fill="#4A6382"/>
</svg>
