<svg width="32" height="32" viewBox="0 0 32 32" fill="none" xmlns="http://www.w3.org/2000/svg">
<g clip-path="url(#clip0_36749_15896)">
<path d="M4.53148 14.028L7.17418 13.271C6.91987 10.907 9.25381 8.0297 11.9045 8.35857L11.9065 8.35921L12.5499 7.91683L14.5369 6.59562L15.0097 6.3215L16.2431 4.16275C16.3229 4.01959 16.3041 3.83964 16.1934 3.71416C16.0833 3.58676 15.9058 3.53879 15.7489 3.59296L15.7469 3.59232L12.5254 4.79022C12.419 4.82931 12.3018 4.82242 12.1991 4.77159C12.0964 4.72076 12.0199 4.62986 11.9882 4.52193L11.9901 4.52258L11.0345 1.235C10.984 1.07853 10.8435 0.964387 10.6767 0.949635C10.5099 0.934881 10.3534 1.02094 10.2788 1.16795L8.90339 4.28404C8.85697 4.38525 8.76927 4.46013 8.6603 4.4941C8.55392 4.52681 8.43663 4.51354 8.33713 4.45954L8.33517 4.45889L5.30496 2.75813C5.15766 2.67777 4.97626 2.69421 4.84789 2.80016C4.71953 2.90612 4.67323 3.0794 4.73024 3.23591L6.00098 6.41129C6.04245 6.51607 6.03655 6.63277 5.98684 6.73077C5.93651 6.83069 5.84489 6.90428 5.73522 6.93378L2.38464 7.81796C2.22374 7.86446 2.11265 8.00366 2.10142 8.16944C2.09082 8.33331 2.18554 8.48743 2.33795 8.55889L5.52885 9.95036C5.63543 9.9961 5.71771 10.0826 5.75401 10.1899C5.79226 10.2978 5.78181 10.4151 5.7256 10.5131L4.02549 13.4543C3.9405 13.6 3.95747 13.7857 4.0734 13.915C4.18737 14.0437 4.37205 14.0898 4.53148 14.028Z" fill="#4A6382"/>
<path d="M29.7733 22.5896C29.7537 22.0101 29.5627 21.4509 29.2263 20.9798L29.4754 19.692L29.9645 17.3241C30.1131 16.5805 30.0936 15.8144 29.9073 15.0811C29.7283 14.3591 29.3899 13.6876 28.916 13.1141C28.5924 12.7241 28.2102 12.3851 27.7854 12.1088L22.9714 8.95117C22.5452 8.67228 22.0777 8.45881 21.5881 8.31925C21.1136 8.18689 20.6222 8.11921 20.1303 8.11944C19.8837 8.12813 19.6366 8.15198 19.3927 8.19231C18.8991 8.27101 18.4223 8.42549 17.9766 8.6517C17.7435 8.75924 17.5204 8.88984 17.3106 9.04016L15.3861 10.3616L14.2678 11.163C13.9867 11.1032 13.6972 11.0823 13.4098 11.1017C12.5238 11.1717 11.7196 11.6463 11.23 12.385L10.0462 14.1967C9.75286 14.6269 9.58566 15.1338 9.56554 15.6541C9.55949 15.8255 9.5686 15.9976 9.59617 16.1669L8.25946 18.196C8.1624 18.3638 8.10035 18.5519 8.07789 18.7465C7.97353 19.3158 8.2226 19.8919 8.70888 20.2082L9.91468 20.9924C10.2338 21.2096 10.6231 21.2875 11.0026 21.2151C11.3802 21.1421 11.7118 20.9221 11.9271 20.6023L12.7113 19.3965L22.3378 25.7092L21.5537 26.915C21.1173 27.579 21.2915 28.4686 21.947 28.9175L23.1528 29.7016C23.6352 30.0232 24.2629 30.0239 24.7451 29.6999C24.9037 29.5919 25.0391 29.4544 25.1487 29.2951L26.4795 27.2509C26.6422 27.2102 26.8016 27.153 26.9569 27.0813C27.429 26.8549 27.8294 26.5062 28.1202 26.0708L29.304 24.2591C29.6321 23.7636 29.7956 23.181 29.7733 22.5896ZM15.2981 16.7721C14.825 17.4943 13.8143 16.6581 13.0921 16.185C12.4261 15.748 12.2413 14.8571 12.6777 14.1931C13.1128 13.5264 14.0056 13.3423 14.6696 13.7787C15.6195 14.6444 15.709 15.7462 15.2981 16.7721ZM23.7641 17.1649L17.0236 12.7526L19.0019 11.3677C19.7242 10.8551 20.6881 10.8415 21.4236 11.3344L26.2415 14.4801C26.7787 14.8418 27.1299 15.4208 27.2058 16.0628C27.2282 16.281 27.2144 16.5026 27.1656 16.717L26.6917 19.079L23.7641 17.1649ZM27.142 23.6779C26.9485 24.0181 26.6183 24.2538 26.2368 24.3322C25.8533 24.4099 25.4574 24.3188 25.1461 24.0844C24.4239 23.6113 23.2609 23.0169 23.7301 22.3066C24.5136 21.5222 25.6898 21.2778 26.7203 21.688C27.0506 21.8847 27.2824 22.2137 27.3561 22.5893C27.4312 22.9675 27.3725 23.3719 27.142 23.6779Z" fill="#4A6382"/>
</g>
<defs>
<clipPath id="clip0_36749_15896">
<rect width="31.9999" height="31.9999" fill="white"/>
</clipPath>
</defs>
</svg>
