<svg width="144" height="144" viewBox="0 0 144 144" fill="none" xmlns="http://www.w3.org/2000/svg">
<path d="M84.556 29.7002L77.2676 39.861L95.0758 64.7244L112.884 39.861L105.596 29.7002H84.556Z" fill="#F6BD4E" stroke="#647891" stroke-width="2" stroke-linecap="round" stroke-linejoin="round"/>
<path d="M77.4023 39.8643H112.75" stroke="#647891" stroke-width="2" stroke-linecap="round" stroke-linejoin="round"/>
<path d="M94.7598 63.5216L101.994 40.0944L97.2012 29.7002" stroke="#647891" stroke-width="2" stroke-linecap="round" stroke-linejoin="round"/>
<path d="M95.3906 63.5216L88.1561 40.0944L92.9492 29.7002" stroke="#647891" stroke-width="2" stroke-linecap="round" stroke-linejoin="round"/>
<path d="M21.5996 114.3H122.4" stroke="#647891" stroke-width="2" stroke-linecap="round" stroke-linejoin="round"/>
<path d="M104.16 108.052C105.548 108.052 106.673 106.927 106.673 105.539C106.673 104.151 105.548 103.025 104.16 103.025C102.772 103.025 101.646 104.151 101.646 105.539C101.646 106.927 102.772 108.052 104.16 108.052Z" fill="#647891"/>
<path d="M53.9663 108.052C55.3544 108.052 56.4796 106.927 56.4796 105.539C56.4796 104.151 55.3544 103.025 53.9663 103.025C52.5783 103.025 51.4531 104.151 51.4531 105.539C51.4531 106.927 52.5783 108.052 53.9663 108.052Z" fill="#647891"/>
<path d="M104.161 112.63C108.078 112.63 111.252 109.455 111.252 105.539C111.252 101.623 108.078 98.4482 104.161 98.4482C100.245 98.4482 97.0703 101.623 97.0703 105.539C97.0703 109.455 100.245 112.63 104.161 112.63Z" stroke="#647891" stroke-width="2" stroke-linecap="square" stroke-linejoin="round"/>
<path d="M60.52 102.776C60.8791 103.62 61.0765 104.554 61.0765 105.541C61.0765 109.454 57.8991 112.632 53.9856 112.632C50.072 112.632 46.8945 109.454 46.8945 105.541C46.8945 104.572 47.092 103.656 47.4331 102.812" stroke="#647891" stroke-width="2" stroke-linecap="round" stroke-linejoin="round"/>
<path d="M90.2782 58.3984H65.6895M36.1582 90.6225L36.1584 99.257C36.1584 101.16 37.7202 102.686 39.6231 102.686H70.5571" stroke="#647891" stroke-width="2" stroke-linecap="round" stroke-linejoin="round"/>
<path d="M99.9779 58.416H111.79C113.226 58.416 114.465 59.4572 114.698 60.8754L115.74 67.0688C116.045 68.8461 114.698 70.4797 112.885 70.5156L73.9656 70.3002C71.0215 70.4438 70.8599 72.6339 70.824 74.2137L70.6445 107.173H97.1367" stroke="#647891" stroke-width="2" stroke-linecap="round" stroke-linejoin="round"/>
<path d="M88.4708 70.4248L88.1836 106.221" stroke="#647891" stroke-width="2" stroke-linecap="square" stroke-linejoin="round"/>
<path d="M65.0605 90.1579V40.0361H21.6349V90.1579H65.0605Z" stroke="#647891" stroke-width="2" stroke-linecap="round" stroke-linejoin="round"/>
<path d="M58.7223 46.3711H27.9707V83.8008H58.7223V46.3711Z" stroke="#647891" stroke-width="2" stroke-linecap="round" stroke-linejoin="round"/>
<path d="M36.1348 40.0287L43.3348 33.2998L50.5348 40.0287" stroke="#647891" stroke-width="2" stroke-linecap="round" stroke-linejoin="round"/>
<path d="M37.3965 83.2088C38.6352 72.5454 47.4855 64.2695 58.2207 64.2695" stroke="#647891" stroke-width="2" stroke-linecap="round" stroke-linejoin="round"/>
<path d="M40.0182 75.059H27.9707V68.7415L37.5767 61.2538L41.4902 65.4725L50.9688 53.2832L58.7322 63.542V64.2829L58.221 64.2687C50.4639 64.2687 43.6463 68.6384 40.0182 75.059Z" fill="#7CC694" stroke="#647891" stroke-width="2" stroke-linecap="round" stroke-linejoin="round"/>
<path d="M37.5775 61.2538L34.6572 63.4943C34.0931 62.4783 33.5391 61.5014 33.3402 60.3366C32.7119 56.6924 35.1713 53.2097 38.8155 52.5814C42.4597 51.9531 45.9424 54.4125 46.5707 58.0567L46.7088 58.7553L41.491 65.4725L37.5775 61.2538Z" fill="#F6BD4E" stroke="#647891" stroke-width="2" stroke-linecap="round" stroke-linejoin="round"/>
<path d="M111.262 105.897H119.617C120.928 105.897 121.987 104.838 121.987 103.527V91.338L105.723 70.46" stroke="#647891" stroke-width="2" stroke-linecap="round" stroke-linejoin="round"/>
<path d="M95.7949 80.7646H105.776L112.885 90.2433H95.7949V80.7646Z" fill="#7CC694" stroke="#647891" stroke-width="2" stroke-linecap="square" stroke-linejoin="round"/>
<path d="M120.928 97.084H117.75" stroke="#647891" stroke-width="2" stroke-linecap="round" stroke-linejoin="round"/>
</svg>
