<svg width="144" height="144" viewBox="0 0 144 144" fill="none" xmlns="http://www.w3.org/2000/svg">
<g clip-path="url(#clip0_37301_16822)">
<path d="M21.2354 118.76H122.764" stroke="#647891" stroke-width="2" stroke-linecap="round" stroke-linejoin="round"/>
<path d="M116.623 47.3521V118.747" stroke="#647891" stroke-width="2" stroke-linecap="round" stroke-linejoin="round"/>
<path d="M93.9463 38.8589H120.243V46.4473H93.9463" fill="#91CEA5"/>
<path d="M93.9463 38.8589H120.243V46.4473H93.9463" stroke="#647891" stroke-width="2" stroke-linecap="round" stroke-linejoin="round"/>
<path d="M28.7246 47.3521V118.45" stroke="#647891" stroke-width="2" stroke-linecap="round" stroke-linejoin="round"/>
<path d="M51.4004 38.8589H25.1162V46.4473H51.4004" fill="#91CEA5"/>
<path d="M51.4004 38.8589H25.1162V46.4473H51.4004" stroke="#647891" stroke-width="2" stroke-linecap="round" stroke-linejoin="round"/>
<path d="M45.5671 54.4819H34.5566V61.4132H45.5671V54.4819Z" stroke="#647891" stroke-width="2" stroke-linecap="round" stroke-linejoin="round"/>
<path d="M45.5671 69.3613H34.5566V76.2926H45.5671V69.3613Z" stroke="#647891" stroke-width="2" stroke-linecap="round" stroke-linejoin="round"/>
<path d="M45.5671 84.2402H34.5566V91.1715H45.5671V84.2402Z" stroke="#647891" stroke-width="2" stroke-linecap="round" stroke-linejoin="round"/>
<path d="M45.5671 99.1196H34.5566V106.051H45.5671V99.1196Z" stroke="#647891" stroke-width="2" stroke-linecap="round" stroke-linejoin="round"/>
<path d="M110.283 54.4819H99.2725V61.4132H110.283V54.4819Z" stroke="#647891" stroke-width="2" stroke-linecap="round" stroke-linejoin="round"/>
<path d="M110.283 69.3613H99.2725V76.2926H110.283V69.3613Z" stroke="#647891" stroke-width="2" stroke-linecap="round" stroke-linejoin="round"/>
<path d="M110.283 84.2402H99.2725V91.1715H110.283V84.2402Z" stroke="#647891" stroke-width="2" stroke-linecap="round" stroke-linejoin="round"/>
<path d="M110.283 99.1196H99.2725V106.051H110.283V99.1196Z" stroke="#647891" stroke-width="2" stroke-linecap="round" stroke-linejoin="round"/>
<path d="M51.4004 117.148V27.7739" stroke="#647891" stroke-width="2" stroke-linecap="round" stroke-linejoin="round"/>
<path d="M92.9336 26.8687V118.289" stroke="#647891" stroke-width="2" stroke-linecap="round" stroke-linejoin="round"/>
<path d="M96.3308 24H47V31.5884H96.3308V24Z" fill="#91CEA5"/>
<path d="M96.5544 24.2397H47.2236V31.8281H96.5544V24.2397Z" stroke="#647891" stroke-width="2" stroke-linecap="round" stroke-linejoin="round"/>
<path d="M81.4785 104.637V118.524" stroke="#647891" stroke-width="2" stroke-linecap="round" stroke-linejoin="round"/>
<path d="M63.1396 118.537V104.055" stroke="#647891" stroke-width="2" stroke-linecap="round" stroke-linejoin="round"/>
<path d="M72.3086 118.462V105.245" stroke="#647891" stroke-width="2" stroke-linecap="round" stroke-linejoin="round"/>
<path d="M85.951 57.3831H58.5176V48.1828V40.582H85.951V57.3831Z" fill="#FDCB6B" stroke="#FDCB6B" stroke-width="2" stroke-linecap="round" stroke-linejoin="round"/>
<path d="M85.951 57.3831H58.5176V48.1828V40.582H85.951V57.3831Z" fill="#FDCB6B" stroke="#647891" stroke-width="2" stroke-linecap="round" stroke-linejoin="round"/>
<path d="M85.0737 50.9106H58.5176" stroke="#647891" stroke-width="2" stroke-linecap="round" stroke-linejoin="round"/>
<path d="M67.4395 41.5864V49.832" stroke="#647891" stroke-width="2" stroke-linecap="round" stroke-linejoin="round"/>
<path d="M77.041 41.5864V49.832" stroke="#647891" stroke-width="2" stroke-linecap="round" stroke-linejoin="round"/>
<path d="M85.951 83.5089H58.5176V74.3086V66.7202H85.951V83.5089Z" fill="#FDCB6B"/>
<path d="M85.951 83.5089H58.5176V74.3086V66.7202H85.951V83.5089Z" stroke="#647891" stroke-width="2" stroke-linecap="round" stroke-linejoin="round"/>
<path d="M85.0737 77.0366H58.5176" stroke="#647891" stroke-width="2" stroke-linecap="round" stroke-linejoin="round"/>
<path d="M67.4395 67.7124V75.958" stroke="#647891" stroke-width="2" stroke-linecap="round" stroke-linejoin="round"/>
<path d="M77.041 67.7124V75.958" stroke="#647891" stroke-width="2" stroke-linecap="round" stroke-linejoin="round"/>
<path d="M57.3066 103.781C57.3066 98.3258 63.7201 93.9116 71.6289 93.9116C79.5376 93.9116 85.9511 98.3382 85.9511 103.781H57.3066Z" fill="#F06E61"/>
<path d="M57.3066 103.781C57.3066 98.3258 63.7201 93.9116 71.6289 93.9116C79.5376 93.9116 85.9511 98.3382 85.9511 103.781H57.3066Z" stroke="#647891" stroke-width="2" stroke-linecap="round" stroke-linejoin="round"/>
</g>
<defs>
<clipPath id="clip0_37301_16822">
<rect width="104" height="97" fill="white" transform="translate(20 23)"/>
</clipPath>
</defs>
</svg>
