<svg width="144" height="144" viewBox="0 0 144 144" fill="none" xmlns="http://www.w3.org/2000/svg">
<path d="M8.1377 133.913H136.44" stroke="#647891" stroke-width="2" stroke-linecap="round" stroke-linejoin="round"/>
<path d="M128.683 38.106V132.044" stroke="#647891" stroke-width="2" stroke-linecap="round" stroke-linejoin="round"/>
<path d="M99 27H133V37H99" fill="#7CC694"/>
<path d="M100.014 27.4136H133.242V36.9698H100.014" stroke="#647891" stroke-width="2" stroke-linecap="round" stroke-linejoin="round"/>
<path d="M17.6064 38.106V132.044" stroke="#647891" stroke-width="2" stroke-linecap="round" stroke-linejoin="round"/>
<path d="M46.2579 27.4136H13.0293V36.9698H46.2579" fill="#7CC694"/>
<path d="M46.2579 27.4136H13.0293V36.9698H46.2579" stroke="#647891" stroke-width="2" stroke-linecap="round" stroke-linejoin="round"/>
<path d="M110.951 47.085H106.758V55.8201H110.951V47.085Z" fill="#647891" stroke="#647891" stroke-width="2" stroke-linecap="round" stroke-linejoin="round"/>
<path d="M120.664 47.085H116.471V55.8201H120.664V47.085Z" fill="#647891" stroke="#647891" stroke-width="2" stroke-linecap="round" stroke-linejoin="round"/>
<path d="M110.951 63.3149H106.758V72.0501H110.951V63.3149Z" fill="#647891" stroke="#647891" stroke-width="2" stroke-linecap="round" stroke-linejoin="round"/>
<path d="M120.664 63.3149H116.471V72.0501H120.664V63.3149Z" fill="#647891" stroke="#647891" stroke-width="2" stroke-linecap="round" stroke-linejoin="round"/>
<path d="M110.951 79.772H106.758V88.5071H110.951V79.772Z" fill="#647891" stroke="#647891" stroke-width="2" stroke-linecap="round" stroke-linejoin="round"/>
<path d="M120.664 79.772H116.471V88.5071H120.664V79.772Z" fill="#647891" stroke="#647891" stroke-width="2" stroke-linecap="round" stroke-linejoin="round"/>
<path d="M110.951 96.002H106.758V104.737H110.951V96.002Z" fill="#647891" stroke="#647891" stroke-width="2" stroke-linecap="round" stroke-linejoin="round"/>
<path d="M120.664 96.002H116.471V104.737H120.664V96.002Z" fill="#647891" stroke="#647891" stroke-width="2" stroke-linecap="round" stroke-linejoin="round"/>
<path d="M110.951 111.603H106.758V120.338H110.951V111.603Z" fill="#647891" stroke="#647891" stroke-width="2" stroke-linecap="round" stroke-linejoin="round"/>
<path d="M120.664 111.603H116.471V120.338H120.664V111.603Z" fill="#647891" stroke="#647891" stroke-width="2" stroke-linecap="round" stroke-linejoin="round"/>
<path d="M29.1724 47.085H24.9795V55.8201H29.1724V47.085Z" fill="#647891" stroke="#647891" stroke-width="2" stroke-linecap="round" stroke-linejoin="round"/>
<path d="M38.8862 47.085H34.6934V55.8201H38.8862V47.085Z" fill="#647891" stroke="#647891" stroke-width="2" stroke-linecap="round" stroke-linejoin="round"/>
<path d="M29.1724 63.3149H24.9795V72.0501H29.1724V63.3149Z" fill="#647891" stroke="#647891" stroke-width="2" stroke-linecap="round" stroke-linejoin="round"/>
<path d="M38.8862 63.3149H34.6934V72.0501H38.8862V63.3149Z" fill="#647891" stroke="#647891" stroke-width="2" stroke-linecap="round" stroke-linejoin="round"/>
<path d="M29.1724 79.772H24.9795V88.5071H29.1724V79.772Z" fill="#647891" stroke="#647891" stroke-width="2" stroke-linecap="round" stroke-linejoin="round"/>
<path d="M38.8862 79.772H34.6934V88.5071H38.8862V79.772Z" fill="#647891" stroke="#647891" stroke-width="2" stroke-linecap="round" stroke-linejoin="round"/>
<path d="M29.1724 96.002H24.9795V104.737H29.1724V96.002Z" fill="#647891" stroke="#647891" stroke-width="2" stroke-linecap="round" stroke-linejoin="round"/>
<path d="M38.8862 96.002H34.6934V104.737H38.8862V96.002Z" fill="#647891" stroke="#647891" stroke-width="2" stroke-linecap="round" stroke-linejoin="round"/>
<path d="M29.1724 111.603H24.9795V120.338H29.1724V111.603Z" fill="#647891" stroke="#647891" stroke-width="2" stroke-linecap="round" stroke-linejoin="round"/>
<path d="M38.8862 111.603H34.6934V120.338H38.8862V111.603Z" fill="#647891" stroke="#647891" stroke-width="2" stroke-linecap="round" stroke-linejoin="round"/>
<path d="M46.2578 132.253V19.6919" stroke="#647891" stroke-width="2" stroke-linecap="round" stroke-linejoin="round"/>
<path d="M98.7383 18.5566V132.254" stroke="#647891" stroke-width="2" stroke-linecap="round" stroke-linejoin="round"/>
<path d="M103.316 9H40.9814V18.5563H103.316V9Z" fill="#7CC694"/>
<path d="M103.316 9H40.9814V18.5563H103.316V9Z" stroke="#647891" stroke-width="2" stroke-linecap="round" stroke-linejoin="round"/>
<path d="M84.2559 116.495V133.982" stroke="#647891" stroke-width="2" stroke-linecap="round" stroke-linejoin="round"/>
<path d="M61.0908 134V115.761" stroke="#647891" stroke-width="2" stroke-linecap="round" stroke-linejoin="round"/>
<path d="M72.6729 133.913V117.264" stroke="#647891" stroke-width="2" stroke-linecap="round" stroke-linejoin="round"/>
<path d="M89.917 56.9906H55.2559V45.3903V35.834H89.917V56.9906Z" fill="#F6BD4E" stroke="#F6BD4E" stroke-width="2" stroke-linecap="round" stroke-linejoin="round"/>
<path d="M89.917 56.9906H55.2559V45.3903V35.834H89.917V56.9906Z" stroke="#647891" stroke-width="2" stroke-linecap="round" stroke-linejoin="round"/>
<path d="M88.8164 48.832H55.2559" stroke="#647891" stroke-width="2" stroke-linecap="round" stroke-linejoin="round"/>
<path d="M66.5234 37.0923V47.4697" stroke="#647891" stroke-width="2" stroke-linecap="round" stroke-linejoin="round"/>
<path d="M78.6475 37.0923V47.4697" stroke="#647891" stroke-width="2" stroke-linecap="round" stroke-linejoin="round"/>
<path d="M89.917 89.9056H55.2559V78.3053V68.749H89.917V89.9056Z" fill="#F6BD4E" stroke="#F6BD4E" stroke-width="2" stroke-linecap="round" stroke-linejoin="round"/>
<path d="M89.917 89.9056H55.2559V78.3053V68.749H89.917V89.9056Z" stroke="#647891" stroke-width="2" stroke-linecap="round" stroke-linejoin="round"/>
<path d="M88.8164 81.7466H55.2559" stroke="#647891" stroke-width="2" stroke-linecap="round" stroke-linejoin="round"/>
<path d="M66.5234 70.0063V80.3837" stroke="#647891" stroke-width="2" stroke-linecap="round" stroke-linejoin="round"/>
<path d="M78.6475 70.0063V80.3837" stroke="#647891" stroke-width="2" stroke-linecap="round" stroke-linejoin="round"/>
<path d="M53.7178 115.429C53.7178 108.563 61.824 103.008 71.817 103.008C81.8101 103.008 89.9163 108.563 89.9163 115.429H53.7178Z" fill="#F06E61"/>
<path d="M53.7178 115.429C53.7178 108.563 61.824 103.008 71.817 103.008C81.8101 103.008 89.9163 108.563 89.9163 115.429H53.7178Z" stroke="#647891" stroke-width="2" stroke-linecap="round" stroke-linejoin="round"/>
</svg>
