<svg width="32" height="32" viewBox="0 0 32 32" fill="none" xmlns="http://www.w3.org/2000/svg">
<path fill-rule="evenodd" clip-rule="evenodd" d="M23.2 3C23.2 3.55228 23.6477 4 24.2 4H26.8571C27.4883 4 28 4.51167 28 5.14285V30H21V26.5714C21 24.0467 18.7614 22 16 22C13.2386 22 11 24.0467 11 26.5714V30H4V5.14285C4 4.51167 4.51167 4 5.14285 4H7.8C8.35229 4 8.8 3.55228 8.8 3C8.8 2.44772 9.24771 2 9.8 2H22.2C22.7523 2 23.2 2.44772 23.2 3ZM11 6.45714C11 6.20467 10.7953 6 10.5429 6H7.45714C7.20467 6 7 6.20467 7 6.45714V10.5429C7 10.7953 7.20467 11 7.45714 11H10.5429C10.7953 11 11 10.7953 11 10.5429V6.45714ZM14 6.45714C14 6.20467 14.2047 6 14.4571 6H17.5429C17.7953 6 18 6.20467 18 6.45714V10.5429C18 10.7953 17.7953 11 17.5429 11H14.4571C14.2047 11 14 10.7953 14 10.5429V6.45714ZM24.5429 6C24.7953 6 25 6.20467 25 6.45714V10.5429C25 10.7953 24.7953 11 24.5429 11H21.4571C21.2047 11 21 10.7953 21 10.5429V6.45714C21 6.20467 21.2047 6 21.4571 6H24.5429ZM25 14.4571C25 14.2047 24.7953 14 24.5429 14H21.4571C21.2047 14 21 14.2047 21 14.4571V18.5429C21 18.7953 21.2047 19 21.4571 19H24.5429C24.7953 19 25 18.7953 25 18.5429V14.4571ZM7.45714 14C7.20467 14 7 14.2047 7 14.4571V18.5429C7 18.7953 7.20467 19 7.45714 19H10.5429C10.7953 19 11 18.7953 11 18.5429V14.4571C11 14.2047 10.7953 14 10.5429 14H7.45714ZM18 14.4571C18 14.2047 17.7953 14 17.5429 14H14.4571C14.2047 14 14 14.2047 14 14.4571V18.5429C14 18.7953 14.2047 19 14.4571 19H17.5429C17.7953 19 18 18.7953 18 18.5429V14.4571Z" fill="#4A6382"/>
<path d="M14 27C14 25.8954 14.8954 25 16 25V25C17.1046 25 18 25.8954 18 27V30H14V27Z" fill="#4A6382"/>
</svg>
