<svg width="32" height="32" viewBox="0 0 32 32" fill="none" xmlns="http://www.w3.org/2000/svg">
<path fill-rule="evenodd" clip-rule="evenodd" d="M15.5939 2.18043C15.8524 2.06551 16.1476 2.06551 16.4061 2.18043L27.4061 7.06932C27.7673 7.22982 28 7.58794 28 7.98313V16.9999C28 24.9999 16 30.9999 16 30.9999C16 30.9999 4 24.9999 4 16.9999V7.98313C4 7.58794 4.23273 7.22982 4.59386 7.06932L15.5939 2.18043ZM14.2398 22.0771L23.2859 11.3078C23.4648 11.0886 23.5501 10.8078 23.5236 10.5261C23.497 10.2444 23.3607 9.98451 23.1441 9.80253C22.9275 9.62056 22.6479 9.53115 22.3659 9.55362C22.0838 9.57609 21.822 9.70865 21.6369 9.92263L13.3857 19.7435L10.3373 16.3566C10.2438 16.2477 10.1295 16.1586 10.001 16.0945C9.87259 16.0305 9.73264 15.9927 9.58941 15.9835C9.44618 15.9743 9.30255 15.9938 9.16697 16.0409C9.03139 16.088 8.90658 16.1617 8.7999 16.2577C8.69321 16.3537 8.60679 16.4701 8.54572 16.5999C8.48464 16.7298 8.45015 16.8706 8.44427 17.014C8.43838 17.1574 8.46122 17.3006 8.51144 17.435C8.56166 17.5695 8.63825 17.6925 8.73671 17.797L12.6136 22.1047C12.7146 22.2169 12.838 22.3066 12.9759 22.3681C13.1137 22.4295 13.263 22.4613 13.4139 22.4614H13.4321C13.5864 22.4589 13.7384 22.4234 13.8777 22.357C14.0171 22.2907 14.1406 22.1952 14.2398 22.0771Z" fill="#4A6382"/>
</svg>
