<svg width="144" height="144" viewBox="0 0 144 144" fill="none" xmlns="http://www.w3.org/2000/svg">
<path d="M73.1082 16.7329H7.28577C4.80446 16.7329 2.79297 18.7444 2.79297 21.2257V122.775C2.79297 125.256 4.80446 127.267 7.28577 127.267H73.1082C75.5895 127.267 77.601 125.256 77.601 122.775V21.2257C77.601 18.7444 75.5895 16.7329 73.1082 16.7329Z" stroke="#6B7D94" stroke-width="2"/>
<path d="M78.2496 51.5381H77.6016V92.4629H86.7892C87.9808 92.4629 89.1237 91.9895 89.9663 91.147C90.8089 90.3044 91.2822 89.1616 91.2822 87.9701V56.0165C91.2784 54.8274 90.8034 53.6883 89.9612 52.8489C89.119 52.0094 87.9783 51.5381 86.7892 51.5381H78.2496Z" fill="#6B7D94" stroke="#6B7D94" stroke-width="2"/>
<path d="M136.7 37.354H112.81C110.329 37.354 108.317 39.3655 108.317 41.8468V102.154C108.317 104.635 110.329 106.647 112.81 106.647H136.7C139.181 106.647 141.193 104.635 141.193 102.154V41.8468C141.193 39.3655 139.181 37.354 136.7 37.354Z" stroke="#6B7D94" stroke-width="2"/>
<path d="M40.2051 98.9995C55.1168 98.9995 67.2051 86.9112 67.2051 71.9995C67.2051 57.0878 55.1168 44.9995 40.2051 44.9995C25.2934 44.9995 13.2051 57.0878 13.2051 71.9995C13.2051 86.9112 25.2934 98.9995 40.2051 98.9995Z" stroke="#6B7D94" stroke-width="2"/>
<path d="M40.2056 59.2998C38.7699 59.2974 37.3727 59.7645 36.2272 60.6299C35.0816 61.4954 34.2505 62.7117 33.8606 64.0935C33.4707 65.4752 33.5434 66.9465 34.0675 68.2831C34.5917 69.6197 35.5386 70.7482 36.7639 71.4966L34.6182 81.5766C34.537 81.9613 34.5424 82.3592 34.634 82.7415C34.7257 83.1238 34.9013 83.4809 35.148 83.787C35.3948 84.093 35.7066 84.3403 36.0608 84.5109C36.415 84.6815 36.8027 84.7712 37.1959 84.7734H43.201C43.595 84.7739 43.9841 84.6859 44.3396 84.5161C44.6952 84.3464 45.0081 84.099 45.2554 83.7923C45.5028 83.4856 45.6782 83.1273 45.7687 82.7439C45.8593 82.3604 45.8627 81.9616 45.7787 81.5766L43.633 71.4966C44.8572 70.7489 45.8036 69.6216 46.328 68.2865C46.8525 66.9513 46.9263 65.4814 46.5382 64.1004C46.1502 62.7194 45.3215 61.5031 44.1783 60.6365C43.0352 59.7699 41.6402 59.3005 40.2056 59.2998V59.2998Z" fill="#6B7D94" stroke="#6B7D94" stroke-width="2"/>
</svg>
