<svg width="144" height="144" viewBox="0 0 144 144" fill="none" xmlns="http://www.w3.org/2000/svg">
<path d="M41.4004 51.5669C56.3926 33.0182 86.061 33.1967 100.8 52.1998" stroke="#6B7D94" stroke-width="2" stroke-linecap="round" stroke-linejoin="round"/>
<path d="M109.278 67.8346C110.715 76.3305 109.166 85.0628 104.894 92.5422C100.621 100.022 93.8911 105.785 85.8504 108.85C69.4155 115.35 49.5412 110.085 39.1092 95.606C36.113 91.4757 34.0502 86.7418 33.0641 81.7328C32.0779 76.7239 32.1919 71.56 33.3983 66.5996" stroke="#6B7D94" stroke-width="2" stroke-linecap="round" stroke-linejoin="round"/>
<path d="M72.0353 94.719L78.6741 86.747C78.9324 86.4518 79.1053 86.0782 79.1707 85.6739C79.2362 85.2696 79.1913 84.8529 79.0417 84.4769C78.8921 84.1009 78.6446 83.7828 78.3308 83.563C78.017 83.3432 77.6511 83.2317 77.2798 83.2428L65.0162 82.8048C64.6593 82.7774 64.3028 82.8628 63.9881 83.0511C63.6735 83.2394 63.4138 83.5227 63.2393 83.8681C63.0649 84.2135 62.9829 84.6066 63.003 85.0016C63.023 85.3966 63.1443 85.7771 63.3526 86.0987L68.9615 94.5087C69.1378 94.7669 69.3625 94.9798 69.6203 95.1329C69.878 95.286 70.1627 95.3756 70.4547 95.3955C70.7467 95.4155 71.0391 95.3654 71.312 95.2486C71.5848 95.1318 71.8316 94.9511 72.0353 94.719V94.719Z" fill="#6B7D94"/>
<path d="M52.2585 90C52.1206 91.2991 52.2279 92.6149 52.5741 93.8681C52.9203 95.1214 53.4981 96.2863 54.273 97.2928C55.0478 98.2993 56.0036 99.1267 57.0828 99.725C58.1621 100.323 59.3425 100.68 60.5531 100.775C61.7638 100.869 62.9796 100.699 64.1275 100.274C65.2754 99.8488 66.3317 99.1782 67.2329 98.3022C68.1341 97.4263 68.8615 96.363 69.3714 95.1764C69.8814 93.9898 70.1633 92.7044 70.2002 91.3974" stroke="#6B7D94" stroke-width="2" stroke-linecap="round" stroke-linejoin="round"/>
<path d="M88.123 90C88.2833 91.2906 88.1934 92.6023 87.8587 93.8546C87.524 95.107 86.9516 96.2735 86.1767 97.2826C85.4018 98.2917 84.4407 99.122 83.3524 99.7226C82.2642 100.323 81.0717 100.681 79.8483 100.775C78.6248 100.869 77.3963 100.696 76.238 100.268C75.0796 99.8396 74.0161 99.1645 73.1126 98.2841C72.209 97.4037 71.4846 96.3366 70.9838 95.1483C70.483 93.96 70.2163 92.6756 70.2002 91.374" stroke="#6B7D94" stroke-width="2" stroke-linecap="round" stroke-linejoin="round"/>
<path d="M48.5996 70.1232C49.3779 68.8811 50.4097 67.9085 51.5924 67.302C52.775 66.6955 54.0675 66.4762 55.3414 66.6659C56.6153 66.8556 57.8262 67.4477 58.8539 68.3834C59.8816 69.319 60.6903 70.5657 61.1996 71.9996" stroke="#6B7D94" stroke-width="2" stroke-linecap="round" stroke-linejoin="round"/>
<path d="M81 72.0004C81.6333 70.9189 82.5435 70.0181 83.6409 69.3868C84.7383 68.7555 85.9848 68.4157 87.2573 68.4009C88.5297 68.3861 89.7841 68.6968 90.8965 69.3024C92.0089 69.908 92.9407 70.7874 93.6 71.8538" stroke="#6B7D94" stroke-width="2" stroke-linecap="round" stroke-linejoin="round"/>
<path d="M88.2002 41.033C92.1547 36.6356 98.5908 32.8289 103.986 32.5008C113 31.9265 122.574 33.5837 122.398 43.5927C120.797 58.5077 110.198 67.2369 107.108 66.5641C98.3186 65.7273 104.354 46.4313 99.2952 37.6037" stroke="#6B7D94" stroke-width="2" stroke-linecap="round" stroke-linejoin="round"/>
<path d="M53.9998 41.033C50.0471 36.6356 43.614 32.8289 38.205 32.5008C29.2114 31.9265 19.6418 33.5837 19.8018 43.5927C21.4021 58.5077 32.0119 67.2369 35.1005 66.5641C43.886 65.7273 37.853 46.4313 42.8939 37.6037" stroke="#6B7D94" stroke-width="2" stroke-linecap="round" stroke-linejoin="round"/>
</svg>
