<svg width="32" height="32" viewBox="0 0 32 32" fill="none" xmlns="http://www.w3.org/2000/svg">
<path fill-rule="evenodd" clip-rule="evenodd" d="M13.5586 31.8812C14.993 30.4808 18.4463 27.3274 21.463 26.2696C24.3387 25.2612 28.9133 25.4222 30.3186 25.5007C30.5504 25.5136 30.747 25.3347 30.7465 25.1026C30.7444 24.0573 30.6734 21.3498 30.025 19.9948L30.0256 19.9916L30.0247 19.9854L24.6643 8.82635C24.6427 8.78157 24.6298 8.73473 24.6252 8.68527C24.5785 8.18213 24.269 5.21065 23.3391 3.52984C22.6047 2.20226 20.9782 0.766937 20.1543 0.0892803C19.9248 -0.099457 19.5857 0.027144 19.5253 0.31807L18.4592 5.4571C18.4257 5.6183 18.3007 5.74274 18.139 5.77354C17.0995 5.97151 13.3153 6.71429 12.4991 7.18706C12.0279 7.46002 11.5784 8.21022 11.1341 8.95175C10.6841 9.70273 10.2395 10.4448 9.78302 10.6733C8.96218 11.0842 2.69812 13.889 1.51311 14.4192C1.3917 14.4735 1.30499 14.5835 1.28757 14.7154C1.26613 14.8776 1.24462 15.1026 1.26021 15.2729C1.28934 15.5912 1.34374 15.7721 1.47943 16.0615C1.64726 16.4195 1.80286 16.597 2.08871 16.8701C2.2321 17.0071 2.44724 17.1558 2.60716 17.2591C2.73627 17.3425 2.90161 17.3377 3.03003 17.2533L3.31552 17.0655C3.33465 17.053 3.35267 17.0388 3.36941 17.0232L3.68876 16.7249L3.89213 16.5704C4.1267 16.3921 4.4446 16.5189 4.5696 16.6707C4.58396 16.6881 4.59584 16.7062 4.60563 16.7246C4.70022 16.9018 4.66529 17.1418 4.5635 17.3151C4.54222 17.3513 4.51818 17.3849 4.49387 17.4141C4.37955 17.5511 4.22347 17.7524 4.13843 17.9237L4.0952 18.0097C3.97408 18.2495 3.88601 18.4239 3.90529 18.7105C3.93152 19.1005 3.95295 19.1175 4.28179 19.378C4.39583 19.4684 4.54685 19.588 4.74786 19.7627C5.62409 20.5241 6.26032 20.8326 7.37711 21.1492C8.41534 21.4436 9.05541 21.4179 10.1287 21.3749L10.1473 21.3741C10.2999 21.368 10.4438 21.3639 10.5813 21.36C11.3715 21.3373 11.9507 21.3207 12.7538 20.967C12.859 20.9206 12.9665 20.8641 13.0743 20.8002C13.4637 20.5695 14.1501 21.034 14.0062 21.4631C13.9796 21.5422 13.9545 21.6191 13.931 21.693C12.9384 24.8239 12.8507 29.5793 12.8628 31.6008C12.865 31.96 13.3015 32.1321 13.5586 31.8812ZM15.0249 11.2522C14.3154 11.3196 13.0601 11.03 12.9926 10.3205C12.9252 9.61107 13.4457 8.98127 14.1551 8.91382C14.8646 8.84636 15.645 9.23805 15.7124 9.9475C15.7252 10.0819 15.7571 10.2466 15.766 10.3205C15.8225 10.7921 15.6383 11.1939 15.0249 11.2522Z" fill="#4A6382"/>
</svg>
