<svg width="32" height="32" viewBox="0 0 32 32" fill="none" xmlns="http://www.w3.org/2000/svg">
<path d="M4.22088 10.1151L6.84923 12.6183C6.88182 12.6494 6.9251 12.6667 6.97011 12.6667H16.5941C16.6592 12.6667 16.719 12.6305 16.7492 12.5729L20.1799 6.03826C20.1931 6.01313 20.2 5.98675 20.2 5.95836V2.17451C20.2 2.07771 20.2788 1.99937 20.3753 2.0062C22.1492 2.13159 23.3895 4.12308 23.6494 4.57566C23.6818 4.63215 23.7408 4.66667 23.8059 4.66667H25.7299C25.7749 4.66667 25.8182 4.68398 25.8508 4.71502L27.1492 5.95165C27.1818 5.98269 27.2251 6 27.2701 6H29.8247C29.9215 6 30 6.07847 30 6.17527V8.57986C30 8.63456 29.9745 8.68612 29.931 8.71928L26.5471 11.2975C26.5165 11.3207 26.4792 11.3333 26.4408 11.3333H24.5753C24.4785 11.3333 24.4 11.4118 24.4 11.5086V18.6161C24.4 18.6491 24.3906 18.6815 24.373 18.7095L22.3405 21.9356C22.3147 21.9767 22.307 22.0266 22.3193 22.0736L24.3423 29.7802C24.3715 29.8913 24.2877 30 24.1728 30H21.7146C21.645 30 21.582 29.9588 21.5541 29.895L18.1459 22.105C18.118 22.0412 18.055 22 17.9854 22H8.38507C8.33135 22 8.2806 22.0246 8.24737 22.0668L6.22257 24.638C6.20768 24.6569 6.19685 24.6787 6.19074 24.7019L4.83433 29.8692C4.8141 29.9463 4.74446 30 4.6648 30H2.20861C2.09973 30 2.01719 29.9018 2.03596 29.7945L3.39328 22.0384C3.39771 22.0131 3.40763 21.9891 3.42234 21.9681L4.76832 20.0453C4.78894 20.0158 4.8 19.9807 4.8 19.9447V14.7418C4.8 14.6938 4.78034 14.6479 4.7456 14.6149L2.13327 12.1269C2.06074 12.0578 2.06074 11.9422 2.13327 11.8731L3.97912 10.1151C4.04681 10.0507 4.15319 10.0507 4.22088 10.1151Z" fill="#4A6382"/>
<path d="M9.92722 24.6667H13.0648C13.1445 24.6667 13.2141 24.7204 13.2343 24.7974L14.5423 29.7802C14.5715 29.8913 14.4877 30 14.3728 30H11.2352C11.1555 30 11.0859 29.9463 11.0657 29.8692L9.75769 24.8864C9.72852 24.7753 9.81234 24.6667 9.92722 24.6667Z" fill="#4A6382"/>
</svg>
