<svg width="32" height="32" viewBox="0 0 32 32" fill="none" xmlns="http://www.w3.org/2000/svg">
<g clip-path="url(#clip0_50265_89918)">
<path fill-rule="evenodd" clip-rule="evenodd" d="M15.9221 15.1463C15.6294 14.678 15.7719 14.061 16.2402 13.7684L17.9363 12.7085C18.4047 12.4159 19.0216 12.5583 19.3143 13.0267L19.8442 13.8747L20.4574 13.4916C20.6111 13.3955 20.788 13.3431 20.9692 13.3398L25.9562 13.2496C26.3074 13.2432 26.6362 13.4216 26.8223 13.7195L27.5821 14.9354C27.8748 15.4038 27.7323 16.0207 27.264 16.3134L17.0874 22.6724C16.619 22.9651 16.0021 22.8227 15.7094 22.3543L13.5898 18.9621C13.2971 18.4937 13.4395 17.8768 13.9079 17.5841L16.452 15.9944L15.9221 15.1463ZM24.0836 20.6591L20.6914 22.7788L24.4008 28.7151C24.9862 29.6518 26.22 29.9367 27.1568 29.3514C28.0935 28.766 28.3783 27.5322 27.793 26.5954L24.0836 20.6591Z" fill="#4A6382"/>
<path d="M16.6703 2.39059L29.6265 11.1251C30.3384 11.6136 29.8989 13.3882 29.0099 13.4487L28.5165 12.6592C27.9581 11.7655 26.9717 11.2304 25.9181 11.2494L20.9312 11.3396C20.7946 11.3421 20.6589 11.3539 20.5249 11.3747C19.5566 10.4588 18.0576 10.2727 16.8746 11.012L15.1785 12.0718C14.0708 12.764 13.5708 14.0608 13.839 15.2672L12.8462 15.8876C11.4411 16.7656 11.0138 18.6164 11.8918 20.0215L14.0115 23.4137C14.8895 24.8188 16.7403 25.2461 18.1454 24.3681L18.9934 23.8382L22.7028 29.7745C22.765 29.8739 22.8308 29.9697 22.8999 30.0617H4.23113C4.09306 30.0617 3.98113 29.9498 3.98113 29.8117V13.7003C3.98113 13.5622 3.8692 13.4503 3.73113 13.4503H3.01484C2.09467 13.4503 1.6692 11.5695 2.35148 11.1251L15.3077 2.39059C15.3196 2.38254 15.3308 2.37336 15.3414 2.3636C15.7146 2.01942 16.2634 2.01942 16.6365 2.3636C16.6471 2.37336 16.6583 2.38254 16.6703 2.39059Z" fill="#4A6382"/>
<path d="M27.9981 23.1521V18.2114L25.7778 19.5988L27.9981 23.1521Z" fill="#4A6382"/>
</g>
<defs>
<clipPath id="clip0_50265_89918">
<rect width="32" height="32" fill="white"/>
</clipPath>
</defs>
</svg>
