<svg width="144" height="144" viewBox="0 0 144 144" fill="none" xmlns="http://www.w3.org/2000/svg">
<path d="M12.8594 66.3557L44.1362 37.7861L61.2578 49.6949M80.2802 51.4517H96.1202V42.9413H110.016V51.4517H124.416L131.242 69.9269H102.888" stroke="#6B7D94" stroke-width="2" stroke-linecap="round" stroke-linejoin="round"/>
<path d="M16.1709 65.1172V105.005C16.1709 106.022 16.3714 107.029 16.7609 107.968C17.1504 108.907 17.7213 109.76 18.4409 110.478C19.1605 111.196 20.0146 111.766 20.9545 112.154C21.8943 112.541 22.9014 112.74 23.9181 112.738H44.7549M123.422 70.2724V104.026C123.422 105.171 123.196 106.305 122.758 107.363C122.319 108.421 121.676 109.382 120.865 110.191C120.055 111.001 119.093 111.642 118.034 112.079C116.975 112.516 115.841 112.74 114.696 112.738H95.7597" stroke="#6B7D94" stroke-width="2" stroke-linecap="round" stroke-linejoin="round"/>
<path d="M73.9436 105.798C73.781 104.736 73.3004 103.748 72.5652 102.965C71.8299 102.182 70.8746 101.64 69.8251 101.41C68.7756 101.181 67.6812 101.275 66.6864 101.681C65.6915 102.086 64.8429 102.783 64.2524 103.681C63.7052 104.502 63.1436 105.423 62.582 106.431C57.4412 115.806 50.27 119.924 43.6892 114.466C29.7068 106.302 36.2732 66.0104 45.3308 57.9032C45.4248 57.8174 45.5415 57.7605 45.6669 57.7393C45.7924 57.7181 45.9213 57.7335 46.0383 57.7836C46.1552 57.8337 46.2553 57.9165 46.3264 58.0219C46.3976 58.1274 46.4369 58.2512 46.4396 58.3784C46.6988 62.3672 47.9948 74.7368 51.8684 76.0472C53.0696 76.5064 54.3615 76.679 55.6412 76.5512C70.9772 74.7512 44.6396 42.4808 76.7804 25.9208C76.9091 25.8484 77.0579 25.8202 77.2042 25.8403C77.3505 25.8604 77.4861 25.9278 77.5906 26.0322C77.695 26.1366 77.7624 26.2723 77.7825 26.4186C77.8026 26.5648 77.7743 26.7137 77.702 26.8424C69.278 43.028 88.574 51.5096 90.3596 67.6808C90.8636 73.4408 87.9404 83.0744 93.3548 79.6616C98.7692 76.2488 99.2588 66.8312 97.3724 61.2296C95.486 55.628 105.019 68.1416 107.697 80.5544C116.755 114.178 77.342 131.559 73.9436 105.798Z" fill="#F06E61"/>
</svg>
