<svg width="32" height="32" viewBox="0 0 32 32" fill="none" xmlns="http://www.w3.org/2000/svg">
<path fill-rule="evenodd" clip-rule="evenodd" d="M16.6985 2.30275L29.7305 11.0884C30.4603 11.5891 29.9893 13.4313 29.0621 13.4313H28.6612C28.3456 13.4313 28.0897 13.6871 28.0897 14.0027V27.3846V29.4285C28.0897 29.7443 27.8337 30.0002 27.518 30L19.1683 29.9946L17.7755 24.303L15.1493 21.8763L17.4548 15.6001L14.2266 10.9389V15.6001L9.61053 21.3372L11.9731 26.173L9.85844 29.9887L4.46073 29.9853C4.14528 29.9851 3.88966 29.7293 3.88966 29.4138V27.3537V14.0027C3.88966 13.6871 3.63383 13.4313 3.31824 13.4313H2.91602C1.98883 13.4313 1.56011 11.5362 2.2476 11.0884L15.2796 2.30275C15.3069 2.28435 15.3323 2.26334 15.3571 2.24168C15.7256 1.91944 16.2525 1.91944 16.621 2.24168C16.6458 2.26334 16.6712 2.28435 16.6985 2.30275Z" fill="#4A6382"/>
</svg>
