<svg width="33" height="32" viewBox="0 0 33 32" fill="none" xmlns="http://www.w3.org/2000/svg">
<path d="M16.5 2.5C23.953 2.5 30 8.54698 30 16C30 23.453 23.953 29.5 16.5 29.5C9.04698 29.5 3 23.453 3 16C3 8.54698 9.04698 2.5 16.5 2.5Z" stroke="#4A6382" stroke-miterlimit="10"/>
<path d="M15.501 8.46895L16.5009 18L17.499 8.46895C17.5051 8.40802 17.4835 8.34717 17.4355 8.29011C17.3875 8.23305 17.314 8.18098 17.2196 8.13709C17.1252 8.09321 17.0119 8.05841 16.8865 8.03484C16.7611 8.01128 16.6264 7.99943 16.4904 8.00002C16.3561 8.00059 16.2234 8.01329 16.1003 8.03738C15.9771 8.06146 15.8661 8.09643 15.7738 8.1402C15.6814 8.18397 15.6097 8.23564 15.5628 8.29212C15.5159 8.34861 15.4949 8.40875 15.501 8.46895Z" fill="#4A6382" stroke="#4A6382" stroke-linecap="round" stroke-linejoin="round"/>
<path d="M16.5 25C16.1044 25 15.7178 24.8827 15.3889 24.6629C15.06 24.4432 14.8036 24.1308 14.6522 23.7654C14.5009 23.3999 14.4613 22.9978 14.5384 22.6098C14.6156 22.2219 14.8061 21.8655 15.0858 21.5858C15.3655 21.3061 15.7219 21.1156 16.1098 21.0384C16.4978 20.9613 16.8999 21.0009 17.2654 21.1522C17.6308 21.3036 17.9432 21.56 18.1629 21.8889C18.3827 22.2178 18.5 22.6044 18.5 23C18.5 23.5304 18.2893 24.0391 17.9142 24.4142C17.5391 24.7893 17.0304 25 16.5 25Z" fill="#4A6382"/>
</svg>
