<svg width="144" height="144" viewBox="0 0 144 144" fill="none" xmlns="http://www.w3.org/2000/svg">
<path d="M112.133 58.4213L122.933 47.2607" stroke="#6B7D94" stroke-width="2" stroke-linecap="round" stroke-linejoin="round"/>
<path d="M106.746 55.4982L109.41 40.3774" stroke="#6B7D94" stroke-width="2" stroke-linecap="round" stroke-linejoin="round"/>
<path d="M32.4577 105.854C32.3716 105.314 32.1243 104.811 31.7483 104.413C31.3722 104.015 30.8847 103.74 30.3496 103.623C29.8145 103.506 29.2567 103.554 28.749 103.759C28.2413 103.965 27.8074 104.318 27.5041 104.774C27.2161 105.192 26.9425 105.667 26.6545 106.214C24.0193 111.01 20.3617 113.112 16.992 110.318C9.79205 106.142 13.1904 85.536 17.8272 81.3888C17.8764 81.3492 17.9355 81.3238 17.9981 81.3154C18.0606 81.307 18.1243 81.3159 18.1822 81.3411C18.2401 81.3663 18.2899 81.4069 18.3264 81.4585C18.3628 81.5101 18.3844 81.5706 18.3889 81.6336C18.5185 83.6784 19.1808 90 21.168 90.6768C21.7829 90.9097 22.4441 90.9936 23.0977 90.9216C30.9457 90 17.4384 73.4976 33.912 65.0016C33.978 64.9674 34.0532 64.9554 34.1266 64.9674C34.1999 64.9793 34.2674 65.0146 34.3191 65.0679C34.3708 65.1212 34.404 65.1898 34.4137 65.2635C34.4233 65.3371 34.409 65.4119 34.3729 65.4768C30.0529 73.7568 39.9457 78.0912 40.8529 86.328C41.1121 89.208 39.6145 94.2048 42.3793 92.4624C45.1441 90.72 45.4033 85.896 44.4385 83.0448C43.4737 80.1936 48.3552 86.5728 49.7232 92.9088C54.36 110.146 34.2001 119.03 32.4577 105.854Z" fill="#F06E61"/>
<path d="M7.19909 141.596C6.61633 141.615 6.03558 141.518 5.49072 141.31C4.94586 141.103 4.44779 140.788 4.02557 140.386C3.60334 139.984 3.26541 139.502 3.03149 138.968C2.79756 138.434 2.67233 137.859 2.66309 137.276V43.5316C2.66309 28.2964 15.4791 15.9556 31.2903 15.9556C47.1303 15.9556 59.9319 28.2964 59.9319 43.5316V137.348C59.9226 137.931 59.7974 138.506 59.5635 139.04C59.3296 139.574 58.9916 140.056 58.5694 140.458C58.1472 140.86 57.6491 141.175 57.1042 141.382C56.5594 141.59 55.9786 141.687 55.3959 141.668L7.19909 141.596Z" stroke="#6B7D94" stroke-width="2"/>
<path d="M36.001 6.68228C50.401 5.40068 62.2954 16.1431 67.0762 28.0663C71.8426 38.1463 69.697 60.9847 70.6474 80.5687C70.8346 89.1367 75.1978 91.2823 78.9994 92.2039C87.7402 93.9751 94.5082 85.3495 97.417 78.9703" stroke="#6B7D94" stroke-width="2" stroke-linecap="round" stroke-linejoin="round"/>
<path d="M1.68457 60.8535L59.3422 60.9687" stroke="#6B7D94" stroke-width="2"/>
<path d="M1.68457 115.732L59.3422 115.862" stroke="#6B7D94" stroke-width="2"/>
<path d="M31.4646 15.8119L31.335 9.56201" stroke="#6B7D94" stroke-width="2"/>
<path d="M31.5945 10.1675C33.7339 10.1675 35.4683 8.43315 35.4683 6.29371C35.4683 4.15428 33.7339 2.41992 31.5945 2.41992C29.4551 2.41992 27.7207 4.15428 27.7207 6.29371C27.7207 8.43315 29.4551 10.1675 31.5945 10.1675Z" stroke="#6B7D94" stroke-width="2"/>
<path d="M16.6035 3.7583L27.4904 6.48003L16.8051 9.56178" stroke="#6B7D94" stroke-width="2" stroke-linecap="round" stroke-linejoin="round"/>
<path d="M98.6545 60.6674L96.3647 75.8025C96.2947 76.2928 96.3795 76.7927 96.6075 77.2324C96.8354 77.6721 97.195 78.0296 97.6361 78.2548C98.0771 78.4801 98.5775 78.562 99.0674 78.4889C99.5572 78.4159 100.012 78.1916 100.368 77.8474L111.601 66.9461C111.874 66.678 112.079 66.3478 112.197 65.9837C112.315 65.6195 112.344 65.2321 112.28 64.8545C112.217 64.4769 112.063 64.1202 111.832 63.8149C111.6 63.5097 111.299 63.2648 110.953 63.1011L102.01 58.8673C101.675 58.7109 101.308 58.6347 100.938 58.645C100.569 58.6552 100.207 58.7515 99.8809 58.9263C99.5551 59.1011 99.2746 59.3495 99.0617 59.6518C98.8488 59.954 98.7093 60.3018 98.6545 60.6674V60.6674Z" fill="#6B7D94" stroke="#6B7D94" stroke-width="2" stroke-linecap="round" stroke-linejoin="round"/>
<path d="M134.107 44.6396C134.992 45.9423 135.503 47.4618 135.587 49.0341C135.67 50.6063 135.323 52.1715 134.582 53.5606C133.84 54.9497 132.734 56.1098 131.381 56.9157C130.028 57.7216 128.481 58.1425 126.907 58.1331C126.173 58.1333 125.441 58.0364 124.732 57.8451" stroke="#6B7D94" stroke-width="2" stroke-linecap="round" stroke-linejoin="round"/>
<path d="M118.281 33.8262C118.281 31.5477 118.957 29.3204 120.223 27.426C121.489 25.5315 123.288 24.055 125.393 23.1831C127.498 22.3111 129.814 22.083 132.049 22.5275C134.283 22.972 136.336 24.0692 137.947 25.6803C139.558 27.2914 140.655 29.3441 141.1 31.5787C141.544 33.8134 141.316 36.1297 140.444 38.2347C139.572 40.3397 138.096 42.1389 136.201 43.4047C134.307 44.6705 132.08 45.3462 129.801 45.3462" stroke="#6B7D94" stroke-width="2" stroke-linecap="round" stroke-linejoin="round"/>
<path d="M101.203 34.5606C101.053 33.8309 100.976 33.088 100.973 32.3429C100.975 29.9839 101.734 27.6879 103.138 25.7919C104.542 23.8959 106.516 22.4999 108.772 21.8088C111.027 21.1176 113.445 21.1677 115.67 21.9518C117.895 22.7358 119.81 24.2125 121.134 26.165" stroke="#6B7D94" stroke-width="2" stroke-linecap="round" stroke-linejoin="round"/>
<path d="M99.1011 48.6296C97.4958 47.8251 96.2576 46.439 95.6386 44.7536C95.0196 43.0681 95.0664 41.2101 95.7695 39.5579C96.4726 37.9058 97.7791 36.5838 99.4228 35.8612C101.067 35.1387 102.924 35.0699 104.617 35.6689" stroke="#6B7D94" stroke-width="2" stroke-linecap="round" stroke-linejoin="round"/>
</svg>
