<svg width="144" height="144" viewBox="0 0 144 144" fill="none" xmlns="http://www.w3.org/2000/svg">
<path d="M43.5893 104.803C44.3983 97.1197 44.5043 89.3788 43.9061 81.6764C43.0853 70.3724 40.2485 61.0988 43.6757 48.11C46.8437 36.1292 58.0757 21.2828 79.9205 21.902C103.162 22.5644 116.856 41.27 116.986 57.7004C117.072 69.566 113.084 90.3308 114.106 104.616" stroke="#6B7D94" stroke-width="2" stroke-linecap="round" stroke-linejoin="round"/>
<path d="M89.0351 31.6797C93.1193 34.3707 96.5249 37.9707 98.9852 42.1979C101.446 46.425 102.894 51.1644 103.216 56.0448C103.539 60.9251 102.727 65.8139 100.844 70.328C98.9615 74.8422 96.0592 78.8591 92.3647 82.0641C88.6701 85.2691 84.2837 87.5752 79.5489 88.8016C74.8142 90.028 69.8598 90.1415 65.0739 89.1332C60.2879 88.1249 55.8005 86.0221 51.9631 82.9896C48.1256 79.9571 45.0424 76.0773 42.9551 71.6541" stroke="#6B7D94" stroke-width="2" stroke-linecap="round" stroke-linejoin="round"/>
<path d="M58.8245 87.7388C58.2916 93.4991 54.4035 99.1153 50.04 102.658" stroke="#6B7D94" stroke-width="2" stroke-linecap="round" stroke-linejoin="round"/>
<path d="M84.1963 88.6177C84.8531 94.0685 87.3231 99.1403 91.2094 103.018" stroke="#6B7D94" stroke-width="2" stroke-linecap="round" stroke-linejoin="round"/>
<path d="M80.7118 73.4404C77.6156 77.1414 68.0536 78.5239 63.6182 73.4404" stroke="#6B7D94" stroke-width="2" stroke-linecap="round" stroke-linejoin="round"/>
<path d="M35.0643 111.413C35.0643 111.413 37.9443 99.8929 36.5907 80.7985C35.7699 69.4945 32.9331 60.2065 36.3603 47.2321C39.5283 35.2513 50.7603 20.4049 72.6051 21.0241C95.8467 21.6865 109.541 40.3921 109.671 56.8225C109.771 71.4097 103.709 99.5185 108.317 112.392" stroke="#6B7D94" stroke-width="2" stroke-linecap="round" stroke-linejoin="round"/>
<path d="M89.0055 31.9966C78.8247 49.1182 55.8135 60.7966 30.6855 55.0366" stroke="#6B7D94" stroke-width="2" stroke-linecap="round" stroke-linejoin="round"/>
<path d="M50.76 101.635C54.8784 104.026 68.904 110.275 90.7056 101.635C91.4687 101.333 92.3184 101.333 93.0816 101.635C97.0128 103.19 109.555 108.835 115.862 119.65C116.142 120.146 116.286 120.707 116.278 121.276C116.271 121.846 116.113 122.403 115.82 122.891C115.528 123.38 115.111 123.782 114.613 124.058C114.114 124.333 113.552 124.472 112.982 124.459L28.8 124.358C28.2485 124.356 27.7068 124.212 27.2261 123.942C26.7455 123.671 26.3419 123.283 26.0535 122.813C25.7651 122.343 25.6015 121.807 25.5781 121.256C25.5547 120.705 25.6724 120.157 25.92 119.664C28.4688 114.754 34.4304 107.021 47.9376 101.448C48.3911 101.262 48.8813 101.182 49.3705 101.214C49.8597 101.247 50.3351 101.391 50.76 101.635Z" fill="#F06E61"/>
</svg>
