<svg width="144" height="144" viewBox="0 0 144 144" fill="none" xmlns="http://www.w3.org/2000/svg">
<path d="M72 12.7583C70.0461 12.7583 68.1361 13.3377 66.5116 14.4232C64.887 15.5087 63.6208 17.0516 62.8731 18.8567C62.1254 20.6618 61.9297 22.6481 62.3109 24.5645C62.6921 26.4808 63.633 28.241 65.0146 29.6226C66.3961 31.0042 68.1564 31.9451 70.0727 32.3262C71.989 32.7074 73.9753 32.5118 75.7805 31.7641C77.5856 31.0164 79.1285 29.7502 80.214 28.1256C81.2995 26.501 81.8789 24.591 81.8789 22.6372C81.8789 20.0171 80.8381 17.5044 78.9854 15.6518C77.1328 13.7991 74.62 12.7583 72 12.7583V12.7583Z" fill="#F06E61"/>
<path d="M131.559 8.4668H12.4426C10.6373 8.4668 9.17383 9.93029 9.17383 11.7356V34.5164C9.17383 36.3217 10.6373 37.7852 12.4426 37.7852H131.559C133.365 37.7852 134.828 36.3217 134.828 34.5164V11.7356C134.828 9.93029 133.365 8.4668 131.559 8.4668Z" stroke="#6B7D94" stroke-width="2" stroke-linecap="round"/>
<path d="M22.2484 60.48H121.738C122.649 60.4781 123.551 60.6559 124.393 61.0031C125.235 61.3504 126 61.8603 126.645 62.5037C127.29 63.1471 127.801 63.9113 128.15 64.7527C128.499 65.594 128.679 66.4959 128.679 67.4067C128.679 69.2476 127.948 71.0131 126.646 72.3149C125.344 73.6166 123.579 74.3479 121.738 74.3479H22.2484C20.4076 74.3479 18.6422 73.6166 17.3405 72.3149C16.0389 71.0131 15.3076 69.2476 15.3076 67.4067V67.4067C15.3076 66.4959 15.4872 65.594 15.8362 64.7527C16.1852 63.9113 16.6967 63.1471 17.3414 62.5037C17.9861 61.8603 18.7514 61.3504 19.5934 61.0031C20.4354 60.6559 21.3376 60.4781 22.2484 60.48Z" stroke="#6B7D94" stroke-width="2" stroke-linecap="round"/>
<path d="M23.3145 74.4331V80.1931C23.3145 92.3755 45.1016 102.24 72.0008 102.24C98.9 102.24 120.673 92.3755 120.673 80.1931V74.4331" stroke="#6B7D94" stroke-width="2" stroke-linecap="round"/>
<path d="M17.2803 37.9863L21.3125 59.8311" stroke="#6B7D94" stroke-width="2" stroke-linecap="round"/>
<path d="M126.721 37.9863L122.688 59.8311" stroke="#6B7D94" stroke-width="2" stroke-linecap="round"/>
<path d="M29.9092 37.7715L32.9621 59.8323" stroke="#6B7D94" stroke-width="2" stroke-linecap="round"/>
<path d="M114.351 37.7715L111.298 59.8323" stroke="#6B7D94" stroke-width="2" stroke-linecap="round"/>
<path d="M42.1494 37.8721L44.2519 59.8321" stroke="#6B7D94" stroke-width="2" stroke-linecap="round"/>
<path d="M102.241 37.8721L100.182 59.8321" stroke="#6B7D94" stroke-width="2" stroke-linecap="round"/>
<path d="M54.2031 37.7998L55.5424 59.8318" stroke="#6B7D94" stroke-width="2" stroke-linecap="round"/>
<path d="M90.2309 37.7998L88.8916 59.8318" stroke="#6B7D94" stroke-width="2" stroke-linecap="round"/>
<path d="M66.0244 37.915L66.5572 59.8318" stroke="#6B7D94" stroke-width="2" stroke-linecap="round"/>
<path d="M78.236 37.915L77.7607 59.8318" stroke="#6B7D94" stroke-width="2" stroke-linecap="round"/>
<path d="M72.001 111.254V135.533" stroke="#F6BD4E" stroke-width="2" stroke-linecap="round"/>
<path d="M43.3015 107.424L30.3408 129.888" stroke="#F6BD4E" stroke-width="2" stroke-linecap="round"/>
<path d="M21.3572 97.0273L2.78027 107.914" stroke="#F6BD4E" stroke-width="2" stroke-linecap="round"/>
<path d="M122.646 97.0273L141.208 107.914" stroke="#F6BD4E" stroke-width="2" stroke-linecap="round"/>
<path d="M100.686 107.424L113.646 129.888" stroke="#F6BD4E" stroke-width="2" stroke-linecap="round"/>
</svg>
