<svg width="32" height="32" viewBox="0 0 32 32" fill="none" xmlns="http://www.w3.org/2000/svg">
<path d="M10.5987 25.5293C10.9367 25.8635 12.4211 25.5109 12.2942 25.1011C11.9991 24.3572 11.3999 23.6314 11.3999 22.8133C11.3999 21.1863 12.1176 20.7654 13.0028 19.7921C14.3842 18.2735 15.6637 16.4522 15.3803 14.9336C15.3375 14.7098 15.7874 14.9655 15.9556 15.1137C17.9815 16.6757 17.8584 20.0885 17.7345 21.8283C17.7345 21.8283 17.5818 22.8133 18.0941 22.8133C18.4295 22.7221 18.8917 22.1578 19.5859 19.2795C19.5859 19.0557 19.9238 18.9816 20.0508 19.1676C21.1058 20.5814 21.1058 22.2801 21.1058 22.8133C21.1058 24.0645 20.4838 24.6631 20.1871 25.407C20.0189 25.8168 21.1058 25.8996 21.442 25.5654C23.8059 23.2216 26 20.0597 26 16.6378C26 15.6701 26 12.658 23.5109 10.3141C23.2999 10.1281 22.962 10.24 23.0048 10.5001C23.0477 12.5082 21.0218 14.108 21.0218 14.108C21.2757 10.1643 18.8689 3.61848 14.6079 1.27462C14.354 1.1264 14.0589 1.34872 14.1859 1.60882C15.7469 5.77466 6 9.71843 6 16.6362C6.04121 20.0611 8.27794 23.1869 10.5987 25.5293Z" fill="#4A6382"/>
<rect x="4.36621" y="26.7744" width="23.0717" height="3.42857" rx="0.5" transform="rotate(-11.3877 4.36621 26.7744)" fill="#4A6382"/>
<rect width="23.0717" height="3.42857" rx="0.5" transform="matrix(-0.980313 -0.197447 -0.197447 0.980313 27.6338 26.7744)" fill="#4A6382"/>
</svg>
