<svg width="144" height="144" viewBox="0 0 144 144" fill="none" xmlns="http://www.w3.org/2000/svg">
<path d="M131.557 25.1138H12.4407C10.6354 25.1138 9.17188 26.5773 9.17188 28.3826V51.1634C9.17188 52.9687 10.6354 54.4322 12.4407 54.4322H131.557C133.363 54.4322 134.826 52.9687 134.826 51.1634V28.3826C134.826 26.5773 133.363 25.1138 131.557 25.1138Z" stroke="#6B7D94" stroke-width="2"/>
<path d="M22.2477 77.1265H121.752C122.663 77.1265 123.564 77.3061 124.406 77.6551C125.247 78.0041 126.011 78.5156 126.655 79.1603C127.298 79.8051 127.808 80.5704 128.155 81.4124C128.502 82.2545 128.68 83.1568 128.678 84.0676V84.0676C128.678 84.9772 128.499 85.878 128.151 86.7183C127.803 87.5587 127.293 88.3223 126.649 88.9655C126.006 89.6088 125.243 90.119 124.402 90.4671C123.562 90.8152 122.661 90.9943 121.752 90.9943H22.2477C20.4107 90.9943 18.649 90.2646 17.35 88.9655C16.051 87.6665 15.3213 85.9047 15.3213 84.0676V84.0676C15.3194 83.1568 15.4972 82.2545 15.8444 81.4124C16.1916 80.5704 16.7015 79.8051 17.3449 79.1603C17.9883 78.5156 18.7525 78.0041 19.5938 77.6551C20.435 77.3061 21.3369 77.1265 22.2477 77.1265V77.1265Z" stroke="#6B7D94" stroke-width="2"/>
<path d="M120.672 90.98V96.8264C120.672 109.023 98.8847 118.887 71.9999 118.887C45.1151 118.887 23.3135 109.023 23.3135 96.8264V90.98" stroke="#6B7D94" stroke-width="2" stroke-linecap="round"/>
<path d="M72.001 29.8936C70.0471 29.8936 68.1371 30.4729 66.5125 31.5584C64.888 32.644 63.6218 34.1868 62.8741 35.992C62.1264 37.7971 61.9307 39.7834 62.3119 41.6997C62.6931 43.616 63.6339 45.3763 65.0155 46.7579C66.3971 48.1395 68.1574 49.0803 70.0737 49.4615C71.99 49.8427 73.9763 49.647 75.7814 48.8993C77.5866 48.1516 79.1294 46.8854 80.215 45.2609C81.3005 43.6363 81.8798 41.7263 81.8798 39.7724C81.876 37.1536 80.834 34.643 78.9822 32.7912C77.1304 30.9394 74.6198 29.8974 72.001 29.8936V29.8936Z" fill="#6B7D94"/>
<path d="M17.2793 54.6196L21.3115 76.4788" stroke="#6B7D94" stroke-width="2" stroke-linecap="round"/>
<path d="M126.72 54.6196L122.659 76.4788" stroke="#6B7D94" stroke-width="2" stroke-linecap="round"/>
<path d="M29.9219 54.4028L32.9604 76.478" stroke="#6B7D94" stroke-width="2" stroke-linecap="round"/>
<path d="M114.349 54.4028L111.311 76.478" stroke="#6B7D94" stroke-width="2" stroke-linecap="round"/>
<path d="M42.1484 54.5044L44.2653 76.4788" stroke="#6B7D94" stroke-width="2" stroke-linecap="round"/>
<path d="M102.239 54.5044L100.194 76.4788" stroke="#6B7D94" stroke-width="2" stroke-linecap="round"/>
<path d="M54.2148 54.4321L55.5397 76.4785" stroke="#6B7D94" stroke-width="2" stroke-linecap="round"/>
<path d="M90.2299 54.4321L88.8906 76.4785" stroke="#6B7D94" stroke-width="2" stroke-linecap="round"/>
<path d="M66.0381 54.5464L66.5565 76.4776" stroke="#6B7D94" stroke-width="2" stroke-linecap="round"/>
<path d="M78.235 54.5464L77.7598 76.4776" stroke="#6B7D94" stroke-width="2" stroke-linecap="round"/>
</svg>
