<svg width="144" height="144" viewBox="0 0 144 144" fill="none" xmlns="http://www.w3.org/2000/svg">
<path d="M21.5996 111.601C29.9906 111.601 29.9906 120.601 38.3996 120.601C46.8086 120.601 46.7906 111.601 55.1996 111.601C63.6086 111.601 63.6086 120.601 71.9996 120.601C80.3906 120.601 80.3906 111.601 88.7996 111.601C97.2086 111.601 97.2086 120.601 105.6 120.601C113.991 120.601 114.009 111.601 122.4 111.601" stroke="#647891" stroke-width="2" stroke-linecap="round" stroke-linejoin="round"/>
<path d="M99.5856 49.2143C99.2075 49.0162 98.7393 49.0342 98.3972 49.2683C97.731 49.7185 95.2461 54.9043 95.2461 56.4709C95.2461 58.5596 96.9567 60.2702 99.0454 60.2702C101.134 60.2702 102.845 58.5596 102.845 56.4709C102.845 55.1204 100.558 49.7185 99.6036 49.2143H99.5856Z" fill="#647891"/>
<path d="M110.478 56.5434C110.1 56.3453 109.632 56.3633 109.29 56.5974C108.624 57.0476 106.139 62.2334 106.139 63.8C106.139 65.8887 107.849 67.5993 109.938 67.5993C112.027 67.5993 113.737 65.8887 113.737 63.8C113.737 62.4495 111.451 57.0476 110.496 56.5434H110.478Z" fill="#647891"/>
<path d="M115.329 31.3098C115.041 31.3098 114.771 31.3451 114.483 31.3803C113.8 26.8707 109.212 23.4004 103.635 23.4004C98.0572 23.4004 93.4694 26.8883 92.7857 31.4155C92.4259 31.3627 92.0661 31.3274 91.6882 31.3274C87.7661 31.3274 84.5996 33.9874 84.5996 37.2639C84.5996 40.5404 87.7661 43.2004 91.6882 43.2004H115.311C119.233 43.2004 122.4 40.5404 122.4 37.2639C122.4 33.9874 119.233 31.3274 115.311 31.3274L115.329 31.3098Z" stroke="#647891" stroke-width="2" stroke-linecap="round" stroke-linejoin="round"/>
<path d="M36.3105 109.605L36.3105 81.2607" stroke="#647891" stroke-width="2" stroke-linecap="round" stroke-linejoin="round"/>
<path d="M109.651 81.1638L109.65 108.908" stroke="#647891" stroke-width="2" stroke-linecap="round" stroke-linejoin="round"/>
<path d="M94.6688 80.4189H78.7871V93.7977H94.6688V80.4189Z" stroke="#647891" stroke-width="2" stroke-linecap="round" stroke-linejoin="round"/>
<path d="M86.7285 80.4189V93.7977" stroke="#647891" stroke-width="2" stroke-linecap="round" stroke-linejoin="round"/>
<path d="M94.6688 87.0986H78.7871" stroke="#647891" stroke-width="2" stroke-linecap="round" stroke-linejoin="round"/>
<path d="M116.638 86.5583L72.9721 52.7422L28.9824 86.9724" stroke="#647891" stroke-width="2" stroke-linecap="round" stroke-linejoin="round"/>
<path d="M42.0898 56.5225V76.7452L51.2191 69.6542V56.5225H42.0898Z" fill="#7CC694" stroke="#647891" stroke-width="2" stroke-linecap="round" stroke-linejoin="round"/>
<path d="M21.5996 100.801C29.9906 100.801 29.9906 109.801 38.3996 109.801C46.8086 109.801 46.7906 100.801 55.1996 100.801C63.6086 100.801 63.6086 109.801 71.9996 109.801C80.3906 109.801 80.3906 100.801 88.7996 100.801C97.2086 100.801 97.2086 109.801 105.6 109.801C113.991 109.801 114.009 100.801 122.4 100.801" stroke="#647891" stroke-width="2" stroke-linecap="round" stroke-linejoin="round"/>
<path d="M68.145 92.5908V109.008L68.1486 109.014C63.3288 106.822 62.0766 100.801 55.1985 100.801C51.2543 100.801 49.1641 102.781 47.1886 104.883L47.1855 104.894V92.5908C47.1855 86.0365 51.8852 80.7246 57.6653 80.7246C63.4634 80.7246 68.145 86.0365 68.145 92.5908Z" fill="#F06E61" stroke="#647891" stroke-width="2" stroke-linecap="round" stroke-linejoin="round"/>
</svg>
