<svg width="32" height="32" viewBox="0 0 32 32" fill="none" xmlns="http://www.w3.org/2000/svg">
<path fill-rule="evenodd" clip-rule="evenodd" d="M2 25.9989V6.40112C2 5.6273 2.62731 5 3.40113 5H12.6196C12.9912 5 13.3476 5.14762 13.6104 5.41038L15.5896 7.38962C15.8524 7.65238 16.2088 7.8 16.5804 7.8H28.5989C29.3727 7.8 30 8.4273 30 9.20113V25.9989C30 26.7727 29.3727 27.4 28.5989 27.4H3.40113C2.62731 27.4 2 26.7727 2 25.9989ZM14.6002 13.4003H17.4002V16.2005H20.2006V19.0005H17.4002V21.8003H14.6002V19.0005H11.8006V16.2005H14.6002V13.4003Z" fill="#4A6382"/>
</svg>
