<svg width="32" height="32" viewBox="0 0 32 32" fill="none" xmlns="http://www.w3.org/2000/svg">
<path fill-rule="evenodd" clip-rule="evenodd" d="M2 26.0656V6.3344C2 5.59743 2.59743 5 3.33441 5H12.6473C13.0012 5 13.3406 5.14059 13.5908 5.39084L15.6092 7.40916C15.8594 7.65941 16.1988 7.8 16.5527 7.8H28.6656C29.4026 7.8 30 8.39743 30 9.13441V26.0656C30 26.8026 29.4026 27.4 28.6656 27.4H3.33441C2.59743 27.4 2 26.8026 2 26.0656ZM17.3993 12.0002H14.5993V15.174L11.8502 13.5868L10.4502 16.0117L13.1999 17.5992L10.4501 19.1868L11.8501 21.6117L14.5993 20.0244V23.2002H17.3993V20.0238L20.1497 21.6117L21.5497 19.1868L18.7999 17.5992L21.5495 16.0117L20.1495 13.5868L17.3993 15.1747V12.0002Z" fill="#4A6382"/>
</svg>
