<svg width="144" height="144" viewBox="0 0 144 144" fill="none" xmlns="http://www.w3.org/2000/svg">
<path d="M79.6761 117.196H63.9362C63.5542 117.196 63.1879 117.047 62.9179 116.782C62.6478 116.517 62.4961 116.157 62.4961 115.782V99.3947C62.4961 96.9873 63.4701 94.6784 65.204 92.9761C66.9378 91.2738 69.2894 90.3174 71.7413 90.3174V90.3174C72.9567 90.3155 74.1604 90.549 75.2838 91.0043C76.4071 91.4596 77.428 92.128 78.288 92.9711C79.1481 93.8142 79.8304 94.8155 80.2959 95.9177C80.7614 97.0199 81.001 98.2015 81.001 99.3947V115.853C81.001 116.228 80.8493 116.587 80.5792 116.852C80.3091 117.118 79.9429 117.267 79.5609 117.267" fill="#7CC694"/>
<path d="M82.2235 58.3911H61.3867V78.8504H82.2235V58.3911Z" stroke="#6B7D94" stroke-width="2" stroke-linecap="round" stroke-linejoin="round"/>
<path d="M71.7988 58.3911V77.4657" stroke="#6B7D94" stroke-width="2" stroke-linecap="round" stroke-linejoin="round"/>
<path d="M82.2235 68.6279H61.3867" stroke="#6B7D94" stroke-width="2" stroke-linecap="round" stroke-linejoin="round"/>
<path d="M79.6752 117.197H63.9352C63.5533 117.197 63.187 117.052 62.9169 116.792C62.6468 116.533 62.4951 116.181 62.4951 115.814V99.7852C62.4951 97.4304 63.4692 95.172 65.203 93.5069C66.9368 91.8417 69.2884 90.9063 71.7404 90.9063V90.9063C72.9557 90.9044 74.1595 91.1328 75.2828 91.5782C76.4061 92.0236 77.427 92.6773 78.2871 93.502C79.1471 94.3266 79.8294 95.3061 80.2949 96.3842C80.7604 97.4624 81 98.6181 81 99.7852V115.884C81 116.25 80.8483 116.602 80.5782 116.862C80.3082 117.121 79.9419 117.267 79.56 117.267" fill="#7CC694"/>
<path d="M110.88 57.873V112.737C110.88 115.012 109.339 116.899 105.667 116.87H36.677C35.6306 116.87 34.627 116.454 33.8871 115.714C33.1471 114.974 32.7314 113.971 32.7314 112.924V57.873" stroke="#6B7D94" stroke-width="2" stroke-linecap="round" stroke-linejoin="round"/>
<path d="M119.074 63.6617L71.7988 27.1289L24.9268 63.6041" stroke="#6B7D94" stroke-width="2" stroke-linecap="round" stroke-linejoin="round"/>
</svg>
