<svg width="32" height="32" viewBox="0 0 32 32" fill="none" xmlns="http://www.w3.org/2000/svg">
<path fill-rule="evenodd" clip-rule="evenodd" d="M24.28 8.28428L29.6319 11.7637C30.3839 12.2466 29.8986 14.0229 28.9431 14.0229H28.1911C28.053 14.0229 27.9411 14.1348 27.9411 14.2729V27.4777V28.7388V29.7499C27.9411 29.888 27.829 29.9999 27.6909 29.9999L26.911 29.9994L20.1695 29.9856C20.0316 29.9854 19.92 29.8735 19.92 29.7356V18.3318C19.92 18.1938 19.8081 18.0819 19.6701 18.0818L12.3301 18.0785C12.192 18.0784 12.08 18.1904 12.08 18.3285V29.7351C12.08 29.8732 11.9681 29.9851 11.83 29.9851H4.29092C4.15285 29.9851 4.04092 29.8732 4.04092 29.7351V27.448V14.2729C4.04092 14.1348 3.92899 14.0229 3.79092 14.0229H3.03756C2.08208 14.0229 1.64028 12.1955 2.34874 11.7637L15.1669 3.2755C15.1772 3.26869 15.187 3.26106 15.1963 3.25298C15.5844 2.91591 16.1569 2.91567 16.5453 3.25228C16.5551 3.26081 16.5655 3.26884 16.5764 3.27594L22.28 6.98402V5.90038C22.28 5.34809 22.7277 4.90038 23.28 4.90038C23.8323 4.90038 24.28 5.34809 24.28 5.90038V8.28428Z" fill="#4A6382"/>
</svg>
