<svg width="144" height="144" viewBox="0 0 144 144" fill="none" xmlns="http://www.w3.org/2000/svg">
<path d="M69.4652 123.48L121.219 123.84C119.779 114.567 103.939 107.813 97.8476 103.911C93.182 100.239 91.9148 93.8307 92.174 85.6083C95.8691 83.579 99.1086 80.8131 101.692 77.4817C104.275 74.1503 106.148 70.3243 107.193 66.2403C115.833 66.0387 116.539 51.4803 108.892 49.9251C113.328 2.47711 40.0172 2.56351 45.6908 50.9907C38.9516 54.1875 40.3196 66.3267 48.1532 67.9107C50.4444 74.7639 54.98 80.644 61.0268 84.6003C60.4796 90.7203 60.4796 99.6339 55.4684 103.436" stroke="#6B7D94" stroke-width="2" stroke-linecap="round" stroke-linejoin="round"/>
<path d="M26.7408 98.3662H69.6384C71.1332 98.459 72.533 99.1304 73.5411 100.238C74.5492 101.346 75.0862 102.802 75.0384 104.299V125.064C75.0978 126.568 74.5659 128.036 73.5566 129.153C72.5473 130.269 71.1409 130.947 69.6384 131.04H26.7408C25.2461 130.947 23.8463 130.276 22.8382 129.168C21.8301 128.061 21.293 126.604 21.3408 125.107V104.299C21.293 102.802 21.8301 101.346 22.8382 100.238C23.8463 99.1304 25.2461 98.459 26.7408 98.3662V98.3662Z" fill="#7CC694"/>
<path d="M68.7896 121.809H28.8008" stroke="white" stroke-width="2.88014" stroke-linecap="round" stroke-linejoin="round"/>
</svg>
