<svg width="144" height="144" viewBox="0 0 144 144" fill="none" xmlns="http://www.w3.org/2000/svg">
<path d="M129.416 26H14.1644C12.4167 26 11 27.421 11 29.174V114.286C11 116.039 12.4167 117.46 14.1644 117.46H129.416C131.163 117.46 132.58 116.039 132.58 114.286V29.174C132.58 27.421 131.163 26 129.416 26Z" stroke="#647891" stroke-width="2" stroke-linecap="round" stroke-linejoin="round"/>
<path d="M49.0539 87.3076H36.5293V106.046H49.0539V87.3076Z" fill="#F6BD4E"/>
<path d="M76.4699 76.7314H63.9453V106.045H76.4699V76.7314Z" fill="#F06E61"/>
<path d="M102.818 61.4043H90.293V106.046H102.818V61.4043Z" fill="#7CC694"/>
<path d="M40.4188 64.7803V67.1188H39.1849V64.7459V64.2866L38.7272 64.2477C36.3407 64.045 34.4571 63.3331 33.039 62.1448C32.3424 61.5516 31.7824 60.8138 31.3976 59.9822C31.0829 59.3019 30.8917 58.5721 30.8315 57.8271H36.2318C36.3417 58.4086 36.5521 58.9214 36.8758 59.3517C37.283 59.8931 37.845 60.271 38.5323 60.4984L39.1893 60.7157V60.0237V54.4929V54.0998L38.8073 54.007C37.3546 53.654 35.9266 53.2046 34.5333 52.6617C33.4998 52.2268 32.5909 51.5396 31.8891 50.6625L31.8891 50.6624L31.8832 50.6553C31.1652 49.7911 30.7781 48.5758 30.7808 46.9502L30.7808 46.9415L30.7805 46.9328C30.7507 46.0337 30.9311 45.1402 31.3073 44.3237C31.6835 43.5073 32.245 42.7906 32.9467 42.2309L32.9467 42.231L32.9512 42.2273C34.4229 41.0254 36.3343 40.3357 38.72 40.1887L39.1893 40.1598V39.6897V37.3555H40.4232V39.6897V40.1524L40.8845 40.1882C43.247 40.3715 45.0654 41.0614 46.3868 42.2165C47.5805 43.26 48.3047 44.6745 48.5357 46.501H43.1297C43.0243 45.9904 42.8373 45.5361 42.5573 45.1504C42.1958 44.6523 41.6998 44.2971 41.0921 44.0789L40.4232 43.8388V44.5495V49.9771V50.3618L40.7951 50.4604C42.2877 50.8561 43.7586 51.3294 45.2022 51.8783C46.2174 52.2985 47.1142 52.9627 47.8133 53.8127L47.8132 53.8127L47.8184 53.8188C48.5432 54.6721 48.9343 55.8676 48.9343 57.4647V57.4651C48.9351 58.6141 48.6169 59.7406 48.0153 60.7181C47.3447 61.778 46.4 62.6352 45.2819 63.1983L45.2807 63.1989C43.9244 63.8865 42.4302 64.2563 40.9109 64.2803L40.4188 64.2881V64.7803ZM36.0923 46.6967C36.0851 47.2839 36.2765 47.8546 36.6327 48.3169V48.3607L36.774 48.5062C37.2619 49.0086 37.8479 49.4048 38.4954 49.6699L39.1849 49.9523V49.2072V44.3431V43.7698L38.6169 43.8478C37.9316 43.9418 37.2947 44.2542 36.8 44.7385L36.7887 44.7495L36.7781 44.7613C36.5404 45.0255 36.3575 45.3344 36.2399 45.67C36.1245 45.9995 36.0745 46.3483 36.0923 46.6967ZM40.9881 60.6178C41.3705 60.5642 41.7375 60.4443 42.0738 60.266V60.5768L42.943 59.6255C43.4366 59.0852 43.703 58.375 43.6872 57.6431C43.6972 57.306 43.6395 56.9702 43.5172 56.6557C43.3929 56.3362 43.2046 56.0456 42.9641 55.8019L42.9549 55.7925L42.9452 55.7837C42.4058 55.2913 41.7706 54.9161 41.0794 54.6817L40.4188 54.4576V55.1552V60.1226V60.6975L40.9881 60.6178Z" fill="#647891" stroke="#647891"/>
<path d="M37.9824 79.2473L58.1307 64.199L73.1336 72.8005L101.587 43.7188" stroke="#647891" stroke-width="2" stroke-linecap="round" stroke-linejoin="round"/>
<path d="M107.362 38.3597C107.433 38.1685 107.444 37.9604 107.394 37.7628C107.345 37.5651 107.236 37.3872 107.083 37.2523C106.93 37.1175 106.74 37.0321 106.538 37.0074C106.336 36.9827 106.131 37.0199 105.95 37.114L94.8481 40.51C93.8901 40.8057 93.7192 41.6033 94.4608 42.2705L103.577 50.5713C104.309 51.2464 105.064 50.9996 105.239 50.005L107.362 38.3597Z" fill="#647891"/>
<path d="M25.9766 106.046H117.289" stroke="#647891" stroke-linecap="round" stroke-linejoin="round"/>
</svg>
