<svg width="144" height="144" viewBox="0 0 144 144" fill="none" xmlns="http://www.w3.org/2000/svg">
<path d="M7.19922 111.602H136.799" stroke="#647891" stroke-width="2" stroke-linecap="round" stroke-linejoin="round"/>
<path d="M16.1992 111.598V55.4236L71.9992 32.3984L127.799 54.8974L127.799 111.595" stroke="#647891" stroke-width="2" stroke-linecap="round" stroke-linejoin="round"/>
<path d="M106.199 68.3984H64.7988V111.598H106.199V68.3984Z" fill="#F6BD4E" stroke="#647891" stroke-width="2" stroke-linecap="round" stroke-linejoin="round"/>
<path d="M55.3951 91.2148H35.8965V111.602H55.3951V91.2148Z" stroke="#647891" stroke-width="2" stroke-linecap="round" stroke-linejoin="round"/>
<path d="M50.0207 101.266L43.0402 103.737L41.002 98.5063L48.0005 96.0352L50.0207 101.266Z" fill="#F06E61" stroke="#647891" stroke-width="2" stroke-linecap="round" stroke-linejoin="round"/>
<path d="M99.8996 75.0078H71.0996V104.986H99.8996V75.0078Z" stroke="#647891" stroke-width="2" stroke-linecap="round" stroke-linejoin="round"/>
<path d="M71.0996 79.5918L95.8109 104.989" stroke="#647891" stroke-width="2" stroke-linecap="round" stroke-linejoin="round"/>
<path d="M74.7578 75.0078L99.4692 100.405" stroke="#647891" stroke-width="2" stroke-linecap="round" stroke-linejoin="round"/>
<path d="M76.7109 85.3652V104.99" stroke="#647891" stroke-width="2" stroke-linecap="round" stroke-linejoin="round"/>
<path d="M82.3438 91.1553V104.99" stroke="#647891" stroke-width="2" stroke-linecap="round" stroke-linejoin="round"/>
<path d="M82.3438 75.2998V82.587" stroke="#647891" stroke-width="2" stroke-linecap="round" stroke-linejoin="round"/>
<path d="M87.9023 97.0156V104.646" stroke="#647891" stroke-width="2" stroke-linecap="round" stroke-linejoin="round"/>
<path d="M87.9023 75.7676V88.2135" stroke="#647891" stroke-width="2" stroke-linecap="round" stroke-linejoin="round"/>
<path d="M93.7832 75.7676V94.4184" stroke="#647891" stroke-width="2" stroke-linecap="round" stroke-linejoin="round"/>
<path d="M51.0461 80.415H40.2461V91.215H51.0461V80.415Z" stroke="#647891" stroke-width="2" stroke-linecap="round" stroke-linejoin="round"/>
<path d="M27 111.599V57.5986H115.2V111.599" stroke="#647891" stroke-width="2" stroke-linecap="round" stroke-linejoin="round"/>
</svg>
