<svg width="144" height="144" viewBox="0 0 144 144" fill="none" xmlns="http://www.w3.org/2000/svg">
<path d="M122.559 87.71C115.895 79.3801 111.161 78.311 111.161 78.311L96.5279 91.3197C96.3038 91.5148 96.0447 91.6656 95.7644 91.764C95.484 91.6656 95.2249 91.5148 95.0008 91.3197L80.3678 78.311C80.3678 78.311 75.6336 79.4078 68.9696 87.71C66.7559 90.4026 64.9245 93.388 63.5273 96.5815C68.7621 97.7218 73.3307 100.892 76.2306 105.397H127.141C127.521 105.391 127.895 105.302 128.238 105.137C128.58 104.973 128.883 104.736 129.126 104.443C129.369 104.15 129.545 103.809 129.643 103.441C129.742 103.074 129.759 102.69 129.695 102.315C129.223 99.2054 127.585 93.9714 122.559 87.71Z" fill="#F06E61"/>
<path d="M86.8372 70.0225C86.2048 72.591 84.7039 74.8619 82.5889 76.4504" stroke="#647891" stroke-width="2" stroke-linecap="round" stroke-linejoin="round"/>
<path d="M101.512 58.0273C99.4851 60.443 93.182 61.3455 90.3359 58.0273" stroke="#647891" stroke-width="2" stroke-linecap="round" stroke-linejoin="round"/>
<path d="M66.4288 58.7354C66.8027 58.3896 67.0742 57.9477 67.2138 57.458C67.3534 56.9683 67.3556 56.4496 67.2202 55.9587C67.1113 55.465 66.8577 55.0151 66.4916 54.6663C66.1256 54.3176 65.6638 54.086 65.1655 54.0012C65.4775 53.581 65.6694 53.0839 65.7208 52.563C65.7721 52.0421 65.681 51.5171 65.457 51.044C65.2616 50.5836 64.9318 50.1928 64.5107 49.9228C64.0896 49.6528 63.5969 49.5162 63.0969 49.5308C63.3327 49.0651 63.4378 48.5442 63.4011 48.0234C63.3645 47.5027 63.1874 47.0017 62.8886 46.5736C62.6223 46.142 62.2269 45.8051 61.7584 45.6107C61.29 45.4164 60.7722 45.3744 60.2786 45.4907C60.4308 44.9924 60.4454 44.4621 60.3207 43.9562C60.1961 43.4502 59.9368 42.9875 59.5705 42.6169C59.2203 42.2499 58.7618 42.0047 58.2621 41.9172C57.7624 41.8298 57.2478 41.9047 56.7938 42.131C56.8663 41.6188 56.7942 41.0965 56.5857 40.6231C56.3772 40.1496 56.0406 39.7439 55.6138 39.4515C55.2095 39.1601 54.7238 39.0032 54.2255 39.0032C53.7271 39.0032 53.2414 39.1601 52.8371 39.4515C52.8256 38.941 52.6677 38.4446 52.3822 38.0213C52.0967 37.598 51.6956 37.2655 51.2267 37.0636C50.7694 36.869 50.2628 36.822 49.7775 36.929C49.2922 37.036 48.8524 37.2917 48.5194 37.6605C48.4223 37.1621 48.1811 36.7032 47.8258 36.3404C47.4704 35.9777 47.0165 35.7271 46.5202 35.6197C46.0319 35.5205 45.5249 35.5739 45.068 35.7726C44.611 35.9713 44.2262 36.3056 43.9657 36.7304C43.7828 36.2632 43.4642 35.8615 43.051 35.577C42.6378 35.2924 42.1488 35.1381 41.6471 35.1338C41.1463 35.1417 40.6591 35.2975 40.2466 35.5816C39.8341 35.8657 39.5147 36.2653 39.3287 36.7304C39.0705 36.3068 38.6881 35.9729 38.2336 35.7742C37.779 35.5755 37.2743 35.5216 36.788 35.6197C36.2907 35.728 35.8356 35.9786 35.4781 36.3409C35.1207 36.7033 34.8764 37.1618 34.7749 37.6605C34.4441 37.2929 34.0067 37.0377 33.5239 36.9307C33.041 36.8237 32.5368 36.8701 32.0816 37.0636C31.6178 37.2743 31.221 37.6086 30.9345 38.0297C30.648 38.4509 30.4829 38.9428 30.4572 39.4515C30.0546 39.156 29.5683 38.9967 29.0689 38.9967C28.5695 38.9967 28.0831 39.156 27.6805 39.4515C27.2512 39.7421 26.9119 40.1471 26.7009 40.6207C26.4898 41.0942 26.4156 41.6174 26.4866 42.131C26.0412 41.9189 25.5405 41.8517 25.0549 41.9388C24.5693 42.026 24.1232 42.2631 23.7793 42.6169C23.4023 42.9804 23.1358 43.4431 23.0105 43.9516C22.8852 44.4601 22.9063 44.9937 23.0713 45.4907C22.5875 45.3711 22.0784 45.4058 21.6153 45.5901C21.1522 45.7743 20.7584 46.0988 20.489 46.5181C20.186 46.9443 20.0062 47.4457 19.9695 47.9674C19.9328 48.4891 20.0404 49.0108 20.2808 49.4752C19.7792 49.4616 19.285 49.5985 18.8619 49.8682C18.4388 50.1379 18.1061 50.5281 17.9067 50.9885C17.6877 51.4635 17.6005 51.9887 17.6542 52.5089C17.708 53.0292 17.9007 53.5255 18.2122 53.9457C17.7127 54.0315 17.2498 54.2631 16.8817 54.6115C16.5136 54.9598 16.2567 55.4092 16.1435 55.9032C16.0081 56.3941 16.0104 56.9128 16.1499 57.4025C16.2895 57.8922 16.5611 58.3341 16.9349 58.6799C16.4586 58.8692 16.0462 59.1906 15.7462 59.6062C15.4461 60.0218 15.2709 60.5144 15.2411 61.0261C15.1526 61.6998 15.3289 62.3816 15.7328 62.9279C16.1368 63.4743 16.7369 63.8427 17.4069 63.9555C17.7417 63.9685 18.0758 63.9151 18.3899 63.7985C18.7041 63.6818 18.992 63.5042 19.2372 63.2758C19.4824 63.0474 19.6799 62.7727 19.8185 62.4676C19.9571 62.1626 20.034 61.8331 20.0447 61.4982C21.1153 58.6287 22.6284 55.9445 24.5291 53.543C29.8464 46.9068 39.3564 44.394 49.4218 47.2123C56.3634 49.1559 61.1393 56.4447 63.4023 60.7485C63.33 61.034 63.3065 61.3297 63.3329 61.6231C63.3584 62.1087 63.5169 62.578 63.7911 62.9795C64.0654 63.3811 64.4448 63.6995 64.8878 63.9V63.9833C65.2143 64.1112 65.5656 64.1634 65.9152 64.136C66.5852 64.0232 67.1853 63.6548 67.5893 63.1084C67.9932 62.5621 68.1695 61.8803 68.081 61.2066C68.0785 60.678 67.9205 60.1619 67.6267 59.7225C67.3329 59.283 66.9163 58.9397 66.4288 58.7354V58.7354Z" fill="#647891"/>
<path d="M63.9023 64.7332C64.1564 64.712 64.4119 64.712 64.666 64.7332C65.3114 64.744 65.9484 64.8819 66.5405 65.139C67.1326 65.396 67.6683 65.7672 68.1169 66.2314C68.5656 66.6955 68.9185 67.2434 69.1553 67.8439C69.3922 68.4445 69.5084 69.0857 69.4974 69.7312C69.5159 71.0323 69.0177 72.2877 68.112 73.222C67.2063 74.1563 65.967 74.6933 64.666 74.7153" fill="white"/>
<path d="M19.9201 64.7327C19.666 64.7121 19.4106 64.7121 19.1565 64.7327C18.5099 64.7417 17.8714 64.8783 17.2777 65.1346C16.684 65.3908 16.1466 65.7617 15.6965 66.226C15.2464 66.6903 14.8923 67.2389 14.6546 67.8403C14.4169 68.4417 14.3002 69.0841 14.3113 69.7307C14.3021 70.3761 14.4201 71.017 14.6586 71.6168C14.8972 72.2166 15.2516 72.7635 15.7015 73.2264C16.1514 73.6892 16.6881 74.0589 17.281 74.3143C17.8738 74.5696 18.5111 74.7057 19.1565 74.7148" fill="white"/>
<path d="M63.9023 64.7332C64.1564 64.712 64.4119 64.712 64.666 64.7332C65.3114 64.744 65.9484 64.8819 66.5405 65.139C67.1326 65.396 67.6683 65.7672 68.1169 66.2314C68.5656 66.6955 68.9185 67.2434 69.1553 67.8439C69.3922 68.4445 69.5084 69.0857 69.4974 69.7312C69.5159 71.0323 69.0177 72.2877 68.112 73.222C67.2063 74.1563 65.967 74.6933 64.666 74.7153" stroke="#647891" stroke-width="2" stroke-linecap="round" stroke-linejoin="round"/>
<path d="M19.9201 64.7327C19.666 64.7121 19.4106 64.7121 19.1565 64.7327C18.5099 64.7417 17.8714 64.8783 17.2777 65.1346C16.684 65.3908 16.1466 65.7617 15.6965 66.226C15.2464 66.6903 14.8923 67.2389 14.6546 67.8403C14.4169 68.4417 14.3002 69.0841 14.3113 69.7307C14.3021 70.3761 14.4201 71.017 14.6586 71.6168C14.8972 72.2166 15.2516 72.7635 15.7015 73.2264C16.1514 73.6892 16.6881 74.0589 17.281 74.3143C17.8738 74.5696 18.5111 74.7057 19.1565 74.7148" stroke="#647891" stroke-width="2" stroke-linecap="round" stroke-linejoin="round"/>
<path d="M41.9111 90.8476C54.1638 90.8476 64.0966 80.9148 64.0966 68.6621C64.0966 56.4094 54.1638 46.4766 41.9111 46.4766C29.6584 46.4766 19.7256 56.4094 19.7256 68.6621C19.7256 80.9148 29.6584 90.8476 41.9111 90.8476Z" stroke="#647891" stroke-width="2" stroke-linecap="round" stroke-linejoin="round"/>
<path d="M73.3709 126C73.7264 125.999 74.0779 125.925 74.4036 125.783C74.7293 125.64 75.0223 125.432 75.2644 125.172C75.5065 124.912 75.6926 124.604 75.8111 124.269C75.9296 123.934 75.9779 123.578 75.9532 123.223C75.6888 120.216 75.225 117.229 74.5649 114.283C71.1912 100.094 56.6693 99.1776 56.6693 99.1776C56.6693 99.1776 52.5737 104.356 42.661 104.828C36.612 105.027 30.7227 102.866 26.2371 98.8027C21.8654 99.3395 17.7612 101.197 14.472 104.126C11.1829 107.055 8.86511 110.918 7.82786 115.199C7.07153 117.98 6.50563 120.81 6.13409 123.668C6.09423 123.96 6.11773 124.257 6.20298 124.54C6.28824 124.822 6.43327 125.082 6.62819 125.304C6.82312 125.525 7.06337 125.702 7.33265 125.822C7.60194 125.942 7.89397 126.003 8.18884 126H73.3709Z" fill="#7CC694"/>
<path d="M48.2281 78.686C46.0623 81.2683 39.3706 82.2402 36.2607 78.686" stroke="#647891" stroke-width="2" stroke-linecap="round" stroke-linejoin="round"/>
<path d="M32.9704 88.9453C32.6927 92.1524 32.179 95.6509 30.041 97.3864" stroke="#647891" stroke-width="2" stroke-linecap="round" stroke-linejoin="round"/>
<path d="M50.9346 89.3623C51.2817 92.7359 51.8509 96.1373 53.5446 97.6923" stroke="#647891" stroke-width="2" stroke-linecap="round" stroke-linejoin="round"/>
<path d="M95.7509 70.8969C108.004 70.8969 117.936 60.9641 117.936 48.7114C117.936 36.4587 108.004 26.5259 95.7509 26.5259C83.4982 26.5259 73.5654 36.4587 73.5654 48.7114C73.5654 60.9641 83.4982 70.8969 95.7509 70.8969Z" stroke="#647891" stroke-width="2" stroke-linecap="round" stroke-linejoin="round"/>
<path d="M116.146 19.265C126.891 16.8354 126.391 31.9821 137.984 29.372C134.93 33.4398 128.654 36.744 123.476 32.0515C121.741 30.2555 119.437 29.1162 116.956 28.8277C114.475 28.5391 111.971 29.119 109.87 30.4688C109.565 30.6493 106.177 21.5141 116.146 19.265Z" stroke="#647891" stroke-width="2" stroke-linecap="round" stroke-linejoin="round"/>
<path d="M75.6619 20.0284C64.9023 17.5988 65.4021 32.7316 53.8096 30.1215C56.8778 34.2032 63.153 37.4936 68.3176 32.801C70.056 31.0095 72.3606 29.8745 74.8405 29.5885C77.3203 29.3026 79.8228 29.8833 81.9233 31.2322C82.2426 31.3988 85.6162 22.2775 75.6619 20.0284Z" stroke="#647891" stroke-width="2" stroke-linecap="round" stroke-linejoin="round"/>
<path d="M75.6758 42.0057C79.5446 42.8199 83.5732 42.3542 87.1542 40.6789C90.7352 39.0036 93.6745 36.2094 95.5289 32.7178" stroke="#647891" stroke-width="2" stroke-linecap="round" stroke-linejoin="round"/>
<path d="M115.589 42.0057C111.721 42.8199 107.692 42.3542 104.111 40.6789C100.53 39.0036 97.5907 36.2094 95.7363 32.7178" stroke="#647891" stroke-width="2" stroke-linecap="round" stroke-linejoin="round"/>
<path d="M103.956 69.5229C104.616 72.34 106.169 74.8678 108.385 76.7284" stroke="#647891" stroke-width="2" stroke-linecap="round" stroke-linejoin="round"/>
</svg>
