<svg width="144" height="144" viewBox="0 0 144 144" fill="none" xmlns="http://www.w3.org/2000/svg">
<path d="M32.3301 55.8276L79.2019 15L128.95 56.1617" stroke="#647891" stroke-width="2" stroke-linecap="round" stroke-linejoin="round"/>
<path d="M44.3461 44.4365L44.1572 26.4491L55.7662 26.3184V34.6582" stroke="#647891" stroke-width="2" stroke-linecap="round" stroke-linejoin="round"/>
<path d="M121.454 74.8614V50.917" stroke="#647891" stroke-width="2" stroke-linecap="round" stroke-linejoin="round"/>
<path d="M39.9297 85.0609V49.4639" stroke="#647891" stroke-width="2" stroke-linecap="round" stroke-linejoin="round"/>
<path d="M97.902 68.9763C99.9814 67.5607 101.622 65.59 102.637 63.2883C103.651 60.9865 104 58.4461 103.642 55.9562C103.285 53.4662 102.236 51.1266 100.614 49.2034C98.9927 47.2802 96.864 45.8507 94.4703 45.0774C92.0766 44.3042 89.5139 44.2183 87.0737 44.8295C84.6336 45.4407 82.414 46.7244 80.6673 48.5347C78.9207 50.345 77.7172 52.6092 77.1937 55.0696C76.6702 57.5301 76.8478 60.088 77.7062 62.4526L54.2412 78.7255L63.3657 80.8032L64.6443 76.2845L69.2791 77.2871L69.715 72.6086L74.0738 74.1923L82.2539 68.6566C84.5021 70.3374 87.2202 71.272 90.0266 71.3293C92.8331 71.3867 95.587 70.5638 97.902 68.9763V68.9763Z" fill="#F6BD4E" stroke="#F6BD4E" stroke-width="2" stroke-linecap="round" stroke-linejoin="round"/>
<path d="M63.2932 105.228H85.5522C87.3186 105.22 89.0105 104.515 90.2595 103.266C91.5085 102.017 92.2136 100.325 92.2212 98.5585V98.5585C92.2174 96.7896 91.514 95.0941 90.2646 93.8419C89.0152 92.5898 87.3211 91.8827 85.5522 91.875H40.5112C37.806 91.8735 35.2043 92.9142 33.2465 94.7809L15.5352 111.664" stroke="#647891" stroke-width="2" stroke-linecap="round" stroke-linejoin="round"/>
<path d="M97.7126 95.3183L119.289 82.9828C120.826 82.1068 122.647 81.8733 124.356 82.3332C126.065 82.793 127.523 83.909 128.413 85.4383V85.4383C129.292 86.9727 129.528 88.793 129.067 90.5005C128.607 92.208 127.489 93.6636 125.958 94.5483L84.1421 118.74C82.6631 119.597 80.9841 120.048 79.2748 120.047H42.6172C40.5979 120.053 38.654 120.815 37.1686 122.183L28.6689 130" stroke="#647891" stroke-width="2" stroke-linecap="round" stroke-linejoin="round"/>
<path d="M99.4858 54.7155C99.4858 53.0505 98.136 51.7007 96.4709 51.7007C94.8058 51.7007 93.4561 53.0505 93.4561 54.7155C93.4561 56.3806 94.8058 57.7304 96.4709 57.7304C98.136 57.7304 99.4858 56.3806 99.4858 54.7155Z" fill="white"/>
</svg>
