<svg width="32" height="32" viewBox="0 0 32 32" fill="none" xmlns="http://www.w3.org/2000/svg">
<path d="M13.4619 20.5286C12.4608 22.0294 9.9615 23.5497 6.3778 23.9303C6.2151 23.9303 6.05072 23.937 5.89023 23.9436C5.48138 23.9604 5.09775 23.9762 4.83122 23.8767C7.44763 23.7159 11.0851 22.8364 12.7558 20.2606C13.5978 18.9633 14.0342 17.3848 14.508 15.6712C14.6118 15.2957 14.7174 14.9137 14.8295 14.5267C15.3501 12.7288 15.8425 11.0308 16.5223 9.74116C16.9804 8.87275 17.8109 8.08006 18.4564 7.54791C17.4726 8.7607 16.859 10.1912 16.2733 12.0704C15.9838 12.9993 15.7694 13.7929 15.564 14.5537C15.5294 14.6816 15.4951 14.8086 15.4608 14.9351C15.2203 15.8208 14.9766 16.6848 14.6219 17.6939C14.5624 17.863 14.5019 18.0461 14.4387 18.2372C14.1883 18.9941 13.896 19.8779 13.4619 20.5286Z" fill="#4A6382"/>
<path fill-rule="evenodd" clip-rule="evenodd" d="M15.564 14.5537C15.5294 14.6816 15.4951 14.8086 15.4608 14.9351C15.2203 15.8208 14.9766 16.6848 14.6219 17.6939C14.5624 17.863 14.5019 18.0461 14.4387 18.2372C14.1883 18.9941 13.896 19.8779 13.4619 20.5286" fill="#4A6382"/>
<path d="M20.5291 23.6949C19.0762 22.4901 17.9836 21.1898 17.4621 19.6683C17.2996 21.5459 17.8876 22.7736 20.5291 23.6949Z" fill="#4A6382"/>
<path fill-rule="evenodd" clip-rule="evenodd" d="M26.3215 21.8365C25.8279 21.6887 25.2424 21.5834 24.6213 21.4725C22.7705 21.1436 20.4677 20.7334 19.9384 18.8746C19.5804 17.6194 19.8342 15.4211 20.0799 13.2938L20.0817 13.2779C20.2544 11.7868 20.4173 10.3769 20.383 9.24054C20.3463 8.03949 20.1197 6.45232 20.018 5.78343L19.1336 5.09424L18.9046 5.24206C18.8102 5.30303 16.6067 6.73689 15.6036 8.64004C14.827 10.1127 14.2806 11.9974 13.754 13.8191C13.5041 14.682 13.2505 15.556 12.9737 16.3801C12.4556 16.8605 11.7133 17.3502 10.7383 17.5183C8.49299 17.9045 5.89258 17.91 5.86561 17.91C4.45117 17.91 4.45365 18.118 4.45542 18.2664L4.45554 18.2817C4.45554 18.4711 4.84123 18.8228 5.77497 19.1221L10.2911 20.6723C7.31823 22.7307 2.29687 22.1989 1.37269 22.0969L1.16502 22.0734C0.536068 22.0011 0.185827 21.9609 0.0496728 22.2271C-0.113273 22.7979 0.124641 23.1388 0.763917 23.6213C0.854559 23.6897 3.00425 25.2861 5.90717 26.0973C6.98998 26.4003 8.03359 26.55 9.02944 26.55C11.6189 26.55 13.8836 25.5319 15.6891 23.5326C15.9856 23.2056 16.2599 22.8046 16.516 22.3482C16.6127 22.5275 16.7205 22.6919 16.8406 22.8397C18.3839 24.754 20.8045 24.9979 22.7408 24.9979C23.2209 24.9979 23.6807 24.9817 24.1271 24.966L24.2192 24.9628L24.2879 24.9603C24.6705 24.9464 25.0326 24.9332 25.3621 24.9332C25.8765 24.9332 26.2403 24.9646 26.5049 25.033C28.2773 25.4897 31.1594 26.6895 31.3179 26.76C31.8268 26.9862 31.9992 26.9144 31.9992 26.76L31.9995 26.7236C32.0019 26.5654 32.0039 26.4292 31.5796 26.0492C31.5624 26.0338 31.5082 25.9744 31.4226 25.8805C30.7679 25.1626 28.2714 22.4247 26.3215 21.8365ZM6.3778 23.9303C9.9615 23.5497 12.4608 22.0294 13.4619 20.5286C13.896 19.8779 14.1883 18.9941 14.4387 18.2372C14.5019 18.0461 14.5624 17.863 14.6219 17.6939C14.9766 16.6848 15.2203 15.8208 15.4608 14.9351L15.564 14.5537C15.7694 13.7929 15.9838 12.9993 16.2733 12.0704C16.859 10.1912 17.4726 8.7607 18.4564 7.54791C17.8109 8.08006 16.9804 8.87275 16.5223 9.74116C15.8425 11.0308 15.3501 12.7288 14.8295 14.5267C14.7174 14.9137 14.6118 15.2957 14.508 15.6712C14.0342 17.3848 13.5978 18.9633 12.7558 20.2606C11.0851 22.8364 7.44763 23.7159 4.83122 23.8767C5.09775 23.9762 5.48138 23.9604 5.89023 23.9436C6.05072 23.937 6.2151 23.9303 6.3778 23.9303ZM20.5291 23.6949C19.0762 22.4901 17.9836 21.1898 17.4621 19.6683C17.2996 21.5459 17.8876 22.7736 20.5291 23.6949Z" fill="#4A6382"/>
</svg>
