<svg width="144" height="144" viewBox="0 0 144 144" fill="none" xmlns="http://www.w3.org/2000/svg">
<path d="M124.92 76.5421L124.153 76.8766C122.866 77.4529 121.532 77.9192 120.166 78.2706C117.549 78.9035 114.851 79.1292 112.165 78.9397C109.182 78.7371 106.259 78.0006 103.536 76.7651C102.993 76.5015 102.369 76.4566 101.794 76.6397C99.6164 77.346 97.5615 78.3852 95.7021 79.7203C97.9566 83.5676 99.1451 87.9462 99.1452 92.4055V127.115H137.605C137.894 127.126 138.183 127.081 138.454 126.98C138.726 126.88 138.975 126.727 139.187 126.53C139.4 126.333 139.571 126.096 139.692 125.833C139.812 125.57 139.88 125.286 139.891 124.996V96.0019C139.796 91.5859 138.293 87.3157 135.599 83.8148C132.906 80.314 129.164 77.7657 124.92 76.5421V76.5421Z" fill="#7CC694"/>
<path d="M39.5392 92.3923C39.5377 88.7906 40.3077 85.2305 41.7974 81.9514C40.3659 80.9789 38.809 80.2051 37.1694 79.6514L36.4864 79.972C35.3578 80.496 34.1874 80.925 32.9875 81.2544C30.7129 81.8362 28.3602 82.0527 26.0177 81.8957C23.4891 81.7128 21.0168 81.0605 18.7272 79.972C18.0749 79.6554 17.3248 79.6054 16.6362 79.8326C12.9268 81.1935 9.7256 83.662 7.46646 86.9036C5.20732 90.1452 3.99955 94.003 4.00687 97.9542V124.44C4.00687 125.179 4.3006 125.888 4.82344 126.411C5.34628 126.934 6.0554 127.228 6.79481 127.228H39.5392V92.3923Z" fill="#F06E61"/>
<path d="M96.3576 127.213V92.3636C96.3531 87.6566 94.8707 83.0699 92.1195 79.2507C89.3683 75.4315 85.4872 72.5727 81.0239 71.0776L80.2433 71.454C77.024 72.9729 73.5108 73.7675 69.9512 73.782C66.3915 73.7964 62.872 73.0303 59.6405 71.5376C59.1558 71.3306 58.6342 71.2238 58.1071 71.2238C57.58 71.2238 57.0584 71.3306 56.5737 71.5376C52.3796 73.1928 48.7813 76.0728 46.2477 79.8024C43.714 83.532 42.3625 87.9384 42.3692 92.4472V127.296L96.3576 127.213Z" fill="#F6BD4E"/>
<path d="M76.4796 50.9346C74.7511 52.9976 69.3843 53.7225 66.917 50.9346" stroke="#647891" stroke-width="2" stroke-linecap="round" stroke-linejoin="round"/>
<path d="M59.2773 71.035C62.1489 68.9023 61.5635 63.6052 61.9119 60.1899" stroke="#647891" stroke-width="2" stroke-linecap="round" stroke-linejoin="round"/>
<path d="M79.8115 60.3857C80.1182 64.1913 80.8709 69.5302 82.7389 71.3423" stroke="#647891" stroke-width="2" stroke-linecap="round" stroke-linejoin="round"/>
<path d="M54.4687 41.0796C54.4687 41.0796 50.9559 41.916 51.2765 46.7252C51.3656 47.782 51.7936 48.7817 52.497 49.5755C53.2003 50.3692 54.1413 50.9145 55.1797 51.1301" stroke="#647891" stroke-width="2" stroke-linecap="round" stroke-linejoin="round"/>
<path d="M88.3704 41.1484C88.3704 41.1484 91.702 41.9151 91.3116 46.794C91.257 47.8269 90.8708 48.8146 90.2104 49.6106C89.55 50.4066 88.6505 50.9685 87.6455 51.2129" stroke="#647891" stroke-width="2" stroke-linecap="round" stroke-linejoin="round"/>
<path d="M118.313 60.2607C116.793 62.1008 112.012 62.8256 109.823 60.2607" stroke="#647891" stroke-width="2" stroke-linecap="round" stroke-linejoin="round"/>
<path d="M34.5481 42.9609C36.5736 44.2808 38.2653 46.0526 39.4901 48.137C40.7148 50.2214 41.4392 52.5615 41.6063 54.9734C41.7734 57.3852 41.3786 59.8029 40.4529 62.0362C39.5273 64.2696 38.0961 66.2578 36.2719 67.8443C34.4477 69.4308 32.2802 70.5724 29.94 71.1793C27.5998 71.7862 25.1508 71.8419 22.7854 71.3418C20.4201 70.8418 18.203 69.7998 16.3087 68.2978C14.4143 66.7958 12.8943 64.8747 11.8682 62.6856" stroke="#647891" stroke-width="2" stroke-linecap="round" stroke-linejoin="round"/>
<path d="M19.982 70.4634C19.7032 73.4186 19.1735 74.9938 16.9014 76.8338" stroke="#647891" stroke-width="2" stroke-linecap="round" stroke-linejoin="round"/>
<path d="M33.1553 70.9243C33.3922 73.7123 34.8141 75.1062 36.5426 76.6535" stroke="#647891" stroke-width="2" stroke-linecap="round" stroke-linejoin="round"/>
<path d="M31.3422 63.0342C29.7391 64.9579 24.7766 65.6827 22.4766 63.0342" stroke="#647891" stroke-width="2" stroke-linecap="round" stroke-linejoin="round"/>
<path d="M7.88216 79.5534C8.87103 74.4981 8.97009 69.309 8.17489 64.2197C7.35245 56.6504 6.78092 48.886 11.7853 42.5853C21.5431 30.3184 42.4526 35.8106 45.9375 50.7818C47.4848 57.5426 44.6551 66.2549 45.1848 73.406" stroke="#647891" stroke-width="2" stroke-linecap="round" stroke-linejoin="round"/>
<path d="M34.5485 42.9053C29.2653 51.7988 18.4899 56.4686 5.44238 53.4994" stroke="#647891" stroke-width="2" stroke-linecap="round" stroke-linejoin="round"/>
<path d="M113.684 69.5997C122.822 69.5997 130.231 62.1916 130.231 53.0533C130.231 43.9149 122.822 36.5068 113.684 36.5068C104.546 36.5068 97.1377 43.9149 97.1377 53.0533C97.1377 62.1916 104.546 69.5997 113.684 69.5997Z" stroke="#647891" stroke-width="2" stroke-linecap="round" stroke-linejoin="round"/>
<path d="M105.404 39.5601C105.404 39.5601 110.13 52.6773 128.976 50.3494" stroke="#647891" stroke-width="2" stroke-linecap="round" stroke-linejoin="round"/>
<path d="M97.123 53.0671C99.8161 52.5818 102.218 51.0759 103.828 48.8633C105.438 46.6508 106.132 43.9022 105.766 41.1904" stroke="#647891" stroke-width="2" stroke-linecap="round" stroke-linejoin="round"/>
<path d="M130.636 53.2632C131.13 53.2005 131.633 53.2439 132.109 53.3903C132.586 53.5368 133.026 53.783 133.4 54.1127C133.774 54.4423 134.074 54.8479 134.279 55.3023C134.484 55.7567 134.59 56.2496 134.59 56.7482C134.59 57.2468 134.484 57.7396 134.279 58.1941C134.074 58.6485 133.774 59.054 133.4 59.3836C133.026 59.7133 132.586 59.9595 132.109 60.106C131.633 60.2524 131.13 60.2958 130.636 60.2331C130.432 60.2531 130.226 60.2531 130.022 60.2331" stroke="#647891" stroke-width="2" stroke-linecap="round" stroke-linejoin="round"/>
<path d="M96.8591 53.2632C95.9953 53.419 95.221 53.8925 94.6888 54.5907C94.1567 55.2888 93.9052 56.1608 93.9839 57.0351C94.0626 57.9094 94.4657 58.7225 95.114 59.3144C95.7622 59.9063 96.6086 60.234 97.4864 60.233" stroke="#647891" stroke-width="2" stroke-linecap="round" stroke-linejoin="round"/>
<path d="M71.4057 63.23C80.29 63.23 87.4922 54.4177 87.4922 43.5471C87.4922 32.6766 80.29 23.8643 71.4057 23.8643C62.5215 23.8643 55.3193 32.6766 55.3193 43.5471C55.3193 54.4177 62.5215 63.23 71.4057 63.23Z" stroke="#647891" stroke-width="2" stroke-linecap="round" stroke-linejoin="round"/>
<path d="M121.588 68.0801C121.318 69.3387 121.343 70.6426 121.66 71.8901C121.976 73.1377 122.577 74.2954 123.414 75.273" stroke="#647891" stroke-width="2" stroke-linecap="round" stroke-linejoin="round"/>
<path d="M105.39 68.0801C105.662 69.3376 105.64 70.6409 105.325 71.8884C105.011 73.1359 104.413 74.2942 103.578 75.273" stroke="#647891" stroke-width="2" stroke-linecap="round" stroke-linejoin="round"/>
<path d="M71.6 23.9056C73.8557 23.9056 75.6843 22.1955 75.6843 20.0861C75.6843 17.9766 73.8557 16.2666 71.6 16.2666C69.3442 16.2666 67.5156 17.9766 67.5156 20.0861C67.5156 22.1955 69.3442 23.9056 71.6 23.9056Z" fill="#647891"/>
<path d="M91.1862 32.7712C91.643 32.1437 91.8873 31.3867 91.8832 30.6105C91.8468 29.5727 91.4041 28.5908 90.6505 27.8764C89.897 27.1619 88.8929 26.7721 87.8546 26.791C87.9425 26.5237 88.0032 26.2482 88.0358 25.9686C88.048 25.2961 87.895 24.6309 87.5903 24.0313C87.2856 23.4317 86.8385 22.9159 86.2881 22.5293C85.7378 22.1427 85.101 21.8969 84.4335 21.8136C83.7661 21.7304 83.0885 21.812 82.4599 22.0516V21.7309C82.399 20.6871 81.9414 19.7061 81.1808 18.9887C80.4202 18.2712 79.4142 17.8716 78.3686 17.8716C77.3231 17.8716 76.317 18.2712 75.5565 18.9887C74.7959 19.7061 74.3383 20.6871 74.2773 21.7309C74.3137 22.7823 74.7656 23.7763 75.5339 24.495C76.3022 25.2136 77.3242 25.5982 78.3756 25.5644C78.8946 25.5622 79.4091 25.4678 79.895 25.2856C79.8569 26.3182 80.2255 27.3245 80.9214 28.0882C81.6174 28.852 82.5853 29.3122 83.6169 29.3699H83.9376C83.8005 29.7601 83.7253 30.1693 83.7145 30.5826C83.7362 31.4571 84.0521 32.2987 84.6111 32.9715C85.1701 33.6443 85.9395 34.109 86.7952 34.2906C86.3463 34.9257 86.1119 35.6876 86.1261 36.4652C86.187 37.509 86.6446 38.49 87.4052 39.2075C88.1658 39.9249 89.1718 40.3246 90.2174 40.3246C91.263 40.3246 92.269 39.9249 93.0296 39.2075C93.7901 38.49 94.2477 37.509 94.3087 36.4652C94.2843 35.5866 93.9619 34.7425 93.3945 34.0712C92.8271 33.4 92.0484 32.9416 91.1862 32.7712V32.7712Z" fill="#647891"/>
<path d="M52.3351 32.772C51.8742 32.1458 51.6251 31.3889 51.6242 30.6113C51.6641 29.5723 52.1098 28.5904 52.8656 27.8763C53.6214 27.1622 54.6271 26.7728 55.6667 26.7918C55.5719 26.5264 55.511 26.2501 55.4855 25.9694C55.4282 24.9245 55.7855 23.8992 56.4797 23.1162C57.174 22.3331 58.1492 21.8557 59.1934 21.7875C59.8189 21.7366 60.4478 21.8271 61.0335 22.0523V21.7317C61.1182 20.7068 61.5853 19.7511 62.3419 19.0545C63.0985 18.3579 64.0893 17.9712 65.1178 17.9712C66.1463 17.9712 67.1371 18.3579 67.8937 19.0545C68.6504 19.7511 69.1174 20.7068 69.2021 21.7317C69.1694 22.7646 68.7341 23.7438 67.9892 24.4601C67.2443 25.1763 66.2488 25.5729 65.2154 25.5651C64.6964 25.563 64.1819 25.4686 63.696 25.2864C63.7299 26.3295 63.3506 27.3438 62.6406 28.1087C61.9305 28.8736 60.9471 29.3271 59.9044 29.3707H59.6395C59.7876 29.7583 59.8678 30.1686 59.8765 30.5834C59.8577 31.4502 59.5498 32.2859 59.0018 32.9577C58.4537 33.6295 57.6969 34.0989 56.8516 34.2914C57.3065 34.9145 57.5506 35.6666 57.5485 36.4381C57.4638 37.4631 56.9968 38.4187 56.2402 39.1153C55.4836 39.812 54.4927 40.1987 53.4642 40.1987C52.4358 40.1987 51.4449 39.812 50.6883 39.1153C49.9317 38.4187 49.4646 37.4631 49.3799 36.4381C49.3992 35.5867 49.6995 34.7655 50.234 34.1024C50.7685 33.4394 51.5072 32.9716 52.3351 32.772V32.772Z" fill="#647891"/>
</svg>
