<svg width="144" height="144" viewBox="0 0 144 144" fill="none" xmlns="http://www.w3.org/2000/svg">
<path d="M38 31.5L70 46V114L38 99.5V31.5Z" fill="#E5EAEF"/>
<path d="M70 46L104.5 30.5V99.5L70 114V46Z" fill="#647891"/>
<path d="M70 46L104.5 30.5V99.5L70 114M70 46L38 31.5M70 46V114M38 31.5L1.5 46V114L38 99.5M38 31.5V99.5M38 99.5L70 114" stroke="#647891" stroke-width="2"/>
<path d="M101.881 109.014C115.442 109.014 126.435 98.0211 126.435 84.4603C126.435 70.8995 115.442 59.9062 101.881 59.9062C88.3204 59.9062 77.3271 70.8995 77.3271 84.4603C77.3271 98.0211 88.3204 109.014 101.881 109.014Z" fill="#F6BD4E"/>
<path d="M102 68C107.6 68 111.666 71.6667 113 73.5C114.5 75.5 114.5 79.5 114.5 83C114.5 86.5 110.5 90.5 107 92.5C107 94.1 109 97.8333 110 99.5C104.833 99.5 94.6998 99.3 95.4998 98.5C96.2998 97.7 97.4998 93.8333 97.9998 92C96.3331 90.6667 92.7997 86.7 91.9997 81.5C90.9997 75 94.9997 68 102 68Z" fill="white"/>
<path d="M106.148 87.2676C105.084 88.5277 101.816 89.0002 100.305 87.2676" stroke="#6B7D94" stroke-width="2" stroke-linecap="round" stroke-linejoin="round"/>
<path d="M114.017 80.3574C115.371 91.7521 101.22 97.5552 94.4222 88.8234C92.6797 86.5943 91.8351 83.7935 92.0547 80.9727" stroke="#6B7D94" stroke-width="2" stroke-linecap="round" stroke-linejoin="round"/>
<path d="M98.1141 92.4453C97.8384 94.6358 97.1985 96.8754 95.584 97.7565" stroke="#6B7D94" stroke-width="2" stroke-linecap="round" stroke-linejoin="round"/>
<path d="M107.441 92.6035C107.298 94.8333 108.504 97.6883 109.789 98.6285" stroke="#6B7D94" stroke-width="2" stroke-linecap="round" stroke-linejoin="round"/>
<path d="M91.4048 80.4297C89.5097 82.1181 90.4203 85.4652 92.8175 86.0412" stroke="#6B7D94" stroke-width="2" stroke-linecap="round" stroke-linejoin="round"/>
<path d="M114.027 79.5889C114.027 79.5889 116.099 80.3814 115.824 83.0345C115.763 83.6749 115.504 84.2803 115.082 84.7658C114.66 85.2513 114.096 85.5926 113.471 85.7418" stroke="#6B7D94" stroke-width="2" stroke-linecap="round" stroke-linejoin="round"/>
<path d="M91.991 81.1C91.991 81.1 89.2051 73.7513 96.7113 69.5528C96.7113 69.5528 101.722 66.5503 108.569 69.5774C115.415 72.6045 114.096 79.9138 114.096 79.9138" stroke="#6B7D94" stroke-width="2" stroke-linecap="round" stroke-linejoin="round"/>
<path d="M95.6039 97.4324C97.0116 98.2494 103.509 100.351 109.258 97.4324C109.384 97.3692 109.523 97.3362 109.664 97.3362C109.805 97.3362 109.944 97.3692 110.07 97.4324C112.462 98.5989 115.976 100.258 117.862 103.59C113.5 107 104.566 109 102.5 109C100.348 109 93.5002 108.5 87.1182 103.58C87.9845 101.916 90.0222 99.2782 94.6194 97.3684C94.7771 97.3015 94.9483 97.2725 95.1193 97.2836C95.2902 97.2947 95.4562 97.3456 95.6039 97.4324Z" fill="#F06E61"/>
<path d="M95.6924 73.0176C95.6924 73.0176 99.9402 81.6514 114.017 79.6775" stroke="#6B7D94" stroke-width="2" stroke-linecap="round" stroke-linejoin="round"/>
<path d="M95.5546 72.959C96.0749 74.562 96.0086 76.2978 95.3676 77.8565C94.7552 79.3445 93.6112 80.5515 92.1582 81.2429" stroke="#6B7D94" stroke-width="2" stroke-linecap="round" stroke-linejoin="round"/>
<path d="M101.881 109.014C115.442 109.014 126.435 98.0211 126.435 84.4603C126.435 70.8995 115.442 59.9062 101.881 59.9062C88.3204 59.9062 77.3271 70.8995 77.3271 84.4603C77.3271 98.0211 88.3204 109.014 101.881 109.014Z" stroke="#647891" stroke-width="2"/>
<path d="M129 74.5L137.5 69M130.5 83.5L143 81.5M130 91.5L141.5 94.5M126.5 99.5L135 106.5" stroke="#647891" stroke-width="2" stroke-linecap="round" stroke-linejoin="round"/>
<path d="M67 89.5L56 93L48 55L26 93L19.5 75" stroke="#647891" stroke-width="2" stroke-linecap="round" stroke-linejoin="round" stroke-dasharray="4 4"/>
<path d="M19.3634 59.8329L20.9606 63.0697C21.0221 63.1926 21.1373 63.277 21.2716 63.2962L24.8424 63.8145C25.1803 63.8645 25.3147 64.2792 25.0728 64.5172L22.4888 67.0359C22.3928 67.1319 22.3467 67.2664 22.3698 67.4007L22.9803 70.9562C23.0379 71.2941 22.6846 71.5513 22.3813 71.3901L19.1868 69.7121C19.0677 69.6507 18.9218 69.6507 18.8028 69.7121L15.6083 71.3901C15.305 71.5475 14.9517 71.2941 15.0093 70.9562L15.6198 67.4007C15.6428 67.2664 15.5968 67.1319 15.5008 67.0359L12.9168 64.5172C12.671 64.2792 12.8054 63.8645 13.1471 63.8145L16.7179 63.2962C16.8523 63.277 16.9675 63.1926 17.0289 63.0697L18.6262 59.8329C18.7759 59.5257 19.2136 59.5257 19.3672 59.8329H19.3634Z" fill="#F06E61"/>
</svg>
