<svg width="144" height="144" viewBox="0 0 144 144" fill="none" xmlns="http://www.w3.org/2000/svg">
<path d="M71.1453 35.187C71.1453 35.187 57.0612 46.3591 39.7012 42.628V67.1644C39.7012 80.866 44.062 101.123 71.1453 112.337C98.2703 101.123 102.61 80.866 102.61 67.1644V42.628C85.2503 46.3591 71.1453 35.187 71.1453 35.187Z" fill="#7CC694"/>
<path d="M71.5645 133.719C115.11 115.89 122.129 83.6652 122.129 61.8591V22.8644C94.1838 28.7966 71.5645 11 71.5645 11" stroke="#6B7D94" stroke-width="2" stroke-linecap="round" stroke-linejoin="round"/>
<path d="M71.5648 133.719C28.0193 115.89 21 83.6652 21 61.8591V22.8644C48.9454 28.7966 71.5648 11 71.5648 11" stroke="#6B7D94" stroke-width="2" stroke-linecap="round" stroke-linejoin="round"/>
</svg>
