<svg width="32" height="32" viewBox="0 0 32 32" fill="none" xmlns="http://www.w3.org/2000/svg">
<path fill-rule="evenodd" clip-rule="evenodd" d="M15.8832 5C12.6948 5 10.1101 7.5847 10.1101 10.7731V16.2427H7.11011V10.7731C7.11011 5.92785 11.038 2 15.8832 2H16.1197C20.965 2 24.8928 5.92784 24.8928 10.7731V16.2427H21.8928V10.7731C21.8928 7.5847 19.3081 5 16.1197 5H15.8832Z" fill="#4A6382"/>
<path fill-rule="evenodd" clip-rule="evenodd" d="M16.0018 12C19.7991 12 24.075 13.1867 26.2479 13.9486C26.7057 14.1091 27.0001 14.546 27.0001 15.0311V26.9765C27.0001 27.4112 26.7642 27.8131 26.365 27.9853C24.3273 28.8643 20.0985 30 16.0018 30C11.9101 30 7.6868 28.8671 5.64616 27.9886C5.2428 27.815 5.00342 27.4034 5.00342 26.9576V15.0511C5.00342 14.5545 5.30121 14.1078 5.76239 13.9463C7.9374 13.1843 12.2084 12 16.0018 12ZM19.0013 18.5312C19.0013 19.671 18.3658 20.6624 17.4298 21.1704V25.3908C17.4298 26.18 16.79 26.8198 16.0008 26.8198C15.2116 26.8198 14.5718 26.18 14.5718 25.3908V21.1708C13.6354 20.6629 12.9995 19.6713 12.9995 18.5312C12.9995 16.8738 14.3431 15.5303 16.0004 15.5303C17.6577 15.5303 19.0013 16.8738 19.0013 18.5312Z" fill="#4A6382"/>
</svg>
