<svg width="144" height="144" viewBox="0 0 144 144" fill="none" xmlns="http://www.w3.org/2000/svg">
<path d="M87.0429 95.4858C109.111 95.4858 127 77.6923 127 55.7429C127 33.7935 109.111 16 87.0429 16C64.9753 16 47.0859 33.7935 47.0859 55.7429C47.0859 77.6923 64.9753 95.4858 87.0429 95.4858Z" stroke="#6B7D94" stroke-width="2" stroke-linecap="round" stroke-linejoin="round"/>
<path d="M87.042 82.9572C102.153 82.9572 114.403 70.7728 114.403 55.7425C114.403 40.7123 102.153 28.5278 87.042 28.5278C71.9307 28.5278 59.6807 40.7123 59.6807 55.7425C59.6807 70.7728 71.9307 82.9572 87.042 82.9572Z" fill="#F6BD4E"/>
<path d="M62.6793 89.5371L26.8503 125.157C25.6541 126.337 24.0371 127 22.3518 127C20.6665 127 19.0495 126.337 17.8533 125.157V125.157C16.6662 123.967 16 122.358 16 120.682C16 119.006 16.6662 117.398 17.8533 116.208L53.6823 80.5884" stroke="#6B7D94" stroke-width="2" stroke-linecap="round" stroke-linejoin="round"/>
</svg>
