<svg width="144" height="144" viewBox="0 0 144 144" fill="none" xmlns="http://www.w3.org/2000/svg">
<path d="M78.2745 127.879L89.8568 134.676C90.0393 134.796 90.2615 134.838 90.4752 134.795C90.689 134.752 90.877 134.626 90.9988 134.445C91.2353 134.127 91.5429 133.869 91.897 133.691C92.251 133.514 92.6417 133.421 93.0379 133.421C93.4341 133.421 93.8248 133.514 94.1789 133.691C94.5329 133.869 94.8405 134.127 95.0771 134.445C95.16 134.545 95.2639 134.625 95.3814 134.68C95.4988 134.736 95.627 134.764 95.7568 134.764C95.8866 134.764 96.0147 134.736 96.1322 134.68C96.2497 134.625 96.3536 134.545 96.4365 134.445L96.7764 133.997C96.8579 133.895 96.9613 133.812 97.0789 133.756C97.1966 133.699 97.3255 133.67 97.4561 133.67C97.5867 133.67 97.7156 133.699 97.8332 133.756C97.9509 133.812 98.0543 133.895 98.1358 133.997C101.208 137.789 108.318 134.282 105.898 131.821C105.803 131.728 105.732 131.613 105.689 131.487C105.647 131.361 105.634 131.226 105.652 131.094C105.671 130.962 105.72 130.836 105.796 130.726C105.871 130.617 105.972 130.526 106.088 130.462C107.703 129.689 109.13 128.575 110.273 127.197C111.416 125.82 112.247 124.211 112.709 122.482C112.753 122.32 112.75 122.148 112.7 121.988C112.649 121.827 112.555 121.685 112.426 121.576C112.298 121.468 112.141 121.398 111.974 121.375C111.808 121.353 111.638 121.378 111.485 121.449L111.118 121.612C111.006 121.662 110.884 121.689 110.76 121.69C110.637 121.691 110.514 121.666 110.401 121.618C110.287 121.569 110.185 121.498 110.1 121.408C110.015 121.318 109.95 121.212 109.909 121.096V121.096C109.846 120.926 109.733 120.779 109.585 120.676C109.436 120.573 109.26 120.517 109.079 120.517C108.898 120.517 108.722 120.573 108.574 120.676C108.425 120.779 108.312 120.926 108.25 121.096L107.638 122.849L107.054 119.627C106.918 135.166 84.188 127.526 92.7932 115.345C92.8967 115.195 92.9521 115.017 92.9521 114.835C92.9521 114.653 92.8967 114.475 92.7932 114.326C88.7149 107.895 97.9863 100.432 103.329 106.414C100.528 103.695 103.968 99.0999 105.98 102.716L105.817 101.642C105.799 101.526 105.806 101.407 105.835 101.294C105.864 101.18 105.915 101.073 105.986 100.979C106.057 100.886 106.146 100.807 106.247 100.748C106.349 100.689 106.461 100.651 106.578 100.636C108.448 100.376 110.353 100.561 112.139 101.175C113.925 101.789 115.54 102.815 116.855 104.171C117.008 104.333 117.217 104.43 117.44 104.442C119.124 104.512 120.762 105.013 122.198 105.897C122.32 105.987 122.464 106.042 122.615 106.058C122.765 106.074 122.918 106.05 123.056 105.988C123.194 105.925 123.313 105.828 123.401 105.704C123.49 105.581 123.543 105.436 123.557 105.285C123.924 102.036 120.091 99.6029 118.228 97.2375C117.517 96.1729 117.029 94.9747 116.796 93.7157C116.562 92.4567 116.587 91.1633 116.87 89.9144C117.152 88.6654 117.686 87.487 118.438 86.451C119.19 85.4149 120.146 84.5428 121.246 83.8878C121.413 83.8066 121.55 83.675 121.638 83.5115C121.726 83.348 121.76 83.161 121.736 82.977L119.329 66.12C119.301 65.9501 119.322 65.7756 119.392 65.6178C119.461 65.4601 119.575 65.326 119.719 65.2321C119.864 65.1382 120.032 65.0886 120.205 65.0894C120.377 65.0901 120.545 65.1412 120.689 65.2364L121.042 65.4539C121.192 65.5595 121.37 65.6162 121.553 65.616C121.736 65.6158 121.915 65.5588 122.064 65.4529C122.213 65.3469 122.326 65.1973 122.386 65.0246C122.447 64.8519 122.452 64.6646 122.402 64.4887C120.227 55.6524 128.845 58.1402 127.636 53.6132C127.587 53.4425 127.487 53.2907 127.35 53.1782C126.276 52.4305 124.55 53.5861 123.204 53.1782C123.063 53.1364 122.936 53.0564 122.837 52.9471C119.914 49.8884 125.719 45.3207 128.628 41.9357C128.727 41.8229 128.854 41.7377 128.997 41.6886C129.139 41.6395 129.291 41.6281 129.439 41.6554C129.587 41.6828 129.725 41.7481 129.84 41.8449C129.956 41.9416 130.044 42.0666 130.096 42.2076C131.224 45.2255 135.711 46.0004 135.928 42.4387C135.931 42.2261 135.856 42.0197 135.719 41.8574C135.582 41.6951 135.39 41.5878 135.18 41.5551C132.992 41.1744 130.613 38.9857 131.36 37.2457C131.447 37.0382 131.448 36.805 131.364 36.5964C131.28 36.3879 131.118 36.2207 130.912 36.1309C130.632 36.026 130.379 35.8625 130.168 35.6515C129.957 35.4405 129.793 35.1868 129.688 34.9074C129.637 34.7493 129.545 34.6078 129.421 34.4977C129.296 34.3877 129.145 34.3132 128.981 34.2821C124.093 33.5124 119.369 31.927 115.006 29.592C114.834 29.491 114.632 29.4525 114.434 29.4831C114.236 29.5136 114.055 29.6113 113.921 29.7597C113.787 29.9081 113.708 30.0982 113.698 30.2979C113.688 30.4977 113.746 30.6949 113.864 30.8563L114.177 31.3049C114.255 31.4318 114.301 31.5762 114.309 31.7251C114.318 31.874 114.289 32.0226 114.225 32.1575C114.162 32.2924 114.066 32.4094 113.946 32.4979C113.826 32.5864 113.686 32.6436 113.538 32.6644C108.372 33.3169 105.803 28.7356 101.643 27.6209C101.453 27.5595 101.249 27.5595 101.059 27.6209C95.6209 30.0407 101.956 36.0358 103.696 39.2168L103.777 39.3936C106.428 47.3463 97.592 49.7796 93.8264 45.2799C90.1287 43.1728 87.0292 45.1576 85.2756 43.132C81.9042 38.809 85.2755 33.3169 85.8329 28.5317C85.8476 28.3635 85.9125 28.2036 86.0192 28.0727C86.1258 27.9418 86.2693 27.846 86.4311 27.7976C91.4882 26.343 86.0776 20.0624 82.9373 17.194C82.8278 17.0898 82.6931 17.0159 82.5464 16.9796C82.3996 16.9433 82.246 16.9459 82.1005 16.987C81.9551 17.0282 81.8229 17.1065 81.7169 17.2143C81.611 17.3222 81.535 17.4557 81.4963 17.6018L81.3468 18.1728C81.3019 18.3488 81.2031 18.5064 81.0641 18.6235C80.9251 18.7405 80.753 18.8111 80.5719 18.8253L73.7747 19.3827C77.4724 19.0428 75.7187 24.0863 72.4153 23.0668C70.4577 22.6725 68.7448 20.9732 66.7872 20.5518C66.6153 20.5164 66.4367 20.533 66.2742 20.5996C66.1117 20.6661 65.9727 20.7796 65.875 20.9255C65.7773 21.0713 65.7252 21.243 65.7255 21.4186C65.7257 21.5941 65.7783 21.7657 65.8764 21.9112L66.0124 22.1287C66.1038 22.2853 66.1449 22.4662 66.1301 22.6468C66.1153 22.8275 66.0452 22.9993 65.9294 23.1388C65.8137 23.2783 65.6578 23.3789 65.4829 23.4268C65.3081 23.4747 65.1227 23.4676 64.952 23.4066L59.5143 21.449C59.363 21.4059 59.2296 21.3154 59.1336 21.1907C57.2999 19.0522 54.8876 17.4886 52.1866 16.688C49.4856 15.8873 46.611 15.8837 43.908 16.6774H43.6769C36.2815 15.7258 31.3332 6.57682 23.4349 7.86829L23.1494 7.94985C22.3933 8.32305 21.7955 8.95427 21.4639 9.72957C21.1323 10.5049 21.0889 11.3732 21.3414 12.1777C21.4048 12.3045 21.4394 12.4438 21.4429 12.5855C21.4463 12.7273 21.4185 12.868 21.3614 12.9978C21.3043 13.1276 21.2193 13.2432 21.1125 13.3364C21.0056 13.4296 20.8796 13.4982 20.7432 13.5371L20.4985 13.6051C20.3022 13.6514 20.1251 13.7573 19.9912 13.9082C19.8574 14.059 19.7734 14.2475 19.7508 14.4479C19.1799 19.641 19.4518 18.9205 14.517 19.3827C14.3477 19.4129 14.1913 19.4935 14.0684 19.6138C13.8729 19.7967 13.7262 20.0257 13.6419 20.2798C13.5575 20.5339 13.5381 20.8051 13.5854 21.0686C13.6327 21.3322 13.7452 21.5797 13.9127 21.7886C14.0802 21.9975 14.2973 22.1612 14.5442 22.2647C14.6603 22.3273 14.762 22.4137 14.8425 22.5183C14.9229 22.6228 14.9804 22.7432 15.0112 22.8715C15.042 22.9998 15.0454 23.1331 15.0211 23.2628C14.9969 23.3925 14.9455 23.5156 14.8705 23.6241L13.7693 25.1331C10.3843 29.7144 4.15811 34.3637 9.28318 35.6415C16.0124 37.1777 22.6192 30.2038 26.181 30.598C26.3046 30.6115 26.4246 30.6484 26.5344 30.7068C31.6051 33.1945 35.6698 39.4343 36.9205 44.8041C36.9205 44.8041 36.9205 44.8857 36.9205 44.9265C37.1652 46.5714 37.1108 48.393 38.144 49.6981C39.1772 51.0031 41.9504 50.8128 41.9912 49.1271C41.7329 52.5257 41.6649 56.4273 43.4458 59.1325C43.5145 59.2231 43.5514 59.3339 43.5508 59.4476C43.5502 59.5613 43.5121 59.6716 43.4424 59.7615C43.3727 59.8513 43.2753 59.9157 43.1653 59.9445C43.0553 59.9733 42.9389 59.9651 42.834 59.921V59.921C42.7315 59.875 42.6167 59.8637 42.5071 59.8889C42.3976 59.914 42.2992 59.9742 42.227 60.0603C42.1547 60.1464 42.1125 60.2537 42.1067 60.3659C42.101 60.4782 42.132 60.5893 42.1951 60.6823C43.772 62.9526 47.225 64.0673 48.095 66.7862C48.8155 69.0564 47.4153 71.3946 46.4501 73.5833C45.1658 76.6137 44.6585 79.9167 44.9742 83.1928C45.29 86.4689 46.4187 89.6143 48.2582 92.3435C50.7731 95.9868 54.6203 98.964 55.4904 103.301C55.9118 105.313 55.8166 107.827 57.4751 108.969C57.5699 109.034 57.6759 109.08 57.7878 109.105C59.9221 109.622 62.5594 111.199 60.7242 112.49C60.598 112.578 60.4949 112.695 60.4237 112.831C60.3525 112.967 60.3153 113.118 60.3153 113.272C60.3153 113.426 60.3525 113.577 60.4237 113.713C60.4949 113.849 60.598 113.966 60.7242 114.054L63.6062 116.134C63.7306 116.219 63.8733 116.275 64.0229 116.297C64.1726 116.318 64.3251 116.305 64.4687 116.257C64.6122 116.21 64.7429 116.13 64.8503 116.023C64.9577 115.917 65.0391 115.787 65.088 115.644C65.1952 115.299 65.2277 114.935 65.1831 114.576C65.1386 114.218 65.0181 113.873 64.8297 113.564C64.7233 113.405 64.6665 113.219 64.6665 113.027C64.6665 112.836 64.7233 112.649 64.8297 112.49C65.0051 112.208 65.1035 111.885 65.1151 111.552C65.1294 111.376 65.191 111.207 65.2934 111.064C65.3958 110.92 65.5352 110.806 65.6968 110.735C65.8584 110.664 66.0363 110.638 66.2115 110.66C66.3867 110.682 66.5528 110.751 66.6921 110.859C72.3813 115.541 76.8267 121.556 79.6339 128.369" fill="#F06E61"/>
<path d="M78.2745 127.879L89.8568 134.676C90.0393 134.796 90.2615 134.838 90.4752 134.795C90.689 134.752 90.877 134.626 90.9988 134.445C91.2353 134.127 91.5429 133.869 91.897 133.691C92.251 133.514 92.6417 133.421 93.0379 133.421C93.4341 133.421 93.8248 133.514 94.1789 133.691C94.5329 133.869 94.8405 134.127 95.0771 134.445C95.16 134.545 95.2639 134.625 95.3814 134.68C95.4988 134.736 95.627 134.764 95.7568 134.764C95.8866 134.764 96.0147 134.736 96.1322 134.68C96.2497 134.625 96.3536 134.545 96.4365 134.445L96.7764 133.997C96.8579 133.895 96.9613 133.812 97.0789 133.756C97.1966 133.699 97.3255 133.67 97.4561 133.67C97.5867 133.67 97.7156 133.699 97.8332 133.756C97.9509 133.812 98.0543 133.895 98.1358 133.997C101.208 137.789 108.318 134.282 105.898 131.821C105.803 131.728 105.732 131.613 105.689 131.487C105.647 131.361 105.634 131.226 105.652 131.094C105.671 130.962 105.72 130.836 105.796 130.726C105.871 130.617 105.972 130.526 106.088 130.462C107.703 129.689 109.13 128.575 110.273 127.197C111.416 125.82 112.247 124.211 112.709 122.482C112.753 122.32 112.75 122.148 112.7 121.988C112.649 121.827 112.555 121.685 112.426 121.576C112.298 121.468 112.141 121.398 111.974 121.375C111.808 121.353 111.638 121.378 111.485 121.449L111.118 121.612C111.006 121.662 110.884 121.689 110.76 121.69C110.637 121.691 110.514 121.666 110.401 121.618C110.287 121.569 110.185 121.498 110.1 121.408C110.015 121.318 109.95 121.212 109.909 121.096V121.096C109.846 120.926 109.733 120.779 109.585 120.676C109.436 120.573 109.26 120.517 109.079 120.517C108.898 120.517 108.722 120.573 108.574 120.676C108.425 120.779 108.312 120.926 108.25 121.096L107.638 122.849L107.054 119.627C106.918 135.166 84.188 127.526 92.7932 115.345C92.8967 115.195 92.9521 115.017 92.9521 114.835C92.9521 114.653 92.8967 114.475 92.7932 114.326C88.7149 107.895 97.9863 100.432 103.329 106.414C100.528 103.695 103.968 99.0999 105.98 102.716L105.817 101.642C105.799 101.526 105.806 101.407 105.835 101.294C105.864 101.18 105.915 101.073 105.986 100.979C106.057 100.886 106.146 100.807 106.247 100.748C106.349 100.689 106.461 100.651 106.578 100.636C108.448 100.376 110.353 100.561 112.139 101.175C113.925 101.789 115.54 102.815 116.855 104.171C117.008 104.333 117.217 104.43 117.44 104.442C119.124 104.512 120.762 105.013 122.198 105.897C122.32 105.987 122.464 106.042 122.615 106.058C122.765 106.074 122.918 106.05 123.056 105.988C123.194 105.925 123.313 105.828 123.401 105.704C123.49 105.581 123.543 105.436 123.557 105.285C123.924 102.036 120.091 99.6029 118.228 97.2375C117.517 96.1729 117.029 94.9747 116.796 93.7157C116.562 92.4567 116.587 91.1633 116.87 89.9144C117.152 88.6654 117.686 87.487 118.438 86.451C119.19 85.4149 120.146 84.5428 121.246 83.8878C121.413 83.8066 121.55 83.675 121.638 83.5115C121.726 83.348 121.76 83.161 121.736 82.977L119.329 66.12C119.301 65.9501 119.322 65.7756 119.392 65.6178C119.461 65.4601 119.575 65.326 119.719 65.2321C119.864 65.1382 120.032 65.0886 120.205 65.0894C120.377 65.0901 120.545 65.1412 120.689 65.2364L121.042 65.4539C121.192 65.5595 121.37 65.6162 121.553 65.616C121.736 65.6158 121.915 65.5588 122.064 65.4529C122.213 65.3469 122.326 65.1973 122.386 65.0246C122.447 64.8519 122.452 64.6646 122.402 64.4887C120.227 55.6524 128.845 58.1402 127.636 53.6132C127.587 53.4425 127.487 53.2907 127.35 53.1782C126.276 52.4305 124.55 53.5861 123.204 53.1782C123.063 53.1364 122.936 53.0564 122.837 52.9471C119.914 49.8884 125.719 45.3207 128.628 41.9357C128.727 41.8229 128.854 41.7377 128.997 41.6886C129.139 41.6395 129.291 41.6281 129.439 41.6554C129.587 41.6828 129.725 41.7481 129.84 41.8449C129.956 41.9416 130.044 42.0666 130.096 42.2076C131.224 45.2255 135.711 46.0004 135.928 42.4387C135.931 42.2261 135.856 42.0197 135.719 41.8574C135.582 41.6951 135.39 41.5878 135.18 41.5551C132.992 41.1744 130.613 38.9857 131.36 37.2457C131.447 37.0382 131.448 36.805 131.364 36.5964C131.28 36.3879 131.118 36.2207 130.912 36.1309C130.632 36.026 130.379 35.8625 130.168 35.6515C129.957 35.4405 129.793 35.1868 129.688 34.9074C129.637 34.7493 129.545 34.6078 129.421 34.4977C129.296 34.3877 129.145 34.3132 128.981 34.2821C124.093 33.5124 119.369 31.927 115.006 29.592C114.834 29.491 114.632 29.4525 114.434 29.4831C114.236 29.5136 114.055 29.6113 113.921 29.7597C113.787 29.9081 113.708 30.0982 113.698 30.2979C113.688 30.4977 113.746 30.6949 113.864 30.8563L114.177 31.3049C114.255 31.4318 114.301 31.5762 114.309 31.7251C114.318 31.874 114.289 32.0226 114.225 32.1575C114.162 32.2924 114.066 32.4094 113.946 32.4979C113.826 32.5864 113.686 32.6436 113.538 32.6644C108.372 33.3169 105.803 28.7356 101.643 27.6209C101.453 27.5595 101.249 27.5595 101.059 27.6209C95.6209 30.0407 101.956 36.0358 103.696 39.2168L103.777 39.3936C106.428 47.3463 97.592 49.7796 93.8264 45.2799C90.1287 43.1728 87.0292 45.1576 85.2756 43.132C81.9042 38.809 85.2755 33.3169 85.8329 28.5317C85.8476 28.3635 85.9125 28.2036 86.0192 28.0727C86.1258 27.9418 86.2693 27.846 86.4311 27.7976C91.4882 26.343 86.0776 20.0624 82.9373 17.194C82.8278 17.0898 82.6931 17.0159 82.5464 16.9796C82.3996 16.9433 82.246 16.9459 82.1005 16.987C81.9551 17.0282 81.8229 17.1065 81.7169 17.2143C81.611 17.3222 81.535 17.4557 81.4963 17.6018L81.3468 18.1728C81.3019 18.3488 81.2031 18.5064 81.0641 18.6235C80.9251 18.7405 80.753 18.8111 80.5719 18.8253L73.7747 19.3827C77.4724 19.0428 75.7187 24.0863 72.4153 23.0668C70.4577 22.6725 68.7448 20.9732 66.7872 20.5518C66.6153 20.5164 66.4367 20.533 66.2742 20.5996C66.1117 20.6661 65.9727 20.7796 65.875 20.9255C65.7773 21.0713 65.7252 21.243 65.7255 21.4186C65.7257 21.5941 65.7783 21.7657 65.8764 21.9112L66.0124 22.1287C66.1038 22.2853 66.1449 22.4662 66.1301 22.6468C66.1153 22.8275 66.0452 22.9993 65.9294 23.1388C65.8137 23.2783 65.6578 23.3789 65.4829 23.4268C65.3081 23.4747 65.1227 23.4676 64.952 23.4066L59.5143 21.449C59.363 21.4059 59.2296 21.3154 59.1336 21.1907C57.2999 19.0522 54.8876 17.4886 52.1866 16.688C49.4856 15.8873 46.611 15.8837 43.908 16.6774H43.6769C36.2815 15.7258 31.3332 6.57682 23.4349 7.86829L23.1494 7.94985C22.3933 8.32305 21.7955 8.95427 21.4639 9.72957C21.1323 10.5049 21.0889 11.3732 21.3414 12.1777C21.4048 12.3045 21.4394 12.4438 21.4429 12.5855C21.4463 12.7273 21.4185 12.868 21.3614 12.9978C21.3043 13.1276 21.2193 13.2432 21.1125 13.3364C21.0056 13.4296 20.8796 13.4982 20.7432 13.5371L20.4985 13.6051C20.3022 13.6514 20.1251 13.7573 19.9912 13.9082C19.8574 14.059 19.7734 14.2475 19.7508 14.4479C19.1799 19.641 19.4518 18.9205 14.517 19.3827C14.3477 19.4129 14.1913 19.4935 14.0684 19.6138C13.8729 19.7967 13.7262 20.0257 13.6419 20.2798C13.5575 20.5339 13.5381 20.8051 13.5854 21.0686C13.6327 21.3322 13.7452 21.5797 13.9127 21.7886C14.0802 21.9975 14.2973 22.1612 14.5442 22.2647C14.6603 22.3273 14.762 22.4137 14.8425 22.5183C14.9229 22.6228 14.9804 22.7432 15.0112 22.8715C15.042 22.9998 15.0454 23.1331 15.0211 23.2628C14.9969 23.3925 14.9455 23.5156 14.8705 23.6241L13.7693 25.1331C10.3843 29.7144 4.15811 34.3637 9.28318 35.6415C16.0124 37.1777 22.6192 30.2038 26.181 30.598C26.3046 30.6115 26.4246 30.6484 26.5344 30.7068C31.6051 33.1945 35.6698 39.4343 36.9205 44.8041C36.9205 44.8041 36.9205 44.8857 36.9205 44.9265C37.1652 46.5714 37.1108 48.393 38.144 49.6981C39.1772 51.0031 41.9504 50.8128 41.9912 49.1271C41.7329 52.5257 41.6649 56.4273 43.4458 59.1325C43.5145 59.2231 43.5514 59.3339 43.5508 59.4476C43.5502 59.5613 43.5121 59.6716 43.4424 59.7615C43.3727 59.8513 43.2753 59.9157 43.1653 59.9445C43.0553 59.9733 42.9389 59.9651 42.834 59.921V59.921C42.7315 59.875 42.6167 59.8637 42.5071 59.8889C42.3976 59.914 42.2992 59.9742 42.227 60.0603C42.1547 60.1464 42.1125 60.2537 42.1067 60.3659C42.101 60.4782 42.132 60.5893 42.1951 60.6823C43.772 62.9526 47.225 64.0673 48.095 66.7862C48.8155 69.0564 47.4153 71.3946 46.4501 73.5833C45.1658 76.6137 44.6585 79.9167 44.9742 83.1928C45.29 86.4689 46.4187 89.6143 48.2582 92.3435C50.7731 95.9868 54.6203 98.964 55.4904 103.301C55.9118 105.313 55.8166 107.827 57.4751 108.969C57.5699 109.034 57.6759 109.08 57.7878 109.105C59.9221 109.622 62.5594 111.199 60.7242 112.49C60.598 112.578 60.4949 112.695 60.4237 112.831C60.3525 112.967 60.3153 113.118 60.3153 113.272C60.3153 113.426 60.3525 113.577 60.4237 113.713C60.4949 113.849 60.598 113.966 60.7242 114.054L63.6062 116.134C63.7306 116.219 63.8733 116.275 64.0229 116.297C64.1726 116.318 64.3251 116.305 64.4687 116.257C64.6122 116.21 64.7429 116.13 64.8503 116.023C64.9577 115.917 65.0391 115.787 65.088 115.644C65.1952 115.299 65.2277 114.935 65.1831 114.576C65.1386 114.218 65.0181 113.873 64.8297 113.564C64.7233 113.405 64.6665 113.219 64.6665 113.027C64.6665 112.836 64.7233 112.649 64.8297 112.49C65.0051 112.208 65.1035 111.885 65.1151 111.552C65.1294 111.376 65.191 111.207 65.2934 111.064C65.3958 110.92 65.5352 110.806 65.6968 110.735C65.8584 110.664 66.0363 110.638 66.2115 110.66C66.3867 110.682 66.5528 110.751 66.6921 110.859C72.3813 115.541 76.8267 121.556 79.6339 128.369" fill="#F06E61"/>
<path d="M57.8011 108.439C58.4673 108.833 59.3645 108.779 59.9355 109.309C61.091 110.37 59.8539 112.653 61.0094 113.727C61.6483 114.312 62.8446 114.326 63.0757 115.168C63.3068 116.011 64.4352 115.372 64.6119 114.679C64.7886 113.986 64.6119 113.224 64.911 112.599C65.1369 112.248 65.4729 111.981 65.8664 111.841C66.2599 111.701 66.6889 111.695 67.0861 111.824C67.8781 112.112 68.5941 112.577 69.1796 113.184L74.9436 118.214C75.7602 118.819 76.414 119.618 76.8468 120.538C77.1323 121.34 77.0779 122.237 77.3226 123.067C77.8936 124.902 79.9463 126.193 79.9191 128.11C79.8646 128.457 79.8646 128.81 79.9191 129.157C80.1638 129.945 81.1834 130.122 81.9719 130.394C83.2848 131.006 84.4774 131.849 85.4928 132.882C86.0016 133.404 86.626 133.799 87.3155 134.035C88.0051 134.271 88.7405 134.342 89.4624 134.241C90.4955 133.969 91.4471 133.072 92.5075 133.29C92.9969 133.398 93.4047 133.738 93.8669 133.888C94.8865 134.214 95.9876 133.67 97.0344 133.888C97.8089 134.119 98.5394 134.477 99.1959 134.948C100.224 135.496 101.381 135.759 102.545 135.708C103.709 135.658 104.839 135.297 105.816 134.663C106.059 134.517 106.261 134.311 106.401 134.065C106.836 133.181 105.762 132.338 104.878 131.93C107.249 129.703 109.336 127.192 111.091 124.453C111.271 124.206 111.396 123.923 111.458 123.624C111.453 123.306 111.351 122.996 111.167 122.737C110.982 122.477 110.724 122.279 110.425 122.17C109.813 121.904 109.134 121.838 108.483 121.979C107.832 122.12 107.241 122.463 106.795 122.958C106.32 123.665 105.915 124.416 105.585 125.201C105.067 126.13 104.345 126.929 103.474 127.539C102.603 128.148 101.605 128.553 100.555 128.722C98.4357 129.036 96.275 128.551 94.4923 127.363C93.6973 126.855 92.9941 126.216 92.4123 125.473C91.4357 124.225 90.8493 122.716 90.7266 121.136C90.6578 120.567 90.6993 119.99 90.849 119.437C91.1888 118.363 92.0997 117.534 92.3851 116.446C92.4966 115.896 92.4849 115.328 92.351 114.783C92.217 114.237 91.964 113.728 91.6102 113.292C90.8931 112.424 90.05 111.668 89.1089 111.049L83.8615 107.229C80.8571 105.054 77.7033 102.798 74.0192 102.267C70.5798 101.764 67.0181 102.852 63.6059 102.118C62.6473 101.839 61.6708 101.625 60.6831 101.479C59.8244 101.502 58.9653 101.456 58.1138 101.343C57.4764 101.111 56.8275 100.911 56.1698 100.745C55.4221 100.636 54.4297 101.057 54.5385 101.941C54.6473 102.825 55.6396 103.151 56.0339 103.763C56.9583 105.095 56.2106 107.46 57.8011 108.439Z" fill="#F6BD4E"/>
<path d="M118.282 97.1019C115.251 93.0236 116.923 86.8246 121.11 84.2145C121.397 84.042 121.628 83.7892 121.773 83.4871C121.917 83.1851 121.971 82.8472 121.926 82.5152L119.628 69.2471C119.519 68.4315 120.389 65.0057 121.096 65.4271C121.258 65.5245 121.444 65.5723 121.633 65.5648C121.821 65.5573 122.004 65.4947 122.157 65.3848C122.31 65.2749 122.428 65.1225 122.496 64.9464C122.563 64.7703 122.578 64.5782 122.537 64.3939C121.984 62.7379 122.106 60.9306 122.877 59.364C122.986 59.192 123.034 58.9878 123.012 58.7852C122.989 58.5826 122.899 58.3936 122.755 58.2493L122.347 57.8551C122.252 57.7647 122.137 57.6968 122.013 57.6562C121.888 57.6155 121.755 57.6032 121.625 57.6202C121.495 57.6371 121.37 57.6828 121.26 57.754C121.15 57.8252 121.057 57.9201 120.988 58.0318C120.267 59.3912 118.133 58.6027 118.364 60.1389C118.374 61.2626 118.142 62.3754 117.684 63.4015C115.101 65.8077 111.825 67.7381 109.963 71.7349C109.432 72.8632 105.694 73.475 106.075 72.2515C106.781 70.0628 106.632 67.2895 104.797 66.6914C102.69 65.9981 100.447 65.9981 98.2986 65.5087C97.7337 65.3762 97.1828 65.1895 96.6537 64.9513C96.2187 64.761 55.0686 65.2232 47.347 65.3727C47.6665 65.7813 47.9147 66.2409 48.0811 66.7322C48.8016 69.0024 47.4014 71.3406 46.4362 73.5293C45.1519 76.5597 44.6446 79.8627 44.9603 83.1388C45.276 86.4149 46.4048 89.5603 48.2443 92.2895C50.2834 95.2395 53.3965 97.972 54.9055 101.139C54.959 101.253 55.0366 101.352 55.1329 101.432C55.2292 101.512 55.3418 101.57 55.4629 101.602C59.0518 102.58 62.6135 103.695 66.1752 104.796C66.3093 104.833 66.4501 104.839 66.5868 104.813C66.7235 104.787 66.8524 104.73 66.9637 104.647C68.6997 103.43 70.8414 102.936 72.935 103.271C75.0286 103.606 76.9095 104.743 78.179 106.441C78.2847 106.587 78.4335 106.695 78.6043 106.751C78.7751 106.807 78.9592 106.808 79.1306 106.754C80.1787 106.408 81.3203 106.487 82.3117 106.971C84.2829 107.95 85.452 109.69 87.1377 111.05C88.3165 111.991 89.6262 112.756 91.0257 113.32C91.1747 113.381 91.3376 113.401 91.4971 113.378C91.6565 113.354 91.8068 113.288 91.932 113.187C92.0572 113.085 92.1527 112.952 92.2085 112.801C92.2643 112.65 92.2783 112.486 92.2491 112.328C90.9577 106.523 98.6929 100.99 103.451 106.319C100.65 103.6 104.09 99.0051 106.102 102.621L106.17 101.86C106.151 101.731 106.157 101.6 106.189 101.474C106.222 101.348 106.279 101.229 106.357 101.126C106.436 101.022 106.534 100.935 106.647 100.869C106.759 100.804 106.884 100.762 107.013 100.745C108.811 100.512 110.638 100.688 112.359 101.26C114.08 101.832 115.649 102.785 116.95 104.049C117.274 104.362 117.697 104.554 118.146 104.592C119.137 104.663 120.11 104.893 121.028 105.272C121.368 105.419 121.745 105.456 122.106 105.377C122.468 105.299 122.796 105.109 123.044 104.834C123.291 104.559 123.447 104.214 123.487 103.846C123.528 103.478 123.453 103.107 123.271 102.784C122.075 100.677 119.615 98.8284 118.282 97.1019Z" fill="#7CC694"/>
<path d="M78.2745 127.879L89.8568 134.676C90.0393 134.796 90.2615 134.838 90.4752 134.795C90.6889 134.752 90.877 134.626 90.9988 134.445C91.2353 134.127 91.5429 133.869 91.897 133.691C92.251 133.514 92.6417 133.421 93.0379 133.421C93.4341 133.421 93.8248 133.514 94.1789 133.691C94.5329 133.869 94.8405 134.127 95.0771 134.445C95.16 134.545 95.2639 134.625 95.3813 134.68C95.4988 134.736 95.627 134.764 95.7568 134.764C95.8866 134.764 96.0147 134.736 96.1322 134.68C96.2497 134.625 96.3536 134.545 96.4365 134.445L96.7764 133.997C96.8579 133.895 96.9613 133.812 97.0789 133.756C97.1966 133.699 97.3255 133.67 97.4561 133.67C97.5866 133.67 97.7155 133.699 97.8332 133.756C97.9509 133.812 98.0543 133.895 98.1358 133.997C101.208 137.789 108.318 134.282 105.898 131.821C105.803 131.728 105.732 131.613 105.689 131.487C105.647 131.361 105.634 131.226 105.652 131.094C105.671 130.962 105.72 130.836 105.796 130.726C105.871 130.617 105.972 130.526 106.088 130.462C107.703 129.689 109.13 128.575 110.273 127.197C111.416 125.82 112.247 124.211 112.709 122.482C112.753 122.32 112.75 122.148 112.7 121.988C112.649 121.827 112.555 121.685 112.426 121.576C112.298 121.468 112.141 121.398 111.974 121.375C111.808 121.353 111.638 121.378 111.485 121.449L111.118 121.612C111.006 121.662 110.884 121.689 110.76 121.69C110.637 121.691 110.514 121.666 110.401 121.618C110.287 121.569 110.185 121.498 110.1 121.408C110.015 121.318 109.95 121.212 109.908 121.096V121.096C109.846 120.926 109.733 120.779 109.585 120.676C109.436 120.573 109.26 120.517 109.079 120.517C108.898 120.517 108.722 120.573 108.574 120.676C108.425 120.779 108.312 120.926 108.25 121.096L107.638 122.849L107.054 119.627C106.918 135.166 84.188 127.526 92.7932 115.345C92.8967 115.195 92.9521 115.017 92.9521 114.835C92.9521 114.653 92.8967 114.475 92.7932 114.326C88.7149 107.895 97.9863 100.432 103.329 106.414C100.528 103.695 103.968 99.0999 105.98 102.716L105.817 101.642C105.799 101.526 105.805 101.407 105.835 101.294C105.864 101.18 105.915 101.073 105.986 100.979C106.057 100.886 106.146 100.807 106.247 100.748C106.349 100.689 106.461 100.651 106.578 100.636C108.448 100.376 110.353 100.561 112.139 101.175C113.925 101.789 115.54 102.815 116.855 104.171C117.008 104.333 117.217 104.43 117.44 104.442C119.124 104.512 120.762 105.013 122.198 105.897C122.32 105.987 122.464 106.042 122.615 106.058C122.765 106.074 122.918 106.05 123.056 105.988C123.194 105.925 123.313 105.828 123.401 105.704C123.49 105.581 123.543 105.436 123.557 105.285C123.924 102.036 120.091 99.6029 118.228 97.2375C117.517 96.1729 117.029 94.9747 116.796 93.7157C116.562 92.4567 116.587 91.1633 116.87 89.9144C117.152 88.6654 117.686 87.487 118.438 86.451C119.19 85.4149 120.146 84.5428 121.246 83.8878C121.413 83.8066 121.55 83.675 121.638 83.5115C121.726 83.348 121.76 83.161 121.736 82.977L119.329 70.2391C119.221 69.505 120.376 65.8617 121.015 66.2424L121.369 66.4599C122.035 66.8677 122.497 65.25 122.307 64.4887C120.131 55.6524 128.75 58.1402 127.54 53.6132C127.492 53.4425 127.392 53.2907 127.255 53.1782C126.181 52.4305 124.454 53.5861 123.109 53.1782C122.967 53.1364 122.84 53.0564 122.742 52.9471C119.819 49.8884 125.624 45.3207 128.533 41.9357C128.632 41.8229 128.759 41.7377 128.901 41.6886C129.044 41.6395 129.196 41.6281 129.344 41.6554C129.492 41.6828 129.63 41.7481 129.745 41.8449C129.86 41.9416 129.948 42.0666 130.001 42.2076C131.129 45.2255 135.615 46.0004 135.833 42.4387C135.835 42.2261 135.761 42.0197 135.624 41.8574C135.487 41.6951 135.295 41.5878 135.085 41.5551C132.897 41.1744 130.518 38.9857 131.265 37.2457C131.352 37.0382 131.353 36.805 131.269 36.5964C131.185 36.3879 131.023 36.2207 130.817 36.1309C130.537 36.026 130.284 35.8625 130.073 35.6515C129.862 35.4405 129.698 35.1868 129.593 34.9074C129.542 34.7493 129.45 34.6078 129.325 34.4977C129.201 34.3877 129.049 34.3132 128.886 34.2821C123.998 33.5124 119.274 31.927 114.911 29.592C114.739 29.491 114.536 29.4525 114.339 29.4831C114.141 29.5136 113.96 29.6113 113.826 29.7597C113.692 29.9081 113.613 30.0982 113.603 30.2979C113.592 30.4977 113.651 30.6949 113.769 30.8563L114.082 31.3049C114.16 31.4318 114.206 31.5762 114.214 31.7251C114.222 31.874 114.194 32.0226 114.13 32.1575C114.067 32.2924 113.971 32.4094 113.851 32.4979C113.731 32.5864 113.591 32.6436 113.443 32.6644C108.277 33.3169 105.708 28.7356 101.548 27.6209C101.358 27.5595 101.153 27.5595 100.963 27.6209C95.5257 30.0407 101.861 36.0358 103.601 39.2168L103.682 39.3936C106.333 47.3463 97.4969 49.7796 93.7312 45.2799C90.0336 43.1728 86.9341 45.1576 85.1804 43.132C81.809 38.809 85.1804 33.3169 85.7378 28.5317C85.7525 28.3635 85.8173 28.2036 85.924 28.0727C86.0306 27.9418 86.1741 27.846 86.3359 27.7976C91.393 26.343 85.9824 20.0624 82.8422 17.194C82.7327 17.0898 82.5979 17.0159 82.4512 16.9796C82.3045 16.9433 82.1508 16.9459 82.0054 16.987C81.8599 17.0282 81.7277 17.1065 81.6218 17.2143C81.5158 17.3222 81.4398 17.4557 81.4012 17.6018L81.2516 18.1728C81.2068 18.3488 81.1079 18.5064 80.9689 18.6235C80.83 18.7405 80.6579 18.8111 80.4768 18.8253L73.6796 19.3827C77.3772 19.0428 75.6236 24.0863 72.3201 23.0668C70.3626 22.6725 68.6497 20.9732 66.6921 20.5518C66.5201 20.5164 66.3415 20.533 66.179 20.5996C66.0166 20.6661 65.8776 20.7796 65.7798 20.9255C65.6821 21.0713 65.6301 21.243 65.6303 21.4186C65.6306 21.5941 65.6831 21.7657 65.7813 21.9112L65.9172 22.1287C66.0087 22.2853 66.0498 22.4662 66.0349 22.6468C66.0201 22.8275 65.95 22.9993 65.8343 23.1388C65.7185 23.2783 65.5626 23.3789 65.3878 23.4268C65.2129 23.4747 65.0276 23.4676 64.8568 23.4066L59.4191 21.449C59.2678 21.4059 59.1344 21.3154 59.0385 21.1907C57.2047 19.0522 54.7924 17.4886 52.0915 16.688C49.3905 15.8873 46.5158 15.8837 43.8128 16.6774H43.5817C36.1864 15.7258 31.2381 6.57682 23.3397 7.86829L23.0543 7.94985C22.2981 8.32305 21.7003 8.95427 21.3687 9.72957C21.0372 10.5049 20.9937 11.3732 21.2462 12.1777C21.3096 12.3045 21.3442 12.4438 21.3477 12.5855C21.3512 12.7273 21.3233 12.868 21.2662 12.9978C21.2091 13.1276 21.1241 13.2432 21.0173 13.3364C20.9105 13.4296 20.7844 13.4982 20.6481 13.5371L20.4034 13.6051C20.2071 13.6514 20.0299 13.7573 19.8961 13.9082C19.7623 14.059 19.6783 14.2475 19.6557 14.4479C19.0847 19.641 19.3566 18.9205 14.4218 19.3827C14.2866 19.429 14.1651 19.5085 14.0684 19.6138C13.8729 19.7967 13.7262 20.0257 13.6418 20.2798C13.5575 20.5339 13.5381 20.8051 13.5854 21.0686C13.6327 21.3322 13.7452 21.5797 13.9127 21.7886C14.0802 21.9975 14.2973 22.1612 14.5442 22.2647C14.6603 22.3273 14.762 22.4137 14.8425 22.5183C14.9229 22.6228 14.9804 22.7432 15.0112 22.8715C15.042 22.9998 15.0454 23.1331 15.0211 23.2628C14.9969 23.3925 14.9455 23.5156 14.8705 23.6241L13.7693 25.1331C10.3843 29.7144 4.15811 34.3637 9.28318 35.6415C16.0124 37.1777 22.6192 30.2038 26.181 30.598C26.3046 30.6115 26.4246 30.6484 26.5344 30.7068C31.6051 33.1945 35.6698 39.4343 36.9205 44.8041C36.9205 44.8041 36.9205 44.8857 36.9205 44.9265C37.1652 46.5714 37.1108 48.393 38.144 49.6981C39.1771 51.0031 41.9504 50.8128 41.9912 49.1271C41.7329 52.5257 41.6649 56.4273 43.4458 59.1325C43.5145 59.2231 43.5514 59.3339 43.5508 59.4476C43.5502 59.5613 43.5121 59.6716 43.4424 59.7615C43.3727 59.8513 43.2753 59.9157 43.1653 59.9445C43.0553 59.9733 42.9388 59.9651 42.834 59.921V59.921C42.7315 59.875 42.6167 59.8637 42.5071 59.8889C42.3976 59.914 42.2992 59.9742 42.2269 60.0603C42.1547 60.1464 42.1125 60.2537 42.1067 60.3659C42.101 60.4782 42.132 60.5893 42.1951 60.6823C43.772 62.9526 47.225 64.0673 48.095 66.7862C48.8155 69.0564 47.4153 71.3946 46.4501 73.5833C45.1658 76.6137 44.6585 79.9167 44.9742 83.1928C45.29 86.4689 46.4187 89.6143 48.2582 92.3435C50.7731 95.9868 54.6203 98.964 55.4903 103.301C55.9118 105.313 55.8166 107.827 57.4751 108.969C57.5698 109.034 57.6759 109.08 57.7878 109.105C59.9221 109.622 62.5594 111.199 60.7242 112.49C60.598 112.578 60.4949 112.695 60.4237 112.831C60.3525 112.967 60.3153 113.118 60.3153 113.272C60.3153 113.426 60.3525 113.577 60.4237 113.713C60.4949 113.849 60.598 113.966 60.7242 114.054L63.6062 116.134C63.7306 116.219 63.8733 116.275 64.0229 116.297C64.1726 116.318 64.3251 116.305 64.4687 116.257C64.6122 116.21 64.7429 116.13 64.8503 116.023C64.9577 115.917 65.0391 115.787 65.0879 115.644C65.1952 115.299 65.2277 114.935 65.1831 114.576C65.1386 114.218 65.0181 113.873 64.8297 113.564C64.7233 113.405 64.6665 113.219 64.6665 113.027C64.6665 112.836 64.7233 112.649 64.8297 112.49C65.0051 112.208 65.1035 111.885 65.1151 111.552C65.1294 111.376 65.191 111.207 65.2934 111.064C65.3958 110.92 65.5352 110.806 65.6968 110.735C65.8584 110.664 66.0363 110.638 66.2115 110.66C66.3867 110.682 66.5528 110.751 66.6921 110.859C72.3813 115.541 76.8267 121.556 79.6339 128.369" stroke="#6B7D94" stroke-width="2" stroke-linecap="round" stroke-linejoin="round"/>
<path d="M55.1914 101.833C58.5935 102.529 61.9488 103.437 65.2376 104.551C65.695 104.742 66.1833 104.848 66.6786 104.864C67.0815 104.826 67.4759 104.725 67.8477 104.565C69.448 103.867 71.1517 103.435 72.8912 103.287C73.7633 103.227 74.6367 103.382 75.4353 103.737C76.2338 104.093 76.9333 104.638 77.4725 105.326C77.7852 105.788 78.0435 106.346 78.5465 106.55C78.7514 106.622 78.9683 106.654 79.1854 106.645C79.9595 106.516 80.7496 106.516 81.5236 106.645C82.2855 107.021 82.9331 107.593 83.3997 108.303C85.5204 110.737 88.6471 111.987 91.665 113.17" stroke="#6B7D94" stroke-width="2" stroke-linecap="round" stroke-linejoin="round"/>
<path d="M46.9941 65.1691H86.5537C86.5537 64.938 96.9261 64.7205 96.9261 64.503C97.6693 65.0114 98.5791 65.2157 99.4683 65.074C100.897 65.0786 102.315 65.3127 103.669 65.7673C104.58 66.0799 105.559 66.6237 105.749 67.5617C105.795 68.1048 105.726 68.6516 105.545 69.1659C105.382 69.8741 105.327 70.6028 105.382 71.3274C105.376 71.7529 105.47 72.1738 105.657 72.5563C105.843 72.9388 106.117 73.2722 106.456 73.5296C106.974 73.7436 107.549 73.7754 108.087 73.6198C108.626 73.4642 109.095 73.1305 109.419 72.6732C110.153 71.8303 110.534 70.7292 111.187 69.832C112.339 68.505 113.721 67.3954 115.265 66.5557C115.74 66.2906 116.138 65.9064 116.42 65.441C116.584 65.1012 116.638 64.7205 116.774 64.3671C117.101 63.8152 117.383 63.2378 117.617 62.6406C117.646 62.0453 117.614 61.4485 117.522 60.8597C117.572 60.2356 117.788 59.6361 118.146 59.1225C118.504 58.609 118.992 58.1998 119.561 57.9369C120.7 57.4347 121.92 57.14 123.163 57.0669" stroke="#6B7D94" stroke-width="2" stroke-linecap="round" stroke-linejoin="round"/>
</svg>
