<svg width="144" height="144" viewBox="0 0 144 144" fill="none" xmlns="http://www.w3.org/2000/svg">
<path d="M99.3595 133.574H18.4027C15.9798 133.636 13.6314 132.733 11.8736 131.065C10.1158 129.396 9.09242 127.098 9.02832 124.675V24.0044C9.06004 22.8053 9.32773 21.6243 9.81609 20.5287C10.3044 19.4332 11.0039 18.4446 11.8745 17.6195C12.7451 16.7944 13.7697 16.1489 14.8899 15.72C16.01 15.291 17.2037 15.087 18.4027 15.1196H98.6251C99.8241 15.087 101.018 15.291 102.138 15.72C103.258 16.1489 104.283 16.7944 105.153 17.6195C106.024 18.4446 106.723 19.4332 107.212 20.5287C107.7 21.6243 107.968 22.8053 108 24.0044V120.484" stroke="#6B7D94" stroke-width="2" stroke-linecap="round" stroke-linejoin="round"/>
<path d="M25.9912 109.67H92.5192" stroke="#6B7D94" stroke-width="2" stroke-linecap="round" stroke-linejoin="round"/>
<path d="M25.9912 98.3223H92.5192" stroke="#6B7D94" stroke-width="2" stroke-linecap="round" stroke-linejoin="round"/>
<path d="M25.9912 86.9609H92.5192" stroke="#6B7D94" stroke-width="2" stroke-linecap="round" stroke-linejoin="round"/>
<path d="M25.9912 75.5996H92.5192" stroke="#6B7D94" stroke-width="2" stroke-linecap="round" stroke-linejoin="round"/>
<path d="M25.9912 64.2378H92.5192" stroke="#6B7D94" stroke-width="2" stroke-linecap="round" stroke-linejoin="round"/>
<path d="M25.9912 52.8911H92.5192" stroke="#6B7D94" stroke-width="2" stroke-linecap="round" stroke-linejoin="round"/>
<path d="M66.8301 42.335H92.5197" stroke="#6B7D94" stroke-width="2" stroke-linecap="round" stroke-linejoin="round"/>
<path d="M66.8301 42.335H92.5197" stroke="#6B7D94" stroke-width="2" stroke-linecap="round" stroke-linejoin="round"/>
<path d="M66.8301 32.6016H92.5197" stroke="#6B7D94" stroke-width="2" stroke-linecap="round" stroke-linejoin="round"/>
<path d="M44.5261 30.0672H39.2557V24.7968C39.2557 24.4721 39.1267 24.1608 38.8972 23.9313C38.6676 23.7017 38.3563 23.5728 38.0317 23.5728H32.3725C32.2117 23.5728 32.0526 23.6044 31.9041 23.6659C31.7556 23.7274 31.6206 23.8176 31.507 23.9313C31.3933 24.0449 31.3031 24.1798 31.2416 24.3283C31.1801 24.4768 31.1485 24.636 31.1485 24.7968V30.0672H25.9213C25.7605 30.0672 25.6014 30.0988 25.4529 30.1603C25.3044 30.2218 25.1694 30.312 25.0558 30.4257C24.9421 30.5393 24.8519 30.6742 24.7904 30.8227C24.7289 30.9712 24.6973 31.1304 24.6973 31.2912V36.9504C24.6973 37.275 24.8262 37.5863 25.0558 37.8159C25.2853 38.0454 25.5966 38.1744 25.9213 38.1744H31.1917V43.4448C31.1917 43.7694 31.3206 44.0807 31.5502 44.3102C31.7797 44.5398 32.091 44.6688 32.4157 44.6688H38.0749C38.3995 44.6688 38.7108 44.5398 38.9404 44.3102C39.1699 44.0807 39.2989 43.7694 39.2989 43.4448V38.1744H44.5693C44.73 38.1744 44.8892 38.1427 45.0377 38.0812C45.1862 38.0197 45.3211 37.9295 45.4348 37.8159C45.5484 37.7022 45.6386 37.5673 45.7001 37.4188C45.7616 37.2703 45.7933 37.1111 45.7933 36.9504V31.2912C45.7934 31.1267 45.7603 30.9639 45.6961 30.8125C45.6319 30.6612 45.5379 30.5243 45.4196 30.41C45.3013 30.2958 45.1613 30.2065 45.0077 30.1476C44.8542 30.0887 44.6904 30.0613 44.5261 30.0672V30.0672Z" fill="#F06E61"/>
<path d="M16.0127 133.2C16.0127 133.2 26.6831 135.317 27.0287 120.671H112.997C112.997 120.671 114.71 133.358 99.6047 133.632" stroke="#6B7D94" stroke-width="2" stroke-linecap="round" stroke-linejoin="round"/>
<path d="M107.74 113.083C126.151 113.083 141.076 98.6095 141.076 80.7552C141.076 62.901 126.151 48.4272 107.74 48.4272C89.3293 48.4272 74.4043 62.901 74.4043 80.7552C74.4043 98.6095 89.3293 113.083 107.74 113.083Z" fill="white" stroke="#6B7D94" stroke-width="2" stroke-linecap="round" stroke-linejoin="round"/>
<path d="M107.74 104.861C121.467 104.861 132.595 94.0682 132.595 80.755C132.595 67.4419 121.467 56.6494 107.74 56.6494C94.0134 56.6494 82.8857 67.4419 82.8857 80.755C82.8857 94.0682 94.0134 104.861 107.74 104.861Z" fill="#7CC694"/>
<path d="M116.986 81.9503C116.324 81.0767 115.478 80.359 114.509 79.8479C113.334 79.2428 112.122 78.7138 110.88 78.2639C109.92 77.9313 108.99 77.517 108.1 77.0255C107.845 76.9172 107.626 76.7372 107.47 76.5073C107.314 76.2773 107.228 76.0072 107.222 75.7295C107.212 75.5725 107.233 75.415 107.285 75.2666C107.337 75.1181 107.418 74.9816 107.524 74.8655C107.619 74.7613 107.735 74.6791 107.864 74.6243C107.993 74.5696 108.133 74.5438 108.273 74.5487C108.48 74.5432 108.685 74.5786 108.878 74.6527C109.071 74.7269 109.247 74.8383 109.397 74.9807C109.571 75.175 109.705 75.4029 109.789 75.6504C109.873 75.8979 109.906 76.16 109.886 76.4207H117.749C117.759 75.3536 117.526 74.2983 117.067 73.3351C116.608 72.3719 115.935 71.5261 115.099 70.8623C113.674 69.8054 111.985 69.1625 110.217 69.0047V65.8223H106.79V68.9471C105.75 69.0586 104.728 69.3055 103.751 69.6815C102.484 70.1713 101.38 71.01 100.569 72.1007C99.7568 73.2213 99.3321 74.5762 99.3592 75.9599C99.2848 77.2767 99.6439 78.5817 100.382 79.6751C101.033 80.5955 101.891 81.3502 102.887 81.8783C104.085 82.4752 105.321 82.99 106.588 83.4191C107.539 83.7357 108.463 84.1256 109.353 84.5855C109.611 84.7047 109.831 84.8929 109.989 85.1292C110.146 85.3656 110.235 85.6408 110.246 85.9247C110.257 86.0924 110.224 86.26 110.15 86.4113C110.077 86.5626 109.966 86.6926 109.829 86.7887C109.53 86.9867 109.178 87.0874 108.82 87.0767C107.755 87.0767 107.164 86.3999 107.049 85.0751H99.3592C99.3592 86.1928 99.6195 87.2952 100.119 88.295C100.619 89.2948 101.345 90.1644 102.239 90.8351C103.582 91.7684 105.127 92.3704 106.747 92.5919V96.3359H110.174V92.7071C111.459 92.6414 112.719 92.3336 113.89 91.7999C115.145 91.2415 116.207 90.3247 116.942 89.1647C117.681 88.0235 118.076 86.6938 118.08 85.3343C118.118 84.1135 117.732 82.9174 116.986 81.9503V81.9503Z" fill="#6B7D94"/>
</svg>
