<svg width="32" height="32" viewBox="0 0 32 32" fill="none" xmlns="http://www.w3.org/2000/svg">
<path fill-rule="evenodd" clip-rule="evenodd" d="M8 12C8.55228 12 9 12.4477 9 13V15C9 18.8477 12.1523 22 16 22C19.8477 22 23 18.8477 23 15V13C23 12.4477 23.4477 12 24 12C24.5523 12 25 12.4477 25 13V15C25 19.6144 21.4858 23.4435 17 23.9445V27H20C20.5523 27 21 27.4477 21 28C21 28.5523 20.5523 29 20 29H12C11.4477 29 11 28.5523 11 28C11 27.4477 11.4477 27 12 27H15V23.9445C10.5142 23.4435 7 19.6144 7 15V13C7 12.4477 7.44772 12 8 12Z" fill="#4A6382"/>
<path d="M16 20C15.3401 19.9985 14.6871 19.8644 14.08 19.6056C13.4728 19.3469 12.9239 18.9688 12.4657 18.4938C11.5276 17.5478 11.0009 16.2698 11 14.9375V8.00004C10.9975 7.34271 11.1251 6.69138 11.3754 6.08359C11.6258 5.47581 11.994 4.9236 12.4588 4.45879C12.9236 3.99399 13.4758 3.62579 14.0836 3.37542C14.6914 3.12506 15.3427 2.99748 16 3.00004C18.8038 3.00004 21 5.19629 21 8.00004V14.9375C21 17.7288 18.7569 20 16 20Z" fill="#4A6382"/>
</svg>
