<svg width="32" height="32" viewBox="0 0 32 32" fill="none" xmlns="http://www.w3.org/2000/svg">
<path fill-rule="evenodd" clip-rule="evenodd" d="M16 30C23.732 30 30 23.732 30 16C30 8.26801 23.732 2 16 2C8.26801 2 2 8.26801 2 16C2 23.732 8.26801 30 16 30ZM15.9997 13.4512C17.083 13.4512 17.9997 14.3401 17.9997 15.3906C17.9997 16.4816 17.083 17.33 15.9997 17.33C14.8747 17.33 13.9997 16.4816 13.9997 15.3906C13.9997 14.3401 14.8747 13.4512 15.9997 13.4512ZM20.9997 15.3906C20.9997 14.3401 21.8747 13.4512 22.9997 13.4512C24.083 13.4512 24.9997 14.3401 24.9997 15.3906C24.9997 16.4816 24.083 17.33 22.9997 17.33C21.8747 17.33 20.9997 16.4816 20.9997 15.3906ZM6.9997 15.3906C6.9997 14.3401 7.8747 13.4512 8.9997 13.4512C10.083 13.4512 10.9997 14.3401 10.9997 15.3906C10.9997 16.4816 10.083 17.33 8.9997 17.33C7.8747 17.33 6.9997 16.4816 6.9997 15.3906Z" fill="#4A6382"/>
</svg>
