<svg width="144" height="144" viewBox="0 0 144 144" fill="none" xmlns="http://www.w3.org/2000/svg">
<g clip-path="url(#clip0_37301_16807)">
<path d="M115.772 44.5527L102.278 54.1442L105.72 58.8574L117.115 59.2477L115.772 44.5527Z" fill="#F6BD4E"/>
<path d="M33.0623 95.4061C37.7636 95.4061 41.5748 91.6158 41.5748 86.9403C41.5748 82.2648 37.7636 78.4746 33.0623 78.4746C28.361 78.4746 24.5498 82.2648 24.5498 86.9403C24.5498 91.6158 28.361 95.4061 33.0623 95.4061Z" fill="#7CC694"/>
<path d="M118.156 95.4061C122.857 95.4061 126.669 91.6158 126.669 86.9403C126.669 82.2648 122.857 78.4746 118.156 78.4746C113.455 78.4746 109.644 82.2648 109.644 86.9403C109.644 91.6158 113.455 95.4061 118.156 95.4061Z" fill="#7CC694"/>
<path d="M60.7732 60.8682H20.0219C14.7552 62.6273 10.3093 66.2274 7.50977 71" stroke="#647891" stroke-width="2" stroke-linecap="round" stroke-linejoin="round"/>
<path d="M32.0654 87.5118H82.3706C82.7026 87.842 104.256 59.3828 104.256 59.3828" stroke="#647891" stroke-width="2" stroke-linecap="round" stroke-linejoin="round"/>
<path d="M83.292 35.5763H90.2197C90.6955 35.5709 91.1635 35.6972 91.5713 35.9411C91.9791 36.1849 92.3106 36.5368 92.5289 36.9573L118.444 87.3463" stroke="#647891" stroke-width="2" stroke-linecap="round" stroke-linejoin="round"/>
<path d="M102.746 53.1529L115.47 43.4863L116.375 59.1419L105.991 59.9374" stroke="#647891" stroke-width="2" stroke-linecap="round" stroke-linejoin="round"/>
<path d="M18.7539 60.4927V51.2164C18.7539 48.4545 21.0631 47.5839 23.8403 47.689H37.7862C39.3569 47.6898 40.9011 48.0903 42.2722 48.8522C43.6433 49.6141 44.7956 50.7121 45.6195 52.042L58.4184 74.4221C58.8309 75.1929 59.4256 75.8525 60.1513 76.3441C60.8769 76.8356 61.7118 77.1445 62.5841 77.244H89.7516" stroke="#647891" stroke-width="2" stroke-linecap="round" stroke-linejoin="round"/>
<path d="M33.0618 106.499C43.9231 106.499 52.728 97.7427 52.728 86.941C52.728 76.1393 43.9231 67.3828 33.0618 67.3828C22.2004 67.3828 13.3955 76.1393 13.3955 86.941C13.3955 97.7427 22.2004 106.499 33.0618 106.499Z" stroke="#647891" stroke-width="2" stroke-linecap="round" stroke-linejoin="round"/>
<path d="M117.839 106.499C128.7 106.499 137.505 97.7427 137.505 86.941C137.505 76.1393 128.7 67.3828 117.839 67.3828C106.978 67.3828 98.1729 76.1393 98.1729 86.941C98.1729 97.7427 106.978 106.499 117.839 106.499Z" stroke="#647891" stroke-width="2" stroke-linecap="round" stroke-linejoin="round"/>
<path d="M61.1046 63.4946V63.7798C61.1006 64.2843 61.1973 64.7845 61.3891 65.2515C61.581 65.7185 61.8641 66.143 62.222 66.5005C62.58 66.8579 63.0058 67.1411 63.4746 67.3337C63.9435 67.5263 64.4461 67.6244 64.9533 67.6224H97.2525V59.2467C97.2532 58.1889 97.0193 57.144 96.5673 56.1864C96.1153 55.2288 95.4564 54.3823 94.6377 53.7071C93.8189 53.0318 92.8604 52.5446 91.8305 52.2801C90.8006 52.0156 89.7248 51.9804 88.6796 52.177L67.2173 56.2147C65.5115 56.5429 63.9718 57.4464 62.8581 58.7727C61.7445 60.099 61.1251 61.7668 61.1046 63.4946V63.4946Z" fill="#F06E61"/>
<path d="M61.1046 63.4946V63.7798C61.1006 64.2843 61.1973 64.7845 61.3891 65.2515C61.581 65.7185 61.8641 66.143 62.222 66.5005C62.58 66.8579 63.0058 67.1411 63.4746 67.3337C63.9435 67.5263 64.4461 67.6244 64.9533 67.6224H97.2525V59.2467C97.2532 58.1889 97.0193 57.144 96.5673 56.1864C96.1153 55.2288 95.4564 54.3823 94.6377 53.7071C93.8189 53.0318 92.8604 52.5446 91.8305 52.2801C90.8006 52.0156 89.7248 51.9804 88.6796 52.177L67.2173 56.2147C65.5115 56.5429 63.9718 57.4464 62.8581 58.7727C61.7445 60.099 61.1251 61.7668 61.1046 63.4946V63.4946Z" stroke="#647891" stroke-width="2" stroke-linecap="round" stroke-linejoin="round"/>
</g>
<defs>
<clipPath id="clip0_37301_16807">
<rect width="133" height="74" fill="white" transform="translate(6 34)"/>
</clipPath>
</defs>
</svg>
