<svg width="144" height="144" viewBox="0 0 144 144" fill="none" xmlns="http://www.w3.org/2000/svg">
<path d="M82.6854 74.3042C79.5749 77.9908 70.0128 79.3732 65.5918 74.3042" stroke="#6B7D94" stroke-width="2" stroke-linecap="round" stroke-linejoin="round"/>
<path d="M105.711 54.0864C109.671 87.4224 68.2712 104.4 48.3848 78.8544C43.2869 72.333 40.8159 64.139 41.4584 55.8864" stroke="#6B7D94" stroke-width="2" stroke-linecap="round" stroke-linejoin="round"/>
<path d="M59.1842 89.4526C58.3777 95.8609 56.5057 102.413 51.7822 104.991" stroke="#6B7D94" stroke-width="2" stroke-linecap="round" stroke-linejoin="round"/>
<path d="M86.4712 89.9131C86.0536 96.4366 89.5818 104.789 93.3404 107.54" stroke="#6B7D94" stroke-width="2" stroke-linecap="round" stroke-linejoin="round"/>
<path d="M39.5566 54.3018C34.0123 59.2412 36.6764 69.0337 43.6896 70.7186" stroke="#6B7D94" stroke-width="2" stroke-linecap="round" stroke-linejoin="round"/>
<path d="M105.739 51.8394C105.739 51.8394 111.801 54.1579 110.995 61.9198C110.818 63.7933 110.059 65.5644 108.824 66.9848C107.59 68.4052 105.942 69.4037 104.111 69.8402" stroke="#6B7D94" stroke-width="2" stroke-linecap="round" stroke-linejoin="round"/>
<path d="M41.2704 56.2599C41.2704 56.2599 33.12 34.7607 55.08 22.4775C55.08 22.4775 69.7392 13.6935 89.7696 22.5495C109.8 31.4055 105.941 52.7895 105.941 52.7895" stroke="#6B7D94" stroke-width="2" stroke-linecap="round" stroke-linejoin="round"/>
<path d="M51.8393 104.04C55.9577 106.43 74.9657 112.579 91.7849 104.04C92.1537 103.855 92.5605 103.759 92.9729 103.759C93.3854 103.759 93.7922 103.855 94.1609 104.04C101.159 107.453 111.441 112.305 116.956 122.054C117.231 122.551 117.371 123.111 117.361 123.679C117.352 124.246 117.193 124.802 116.902 125.289C116.61 125.776 116.195 126.178 115.7 126.454C115.204 126.731 114.644 126.872 114.076 126.864L29.8937 126.72C29.3422 126.717 28.8005 126.574 28.3199 126.303C27.8393 126.033 27.4356 125.644 27.1472 125.174C26.8588 124.704 26.6952 124.168 26.6719 123.617C26.6485 123.066 26.7662 122.518 27.0137 122.025C29.5481 117.158 35.5097 109.44 48.9593 103.853C49.4207 103.657 49.9215 103.572 50.4216 103.604C50.9216 103.637 51.4072 103.786 51.8393 104.04V104.04Z" fill="#F06E61"/>
<path d="M52.0996 32.6152C52.0996 32.6152 64.5268 57.8741 105.711 52.0994" stroke="#6B7D94" stroke-width="2" stroke-linecap="round" stroke-linejoin="round"/>
<path d="M51.6953 32.4429C53.2175 37.1327 53.0235 42.2108 51.148 46.7709C49.3564 51.1241 46.0097 54.6554 41.7588 56.6781" stroke="#6B7D94" stroke-width="2" stroke-linecap="round" stroke-linejoin="round"/>
</svg>
