<svg width="144" height="144" viewBox="0 0 144 144" fill="none" xmlns="http://www.w3.org/2000/svg">
<path d="M44.4414 52.6318C44.4414 52.6318 38.9452 53.8953 39.5264 61.4762C39.6687 63.1301 40.3386 64.6945 41.4373 65.9388C42.5361 67.1831 44.0055 68.0415 45.6291 68.3874" stroke="#6B7D94" stroke-width="2" stroke-linecap="round" stroke-linejoin="round"/>
<path d="M99.4907 51.582C99.4907 51.582 104.646 52.8455 104.102 60.4264C104.008 62.0393 103.4 63.5797 102.368 64.8229C101.336 66.0662 99.934 66.9473 98.3662 67.3376" stroke="#6B7D94" stroke-width="2" stroke-linecap="round" stroke-linejoin="round"/>
<path d="M49.4073 99.6201C53.9684 102.665 69.4966 110.739 93.6291 99.6201C94.04 99.4265 94.4887 99.3261 94.9431 99.3261C95.3974 99.3261 95.8461 99.4265 96.2571 99.6201C100.616 101.616 114.514 108.844 121.527 122.641C122.904 125.37 121.11 128.794 118.381 128.794L25.1232 128.693C22.4572 128.693 20.6884 125.42 21.9266 122.691C24.7441 116.374 31.3395 106.544 46.3117 99.418C46.8005 99.1789 47.3434 99.0718 47.8864 99.1072C48.4294 99.1427 48.9537 99.3195 49.4073 99.6201Z" fill="#7CC694"/>
<path d="M98.8225 55.7896C98.8225 40.9963 86.8301 29.0039 72.0367 29.0039C57.2434 29.0039 45.251 40.9963 45.251 55.7896V61.7912C45.251 76.5845 57.2434 88.577 72.0367 88.577C86.8301 88.577 98.8225 76.5845 98.8225 61.7912V55.7896Z" stroke="#6B7D94" stroke-width="2" stroke-linecap="round" stroke-linejoin="round"/>
<path d="M101.981 38.3536C102.994 37.1969 103.571 35.7217 103.61 34.1841C103.545 32.2961 102.732 30.5114 101.35 29.2225C99.9691 27.9337 98.1325 27.246 96.2444 27.3108C94.8442 27.3084 93.4692 27.6838 92.2645 28.3974C92.4572 27.7841 92.5552 27.145 92.555 26.5022C92.4859 24.6152 91.6719 22.8326 90.2914 21.5444C88.9108 20.2562 87.0762 19.5674 85.189 19.6289C83.1907 19.6205 81.2699 20.4016 79.8444 21.802C79.5015 20.2551 78.6356 18.8737 77.3927 17.8909C76.1498 16.9081 74.606 16.384 73.0216 16.407C72.435 16.4913 71.8394 16.4913 71.2528 16.407C69.67 16.3845 68.1279 16.9091 66.8872 17.892C65.6464 18.875 64.7829 20.2561 64.4426 21.802C63.0141 20.3985 61.0881 19.6172 59.0855 19.6289C57.1983 19.5674 55.3636 20.2562 53.9831 21.5444C52.6025 22.8326 51.7886 24.6152 51.7194 26.5022C51.7193 27.145 51.8173 27.7841 52.01 28.3974C50.8097 27.6842 49.4389 27.3088 48.0427 27.3108C46.1546 27.246 44.318 27.9337 42.9367 29.2225C41.5554 30.5114 40.7425 32.2961 40.6766 34.1841C40.6821 35.7298 41.2324 37.2241 42.2307 38.4042C41.3202 38.4409 40.4262 38.6586 39.6008 39.0446C38.7754 39.4306 38.0352 39.9772 37.4233 40.6524C36.8114 41.3276 36.3402 42.118 36.0371 42.9773C35.734 43.8366 35.6052 44.7477 35.658 45.6574C35.7109 46.567 35.9445 47.457 36.3451 48.2754C36.7456 49.0939 37.3052 49.8243 37.9912 50.4241C38.6772 51.0239 39.4757 51.481 40.3403 51.7688C41.2048 52.0566 42.1181 52.1693 43.0267 52.1003C43.5632 52.0376 44.0801 51.861 44.5428 51.5823C44.5428 50.9758 45.4399 50.0282 45.8063 49.4849C51.4035 39.377 55.9141 29.1429 70.621 29.1429C71.152 29.1252 71.6804 29.0618 72.2004 28.9533C72.7245 29.0626 73.2572 29.126 73.7924 29.1429C88.474 29.1429 93.0099 39.3391 98.6071 49.4849C98.9103 50.0282 99.8706 50.9758 99.7948 51.5823C100.257 51.861 100.774 52.0376 101.311 52.1003C102.22 52.1693 103.133 52.0566 103.997 51.7688C104.862 51.481 105.66 51.0239 106.346 50.4241C107.032 49.8243 107.592 49.0939 107.993 48.2754C108.393 47.457 108.627 46.567 108.68 45.6574C108.732 44.7477 108.604 43.8366 108.3 42.9773C107.997 42.118 107.526 41.3276 106.914 40.6524C106.302 39.9772 105.562 39.4306 104.737 39.0446C103.911 38.6586 103.017 38.4409 102.107 38.4042L101.981 38.3536Z" fill="#6B7D94"/>
<path d="M80.3119 73.2764C77.5955 76.5235 69.206 77.7365 65.3145 73.2764" stroke="#6B7D94" stroke-width="2" stroke-linecap="round" stroke-linejoin="round"/>
<path d="M56.1526 84.332C55.5966 89.7018 55.6472 97.5228 51.0986 100.871" stroke="#6B7D94" stroke-width="2" stroke-linecap="round" stroke-linejoin="round"/>
<path d="M86.9834 84.7246C87.4762 90.6756 87.9057 98.029 90.7738 100.872" stroke="#6B7D94" stroke-width="2" stroke-linecap="round" stroke-linejoin="round"/>
</svg>
