<svg width="144" height="144" viewBox="0 0 144 144" fill="none" xmlns="http://www.w3.org/2000/svg">
<path d="M33.3369 80.1504V120.298C33.3407 121.167 33.6878 122 34.3027 122.615C34.9176 123.23 35.7505 123.577 36.6201 123.581H67.9257" stroke="#6B7D94" stroke-width="2" stroke-linecap="round" stroke-linejoin="round"/>
<path d="M72.7783 57.3986L30.8887 57.0386C30.0166 57.0424 29.1815 57.3915 28.5662 58.0095C27.9509 58.6275 27.6055 59.4641 27.6055 60.3362V76.8674C27.6093 77.737 27.9564 78.5699 28.5713 79.1848C29.1862 79.7997 30.0191 80.1468 30.8887 80.1506L76.5655 80.5106" stroke="#6B7D94" stroke-width="2" stroke-linecap="round" stroke-linejoin="round"/>
<path d="M76.5947 123.581H108.001C108.417 123.566 108.826 123.469 109.205 123.296C109.584 123.123 109.925 122.877 110.208 122.572C110.492 122.267 110.712 121.909 110.857 121.519C111.003 121.129 111.069 120.714 111.054 120.298V80.1504" stroke="#6B7D94" stroke-width="2" stroke-linecap="round" stroke-linejoin="round"/>
<path d="M73.916 80.5106L113.343 80.1506C114.182 80.1168 114.974 79.7528 115.546 79.1378C116.118 78.5228 116.423 77.7067 116.396 76.8674V60.3362C116.427 59.4944 116.123 58.6746 115.551 58.0565C114.979 57.4383 114.185 57.0723 113.343 57.0386L77.444 57.3986" stroke="#6B7D94" stroke-width="2" stroke-linecap="round" stroke-linejoin="round"/>
<path d="M69.6829 56.5921H69.3229C67.6525 56.4481 52.7629 55.0225 45.8653 46.2385C42.683 42.4858 40.7856 37.813 40.4509 32.9041C40.3126 30.7256 40.706 28.5463 41.5972 26.5537C42.4884 24.5611 43.8507 22.8151 45.5668 21.466C47.2828 20.117 49.3011 19.2054 51.4478 18.8099C53.5945 18.4143 55.8051 18.5465 57.8893 19.1953C62.5782 20.6758 66.6705 23.6176 69.5677 27.5905C76.4653 36.3745 74.3485 51.1777 74.0749 52.8337C73.9131 53.8817 73.381 54.8371 72.5753 55.5267C71.7695 56.2162 70.7434 56.5941 69.6829 56.5921V56.5921ZM53.8429 27.5185C52.8455 27.5036 51.8737 27.8343 51.0925 28.4545C50.4834 28.9549 50.0071 29.5977 49.7057 30.3261C49.4043 31.0545 49.2871 31.846 49.3645 32.6305C49.675 35.6253 50.902 38.4515 52.8781 40.7233C55.5853 44.1649 61.3165 46.0801 65.6653 47.0161C65.7949 42.5665 65.2765 36.5329 62.5693 33.0913C60.8252 30.64 58.3732 28.7808 55.5421 27.7633C54.984 27.6072 54.4079 27.5249 53.8285 27.5185H53.8429Z" fill="#3A98E5"/>
<path d="M75.054 56.5922C74.0059 56.5772 72.997 56.1915 72.2062 55.5035C71.4154 54.8155 70.8939 53.8697 70.734 52.8338C70.4604 51.1778 68.3436 36.3746 75.2412 27.5906C83.5932 16.9778 93.5292 16.9778 99.2316 21.4562C100.942 22.8094 102.302 24.5552 103.194 26.5456C104.087 28.536 104.486 30.7122 104.358 32.8898C104.023 37.7987 102.126 42.4715 98.9436 46.2242C92.046 55.0082 77.1564 56.4338 75.486 56.5778L75.054 56.5922ZM82.254 33.0914C79.5468 36.533 79.0284 42.5666 79.158 47.0162C83.478 46.0802 89.238 44.1362 91.9452 40.7234C93.924 38.4477 95.1512 35.6161 95.4588 32.6162C95.52 31.8227 95.3822 31.0265 95.0578 30.2998C94.7334 29.5731 94.2328 28.9388 93.6012 28.4546C90.8076 26.2226 86.0844 28.1234 82.182 33.1202L82.254 33.0914Z" fill="#3A98E5"/>
<path d="M77.8336 53.0205H66.4427C66.2351 53.0243 66.0373 53.1094 65.8919 53.2575C65.7465 53.4056 65.665 53.6049 65.665 53.8125V124.589C65.665 124.796 65.7465 124.995 65.8919 125.144C66.0373 125.292 66.2351 125.377 66.4427 125.381H77.8336C78.0437 125.381 78.2452 125.297 78.3937 125.149C78.5422 125 78.6257 124.799 78.6257 124.589V53.8125C78.6257 53.6025 78.5422 53.401 78.3937 53.2525C78.2452 53.1039 78.0437 53.0205 77.8336 53.0205Z" fill="#F06E61"/>
<path d="M69.6829 56.5921H69.3229C67.6525 56.4481 52.7629 55.0225 45.8653 46.2385C42.683 42.4858 40.7856 37.813 40.4509 32.9041C40.3126 30.7256 40.706 28.5463 41.5972 26.5537C42.4884 24.5611 43.8507 22.8151 45.5668 21.466C47.2828 20.117 49.3011 19.2054 51.4478 18.8099C53.5945 18.4143 55.8051 18.5465 57.8893 19.1953C62.5782 20.6758 66.6705 23.6176 69.5677 27.5905C76.4653 36.3745 74.3485 51.1777 74.0749 52.8337C73.9131 53.8817 73.381 54.8371 72.5753 55.5267C71.7695 56.2162 70.7434 56.5941 69.6829 56.5921V56.5921ZM53.8429 27.5185C52.8455 27.5036 51.8737 27.8343 51.0925 28.4545C50.4834 28.9549 50.0071 29.5977 49.7057 30.3261C49.4043 31.0545 49.2871 31.846 49.3645 32.6305C49.675 35.6253 50.902 38.4515 52.8781 40.7233C55.5853 44.1649 61.3165 46.0801 65.6653 47.0161C65.7949 42.5665 65.2765 36.5329 62.5693 33.0913C60.8252 30.64 58.3732 28.7808 55.5421 27.7633C54.984 27.6072 54.4079 27.5249 53.8285 27.5185H53.8429Z" fill="#F06E61"/>
<path d="M75.054 56.5922C74.0059 56.5772 72.997 56.1915 72.2062 55.5035C71.4154 54.8155 70.8939 53.8697 70.734 52.8338C70.4604 51.1778 68.3436 36.3746 75.2412 27.5906C83.5932 16.9778 93.5292 16.9778 99.2316 21.4562C100.942 22.8094 102.302 24.5552 103.194 26.5456C104.087 28.536 104.486 30.7122 104.358 32.8898C104.023 37.7987 102.126 42.4715 98.9436 46.2242C92.046 55.0082 77.1564 56.4338 75.486 56.5778L75.054 56.5922ZM82.254 33.0914C79.5468 36.533 79.0284 42.5666 79.158 47.0162C83.478 46.0802 89.238 44.1362 91.9452 40.7234C93.924 38.4477 95.1512 35.6161 95.4588 32.6162C95.52 31.8227 95.3822 31.0265 95.0578 30.2998C94.7334 29.5731 94.2328 28.9388 93.6012 28.4546C90.8076 26.2226 86.0844 28.1234 82.182 33.1202L82.254 33.0914Z" fill="#F06E61"/>
</svg>
