<svg width="32" height="32" viewBox="0 0 32 32" fill="none" xmlns="http://www.w3.org/2000/svg">
<path d="M16 2C8.28048 2 2 8.28048 2 16C2 23.7195 8.28048 30 16 30C23.7195 30 30 23.7195 30 16C30 8.28048 23.7195 2 16 2ZM13.8462 20.3077C13.8462 20.5933 13.7327 20.8672 13.5307 21.0692C13.3288 21.2712 13.0548 21.3846 12.7692 21.3846C12.4836 21.3846 12.2097 21.2712 12.0077 21.0692C11.8058 20.8672 11.6923 20.5933 11.6923 20.3077V11.6923C11.6923 11.4067 11.8058 11.1328 12.0077 10.9308C12.2097 10.7288 12.4836 10.6154 12.7692 10.6154C13.0548 10.6154 13.3288 10.7288 13.5307 10.9308C13.7327 11.1328 13.8462 11.4067 13.8462 11.6923V20.3077ZM20.3077 20.3077C20.3077 20.5933 20.1942 20.8672 19.9923 21.0692C19.7903 21.2712 19.5164 21.3846 19.2308 21.3846C18.9452 21.3846 18.6712 21.2712 18.4693 21.0692C18.2673 20.8672 18.1538 20.5933 18.1538 20.3077V11.6923C18.1538 11.4067 18.2673 11.1328 18.4693 10.9308C18.6712 10.7288 18.9452 10.6154 19.2308 10.6154C19.5164 10.6154 19.7903 10.7288 19.9923 10.9308C20.1942 11.1328 20.3077 11.4067 20.3077 11.6923V20.3077Z" fill="#4A6382"/>
</svg>
