<svg width="144" height="144" viewBox="0 0 144 144" fill="none" xmlns="http://www.w3.org/2000/svg">
<path d="M140.04 76.0894C140.04 76.0894 138.83 65.0734 128.866 59.9038C118.901 54.7342 109.123 60.4798 109.123 60.4798C108.965 60.6382 108.907 60.9406 109.023 61.4302L113.919 84.9598C114.001 85.3339 114.165 85.685 114.4 85.9876C114.635 86.2902 114.934 86.5367 115.276 86.7091C115.618 86.8815 115.994 86.9755 116.377 86.9843C116.76 86.993 117.14 86.9164 117.49 86.7598L139.234 76.4494C139.48 76.3653 139.699 76.216 139.867 76.0174L140.04 76.0894Z" fill="#F6BD4E"/>
<path d="M81.3307 97.9194H25.8043C23.9507 97.9156 22.1743 97.1766 20.865 95.8645C19.5557 94.5525 18.8203 92.7746 18.8203 90.921V26.2506C18.8203 24.3983 19.5561 22.6219 20.8659 21.3122C22.1756 20.0024 23.952 19.2666 25.8043 19.2666H84.4843C86.3366 19.2666 88.113 20.0024 89.4227 21.3122C90.7325 22.6219 91.4683 24.3983 91.4683 26.2506V88.4586" stroke="#6B7D94" stroke-width="2" stroke-linecap="round" stroke-linejoin="round"/>
<path d="M77.2986 108.273H15.7242C13.872 108.273 12.0956 107.537 10.7858 106.228C9.47605 104.918 8.74023 103.141 8.74023 101.289V15.8395C8.74023 13.9872 9.47605 12.2108 10.7858 10.901C12.0956 9.59128 13.872 8.85547 15.7242 8.85547H94.5642C96.4165 8.85547 98.1929 9.59128 99.5027 10.901C100.812 12.2108 101.548 13.9872 101.548 15.8395V85.2907" stroke="#6B7D94" stroke-width="2" stroke-linecap="round" stroke-linejoin="round"/>
<path d="M101.549 94.4487V101.289C101.549 103.141 100.813 104.918 99.5029 106.228C98.1931 107.538 96.4166 108.273 94.5643 108.273H85.9238" stroke="#6B7D94" stroke-width="2" stroke-linecap="round" stroke-linejoin="round"/>
<path d="M103.709 138.571C118.286 138.571 130.104 126.753 130.104 112.175C130.104 97.5978 118.286 85.7803 103.709 85.7803C89.131 85.7803 77.3135 97.5978 77.3135 112.175C77.3135 126.753 89.131 138.571 103.709 138.571Z" stroke="#6B7D94" stroke-width="2" stroke-linecap="round" stroke-linejoin="round"/>
<path d="M103.709 131.3C114.271 131.3 122.832 122.738 122.832 112.176C122.832 101.615 114.271 93.0532 103.709 93.0532C93.1477 93.0532 84.5859 101.615 84.5859 112.176C84.5859 122.738 93.1477 131.3 103.709 131.3Z" stroke="#6B7D94" stroke-width="2" stroke-linecap="round" stroke-linejoin="round"/>
<path d="M117.49 87.1202L139.234 76.8098C141.25 75.9314 138.658 75.0242 136.714 74.045L113.012 62.093C111.053 61.0994 108.576 59.6882 109.052 61.8194L113.919 85.3202C114.001 85.6943 114.165 86.0454 114.4 86.348C114.635 86.6506 114.934 86.897 115.276 87.0694C115.618 87.2418 115.994 87.3358 116.377 87.3446C116.76 87.3534 117.14 87.2767 117.49 87.1202V87.1202Z" stroke="#6B7D94" stroke-width="2" stroke-linecap="round" stroke-linejoin="round"/>
<path d="M119.42 66.4424L115.604 86.1713L130.047 71.7994" stroke="#6B7D94" stroke-width="2" stroke-linecap="round" stroke-linejoin="round"/>
<path d="M109.123 60.8545C109.123 60.8545 118.742 55.0942 128.865 60.2784C138.989 65.4627 140.04 76.4504 140.04 76.4504" stroke="#6B7D94" stroke-width="2" stroke-linecap="round" stroke-linejoin="round"/>
<path d="M14.7891 38.5488H25.4168" stroke="#6B7D94" stroke-width="2" stroke-linecap="round" stroke-linejoin="round"/>
<path d="M14.5723 78.7397H25.2144" stroke="#6B7D94" stroke-width="2" stroke-linecap="round" stroke-linejoin="round"/>
<path d="M55.9446 73.6559C63.5317 73.6559 69.6822 67.5053 69.6822 59.9183C69.6822 52.3312 63.5317 46.1807 55.9446 46.1807C48.3576 46.1807 42.207 52.3312 42.207 59.9183C42.207 67.5053 48.3576 73.6559 55.9446 73.6559Z" fill="#7CC694"/>
<path d="M55.9446 73.6559C63.5317 73.6559 69.6822 67.5053 69.6822 59.9183C69.6822 52.3312 63.5317 46.1807 55.9446 46.1807C48.3576 46.1807 42.207 52.3312 42.207 59.9183C42.207 67.5053 48.3576 73.6559 55.9446 73.6559Z" stroke="#6B7D94" stroke-width="2" stroke-linecap="round" stroke-linejoin="round"/>
<path d="M55.9455 66.9462C59.8267 66.9462 62.9731 63.7999 62.9731 59.9187C62.9731 56.0375 59.8267 52.8911 55.9455 52.8911C52.0643 52.8911 48.918 56.0375 48.918 59.9187C48.918 63.7999 52.0643 66.9462 55.9455 66.9462Z" fill="#6B7D94"/>
<path d="M55.5557 45.8498V40.5791" stroke="#6B7D94" stroke-width="2" stroke-linecap="round" stroke-linejoin="round"/>
</svg>
