<svg width="144" height="144" viewBox="0 0 144 144" fill="none" xmlns="http://www.w3.org/2000/svg">
<path d="M62.5 65.6153C57.3948 62.7445 51.3559 61.0845 44.8844 61.0845C26.5529 61.0845 11.6924 74.4042 11.6924 90.8349C11.6924 107.266 26.5529 120.585 44.8844 120.585C63.2158 120.585 78.0764 107.266 78.0764 90.8349C78.0764 90.0491 78.0424 89.2704 77.9757 88.5" stroke="#6B7D94" stroke-width="2" stroke-linecap="round" stroke-linejoin="round"/>
<path d="M29.7377 64.0367C26.4543 56.7215 16.0714 37.8143 13.8969 48.0671C9.83588 67.4927 11.7944 88.2143 11.7944 88.2143" stroke="#6B7D94" stroke-width="2" stroke-linecap="round" stroke-linejoin="round"/>
<path d="M48.3696 105.005L44.7119 108.375L41.5293 104.803" stroke="#6B7D94" stroke-width="2" stroke-linecap="round" stroke-linejoin="round"/>
<path d="M44.7133 108.273C44.7133 108.273 45.1021 113.716 40.5227 113.918C35.9432 114.12 35.4824 110.563 35.4824 110.563" stroke="#6B7D94" stroke-width="2" stroke-linecap="round" stroke-linejoin="round"/>
<path d="M44.8851 108.59C44.8851 108.59 44.4963 114.034 49.0758 114.235C53.6552 114.437 54.116 110.88 54.116 110.88" stroke="#6B7D94" stroke-width="2" stroke-linecap="round" stroke-linejoin="round"/>
<path d="M37.1809 95.4719C36.9375 94.8445 36.5162 94.3018 35.9688 93.9104C35.4213 93.519 34.7715 93.2959 34.0991 93.2686C32.7599 93.1102 31.4062 93.355 30.0669 93.2686C28.8643 93.1457 27.7102 92.7295 26.7059 92.0566C25.7016 91.3838 24.8777 90.4747 24.3066 89.4092" stroke="#6B7D94" stroke-width="2" stroke-linecap="round" stroke-linejoin="round"/>
<path d="M64.2971 89.3662C64.0553 89.9947 63.6344 90.5384 63.0866 90.93C62.5389 91.3217 61.8882 91.544 61.2153 91.5695C59.8761 91.7279 58.5224 91.4831 57.1831 91.5695C55.9802 91.6975 54.8267 92.1173 53.8228 92.7924C52.819 93.4675 51.9951 94.3775 51.4229 95.4433" stroke="#6B7D94" stroke-width="2" stroke-linecap="round" stroke-linejoin="round"/>
<path d="M55.1523 105.494C65.0334 102.209 75.2474 100.026 85.6083 98.9854" stroke="#6B7D94" stroke-width="2" stroke-linecap="round" stroke-linejoin="round"/>
<path d="M61.9199 108.575C68.1496 107.525 74.476 107.163 80.7848 107.495" stroke="#6B7D94" stroke-width="2" stroke-linecap="round" stroke-linejoin="round"/>
<path d="M55.1523 105.494C65.0334 102.209 75.2474 100.026 85.6083 98.9854" stroke="#6B7D94" stroke-width="2" stroke-linecap="round" stroke-linejoin="round"/>
<path d="M61.9199 108.575C68.1496 107.525 74.476 107.163 80.7848 107.495" stroke="#6B7D94" stroke-width="2" stroke-linecap="round" stroke-linejoin="round"/>
<path d="M70.042 40.4214C83.7076 23.9614 110.751 24.1198 124.186 40.9831" stroke="#6B7D94" stroke-width="2" stroke-linecap="round" stroke-linejoin="round"/>
<path d="M130.709 54.3742C131.985 61.9028 130.61 69.6409 126.818 76.2688C123.026 82.8967 117.052 88.0041 109.916 90.7198C95.3284 96.4798 77.6884 91.8142 68.4292 78.9838C65.7698 75.3237 63.939 71.1287 63.0637 66.6901C62.1884 62.2514 62.2896 57.6754 63.3604 53.2798" stroke="#6B7D94" stroke-width="2" stroke-linecap="round" stroke-linejoin="round"/>
<path d="M97.92 77.7605L103.954 71.2082C104.189 70.9655 104.346 70.6584 104.405 70.3261C104.465 69.9938 104.424 69.6513 104.288 69.3423C104.152 69.0333 103.927 68.7718 103.642 68.5911C103.357 68.4105 103.024 68.3189 102.687 68.328L91.5405 67.968C91.2161 67.9454 90.8921 68.0156 90.6061 68.1704C90.3201 68.3251 90.0841 68.5581 89.9255 68.8419C89.767 69.1258 89.6925 69.4489 89.7107 69.7736C89.7289 70.0982 89.8391 70.411 90.0284 70.6753L95.1263 77.5877C95.2865 77.7999 95.4908 77.9749 95.7251 78.1007C95.9593 78.2265 96.218 78.3001 96.4834 78.3165C96.7488 78.333 97.0146 78.2918 97.2626 78.1958C97.5106 78.0998 97.7348 77.9513 97.92 77.7605V77.7605Z" fill="#6B7D94"/>
<path d="M80.6407 74.4482C80.5135 75.5594 80.6124 76.6848 80.9314 77.7568C81.2504 78.8288 81.7829 79.8252 82.4968 80.6861C83.2108 81.547 84.0915 82.2546 85.0859 82.7664C86.0804 83.2783 87.1681 83.5837 88.2836 83.6643C89.3991 83.745 90.5194 83.5992 91.5771 83.2358C92.6349 82.8723 93.6082 82.2987 94.4385 81.5495C95.2689 80.8002 95.9392 79.8908 96.409 78.8758C96.8789 77.8609 97.1387 76.7614 97.1727 75.6435" stroke="#6B7D94" stroke-width="2" stroke-linecap="round" stroke-linejoin="round"/>
<path d="M112.709 74.7646C112.858 75.8874 112.774 77.0285 112.465 78.1179C112.157 79.2074 111.628 80.2222 110.913 81.1C110.197 81.9779 109.31 82.7002 108.305 83.2227C107.301 83.7452 106.2 84.0568 105.07 84.1384C103.941 84.2199 102.807 84.0698 101.737 83.6971C100.668 83.3245 99.6859 82.7372 98.8518 81.9713C98.0177 81.2054 97.3489 80.277 96.8865 79.2433C96.4241 78.2096 96.178 77.0922 96.1631 75.9599" stroke="#6B7D94" stroke-width="2" stroke-linecap="round" stroke-linejoin="round"/>
<path d="M77.0107 56.5627C77.6797 55.6856 78.5664 54.9989 79.5829 54.5706C80.5994 54.1424 81.7103 53.9876 82.8051 54.1215C83.9 54.2554 84.9407 54.6735 85.824 55.3342C86.7073 55.9948 87.4023 56.8751 87.8401 57.8875" stroke="#6B7D94" stroke-width="2" stroke-linecap="round" stroke-linejoin="round"/>
<path d="M105.955 57.9025C106.504 56.9462 107.292 56.1496 108.243 55.5914C109.194 55.0333 110.274 54.7328 111.376 54.7197C112.478 54.7066 113.565 54.9814 114.529 55.5168C115.492 56.0523 116.3 56.8299 116.871 57.7728" stroke="#6B7D94" stroke-width="2" stroke-linecap="round" stroke-linejoin="round"/>
<path d="M112.018 30.9887C115.574 27.1295 121.363 23.7887 126.216 23.5007C134.323 22.9967 142.934 24.4511 142.776 33.2351C141.336 46.3247 131.803 53.9855 129.024 53.3951C121.118 52.6607 126.547 35.7263 121.997 27.9791" stroke="#6B7D94" stroke-width="2" stroke-linecap="round" stroke-linejoin="round"/>
<path d="M82.0802 30.9887C78.5234 27.1295 72.7346 23.7887 67.8674 23.5007C59.7746 22.9967 51.1634 24.4511 51.3074 33.2351C52.7474 46.3247 62.2946 53.9855 65.0738 53.3951C72.9794 52.6607 67.5506 35.7263 72.0866 27.9791" stroke="#6B7D94" stroke-width="2" stroke-linecap="round" stroke-linejoin="round"/>
<path d="M31.6804 104.357C21.7919 101.095 11.573 98.9358 1.20996 97.9199" stroke="#6B7D94" stroke-width="2" stroke-linecap="round" stroke-linejoin="round"/>
<path d="M24.9128 107.438C18.6831 106.388 12.3567 106.026 6.04785 106.358" stroke="#6B7D94" stroke-width="2" stroke-linecap="round" stroke-linejoin="round"/>
</svg>
