<svg width="32" height="32" viewBox="0 0 32 32" fill="none" xmlns="http://www.w3.org/2000/svg">
<path fill-rule="evenodd" clip-rule="evenodd" d="M29.7929 15.5909C30.0693 15.2408 30.0693 14.7592 29.7929 14.4091C28.212 12.4064 22.6361 6 16.0001 6C9.36417 6 3.78828 12.4064 2.2073 14.4091C1.9309 14.7592 1.9309 15.2408 2.2073 15.5909C3.78828 17.5936 9.36417 24 16.0001 24C22.6361 24 28.212 17.5936 29.7929 15.5909ZM16 20C18.7614 20 21 17.7614 21 15C21 12.2385 18.7614 9.99996 16 9.99996C13.2386 9.99996 11 12.2385 11 15C11 17.7614 13.2386 20 16 20Z" fill="#4A6382"/>
</svg>
