<svg width="32" height="32" viewBox="0 0 32 32" fill="none" xmlns="http://www.w3.org/2000/svg">
<path fill-rule="evenodd" clip-rule="evenodd" d="M2.29367 10.2715C2.6692 9.89316 3.25988 9.91263 3.613 10.315L2.93304 11C3.613 10.315 3.6131 10.3151 3.613 10.315L3.61563 10.3179L3.63097 10.3351C3.64539 10.3511 3.66815 10.3762 3.69899 10.4097C3.76069 10.4765 3.85464 10.5765 3.97881 10.7037C4.22727 10.9582 4.59592 11.3206 5.06836 11.7428C6.01535 12.5891 7.36826 13.6658 8.9965 14.5969C11.0247 15.7567 13.4367 16.6659 15.9998 16.6659C18.563 16.6659 20.975 15.7567 23.0032 14.5969C24.6314 13.6658 25.9843 12.5891 26.9313 11.7428C27.4038 11.3206 27.7724 10.9582 28.0209 10.7037C28.1451 10.5765 28.239 10.4765 28.3007 10.4097C28.3315 10.3762 28.3543 10.3511 28.3687 10.3351L28.3841 10.3179L28.3867 10.315C28.7398 9.91286 29.3306 9.89323 29.706 10.2715C30.0816 10.6498 30.0997 11.2827 29.7466 11.685L29.0667 11C29.7466 11.685 29.7467 11.6849 29.7466 11.685L29.7431 11.6891L29.7363 11.6967L29.7129 11.7228C29.6931 11.7449 29.6647 11.7761 29.6281 11.8158C29.5548 11.8952 29.4484 12.0085 29.3108 12.1494C29.0358 12.431 28.6357 12.824 28.127 13.2787C27.3278 13.9929 26.2536 14.8654 24.9691 15.6983L27.9014 18.8331C28.2663 19.2232 28.267 19.8563 27.9029 20.2473C27.5388 20.6382 26.9478 20.6389 26.5829 20.2488L23.2644 16.7012C21.4274 17.6726 19.2701 18.4612 16.9332 18.6317V23C16.9332 23.5523 16.5153 24 15.9998 24C15.4844 24 15.0665 23.5523 15.0665 23V18.6317C12.7296 18.4612 10.5723 17.6726 8.73525 16.7012L5.41676 20.2488C5.05187 20.6389 4.46091 20.6382 4.09682 20.2473C3.73273 19.8563 3.73338 19.2232 4.09828 18.8331L7.0306 15.6983C5.74606 14.8654 4.67189 13.9929 3.87269 13.2787C3.36396 12.824 2.96387 12.431 2.68889 12.1494C2.55133 12.0085 2.44488 11.8952 2.3716 11.8158C2.33496 11.7761 2.30659 11.7449 2.28676 11.7228L2.26343 11.6967L2.25662 11.689L2.25444 11.6866L2.25366 11.6857C2.25353 11.6855 2.25309 11.685 2.93304 11L2.25366 11.6857C1.90055 11.2833 1.91814 10.6498 2.29367 10.2715ZM3.613 10.315C3.61286 10.3148 3.61303 10.315 3.613 10.315V10.315Z" fill="#4A6382"/>
</svg>
