<svg width="32" height="32" viewBox="0 0 32 32" fill="none" xmlns="http://www.w3.org/2000/svg">
<path fill-rule="evenodd" clip-rule="evenodd" d="M6.97539 2C4.23689 2 2 4.23819 2 6.97538V25.0246C2 27.7631 4.23819 30 6.97539 30H25.0246C27.7631 30 30 27.7618 30 25.0246L30.0012 6.97538C29.9713 4.23804 27.7331 2 24.9958 2H22.4449C21.6934 2 20.9879 2.3619 20.5496 2.97225L19.4085 4.56114L17.0161 7.74134C16.9563 7.88856 16.9862 8.09443 17.1334 8.183L20.4608 10.5086C20.6368 10.6271 20.6667 10.8916 20.5195 11.0388L16.6618 15.3381C16.5444 15.4854 16.5444 15.6625 16.6618 15.8097L18.8114 18.1353C18.9298 18.2526 18.9298 18.4297 18.8413 18.5769L15.3666 23.7596C15.1309 24.084 14.6306 23.8781 14.7191 23.4951L15.6323 19.0199C15.6611 18.9015 15.6323 18.7842 15.5438 18.6956L12.5108 15.8099C12.3935 15.6926 12.3636 15.5154 12.4521 15.3682L15.0434 11.3933C15.1607 11.2461 15.1021 11.0391 14.9548 10.9218L11.4216 8.59619C11.3043 8.50763 11.2445 8.36041 11.2744 8.21319V3.16671C11.2744 2.52236 10.752 2 10.1077 2H6.97539Z" fill="#4A6382"/>
</svg>
