<svg width="144" height="144" viewBox="0 0 144 144" fill="none" xmlns="http://www.w3.org/2000/svg">
<path d="M74.3913 41.1113H64.3828V56.2609H74.3913V41.1113Z" fill="#F6BD4E"/>
<path d="M108.289 38.8809H98.2803V56.8241H108.289V38.8809Z" fill="#F6BD4E"/>
<path d="M138.686 31.9829C138.571 29.8115 137.641 27.7634 136.082 26.2473C134.523 24.7312 132.45 23.8587 130.276 23.8037H34.6891C34.1183 23.8027 33.5489 23.8606 32.9899 23.9765L32.1835 24.2069C31.4965 24.4304 30.8427 24.7452 30.2395 25.1429C29.9205 25.357 29.6128 25.5877 29.3179 25.8341C28.4731 26.5671 27.7787 27.4572 27.2731 28.4549C27.0129 28.9687 26.7961 29.5034 26.6251 30.0533C26.4623 30.6229 26.3515 31.2061 26.2939 31.7957C26.2939 32.1029 26.2939 32.4053 26.2939 32.7029V109.57C26.4092 111.742 27.339 113.79 28.8978 115.306C30.4566 116.822 32.5298 117.694 34.7035 117.749H130.276C131.416 117.723 132.539 117.472 133.581 117.01C134.624 116.548 135.564 115.884 136.348 115.057C137.133 114.229 137.746 113.255 138.152 112.19C138.558 111.125 138.749 109.99 138.715 108.85V32.0117L138.686 31.9829Z" stroke="#6B7D94" stroke-width="2" stroke-linecap="round" stroke-linejoin="round"/>
<path d="M36.0007 102.14L71.8711 78.351C72.1355 78.1732 72.352 77.933 72.5017 77.6518C72.6515 77.3706 72.7298 77.0568 72.7298 76.7382C72.7298 76.4196 72.6515 76.1059 72.5017 75.8247C72.352 75.5434 72.1355 75.3033 71.8711 75.1254L36.0007 51.3222C35.0791 50.8326 34.0567 51.6822 34.0567 52.935V62.1366C34.097 62.5602 33.9682 62.9825 33.6985 63.3116C33.4288 63.6406 33.04 63.8498 32.6167 63.8934H5.25674C4.83473 63.9335 4.44594 64.1396 4.17589 64.4664C3.90584 64.7932 3.77665 65.2138 3.81674 65.6358V86.7318C3.77665 87.1538 3.90584 87.5745 4.17589 87.9013C4.44594 88.228 4.83473 88.4341 5.25674 88.4742H32.6167C33.04 88.5179 33.4288 88.7271 33.6985 89.0561C33.9682 89.3852 34.097 89.8075 34.0567 90.231V100.527C34.0855 101.78 35.1079 102.629 36.0007 102.14Z" fill="#F06E61"/>
<path d="M36.0007 102.14L71.8711 78.351C72.1355 78.1732 72.352 77.933 72.5017 77.6518C72.6515 77.3706 72.7298 77.0568 72.7298 76.7382C72.7298 76.4196 72.6515 76.1059 72.5017 75.8247C72.352 75.5434 72.1355 75.3033 71.8711 75.1254L36.0007 51.3222C35.0791 50.8326 34.0567 51.6822 34.0567 52.935V62.1366C34.097 62.5602 33.9682 62.9825 33.6985 63.3116C33.4288 63.6406 33.04 63.8498 32.6167 63.8934H5.25674C4.83473 63.9335 4.44594 64.1396 4.17589 64.4664C3.90584 64.7932 3.77665 65.2138 3.81674 65.6358V86.7318C3.77665 87.1538 3.90584 87.5745 4.17589 87.9013C4.44594 88.228 4.83473 88.4341 5.25674 88.4742H32.6167C33.04 88.5179 33.4288 88.7271 33.6985 89.0561C33.9682 89.3852 34.097 89.8075 34.0567 90.231V100.527C34.0855 101.78 35.1079 102.629 36.0007 102.14Z" stroke="#6B7D94" stroke-width="2" stroke-linecap="round" stroke-linejoin="round"/>
<path d="M69.8828 106.027L97.2284 106.301" stroke="#6B7D94" stroke-width="2" stroke-linecap="round" stroke-linejoin="round"/>
<path d="M69.8828 99.8643L97.2284 100.138" stroke="#6B7D94" stroke-width="2" stroke-linecap="round" stroke-linejoin="round"/>
<path d="M69.8828 93.7012L97.2284 93.9748" stroke="#6B7D94" stroke-width="2" stroke-linecap="round" stroke-linejoin="round"/>
<path d="M26.7988 33.091L138.024 32.7598" stroke="#6B7D94" stroke-width="2" stroke-linecap="round" stroke-linejoin="round"/>
<path d="M118.267 83.7805C123.373 83.7805 127.512 79.6413 127.512 74.5353C127.512 69.4293 123.373 65.29 118.267 65.29C113.161 65.29 109.021 69.4293 109.021 74.5353C109.021 79.6413 113.161 83.7805 118.267 83.7805Z" stroke="#6B7D94" stroke-width="2" stroke-linecap="round" stroke-linejoin="round"/>
<path d="M118.28 65.5781L118.381 74.5209C118.388 74.6095 118.419 74.6944 118.472 74.766C118.524 74.8376 118.596 74.893 118.678 74.926C118.761 74.959 118.851 74.9682 118.938 74.9526C119.026 74.937 119.107 74.8972 119.173 74.8378L125.409 69.8695C125.639 69.6679 125.927 69.6103 125.639 69.4663L119.216 65.3765C118.9 65.2181 118.28 65.2613 118.28 65.5781Z" fill="#6B7D94"/>
<path d="M118.267 108.822C123.373 108.822 127.512 104.682 127.512 99.5763C127.512 94.4703 123.373 90.3311 118.267 90.3311C113.161 90.3311 109.021 94.4703 109.021 99.5763C109.021 104.682 113.161 108.822 118.267 108.822Z" stroke="#6B7D94" stroke-width="2" stroke-linecap="round" stroke-linejoin="round"/>
<path d="M126.844 101.036C127.189 99.2323 126.957 97.3613 126.183 95.7057C125.415 94.1811 124.229 92.9243 122.773 92.0924C121.318 91.2605 119.658 90.8903 118 91.0282L118.103 99.3809V99.5176C118.084 99.5767 118.084 99.6407 118.103 99.6998C118.093 99.7345 118.093 99.7715 118.103 99.8061L124.802 105C125.781 103.867 126.481 102.508 126.844 101.036V101.036Z" fill="#6B7D94"/>
<path d="M55.7861 56.7207L130.681 56.9799" stroke="#6B7D94" stroke-width="2" stroke-linecap="round" stroke-linejoin="round"/>
<path d="M74.3913 41.1113H64.3828V56.2609H74.3913V41.1113Z" stroke="#6B7D94" stroke-width="2" stroke-linecap="round" stroke-linejoin="round"/>
<path d="M124.46 41.5156H114.451V56.6652H124.46V41.5156Z" stroke="#6B7D94" stroke-width="2" stroke-linecap="round" stroke-linejoin="round"/>
<path d="M91.3395 47.8945H81.3311V56.6646H91.3395V47.8945Z" stroke="#6B7D94" stroke-width="2" stroke-linecap="round" stroke-linejoin="round"/>
<path d="M108.289 38.8809H98.2803V56.8241H108.289V38.8809Z" stroke="#6B7D94" stroke-width="2" stroke-linecap="round" stroke-linejoin="round"/>
</svg>
