<svg width="32" height="32" viewBox="0 0 32 32" fill="none" xmlns="http://www.w3.org/2000/svg">
<path fill-rule="evenodd" clip-rule="evenodd" d="M24.737 6.4741L27.3333 11.6665H28.5C29.3284 11.6665 30 12.3381 30 13.1665C30 13.9949 29.3284 14.6665 28.5 14.6665H28V24.3333C28 25.4379 27.1046 26.3333 26 26.3333C24.8954 26.3333 24 25.4379 24 24.3333V23.6667H8V24.3333C8 25.4379 7.10457 26.3333 6 26.3333C4.89543 26.3333 4 25.4379 4 24.3333V14.6665H3.5C2.67157 14.6665 2 13.9949 2 13.1665C2 12.3381 2.67157 11.6665 3.5 11.6665H4.66675L7.26295 6.4741C7.71466 5.57067 8.63803 5 9.64809 5H22.3519C23.362 5 24.2853 5.57067 24.737 6.4741ZM17.5777 15.1725L16.6638 15.5141C16.5106 16.9144 15.5925 18.1791 14.1827 18.7061C12.1881 19.4516 9.96696 18.4403 9.22258 16.4488C8.47708 14.4543 9.48984 12.2325 11.4844 11.487C12.8807 10.9651 14.3949 11.3088 15.4255 12.2511L21.4161 10.0155C21.4882 9.9885 21.5688 9.99779 21.6326 10.0356L23.4094 11.1136C23.5199 11.1802 23.5616 11.324 23.5003 11.4394L22.6402 13.1347C22.58 13.2531 22.4361 13.3035 22.3142 13.248L21.0187 12.6599C20.888 12.5991 20.7394 12.6598 20.6831 12.7887L20.1731 13.9815C20.1168 14.1105 19.9676 14.1696 19.8375 14.1103L18.6193 13.555C18.4933 13.4976 18.34 13.5549 18.2854 13.6884L17.7194 15.0339C17.6938 15.0983 17.6423 15.1484 17.5777 15.1725Z" fill="#4A6382"/>
<ellipse cx="12.8239" cy="15.1242" rx="1.72427" ry="1.72427" fill="#4A6382"/>
</svg>
