<svg width="144" height="144" viewBox="0 0 144 144" fill="none" xmlns="http://www.w3.org/2000/svg">
<path d="M97.6039 57.168H46.3831C40.0764 57.168 34.9639 62.2805 34.9639 68.5872V108.619C34.9639 114.926 40.0764 120.038 46.3831 120.038H97.6039C103.911 120.038 109.023 114.926 109.023 108.619V68.5872C109.023 62.2805 103.911 57.168 97.6039 57.168Z" stroke="#6B7D94" stroke-width="2" stroke-miterlimit="10"/>
<path d="M46.8574 56.6211V47.2179C46.8574 34.4307 57.8734 23.9619 71.3374 23.9619C84.8014 23.9619 95.8174 34.4307 95.8174 47.2179V56.6211" stroke="#6B7D94" stroke-width="2" stroke-linecap="round" stroke-linejoin="round"/>
<path d="M59.0181 84.6942C59.1353 84.8883 59.3085 85.0424 59.5149 85.1361C59.7213 85.2299 59.9513 85.2589 60.1745 85.2194C60.3978 85.1799 60.6038 85.0738 60.7656 84.9149C60.9273 84.756 61.0372 84.5519 61.0807 84.3294L65.8232 72.3187C66.2301 71.2804 65.6548 70.5789 64.5604 70.7613L51.0203 72.9361C49.9259 73.1045 49.6172 73.9323 50.3609 74.7742L59.0181 84.6942Z" fill="#F06E61"/>
<path d="M85.657 93.3115C85.5408 93.1174 85.3687 92.963 85.1633 92.8685C84.9579 92.7739 84.7287 92.7436 84.5057 92.7815C84.2828 92.8194 84.0765 92.9238 83.9139 93.081C83.7512 93.2381 83.6399 93.4407 83.5944 93.6622L78.8799 105.687C78.473 106.711 79.0483 107.427 80.1427 107.244L93.6828 105.07C94.7772 104.887 95.0859 104.059 94.3423 103.232L85.657 93.3115Z" fill="#F06E61"/>
<path d="M71.8467 69.0582C83.2692 69.0582 92.5289 78.0506 92.5289 89.1433C92.5289 94.7756 90.1416 99.8665 86.296 103.514" stroke="#F06E61" stroke-width="2" stroke-linecap="round" stroke-linejoin="round"/>
<path d="M72.8457 109.633C61.4232 109.633 52.1635 100.641 52.1635 89.5481C52.1635 83.9158 54.5508 78.8249 58.3964 75.1777" stroke="#F06E61" stroke-width="2" stroke-linecap="round" stroke-linejoin="round"/>
</svg>
