<svg width="32" height="32" viewBox="0 0 32 32" fill="none" xmlns="http://www.w3.org/2000/svg">
<rect x="8.18457" y="15.7446" width="13.3636" height="3.09992" rx="0.989364" fill="#4A6382"/>
<rect x="7.3252" y="4.44531" width="2.4302" height="7.5634" rx="1.2151" transform="rotate(39.5958 7.3252 4.44531)" fill="#4A6382"/>
<path fill-rule="evenodd" clip-rule="evenodd" d="M29.1616 15.6002L26.3695 10.7446C26.1466 10.4131 25.9694 9.8953 24.7218 9.8953H21.0821C20.4998 9.87706 20.3784 10.647 20.399 11.1755V16.9951C20.399 17.217 20.1396 17.3535 19.9177 17.3535H19.3862H12.5525H2.73003C2.0006 17.3535 1.87943 18.1063 1.87943 18.8357V18.8357V22.893C1.87943 23.166 2.10694 23.3936 2.37997 23.3936H3.9232C4.16456 23.3936 4.35932 23.63 4.35932 23.8713C4.35932 25.7824 5.9064 27.3295 7.8175 27.3295C9.7286 27.3295 11.2757 25.7824 11.2757 23.8713L11.2753 23.8316C11.2699 23.5871 11.4489 23.3708 11.6934 23.3708H20.186C20.4305 23.3708 20.6085 23.587 20.6041 23.8315L20.6037 23.8713C20.6037 25.7824 22.1508 27.3295 24.0619 27.3295C25.973 27.3295 27.5201 25.7824 27.5201 23.8713L27.5197 23.8316C27.5143 23.5871 27.6934 23.3708 27.9378 23.3708H29.4995C29.7725 23.3708 30 23.1433 30 22.8702V17.6831C30 16.9951 29.4995 16.1553 29.1616 15.6002ZM26.1466 15.1788L24.6207 12.2915C24.558 12.1424 24.412 12.0453 24.2502 12.0453H23.2793C23.0543 12.0453 22.8731 12.2301 22.8776 12.4552L22.951 15.3424C22.9554 15.5611 23.1339 15.736 23.3526 15.736H25.7761C26.0633 15.736 26.2577 15.4435 26.1466 15.1788Z" fill="#4A6382"/>
<path d="M7.60559 4.78857C6.65639 4.78857 6.05858 5.81082 6.524 6.63808L12.5525 17.3535H19.3862L8.53107 5.20279C8.29562 4.93924 7.95899 4.78857 7.60559 4.78857V4.78857Z" fill="#4A6382"/>
</svg>
