<svg width="144" height="144" viewBox="0 0 144 144" fill="none" xmlns="http://www.w3.org/2000/svg">
<path d="M118.585 78.5239H101.809C100.775 78.5239 99.9365 79.3621 99.9365 80.3959V115.532C99.9365 116.566 100.775 117.404 101.809 117.404H118.585C119.618 117.404 120.457 116.566 120.457 115.532V80.3959C120.457 79.3621 119.618 78.5239 118.585 78.5239Z" fill="#7CC694"/>
<path d="M44.3097 117.346H25.3017C24.8342 117.316 24.3975 117.102 24.0872 116.751C23.7768 116.401 23.6181 115.941 23.6457 115.474V92.5631C23.6457 85.5791 28.6425 79.9199 34.8057 79.9199C40.9689 79.9199 45.9657 85.5791 45.9657 92.5631V115.474C45.9934 115.943 45.8351 116.404 45.5251 116.757C45.2151 117.11 44.7784 117.327 44.3097 117.36V117.36" fill="#F6BD4E"/>
<path d="M90.1881 58.2056V112.738C90.1881 113.832 89.7547 114.881 88.9827 115.656C88.2108 116.43 87.1633 116.867 86.0697 116.871H15.9849C14.941 116.867 13.9411 116.45 13.2043 115.71C12.4674 114.971 12.0537 113.97 12.0537 112.926V58.7816" stroke="#6B7D94" stroke-width="2" stroke-linecap="round" stroke-linejoin="round"/>
<path d="M61.5458 45.4321H40.709V66.2689H61.5458V45.4321Z" stroke="#6B7D94" stroke-width="2" stroke-linecap="round" stroke-linejoin="round"/>
<path d="M51.1211 45.4321V64.8587" stroke="#6B7D94" stroke-width="2" stroke-linecap="round" stroke-linejoin="round"/>
<path d="M61.5458 55.8589H40.709" stroke="#6B7D94" stroke-width="2" stroke-linecap="round" stroke-linejoin="round"/>
<path d="M77.3866 82.8716H56.5498V103.708H77.3866V82.8716Z" stroke="#6B7D94" stroke-width="2" stroke-linecap="round" stroke-linejoin="round"/>
<path d="M66.9609 82.8716V102.298" stroke="#6B7D94" stroke-width="2" stroke-linecap="round" stroke-linejoin="round"/>
<path d="M77.3866 93.2988H56.5498" stroke="#6B7D94" stroke-width="2" stroke-linecap="round" stroke-linejoin="round"/>
<path d="M97.6472 63.1587L51.1208 27.1587L4.23438 63.6051" stroke="#6B7D94" stroke-width="2" stroke-linecap="round" stroke-linejoin="round"/>
<path d="M132.309 56.4023V112.735C132.309 113.279 132.201 113.818 131.993 114.32C131.784 114.822 131.478 115.279 131.093 115.663C130.708 116.047 130.251 116.351 129.747 116.557C129.244 116.764 128.705 116.87 128.161 116.868H58.1055" stroke="#6B7D94" stroke-width="2" stroke-linecap="round" stroke-linejoin="round"/>
<path d="M139.767 62.0787L94.3208 27.1299L72.2168 43.9347" stroke="#6B7D94" stroke-width="2" stroke-linecap="round" stroke-linejoin="round"/>
</svg>
