<svg width="32" height="32" viewBox="0 0 32 32" fill="none" xmlns="http://www.w3.org/2000/svg">
<path fill-rule="evenodd" clip-rule="evenodd" d="M29.6284 11.1261L16.6722 2.39156C16.6603 2.38352 16.6491 2.37434 16.6385 2.36458C16.2653 2.0204 15.7166 2.0204 15.3434 2.36458C15.3328 2.37434 15.3216 2.38352 15.3096 2.39156L2.35343 11.1261C1.67115 11.5705 2.09662 13.4512 3.0168 13.4512H3.73308C3.87115 13.4512 3.98308 13.5632 3.98308 13.7012V27.2684V29.6298C3.98308 29.7678 4.09491 29.8797 4.23292 29.8798L27.7499 29.8948C27.8881 29.8949 28.0001 29.7829 28.0001 29.6448V27.299V13.7012C28.0001 13.5632 28.112 13.4512 28.2501 13.4512H28.9651C29.8852 13.4512 30.3527 11.623 29.6284 11.1261ZM14.4004 13.7168C14.4004 13.4407 14.6242 13.2168 14.9004 13.2168H17.1004C17.3765 13.2168 17.6004 13.4407 17.6004 13.7168V18.0578H21.9405C22.2166 18.0578 22.4405 18.2817 22.4405 18.5578V20.7578C22.4405 21.034 22.2166 21.2578 21.9405 21.2578H17.6004V25.5987C17.6004 25.8748 17.3765 26.0987 17.1004 26.0987H14.9004C14.6242 26.0987 14.4004 25.8748 14.4004 25.5987V21.2578H10.0586C9.78245 21.2578 9.55859 21.034 9.55859 20.7578V18.5578C9.55859 18.2817 9.78245 18.0578 10.0586 18.0578H14.4004V13.7168Z" fill="#4A6382"/>
</svg>
