<svg width="33" height="32" viewBox="0 0 33 32" fill="none" xmlns="http://www.w3.org/2000/svg">
<path d="M16.8931 12.0194C16.0724 11.9383 15.2467 12.1129 14.5291 12.5193C13.8115 12.9256 13.237 13.5438 12.8843 14.2893C12.5316 15.0348 12.4179 15.871 12.5588 16.6836C12.6998 17.4962 13.0884 18.2453 13.6716 18.8284C14.2547 19.4116 15.0038 19.8002 15.8164 19.9412C16.629 20.0821 17.4652 19.9684 18.2107 19.6157C18.9562 19.263 19.5744 18.6885 19.9807 17.9709C20.3871 17.2533 20.5617 16.4276 20.4806 15.6069C20.3882 14.6869 19.9806 13.8271 19.3267 13.1733C18.6729 12.5194 17.8131 12.1118 16.8931 12.0194V12.0194ZM26.5244 16C26.5218 16.4348 26.4899 16.8689 26.4287 17.2994L29.2544 19.5156C29.3774 19.6176 29.4603 19.7599 29.4884 19.9173C29.5164 20.0746 29.4877 20.2368 29.4075 20.375L26.7344 25C26.6532 25.1369 26.5263 25.2407 26.3761 25.2932C26.2258 25.3457 26.0619 25.3434 25.9131 25.2869L23.1069 24.1569C22.9521 24.0953 22.7845 24.073 22.619 24.0921C22.4536 24.1112 22.2954 24.171 22.1588 24.2663C21.7305 24.5612 21.2804 24.8232 20.8125 25.05C20.6654 25.1215 20.5381 25.2281 20.442 25.3605C20.3459 25.4928 20.2838 25.6467 20.2612 25.8088L19.8406 28.8019C19.813 28.9599 19.7313 29.1035 19.6096 29.2081C19.4878 29.3126 19.3336 29.3716 19.1731 29.375H13.8269C13.6691 29.3723 13.5169 29.3159 13.3955 29.2151C13.274 29.1143 13.1905 28.9752 13.1587 28.8206L12.7388 25.8319C12.7152 25.6681 12.6515 25.5127 12.5533 25.3794C12.4552 25.2462 12.3257 25.1392 12.1763 25.0681C11.7089 24.8425 11.2604 24.5798 10.835 24.2825C10.6988 24.1877 10.5412 24.1284 10.3763 24.1097C10.2115 24.091 10.0445 24.1137 9.89062 24.1756L7.085 25.305C6.93632 25.3616 6.77242 25.364 6.62219 25.3116C6.47196 25.2592 6.34503 25.1555 6.26375 25.0187L3.59062 20.3937C3.51026 20.2556 3.48154 20.0934 3.50958 19.936C3.53762 19.7786 3.6206 19.6363 3.74375 19.5344L6.13187 17.6594C6.26271 17.5555 6.36554 17.4206 6.43102 17.267C6.49651 17.1133 6.52258 16.9457 6.50687 16.7794C6.48437 16.5188 6.47062 16.2588 6.47062 15.9981C6.47062 15.7375 6.48375 15.4812 6.50687 15.2262C6.52086 15.061 6.49351 14.8948 6.42729 14.7427C6.36106 14.5906 6.25804 14.4574 6.1275 14.355L3.74062 12.48C3.61948 12.3776 3.53824 12.2357 3.51116 12.0794C3.48408 11.9231 3.51287 11.7622 3.5925 11.625L6.26562 7C6.3468 6.86312 6.4737 6.75929 6.62394 6.7068C6.77418 6.65432 6.93812 6.65656 7.08687 6.71313L9.89312 7.84312C10.0479 7.90474 10.2155 7.927 10.381 7.90791C10.5464 7.88883 10.7046 7.82898 10.8413 7.73375C11.2695 7.43883 11.7196 7.17682 12.1875 6.95C12.3346 6.8785 12.4619 6.77188 12.558 6.63955C12.6541 6.50722 12.7162 6.35326 12.7388 6.19125L13.1594 3.19812C13.187 3.04005 13.2687 2.89648 13.3904 2.79194C13.5122 2.68741 13.6664 2.6284 13.8269 2.625H19.1731C19.3309 2.62773 19.4831 2.68413 19.6045 2.7849C19.726 2.88567 19.8095 3.0248 19.8412 3.17937L20.2612 6.16813C20.2848 6.33192 20.3485 6.48734 20.4467 6.62059C20.5448 6.75383 20.6743 6.86076 20.8237 6.93188C21.2911 7.15747 21.7396 7.42019 22.165 7.7175C22.3012 7.81226 22.4588 7.87164 22.6237 7.8903C22.7885 7.90896 22.9555 7.8863 23.1094 7.82438L25.915 6.695C26.0637 6.63838 26.2276 6.63605 26.3778 6.68841C26.528 6.74078 26.655 6.84448 26.7362 6.98125L29.4094 11.6062C29.4897 11.7444 29.5185 11.9066 29.4904 12.064C29.4624 12.2214 29.3794 12.3637 29.2563 12.4656L26.8681 14.3406C26.7367 14.4441 26.6333 14.5789 26.5673 14.7326C26.5012 14.8863 26.4747 15.054 26.49 15.2206C26.5106 15.4794 26.5244 15.7394 26.5244 16Z" stroke="#4A6382" stroke-linecap="round" stroke-linejoin="round"/>
</svg>
