<svg width="33" height="33" viewBox="0 0 33 33" fill="none" xmlns="http://www.w3.org/2000/svg">
<path d="M3.25424 16.2574C4.53961 14.3555 6.47613 12.2821 8.789 10.6881C11.1032 9.09324 13.7616 8 16.5 8C19.2384 8 21.8968 9.09324 24.211 10.6881C26.5239 12.2821 28.4604 14.3555 29.7458 16.2574C29.8456 16.4051 29.8456 16.5949 29.7458 16.7426C28.4604 18.6445 26.5239 20.7179 24.211 22.3119C21.8968 23.9068 19.2384 25 16.5 25C13.7616 25 11.1032 23.9068 8.789 22.3119C6.47613 20.7179 4.53961 18.6445 3.25424 16.7426C3.15443 16.5949 3.15443 16.4051 3.25424 16.2574Z" stroke="#4A6382" stroke-linecap="round" stroke-linejoin="round"/>
<path d="M12 16.5C12 15.6099 12.3385 14.4724 13.0756 13.5653C13.7999 12.6737 14.9111 12 16.5 12C18.0889 12 19.2001 12.6737 19.9244 13.5653C20.6615 14.4724 21 15.6099 21 16.5C21 17.3901 20.6615 18.5276 19.9244 19.4347C19.2001 20.3263 18.0889 21 16.5 21C14.9111 21 13.7999 20.3263 13.0756 19.4347C12.3385 18.5276 12 17.3901 12 16.5Z" stroke="#4A6382" stroke-linecap="round" stroke-linejoin="round"/>
</svg>
