<svg width="144" height="144" viewBox="0 0 144 144" fill="none" xmlns="http://www.w3.org/2000/svg">
<path d="M128.981 16.4307H15.0189C13.9374 16.4307 13.0605 17.3075 13.0605 18.3892V32.2426C13.0605 33.3243 13.9374 34.2011 15.0189 34.2011H128.981C130.062 34.2011 130.939 33.3243 130.939 32.2426V18.3892C130.939 17.3075 130.062 16.4307 128.981 16.4307Z" stroke="#6B7D94" stroke-width="2"/>
<path d="M37.7422 34.2573V42.8977C37.7612 45.6605 38.873 48.3035 40.8347 50.249C42.7963 52.1946 45.4482 53.2845 48.211 53.2806H94.4638C95.8398 53.2825 97.2027 53.0131 98.4745 52.4878C99.7462 51.9626 100.902 51.1917 101.876 50.2193C102.849 49.247 103.622 48.0922 104.149 46.8211C104.676 45.5499 104.947 44.1874 104.947 42.8113V34.1709" stroke="#6B7D94" stroke-width="2"/>
<path d="M58.2334 53.2793V77.2985C58.2315 77.6432 58.298 77.9849 58.429 78.3037C58.5601 78.6225 58.7531 78.9122 58.9968 79.1559C59.2405 79.3997 59.5302 79.5927 59.849 79.7237C60.1679 79.8547 60.5095 79.9212 60.8542 79.9193H81.835C82.1792 79.9193 82.52 79.8515 82.838 79.7198C83.1559 79.5881 83.4449 79.395 83.6882 79.1517C83.9316 78.9083 84.1246 78.6194 84.2563 78.3014C84.388 77.9835 84.4558 77.6427 84.4558 77.2985V53.2793" stroke="#6B7D94" stroke-width="2"/>
<path d="M71.4961 79.9199V93.9606" stroke="#6B7D94" stroke-width="2"/>
<path d="M55.0371 93.96H87.9555" stroke="#6B7D94" stroke-width="2" stroke-linecap="round"/>
<path d="M71.4966 114.912C72.5782 114.912 73.4551 114.035 73.4551 112.954C73.4551 111.872 72.5782 110.995 71.4966 110.995C70.4149 110.995 69.5381 111.872 69.5381 112.954C69.5381 114.035 70.4149 114.912 71.4966 114.912Z" fill="#6B7D94" stroke="#6B7D94" stroke-width="2"/>
<path d="M71.4966 127.555C72.5782 127.555 73.4551 126.678 73.4551 125.596C73.4551 124.515 72.5782 123.638 71.4966 123.638C70.4149 123.638 69.5381 124.515 69.5381 125.596C69.5381 126.678 70.4149 127.555 71.4966 127.555Z" fill="#6B7D94" stroke="#6B7D94" stroke-width="2"/>
<path d="M58.3062 109.052C59.3878 109.052 60.2646 108.175 60.2646 107.093C60.2646 106.012 59.3878 105.135 58.3062 105.135C57.2245 105.135 56.3477 106.012 56.3477 107.093C56.3477 108.175 57.2245 109.052 58.3062 109.052Z" fill="#6B7D94" stroke="#6B7D94" stroke-width="2"/>
<path d="M51.0474 117.534C52.129 117.534 53.0059 116.657 53.0059 115.576C53.0059 114.494 52.129 113.617 51.0474 113.617C49.9657 113.617 49.0889 114.494 49.0889 115.576C49.0889 116.657 49.9657 117.534 51.0474 117.534Z" fill="#6B7D94" stroke="#6B7D94" stroke-width="2"/>
<path d="M91.9585 117.533C93.0401 117.533 93.917 116.656 93.917 115.575C93.917 114.493 93.0401 113.616 91.9585 113.616C90.8768 113.616 90 114.493 90 115.575C90 116.656 90.8768 117.533 91.9585 117.533Z" fill="#6B7D94" stroke="#6B7D94" stroke-width="2"/>
<path d="M58.3062 127.253C59.3878 127.253 60.2646 126.376 60.2646 125.294C60.2646 124.213 59.3878 123.336 58.3062 123.336C57.2245 123.336 56.3477 124.213 56.3477 125.294C56.3477 126.376 57.2245 127.253 58.3062 127.253Z" fill="#6B7D94" stroke="#6B7D94" stroke-width="2"/>
<path d="M84.687 109.052C85.7687 109.052 86.6455 108.175 86.6455 107.093C86.6455 106.012 85.7687 105.135 84.687 105.135C83.6054 105.135 82.7285 106.012 82.7285 107.093C82.7285 108.175 83.6054 109.052 84.687 109.052Z" fill="#6B7D94" stroke="#6B7D94" stroke-width="2"/>
<path d="M84.687 127.253C85.7687 127.253 86.6455 126.376 86.6455 125.294C86.6455 124.213 85.7687 123.336 84.687 123.336C83.6054 123.336 82.7285 124.213 82.7285 125.294C82.7285 126.376 83.6054 127.253 84.687 127.253Z" fill="#6B7D94" stroke="#6B7D94" stroke-width="2"/>
</svg>
