<svg width="33" height="32" viewBox="0 0 33 32" fill="none" xmlns="http://www.w3.org/2000/svg">
<path d="M16.5 2.5C23.953 2.5 30 8.54698 30 16C30 23.453 23.953 29.5 16.5 29.5C9.04698 29.5 3 23.453 3 16C3 8.54698 9.04698 2.5 16.5 2.5Z" stroke="#4A6382" stroke-miterlimit="10"/>
<path d="M18.5 22.3337V21.3337C18.5 20.1253 19.8142 18.9824 20.6667 18.167C21.8684 17.0183 22.5 15.4749 22.5 13.667C22.5 10.3337 19.8446 7.66702 16.5 7.66702C15.7115 7.66482 14.9303 7.81851 14.2013 8.11926C13.4724 8.42001 12.8101 8.86188 12.2525 9.41947C11.6949 9.97706 11.253 10.6394 10.9523 11.3683C10.6515 12.0973 10.4978 12.8785 10.5 13.667C10.5 15.4103 11.1588 17.0583 12.3334 18.167C13.1813 18.9674 14.5 20.1128 14.5 21.3337V22.3337M15.1667 26.3337H17.8334M14.5 24.3337H18.5" stroke="#4A6382" stroke-linecap="round" stroke-linejoin="round"/>
</svg>
