<svg width="144" height="144" viewBox="0 0 144 144" fill="none" xmlns="http://www.w3.org/2000/svg">
<path d="M10.2354 123H138.201" stroke="#647891" stroke-width="2" stroke-linecap="round" stroke-linejoin="round"/>
<path d="M23.7715 120.947V46.8121L49.7159 19L75.6788 46.8121V121.335" stroke="#647891" stroke-width="2" stroke-linecap="round" stroke-linejoin="round"/>
<path d="M28.8936 41.0611V23.1978H37.6958V31.6671" stroke="#647891" stroke-width="2" stroke-linecap="round" stroke-linejoin="round"/>
<path d="M49.7157 49.3459C52.7693 49.3459 55.2448 46.8704 55.2448 43.8167C55.2448 40.7631 52.7693 38.2876 49.7157 38.2876C46.662 38.2876 44.1865 40.7631 44.1865 43.8167C44.1865 46.8704 46.662 49.3459 49.7157 49.3459Z" fill="#F6BD4E"/>
<path d="M102.215 49.3459C105.268 49.3459 107.744 46.8704 107.744 43.8167C107.744 40.7631 105.268 38.2876 102.215 38.2876C99.161 38.2876 96.6855 40.7631 96.6855 43.8167C96.6855 46.8704 99.161 49.3459 102.215 49.3459Z" fill="#F6BD4E"/>
<path d="M49.7157 49.3459C52.7693 49.3459 55.2448 46.8704 55.2448 43.8167C55.2448 40.7631 52.7693 38.2876 49.7157 38.2876C46.662 38.2876 44.1865 40.7631 44.1865 43.8167C44.1865 46.8704 46.662 49.3459 49.7157 49.3459Z" stroke="#647891" stroke-width="2" stroke-linecap="round" stroke-linejoin="round"/>
<path d="M63.4927 57.001H35.958V76.0478H63.4927V57.001Z" stroke="#647891" stroke-width="2" stroke-linecap="round" stroke-linejoin="round"/>
<path d="M49.3643 58.7031V75.7159" stroke="#647891" stroke-width="2" stroke-linecap="round" stroke-linejoin="round"/>
<path d="M36.2725 97.5172C36.2725 94.0841 37.6363 90.7916 40.0638 88.3641C42.4914 85.9365 45.7838 84.5728 49.2169 84.5728C52.65 84.5728 55.9425 85.9365 58.3701 88.3641C60.7976 90.7916 62.1614 94.0841 62.1614 97.5172H36.2725Z" fill="#F06E61"/>
<path d="M88.7715 97.5172C88.7715 94.0841 90.1353 90.7916 92.5629 88.3641C94.9904 85.9365 98.2829 84.5728 101.716 84.5728C105.149 84.5728 108.441 85.9365 110.869 88.3641C113.297 90.7916 114.66 94.0841 114.66 97.5172H88.7715Z" fill="#F06E61"/>
<path d="M36.2725 97.5172C36.2725 94.0841 37.6363 90.7916 40.0638 88.3641C42.4914 85.9365 45.7838 84.5728 49.2169 84.5728C52.65 84.5728 55.9425 85.9365 58.3701 88.3641C60.7976 90.7916 62.1614 94.0841 62.1614 97.5172H36.2725Z" stroke="#647891" stroke-width="2" stroke-linecap="round" stroke-linejoin="round"/>
<path d="M62.2158 97.9248V121.928" stroke="#647891" stroke-width="2" stroke-linecap="round" stroke-linejoin="round"/>
<path d="M36.2725 97.9248V120.763" stroke="#647891" stroke-width="2" stroke-linecap="round" stroke-linejoin="round"/>
<path d="M44.2979 120.763V103.121H53.7843V120.763" stroke="#647891" stroke-width="2" stroke-linecap="round" stroke-linejoin="round"/>
<path d="M76.2705 46.8121L102.215 19L128.178 46.8121V121.335" stroke="#647891" stroke-width="2" stroke-linecap="round" stroke-linejoin="round"/>
<path d="M81.3926 41.0611V23.1978H90.1948V31.6671" stroke="#647891" stroke-width="2" stroke-linecap="round" stroke-linejoin="round"/>
<path d="M102.215 49.3459C105.268 49.3459 107.744 46.8704 107.744 43.8167C107.744 40.7631 105.268 38.2876 102.215 38.2876C99.161 38.2876 96.6855 40.7631 96.6855 43.8167C96.6855 46.8704 99.161 49.3459 102.215 49.3459Z" stroke="#647891" stroke-width="2" stroke-linecap="round" stroke-linejoin="round"/>
<path d="M115.991 57.001H88.4561V76.0478H115.991V57.001Z" stroke="#647891" stroke-width="2" stroke-linecap="round" stroke-linejoin="round"/>
<path d="M101.863 58.7031V75.7159" stroke="#647891" stroke-width="2" stroke-linecap="round" stroke-linejoin="round"/>
<path d="M88.7715 97.5172C88.7715 94.0841 90.1353 90.7916 92.5629 88.3641C94.9904 85.9365 98.2829 84.5728 101.716 84.5728C105.149 84.5728 108.441 85.9365 110.869 88.3641C113.297 90.7916 114.66 94.0841 114.66 97.5172H88.7715Z" stroke="#647891" stroke-width="2" stroke-linecap="round" stroke-linejoin="round"/>
<path d="M114.716 97.9248V121.928" stroke="#647891" stroke-width="2" stroke-linecap="round" stroke-linejoin="round"/>
<path d="M88.7715 97.9248V120.763" stroke="#647891" stroke-width="2" stroke-linecap="round" stroke-linejoin="round"/>
<path d="M96.7773 121.317V103.675H106.282V121.317" stroke="#647891" stroke-width="2" stroke-linecap="round" stroke-linejoin="round"/>
<path d="M15.6533 109.537C21.7096 109.537 26.6191 103.907 26.6191 96.9623C26.6191 90.0175 21.7096 84.3877 15.6533 84.3877C9.59706 84.3877 4.6875 90.0175 4.6875 96.9623C4.6875 103.907 9.59706 109.537 15.6533 109.537Z" fill="#7CC694"/>
<path d="M15.6533 109.537C21.7096 109.537 26.6191 103.907 26.6191 96.9623C26.6191 90.0175 21.7096 84.3877 15.6533 84.3877C9.59706 84.3877 4.6875 90.0175 4.6875 96.9623C4.6875 103.907 9.59706 109.537 15.6533 109.537Z" stroke="#647891" stroke-width="2" stroke-linecap="round" stroke-linejoin="round"/>
<path d="M15.6533 96.9629V122.685" stroke="#647891" stroke-width="2" stroke-linecap="round" stroke-linejoin="round"/>
</svg>
