<svg width="144" height="144" viewBox="0 0 144 144" fill="none" xmlns="http://www.w3.org/2000/svg">
<path d="M32.4561 49.4213L44.6096 35.4238H74.9936V49.8101L32.4561 49.4213Z" fill="#F6BD4E"/>
<path d="M84.0095 76.8525C87.4498 77.6445 90.483 79.6643 92.5403 82.5331C94.5977 85.4019 95.5378 88.9227 95.1844 92.4352C94.831 95.9478 93.2084 99.2107 90.6209 101.612C88.0333 104.014 84.6586 105.389 81.1295 105.48C78.0443 105.444 75.0542 104.407 72.6101 102.524C70.1659 100.641 68.4002 98.0139 67.5791 95.0397" stroke="#6B7D94" stroke-width="2" stroke-linecap="round" stroke-linejoin="round"/>
<path d="M81.1592 99.0307C85.4858 99.0307 88.9932 95.4459 88.9932 91.0239C88.9932 86.6018 85.4858 83.0171 81.1592 83.0171C76.8326 83.0171 73.3252 86.6018 73.3252 91.0239C73.3252 95.4459 76.8326 99.0307 81.1592 99.0307Z" fill="#7CC694"/>
<path d="M128.248 98.7689C132.575 98.7689 136.082 95.1842 136.082 90.7622C136.082 86.3401 132.575 82.7554 128.248 82.7554C123.921 82.7554 120.414 86.3401 120.414 90.7622C120.414 95.1842 123.921 98.7689 128.248 98.7689Z" fill="#7CC694"/>
<path d="M128.361 105.481C136.171 105.481 142.502 99.0077 142.502 91.023C142.502 83.0383 136.171 76.5654 128.361 76.5654C120.552 76.5654 114.221 83.0383 114.221 91.023C114.221 99.0077 120.552 105.481 128.361 105.481Z" stroke="#6B7D94" stroke-width="2" stroke-linecap="round" stroke-linejoin="round"/>
<path d="M118.08 71.208L109.685 85.7383C108.015 88.3448 105.783 91.081 102.845 91.1098L81.418 91.3258" stroke="#6B7D94" stroke-width="2" stroke-linecap="round" stroke-linejoin="round"/>
<path d="M88.6895 71.5962C94.8962 74.1163 101.65 81.5183 101.103 90.2307" stroke="#6B7D94" stroke-width="2" stroke-linecap="round" stroke-linejoin="round"/>
<path d="M88.4307 71.0068L122.285 70.7476" stroke="#6B7D94" stroke-width="2" stroke-linecap="round" stroke-linejoin="round"/>
<path d="M128.248 61.344C127.827 61.2496 127.397 61.2061 126.966 61.2144C126.352 61.2389 125.75 61.3842 125.192 61.6417C124.635 61.8993 124.133 62.2641 123.717 62.7154C122.875 63.6269 122.431 64.8352 122.48 66.0746C122.53 67.314 123.07 68.4828 123.981 69.3241C124.893 70.1654 126.101 70.6101 127.341 70.5604C127.587 70.5419 127.832 70.5083 128.075 70.4596L128.248 61.344Z" fill="#F6BD4E"/>
<path d="M125.769 76.0469L118.079 58.5653C118.079 58.5653 116.927 55.5125 114.148 55.6133C111.772 55.6853 108.849 55.6853 108.849 55.6853" stroke="#6B7D94" stroke-width="2" stroke-linecap="round" stroke-linejoin="round"/>
<path d="M111.845 32.6309L41.5586 111.37" stroke="#6B7D94" stroke-width="2" stroke-linecap="round" stroke-linejoin="round"/>
<path d="M86.0982 50.2134H5.24219C5.24219 50.2134 10.0806 68.4438 26.9142 74.0022" stroke="#6B7D94" stroke-width="2" stroke-linecap="round" stroke-linejoin="round"/>
<path d="M9.86426 59.4004H75.5571" stroke="#6B7D94" stroke-width="2" stroke-linecap="round" stroke-linejoin="round"/>
<path d="M32.1992 50.2153L44.3528 36.2178H74.7368V48.6312" stroke="#6B7D94" stroke-width="2" stroke-linecap="round" stroke-linejoin="round"/>
<path d="M53.5967 50.2137V37.0083" stroke="#6B7D94" stroke-width="2" stroke-linecap="round" stroke-linejoin="round"/>
<path d="M2.88086 76.4209C12.3849 76.4209 12.3849 82.1812 21.8889 82.1812C31.3929 82.1812 31.4073 76.4209 40.9257 76.4209C50.4441 76.4209 50.4297 82.1812 59.9481 82.1812" stroke="#6B7D94" stroke-width="2" stroke-linecap="round" stroke-linejoin="round"/>
<path d="M1.44043 86.5286C10.9444 86.5286 10.9444 92.2889 20.4484 92.2889C29.9524 92.2889 29.9668 86.5286 39.4852 86.5286C42.8549 86.4213 46.1719 87.3842 48.9604 89.2791" stroke="#6B7D94" stroke-width="2" stroke-linecap="round" stroke-linejoin="round"/>
</svg>
