<svg width="144" height="144" viewBox="0 0 144 144" fill="none" xmlns="http://www.w3.org/2000/svg">
<path d="M86.8318 66.2158C83.8002 66.3602 83.6197 68.6159 83.5837 70.24L83.5293 103.858H101.537V66.2158H86.8318Z" fill="#F6BD4E" stroke="#647891" stroke-width="2" stroke-linecap="square" stroke-linejoin="round"/>
<path d="M52.7602 72.0557C58.3513 72.0557 62.8837 67.5232 62.8837 61.9321C62.8837 56.3411 58.3513 51.8086 52.7602 51.8086C47.1692 51.8086 42.6367 56.3411 42.6367 61.9321C42.6367 67.5232 47.1692 72.0557 52.7602 72.0557Z" fill="white"/>
<path d="M104.236 34.1992L39.4355 107.999" stroke="#647891" stroke-width="2" stroke-linecap="round" stroke-linejoin="round"/>
<path d="M12.8444 55.1858C14.6483 55.1858 16.1106 53.7235 16.1106 51.9196C16.1106 50.1157 14.6483 48.6533 12.8444 48.6533C11.0405 48.6533 9.57812 50.1157 9.57812 51.9196C9.57812 53.7235 11.0405 55.1858 12.8444 55.1858Z" fill="#647891"/>
<path d="M7.19922 57.5996H43.2832" stroke="#647891" stroke-width="2" stroke-linecap="round"/>
<path d="M52.7602 72.0576C58.3513 72.0576 62.8837 67.5252 62.8837 61.9341C62.8837 56.343 58.3513 51.8105 52.7602 51.8105C47.1692 51.8105 42.6367 56.343 42.6367 61.9341C42.6367 67.5252 47.1692 72.0576 52.7602 72.0576Z" stroke="#647891" stroke-width="2" stroke-linecap="square" stroke-linejoin="round"/>
<path d="M25.0352 44.099V35.999H80.8352V44.099H79.0352V57.599H61.9115C60.2875 54.1769 56.8004 51.8105 52.7605 51.8105C48.7207 51.8105 45.2336 54.1769 43.6095 57.599H26.8352V44.099H25.0352Z" fill="#F06E61" stroke="#647891" stroke-width="2" stroke-linecap="square" stroke-linejoin="round"/>
<path d="M52.7609 66.4281C55.2425 66.4281 57.2542 64.4163 57.2542 61.9347C57.2542 59.4531 55.2425 57.4414 52.7609 57.4414C50.2793 57.4414 48.2676 59.4531 48.2676 61.9347C48.2676 64.4163 50.2793 66.4281 52.7609 66.4281Z" fill="#7CC694"/>
<path d="M12.8438 51.9199V71.0482" stroke="#647891" stroke-width="2" stroke-linecap="round" stroke-linejoin="round"/>
<path d="M94.5376 74.4072H91.109C90.4911 74.4072 89.9902 74.9081 89.9902 75.5261V81.6615C89.9902 82.2794 90.4911 82.7804 91.109 82.7804H94.5376C95.1555 82.7804 95.6566 82.2794 95.6566 81.6615V75.5261C95.6566 74.9081 95.1555 74.4072 94.5376 74.4072Z" fill="#647891"/>
<path d="M118.014 105.7C119.768 105.7 121.19 104.278 121.19 102.524C121.19 100.77 119.768 99.3477 118.014 99.3477C116.26 99.3477 114.838 100.77 114.838 102.524C114.838 104.278 116.26 105.7 118.014 105.7Z" fill="#647891"/>
<path d="M117.905 109.799C121.882 109.799 125.105 106.576 125.105 102.599C125.105 98.623 121.882 95.3994 117.905 95.3994C113.929 95.3994 110.705 98.623 110.705 102.599C110.705 106.576 113.929 109.799 117.905 109.799Z" stroke="#647891" stroke-width="2" stroke-linecap="square" stroke-linejoin="round"/>
<path d="M70.7156 109.8C74.6921 109.8 77.9156 106.576 77.9156 102.6C77.9156 101.556 77.6935 100.564 77.294 99.6689H64.1373C63.7377 100.564 63.5156 101.556 63.5156 102.6C63.5156 106.576 66.7392 109.8 70.7156 109.8Z" stroke="#647891" stroke-width="2" stroke-linecap="square" stroke-linejoin="round"/>
<path d="M72.6723 100.061C73.3834 100.63 73.8457 101.519 73.8457 102.497C73.8457 104.221 72.4412 105.626 70.7168 105.626C68.9923 105.626 67.5879 104.221 67.5879 102.497C67.5879 101.483 68.0679 100.577 68.8146 100.008" fill="#647891"/>
<path d="M54.7109 99.5986H83.5294" stroke="#647891" stroke-width="2" stroke-linecap="round" stroke-linejoin="round"/>
<path d="M95.0957 53.999H125.647C127.101 53.999 128.342 55.0452 128.59 56.4814L129.654 62.7405C129.955 64.5314 128.59 66.1804 126.764 66.2158H101.655" stroke="#647891" stroke-width="2" stroke-linecap="round" stroke-linejoin="round"/>
<path d="M101.535 103.857L110.723 103.857" stroke="#647891" stroke-width="2" stroke-linecap="square" stroke-linejoin="round"/>
<path d="M62.2168 90.5215H83.5285" stroke="#647891" stroke-width="2" stroke-linecap="round" stroke-linejoin="round"/>
<path d="M125.484 103.93H134.471C135.752 103.93 136.798 102.884 136.798 101.602V89.548L119.168 66.9189" stroke="#647891" stroke-width="2" stroke-linecap="round" stroke-linejoin="round"/>
<path d="M109.01 76.0312H118.881L125.918 85.4149H109.01V76.0312Z" fill="#7CC694" stroke="#647891" stroke-width="2" stroke-linecap="square" stroke-linejoin="round"/>
<path d="M135.751 95.2129H132.611" stroke="#647891" stroke-width="2" stroke-linecap="round" stroke-linejoin="round"/>
<path d="M79.0352 44.0996L26.8352 44.0996" stroke="#647891" stroke-width="2" stroke-linecap="square" stroke-linejoin="round"/>
</svg>
