<svg width="144" height="144" viewBox="0 0 144 144" fill="none" xmlns="http://www.w3.org/2000/svg">
<g clip-path="url(#clip0_37301_16474)">
<path d="M65.5056 118.08C64.6136 118.109 63.7246 117.961 62.8898 117.646C62.0549 117.331 61.2904 116.854 60.6402 116.242C59.9901 115.631 59.4669 114.897 59.1009 114.083C58.7348 113.269 58.5329 112.391 58.5068 111.499" stroke="#6B7D94" stroke-width="2" stroke-linecap="round" stroke-linejoin="round"/>
<path d="M72.4902 111.542C72.4263 113.333 71.6558 115.026 70.347 116.252C69.0383 117.477 67.2977 118.134 65.5059 118.079" stroke="#6B7D94" stroke-width="2" stroke-linecap="round" stroke-linejoin="round"/>
<path d="M72.4893 77.8618V111.543" stroke="#6B7D94" stroke-width="2" stroke-linecap="round" stroke-linejoin="round"/>
<path d="M72.4893 25.8755V31.2758" stroke="#6B7D94" stroke-width="2" stroke-linecap="round" stroke-linejoin="round"/>
<path d="M30.3557 72.9645C32.9127 72.9214 35.4433 73.4865 37.7391 74.6131C40.0349 75.7397 42.0302 77.3956 43.5605 79.4445C43.6502 79.5665 43.7673 79.6658 43.9024 79.7342C44.0374 79.8025 44.1867 79.8382 44.3381 79.8382C44.4896 79.8382 44.6388 79.8025 44.7739 79.7342C44.909 79.6658 45.0261 79.5665 45.1157 79.4445C46.6767 77.4267 48.6791 75.7933 50.9693 74.6695C53.2595 73.5457 55.7767 72.9614 58.3277 72.9614C60.8788 72.9614 63.396 73.5457 65.6862 74.6695C67.9764 75.7933 69.9788 77.4267 71.5397 79.4445C71.6326 79.5641 71.7516 79.6609 71.8876 79.7275C72.0237 79.7941 72.1731 79.8287 72.3245 79.8287C72.476 79.8287 72.6254 79.7941 72.7614 79.7275C72.8975 79.6609 73.0165 79.5641 73.1093 79.4445C74.6388 77.4707 76.5906 75.8641 78.8217 74.7427C81.0527 73.6213 83.5065 73.0135 86.0031 72.9638C88.4996 72.9141 90.9756 73.4238 93.2496 74.4555C95.5235 75.4872 97.5377 77.0147 99.1445 78.9261C99.2378 79.0355 99.3537 79.1233 99.4842 79.1835C99.6148 79.2438 99.7568 79.275 99.9005 79.275C100.044 79.275 100.186 79.2438 100.317 79.1835C100.447 79.1233 100.563 79.0355 100.657 78.9261C102.186 77.1158 104.081 75.6494 106.217 74.6232C108.353 73.5969 110.682 73.0341 113.05 72.9715C115.419 72.9089 117.775 73.3481 119.962 74.2602C122.149 75.1723 124.119 76.5366 125.741 78.2637C126.101 78.6237 127.369 78.4365 127.441 77.7021C126.001 51.6381 101.679 30.9165 72.0005 30.9165C42.3221 30.9165 18.1877 51.5229 16.5605 77.5005C16.5605 78.1773 17.8133 78.5229 18.2453 78.0765C19.8012 76.4339 21.6806 75.1316 23.765 74.2518C25.8494 73.3719 28.0935 72.9336 30.3557 72.9645V72.9645Z" fill="#7CC694"/>
</g>
<defs>
<clipPath id="clip0_37301_16474">
<rect width="144" height="144" fill="white"/>
</clipPath>
</defs>
</svg>
