<svg width="32" height="32" viewBox="0 0 32 32" fill="none" xmlns="http://www.w3.org/2000/svg">
<path fill-rule="evenodd" clip-rule="evenodd" d="M15.4073 13.3673L12.4907 16.942L11.6308 16.1522L15.9907 10.8333L20.3692 16.1825L19.4907 16.9583L16.574 13.3697V22.5H15.4073V13.3673ZM23.5833 24.8333H8.41667C5.52217 24.8333 3.16667 22.479 3.16667 19.5833C3.16667 17.0423 4.98083 14.8723 7.481 14.422L8.38983 14.2587L8.44 13.3382C8.65583 9.3155 11.9762 6.16667 16 6.16667C20.0238 6.16667 23.3442 9.3155 23.5577 13.3382L23.609 14.2587L24.519 14.422C27.018 14.8723 28.8333 17.0423 28.8333 19.5833C28.8333 22.479 26.4778 24.8333 23.5833 24.8333ZM24.7243 13.274C24.477 8.6645 20.6737 5 16 5C11.3263 5 7.52183 8.6645 7.2745 13.274C4.27617 13.8142 2 16.431 2 19.5833C2 23.1265 4.8735 26 8.41667 26H23.5833C27.1265 26 30 23.1265 30 19.5833C30 16.431 27.7238 13.8142 24.7243 13.274Z" fill="#4A6382"/>
</svg>
