<svg width="32" height="32" viewBox="0 0 32 32" fill="none" xmlns="http://www.w3.org/2000/svg">
<path d="M19.6257 2.11466C19.3383 1.90341 18.9551 2.00904 18.6678 2.22029L9.37597 9.61418H2.95792C2.38317 9.61418 2 10.0367 2 10.6704V21.2331C2 21.8669 2.38317 22.2894 2.95792 22.2894H9.37597L18.6678 29.7889C18.8593 29.8946 19.0509 30.0002 19.2425 30.0002C19.4341 30.0002 19.5299 30.0002 19.7215 29.8946C20.0089 29.6833 20.2004 29.3664 20.2004 28.9439V3.06531C20.2004 2.6428 20.0088 2.22029 19.6257 2.11466Z" fill="#4A6382"/>
<path fill-rule="evenodd" clip-rule="evenodd" d="M22.9674 12.5816C23.6652 13.5956 24.0407 14.8064 24.0297 16.0531C24.0187 17.2998 23.6219 18.5037 22.9063 19.5053C22.9044 19.5079 22.9025 19.5106 22.9006 19.5132C22.8525 19.5802 22.8116 19.6514 22.778 19.7252C22.5902 20.138 22.634 20.6337 22.9604 20.9601C23.3451 21.3448 23.9745 21.3481 24.309 20.919C24.3751 20.8343 24.4394 20.7483 24.5018 20.6612C24.5442 20.6021 24.5858 20.5424 24.6265 20.4822C25.502 19.1879 25.9859 17.6552 25.9998 16.0705C26.0138 14.4857 25.5571 12.9447 24.7046 11.6351C24.665 11.5742 24.6245 11.5138 24.5831 11.454C24.5222 11.3658 24.4595 11.2787 24.3949 11.1928C24.068 10.7579 23.4387 10.7501 23.0472 11.1279C22.7151 11.4485 22.6626 11.9434 22.843 12.3594C22.8753 12.4338 22.915 12.5057 22.9619 12.5735C22.9637 12.5762 22.9656 12.5789 22.9674 12.5816Z" fill="#4A6382"/>
<path fill-rule="evenodd" clip-rule="evenodd" d="M25.0868 8.93001C25.0902 8.93353 25.0936 8.93703 25.0971 8.94051C25.9011 9.7488 26.563 10.6903 27.0519 11.7256C27.6827 13.0615 28.0101 14.5205 28.0104 15.9979C28.0107 17.4753 27.684 18.9344 27.0538 20.2706C26.5653 21.3061 25.9039 22.2479 25.1003 23.0566C25.0968 23.0601 25.0934 23.0636 25.0899 23.0671C25.0546 23.1036 25.022 23.1421 24.9923 23.1822C24.7041 23.571 24.6837 24.1131 24.9976 24.4942C25.347 24.9182 25.9773 24.9816 26.371 24.5984C26.4183 24.5524 26.4651 24.506 26.5116 24.4592C26.5416 24.429 26.5715 24.3986 26.6012 24.3681C27.5242 23.4194 28.2861 22.3222 28.8534 21.1195C29.609 19.5177 30.0006 17.7685 30.0002 15.9975C29.9998 14.2264 29.6074 12.4774 28.8511 10.876C28.2833 9.67352 27.5209 8.57665 26.5974 7.6283C26.5677 7.59779 26.5378 7.56742 26.5078 7.53722C26.4613 7.4905 26.4144 7.44415 26.3672 7.39817C25.9733 7.01505 25.343 7.07874 24.9938 7.50299C24.6801 7.88413 24.7007 8.42627 24.9891 8.81498C25.0188 8.85507 25.0514 8.89353 25.0868 8.93001Z" fill="#4A6382"/>
</svg>
