<svg width="32" height="32" viewBox="0 0 32 32" fill="none" xmlns="http://www.w3.org/2000/svg">
<path d="M28.0669 24.9425L17.4151 5.16125C16.6601 3.75875 14.6488 3.75875 13.8932 5.16125L3.24195 24.9425C3.07802 25.247 2.99583 25.5887 3.00341 25.9345C3.01099 26.2802 3.10807 26.618 3.28519 26.915C3.4623 27.212 3.71339 27.458 4.01395 27.629C4.31452 27.8 4.65428 27.8901 5.00007 27.8906H26.3057C26.6518 27.8907 26.9919 27.8009 27.2929 27.6302C27.5939 27.4594 27.8454 27.2134 28.0229 26.9163C28.2004 26.6193 28.2978 26.2812 28.3055 25.9352C28.3132 25.5893 28.231 25.2472 28.0669 24.9425V24.9425ZM15.6544 24.8281C15.4072 24.8281 15.1655 24.7548 14.96 24.6175C14.7544 24.4801 14.5942 24.2849 14.4996 24.0565C14.405 23.8281 14.3802 23.5767 14.4285 23.3343C14.4767 23.0918 14.5957 22.8691 14.7706 22.6942C14.9454 22.5194 15.1681 22.4004 15.4106 22.3521C15.6531 22.3039 15.9044 22.3287 16.1328 22.4233C16.3612 22.5179 16.5564 22.6781 16.6938 22.8837C16.8311 23.0892 16.9044 23.3309 16.9044 23.5781C16.9044 23.9096 16.7728 24.2276 16.5383 24.462C16.3039 24.6964 15.986 24.8281 15.6544 24.8281V24.8281ZM17.0119 12.2563L16.6532 19.8813C16.6532 20.1465 16.5478 20.4008 16.3603 20.5884C16.1728 20.7759 15.9184 20.8813 15.6532 20.8813C15.388 20.8813 15.1336 20.7759 14.9461 20.5884C14.7586 20.4008 14.6532 20.1465 14.6532 19.8813L14.2944 12.2594C14.2864 12.0772 14.3151 11.8954 14.3788 11.7245C14.4425 11.5537 14.54 11.3975 14.6654 11.2652C14.7908 11.1328 14.9416 11.0271 15.1087 10.9543C15.2758 10.8814 15.4559 10.843 15.6382 10.8413H15.6513C15.8349 10.8412 16.0165 10.8782 16.1853 10.9503C16.3542 11.0223 16.5066 11.1278 16.6335 11.2604C16.7605 11.393 16.8592 11.5499 16.9238 11.7217C16.9884 11.8935 17.0176 12.0766 17.0094 12.26L17.0119 12.2563Z" fill="#4A6382"/>
</svg>
