<svg width="32" height="32" viewBox="0 0 32 32" fill="none" xmlns="http://www.w3.org/2000/svg">
<path d="M12.248 27.984C12.248 29.4073 11.1285 30.5615 9.74805 30.5615C8.36755 30.5615 7.24805 29.4073 7.24805 27.984C7.24805 26.5607 9.74805 22.5615 9.74805 22.5615C9.74662 22.5615 12.248 26.5623 12.248 27.984V27.984Z" fill="#4A6382"/>
<path d="M23.4135 13.8356C23.1228 13.8356 22.8871 14.0713 22.8871 14.362V15.3923L18.209 15.3923C16.8399 15.3168 15.7502 14.2081 15.7502 12.8359H15.7414V5.49075H16.7908C17.0815 5.49075 17.3171 5.25511 17.3171 4.96443V2.52632C17.3171 2.23564 17.0815 2 16.7908 2H5.52827C5.23759 2 5.00195 2.23564 5.00195 2.52632V4.96317C5.00195 5.25384 5.23759 5.48949 5.52827 5.48949H6.5777V15.6409C6.5777 17.5624 7.20786 19.3392 8.27141 20.7867C8.50802 21.1087 8.98199 21.0915 9.22352 20.7732L10.4724 19.127C10.5205 19.0636 10.5288 18.9786 10.4938 18.9071L9.34257 16.5577C9.30605 16.4831 9.31673 16.3941 9.36985 16.3303L12.3051 12.8057C12.4393 12.6447 12.7008 12.7572 12.676 12.9653L12.2308 16.7035C12.2241 16.7592 12.24 16.8152 12.2748 16.8592L14.1064 19.1696C14.146 19.2195 14.1608 19.2846 14.1468 19.3468L13.2051 23.5112C13.1425 23.7883 13.2701 24.0793 13.532 24.1894C14.1362 24.4434 14.5773 24.4434 15.4897 24.4434H22.8871V25.4695C22.8871 25.7625 23.1247 26 23.4177 26H26.4743C26.765 26 27.0007 25.7643 27.0006 25.4736L26.9995 14.3619C26.9995 14.0712 26.7638 13.8356 26.4732 13.8356L23.4135 13.8356Z" fill="#4A6382"/>
</svg>
