<svg width="144" height="144" viewBox="0 0 144 144" fill="none" xmlns="http://www.w3.org/2000/svg">
<path d="M96.9845 39.6H105.394C110.813 39.6 115.2 43.9827 115.2 49.3956V112.604C115.2 118.017 110.813 122.4 105.394 122.4H38.6057C33.1871 122.4 28.7998 118.017 28.7998 112.604V49.3956C28.7998 43.9827 33.1871 39.6 38.6057 39.6H46.8403" stroke="#647891" stroke-width="2" stroke-linecap="round" stroke-linejoin="round"/>
<path d="M72 57.6C81.9411 57.6 90 49.5411 90 39.6C90 29.6589 81.9411 21.6 72 21.6C62.0589 21.6 54 29.6589 54 39.6C54 49.5411 62.0589 57.6 72 57.6Z" fill="#F6BD4E" stroke="#647891" stroke-width="2" stroke-linecap="round" stroke-linejoin="round"/>
<path d="M71.9996 44.8897C74.9819 44.8897 77.3996 42.4721 77.3996 39.4897C77.3996 36.5074 74.9819 34.0897 71.9996 34.0897C69.0173 34.0897 66.5996 36.5074 66.5996 39.4897C66.5996 42.4721 69.0173 44.8897 71.9996 44.8897Z" fill="#647891"/>
<path d="M77.4 28.8L72 39.6" stroke="#647891" stroke-width="2" stroke-linecap="round" stroke-linejoin="round"/>
<path d="M95.1082 107.406C91.2206 115.481 79.4573 110.874 81.6692 102.231C84.4006 94.1749 85.1379 83.3087 80.6638 76.5862C74.2962 64.9019 90.3325 54.8715 97.4542 66.0935C103.662 77.2385 100.26 97.3056 95.1082 107.406Z" fill="#7CC694" stroke="#647891" stroke-width="2" stroke-linecap="round" stroke-linejoin="round"/>
<path d="M48.8913 107.406C52.7789 115.481 64.5422 110.874 62.3303 102.231C59.5989 94.1749 58.8616 83.3087 63.3357 76.5862C69.7033 64.9019 53.667 54.8715 46.5453 66.0935C40.3372 77.2385 43.7395 97.3056 48.8913 107.406Z" fill="#7CC694" stroke="#647891" stroke-width="2" stroke-linecap="round" stroke-linejoin="round"/>
</svg>
