<svg width="32" height="32" viewBox="0 0 32 32" fill="none" xmlns="http://www.w3.org/2000/svg">
<path d="M16 2C8.28048 2 2 8.28048 2 16C2 23.7195 8.28048 30 16 30C23.7195 30 30 23.7195 30 16C30 8.28048 23.7195 2 16 2ZM23.2861 11.308L14.2399 22.0772C14.1407 22.1954 14.0172 22.2909 13.8778 22.3572C13.7385 22.4235 13.5865 22.4591 13.4322 22.4615H13.414C13.2631 22.4615 13.1138 22.4297 12.976 22.3682C12.8381 22.3068 12.7147 22.217 12.6138 22.1048L8.73683 17.7971C8.63837 17.6927 8.56178 17.5696 8.51155 17.4352C8.46133 17.3007 8.43849 17.1576 8.44438 17.0142C8.45027 16.8708 8.48476 16.73 8.54583 16.6001C8.6069 16.4702 8.69332 16.3538 8.80001 16.2578C8.9067 16.1618 9.0315 16.0881 9.16708 16.041C9.30267 15.9939 9.44629 15.9744 9.58953 15.9836C9.73276 15.9929 9.8727 16.0306 10.0011 16.0947C10.1296 16.1587 10.2439 16.2478 10.3374 16.3567L13.3858 19.7437L21.637 9.92279C21.8221 9.7088 22.084 9.57625 22.366 9.55377C22.648 9.5313 22.9276 9.62071 23.1442 9.80269C23.3608 9.98466 23.4972 10.2446 23.5237 10.5263C23.5503 10.8079 23.4649 11.0887 23.2861 11.308V11.308Z" fill="#4A6382"/>
</svg>
