<svg width="32" height="32" viewBox="0 0 32 32" fill="none" xmlns="http://www.w3.org/2000/svg">
<path fill-rule="evenodd" clip-rule="evenodd" d="M4.32031 10.1348V7.21484C4.32031 5.61879 5.61881 4.32031 7.21484 4.32031H10.1348C10.4993 4.32031 10.7949 4.02474 10.7949 3.66016C10.7949 3.29557 10.4993 3 10.1348 3H7.21484C4.89079 3 3 4.89076 3 7.21484V10.1348C3 10.4993 3.29557 10.7949 3.66016 10.7949C4.02474 10.7949 4.32031 10.4993 4.32031 10.1348ZM10.1348 27.6797C10.4993 27.6797 10.7949 27.9753 10.7949 28.3398C10.7949 28.7044 10.4993 29 10.1348 29H7.21484C4.89079 29 3 27.1092 3 24.7852V21.8652C3 21.5007 3.29557 21.2051 3.66016 21.2051C4.02474 21.2051 4.32031 21.5007 4.32031 21.8652V24.7852C4.32031 26.3812 5.61881 27.6797 7.21484 27.6797H10.1348ZM29 21.8652V24.7852C29 27.1092 27.1092 29 24.7852 29H21.8652C21.5007 29 21.2051 28.7044 21.2051 28.3398C21.2051 27.9753 21.5007 27.6797 21.8652 27.6797H24.7852C26.3812 27.6797 27.6797 26.3812 27.6797 24.7852V21.8652C27.6797 21.5007 27.9753 21.2051 28.3398 21.2051C28.7044 21.2051 29 21.5007 29 21.8652ZM29 7.21484V10.1348C29 10.4993 28.7044 10.7949 28.3398 10.7949C27.9753 10.7949 27.6797 10.4993 27.6797 10.1348V7.21484C27.6797 5.61879 26.3812 4.32031 24.7852 4.32031H21.8652C21.5007 4.32031 21.2051 4.02474 21.2051 3.66016C21.2051 3.29557 21.5007 3 21.8652 3H24.7852C27.1092 3 29 4.89076 29 7.21484ZM20.5558 22.2165C20.8339 21.9596 20.8511 21.5259 20.5942 21.2477C20.3372 20.9696 19.9035 20.9524 19.6254 21.2093C18.6358 22.1235 17.3482 22.6269 15.9999 22.6269C14.6517 22.6269 13.3641 22.1235 12.3745 21.2093C12.0963 20.9524 11.6626 20.9696 11.4057 21.2477C11.1488 21.5259 11.166 21.9596 11.4441 22.2165C12.6879 23.3653 14.3058 23.998 15.9999 23.998C17.6941 23.998 19.312 23.3653 20.5558 22.2165ZM17.3711 12.8008V17.6758C17.3711 18.6418 16.5852 19.4277 15.6191 19.4277H15.0605C14.6819 19.4277 14.375 19.1208 14.375 18.7422C14.375 18.3636 14.6819 18.0566 15.0605 18.0566H15.6191C15.8291 18.0566 16 17.8858 16 17.6758V12.8008C16 12.4222 16.3069 12.1152 16.6855 12.1152C17.0642 12.1152 17.3711 12.4222 17.3711 12.8008ZM22.0938 14.7178V12.7627C22.0938 12.4051 21.8039 12.1152 21.4463 12.1152C21.0887 12.1152 20.7988 12.4051 20.7988 12.7627V14.7178C20.7988 15.0753 21.0887 15.3652 21.4463 15.3652C21.8039 15.3652 22.0938 15.0753 22.0938 14.7178ZM10.0586 14.7178C10.0586 15.0753 10.3485 15.3652 10.7061 15.3652C11.0636 15.3652 11.3535 15.0753 11.3535 14.7178V12.7627C11.3535 12.4051 11.0636 12.1152 10.7061 12.1152C10.3485 12.1152 10.0586 12.4051 10.0586 12.7627V14.7178Z" fill="#4A6382"/>
</svg>
