<svg width="32" height="32" viewBox="0 0 32 32" fill="none" xmlns="http://www.w3.org/2000/svg">
<path d="M18.5005 29C18.3401 28.9999 18.1807 28.9739 18.0286 28.9231L13.0192 27.2563C12.7213 27.1561 12.4625 26.9647 12.2796 26.7091C12.0968 26.4535 11.9991 26.1468 12.0005 25.8325V18.3819C11.9991 18.3788 11.9972 18.3761 11.9948 18.3738L1.45422 6.09625C1.22049 5.82396 1.06981 5.49033 1.02006 5.13495C0.970312 4.77957 1.02358 4.41738 1.17356 4.09138C1.32353 3.76538 1.5639 3.48926 1.86613 3.29581C2.16836 3.10235 2.51975 2.99969 2.8786 3H29.1255C29.4843 2.99969 29.8357 3.10235 30.1379 3.29581C30.4402 3.48926 30.6805 3.76538 30.8305 4.09138C30.9805 4.41738 31.0338 4.77957 30.984 5.13495C30.9343 5.49033 30.7836 5.82396 30.5498 6.09625L20.0061 18.375C20.0039 18.3775 20.0021 18.3802 20.0005 18.3831V27.5C20.001 27.6971 19.9626 27.8925 19.8875 28.0747C19.8123 28.257 19.7018 28.4225 19.5624 28.5619C19.423 28.7014 19.2574 28.8118 19.0752 28.887C18.8929 28.9622 18.6976 29.0006 18.5005 29V29Z" fill="#4A6382"/>
</svg>
