<svg width="32" height="32" viewBox="0 0 32 32" fill="none" xmlns="http://www.w3.org/2000/svg">
<path d="M27.5045 21.3319C27.4008 21.2069 27.2989 21.0819 27.1989 20.9613C25.8239 19.2981 24.992 18.2944 24.992 13.5863C24.992 11.1488 24.4089 9.14875 23.2595 7.64875C22.412 6.54062 21.2664 5.7 19.7564 5.07875C19.737 5.06794 19.7196 5.05376 19.7052 5.03687C19.162 3.21812 17.6758 2 15.9995 2C14.3233 2 12.8377 3.21812 12.2945 5.035C12.28 5.05127 12.2629 5.065 12.2439 5.07562C8.72016 6.52625 7.00766 9.30938 7.00766 13.5844C7.00766 18.2944 6.17704 19.2981 4.80079 20.9594C4.70079 21.08 4.59891 21.2025 4.49516 21.33C4.22716 21.6532 4.05736 22.0464 4.00586 22.4631C3.95435 22.8798 4.0233 23.3025 4.20453 23.6812C4.59016 24.4937 5.41204 24.9981 6.35016 24.9981H25.6558C26.5895 24.9981 27.4058 24.4944 27.7927 23.6856C27.9747 23.3068 28.0443 22.8837 27.9932 22.4666C27.9421 22.0494 27.7726 21.6556 27.5045 21.3319V21.3319ZM15.9995 30C16.9027 29.9993 17.7888 29.7541 18.5639 29.2905C19.339 28.827 19.9742 28.1622 20.402 27.3669C20.4222 27.3288 20.4321 27.2861 20.4309 27.243C20.4297 27.1999 20.4174 27.1578 20.3951 27.1209C20.3729 27.084 20.3414 27.0534 20.3039 27.0322C20.2663 27.0111 20.2239 27 20.1808 27H11.8195C11.7764 26.9998 11.7339 27.0109 11.6962 27.032C11.6586 27.0532 11.6271 27.0837 11.6047 27.1206C11.5824 27.1576 11.57 27.1997 11.5688 27.2428C11.5675 27.286 11.5775 27.3287 11.5977 27.3669C12.0255 28.1621 12.6606 28.8268 13.4355 29.2904C14.2105 29.7539 15.0965 29.9992 15.9995 30Z" fill="#4A6382"/>
</svg>
