<svg width="32" height="32" viewBox="0 0 32 32" fill="none" xmlns="http://www.w3.org/2000/svg">
<path d="M16 2C8.28048 2 2 8.28048 2 16C2 23.7195 8.28048 30 16 30C23.7195 30 30 23.7195 30 16C30 8.28048 23.7195 2 16 2ZM21.3846 17.0769H10.6154C10.3298 17.0769 10.0558 16.9635 9.85389 16.7615C9.65192 16.5595 9.53846 16.2856 9.53846 16C9.53846 15.7144 9.65192 15.4405 9.85389 15.2385C10.0558 15.0365 10.3298 14.9231 10.6154 14.9231H21.3846C21.6702 14.9231 21.9442 15.0365 22.1461 15.2385C22.3481 15.4405 22.4615 15.7144 22.4615 16C22.4615 16.2856 22.3481 16.5595 22.1461 16.7615C21.9442 16.9635 21.6702 17.0769 21.3846 17.0769Z" fill="#4A6382"/>
</svg>
