<svg width="32" height="32" viewBox="0 0 32 32" fill="none" xmlns="http://www.w3.org/2000/svg">
<path d="M29.5125 27.1361L23.1785 20.8021C24.7034 18.772 25.5266 16.301 25.5238 13.7619C25.5238 7.27644 20.2474 2 13.7619 2C7.27644 2 2 7.27644 2 13.7619C2 20.2474 7.27644 25.5238 13.7619 25.5238C16.301 25.5266 18.772 24.7034 20.8021 23.1785L27.1361 29.5125C27.4567 29.7991 27.8749 29.9521 28.3048 29.94C28.7347 29.928 29.1437 29.7519 29.4478 29.4478C29.7519 29.1437 29.928 28.7347 29.94 28.3048C29.9521 27.8749 29.7991 27.4567 29.5125 27.1361V27.1361ZM5.36055 13.7619C5.36055 12.1003 5.85328 10.476 6.77643 9.09437C7.69959 7.71277 9.0117 6.63594 10.5469 6.00006C12.082 5.36418 13.7712 5.19781 15.4009 5.52198C17.0307 5.84615 18.5276 6.6463 19.7026 7.82125C20.8775 8.9962 21.6777 10.4932 22.0019 12.1229C22.326 13.7526 22.1597 15.4418 21.5238 16.977C20.8879 18.5121 19.8111 19.8242 18.4295 20.7474C17.0479 21.6706 15.4236 22.1633 13.7619 22.1633C11.5346 22.1606 9.39919 21.2746 7.8242 19.6996C6.24922 18.1246 5.36322 15.9893 5.36055 13.7619V13.7619Z" fill="#4A6382"/>
</svg>
