<svg width="32" height="32" viewBox="0 0 32 32" fill="none" xmlns="http://www.w3.org/2000/svg">
<path d="M16 19C17.6569 19 19 17.6569 19 16C19 14.3431 17.6569 13 16 13C14.3431 13 13 14.3431 13 16C13 17.6569 14.3431 19 16 19Z" fill="#4A6382"/>
<path d="M29.3994 18.75L29.37 18.7262L27.3975 17.1794C27.2726 17.0806 27.1729 16.9535 27.1067 16.8087C27.0404 16.6639 27.0094 16.5054 27.0163 16.3463V15.6237C27.01 15.4656 27.0414 15.3083 27.1078 15.1647C27.1741 15.021 27.2737 14.8952 27.3982 14.7975L29.37 13.25L29.3994 13.2262C29.7035 12.9729 29.9076 12.6197 29.9751 12.2297C30.0427 11.8397 29.9693 11.4384 29.7682 11.0975L27.0988 6.47875C27.0957 6.47439 27.093 6.46979 27.0907 6.465C26.8884 6.12885 26.5748 5.87416 26.2043 5.74514C25.8338 5.61613 25.4298 5.62094 25.0625 5.75875L25.0407 5.76687L22.7219 6.7C22.5756 6.75917 22.4172 6.78272 22.26 6.7687C22.1028 6.75469 21.9511 6.7035 21.8175 6.61938C21.6125 6.49021 21.4042 6.36813 21.1925 6.25313C21.0553 6.17871 20.9375 6.07307 20.8486 5.94475C20.7596 5.81643 20.7021 5.66901 20.6807 5.51438L20.3313 3.04L20.3238 2.995C20.2477 2.61175 20.0421 2.26636 19.7414 2.01687C19.4407 1.76738 19.0632 1.62901 18.6725 1.625H13.3275C12.9313 1.62627 12.5483 1.76732 12.2459 2.02331C11.9434 2.27931 11.7411 2.63381 11.6744 3.02437L11.6688 3.05938L11.3207 5.53875C11.2993 5.69294 11.2422 5.84001 11.154 5.96827C11.0658 6.09652 10.9489 6.20241 10.8125 6.2775C10.6002 6.39184 10.3918 6.51315 10.1875 6.64125C10.0542 6.72487 9.90292 6.77566 9.74614 6.78946C9.58936 6.80325 9.43155 6.77967 9.28566 6.72062L6.96503 5.78312L6.94316 5.77437C6.57532 5.63642 6.17076 5.63179 5.79986 5.76128C5.42896 5.89078 5.11519 6.1462 4.91316 6.48313L4.90503 6.49687L2.23191 11.1187C2.03042 11.46 1.95689 11.8617 2.02444 12.2522C2.092 12.6426 2.29625 12.9963 2.60066 13.25L2.63003 13.2738L4.60253 14.8206C4.72744 14.9194 4.82713 15.0465 4.89341 15.1913C4.95968 15.3361 4.99066 15.4946 4.98378 15.6538V16.3762C4.99004 16.5344 4.95869 16.6917 4.8923 16.8353C4.82592 16.979 4.72639 17.1048 4.60191 17.2025L2.63003 18.75L2.60066 18.7738C2.29655 19.0271 2.09247 19.3803 2.02491 19.7703C1.95735 20.1603 2.03073 20.5616 2.23191 20.9025L4.90128 25.5212C4.90435 25.5256 4.90707 25.5302 4.90941 25.535C5.11167 25.8711 5.42527 26.1258 5.79576 26.2549C6.16625 26.3839 6.57022 26.3791 6.93753 26.2412L6.95941 26.2331L9.27628 25.3C9.42263 25.2408 9.58095 25.2173 9.73819 25.2313C9.89542 25.2453 10.0471 25.2965 10.1807 25.3806C10.3857 25.5102 10.594 25.6323 10.8057 25.7469C10.9429 25.8213 11.0607 25.9269 11.1496 26.0552C11.2385 26.1836 11.2961 26.331 11.3175 26.4856L11.665 28.96L11.6725 29.005C11.7487 29.3889 11.9549 29.7347 12.2564 29.9843C12.5579 30.2339 12.9362 30.3718 13.3275 30.375H18.6725C19.0687 30.3737 19.4518 30.2327 19.7542 29.9767C20.0566 29.7207 20.259 29.3662 20.3257 28.9756L20.3313 28.9406L20.6794 26.4613C20.7011 26.3068 20.7586 26.1595 20.8474 26.0312C20.9362 25.903 21.0537 25.7972 21.1907 25.7225C21.4044 25.6075 21.6132 25.4856 21.8157 25.3587C21.949 25.2751 22.1003 25.2243 22.257 25.2105C22.4138 25.1967 22.5716 25.2203 22.7175 25.2794L25.0382 26.2138L25.06 26.2225C25.4278 26.3607 25.8325 26.3655 26.2035 26.236C26.5744 26.1064 26.8882 25.8509 27.09 25.5138C27.0925 25.509 27.0952 25.5044 27.0982 25.5L29.7675 20.8819C29.9694 20.5407 30.0432 20.1388 29.9757 19.7482C29.9083 19.3576 29.704 19.0037 29.3994 18.75V18.75ZM20.9944 16.235C20.9489 17.2029 20.6231 18.1366 20.0568 18.9228C19.4904 19.709 18.7078 20.3136 17.8041 20.6633C16.9005 21.0129 15.9147 21.0924 14.9667 20.8922C14.0187 20.692 13.1493 20.2206 12.4642 19.5355C11.7791 18.8503 11.3078 17.9808 11.1077 17.0328C10.9076 16.0847 10.9873 15.099 11.337 14.1954C11.6868 13.2917 12.2915 12.5092 13.0777 11.9429C13.864 11.3767 14.7978 11.051 15.7657 11.0056C16.4605 10.975 17.1541 11.0894 17.8024 11.3413C18.4507 11.5933 19.0394 11.9775 19.5312 12.4693C20.023 12.9611 20.407 13.5499 20.6589 14.1982C20.9108 14.8465 21.0251 15.5402 20.9944 16.235V16.235Z" fill="#4A6382"/>
</svg>
