<svg width="32" height="32" viewBox="0 0 32 32" fill="none" xmlns="http://www.w3.org/2000/svg">
<path d="M24.6667 21.7912C23.5689 21.7912 22.5867 22.2129 21.8356 22.8735L11.5367 17.0402C11.6089 16.7169 11.6667 16.3936 11.6667 16.0562C11.6667 15.7189 11.6089 15.3956 11.5367 15.0723L21.72 9.29518C22.5 9.99799 23.5256 10.4337 24.6667 10.4337C27.0644 10.4337 29 8.5502 29 6.21687C29 3.88353 27.0644 2 24.6667 2C22.2689 2 20.3333 3.88353 20.3333 6.21687C20.3333 6.55422 20.3911 6.87751 20.4633 7.2008L10.28 12.9779C9.5 12.2751 8.47444 11.8394 7.33333 11.8394C4.93556 11.8394 3 13.7229 3 16.0562C3 18.3896 4.93556 20.2731 7.33333 20.2731C8.47444 20.2731 9.5 19.8373 10.28 19.1345L20.5644 24.9819C20.4922 25.2771 20.4489 25.5863 20.4489 25.8956C20.4489 28.1586 22.3411 30 24.6667 30C26.9922 30 28.8844 28.1586 28.8844 25.8956C28.8844 23.6325 26.9922 21.7912 24.6667 21.7912Z" fill="#4A6382"/>
</svg>
