<svg width="32" height="32" viewBox="0 0 32 32" fill="none" xmlns="http://www.w3.org/2000/svg">
<path d="M26 3.99991H25V3.02803C25 2.48991 24.5862 2.02803 24.0481 2.00116C23.9129 1.99464 23.7778 2.01565 23.6509 2.0629C23.5241 2.11015 23.4081 2.18266 23.3102 2.27605C23.2122 2.36943 23.1341 2.48174 23.0808 2.60616C23.0275 2.73059 23 2.86454 23 2.99991V3.99991H9V3.02803C9 2.48991 8.58625 2.02803 8.04813 2.00116C7.91292 1.99464 7.77779 2.01565 7.65094 2.0629C7.52409 2.11015 7.40815 2.18266 7.31015 2.27605C7.21215 2.36943 7.13413 2.48174 7.08082 2.60616C7.02751 2.73059 7.00001 2.86454 7 2.99991V3.99991H6C4.93913 3.99991 3.92172 4.42134 3.17157 5.17148C2.42143 5.92163 2 6.93904 2 7.99991V8.74991C2 8.81621 2.02634 8.8798 2.07322 8.92669C2.12011 8.97357 2.1837 8.99991 2.25 8.99991H29.75C29.8163 8.99991 29.8799 8.97357 29.9268 8.92669C29.9737 8.8798 30 8.81621 30 8.74991V7.99991C30 6.93904 29.5786 5.92163 28.8284 5.17148C28.0783 4.42134 27.0609 3.99991 26 3.99991ZM29.8125 10.9999H2.1875C2.13777 10.9999 2.09008 11.0197 2.05492 11.0548C2.01975 11.09 2 11.1377 2 11.1874V25.9999C2 27.0608 2.42143 28.0782 3.17157 28.8283C3.92172 29.5785 4.93913 29.9999 6 29.9999H26C27.0609 29.9999 28.0783 29.5785 28.8284 28.8283C29.5786 28.0782 30 27.0608 30 25.9999V11.1874C30 11.1377 29.9802 11.09 29.9451 11.0548C29.9099 11.0197 29.8622 10.9999 29.8125 10.9999ZM14 19.2143C14 19.6879 13.8119 20.142 13.477 20.4769C13.1421 20.8118 12.688 20.9999 12.2144 20.9999H7.78562C7.31205 20.9999 6.85787 20.8118 6.523 20.4769C6.18813 20.142 6 19.6879 6 19.2143V14.7855C6 14.312 6.18813 13.8578 6.523 13.5229C6.85787 13.188 7.31205 12.9999 7.78562 12.9999H12.2144C12.688 12.9999 13.1421 13.188 13.477 13.5229C13.8119 13.8578 14 14.312 14 14.7855V19.2143Z" fill="#4A6382"/>
</svg>
