<svg width="32" height="32" viewBox="0 0 32 32" fill="none" xmlns="http://www.w3.org/2000/svg">
<path d="M2.5 16C2.5 8.55662 8.55662 2.5 16 2.5C23.4434 2.5 29.5 8.55662 29.5 16C29.5 23.4434 23.4434 29.5 16 29.5C8.55662 29.5 2.5 23.4434 2.5 16Z" stroke="#4A6382"/>
<path d="M15.8853 23.072C16.9894 24.2374 17.7967 24.732 18.4141 24.9116C18.7361 25.0093 19.0744 25.0263 19.4034 24.9613C20.043 24.8393 20.4879 24.5158 20.9588 24.0677C21.224 23.8122 21.4669 23.5308 21.6846 23.2271C21.6968 23.2101 21.7086 23.1942 21.7198 23.1791L21.7461 23.1438L21.7499 23.1388C21.8621 22.9875 22.0285 22.7632 21.9958 22.4069C21.9739 22.1675 21.867 21.9289 21.6646 21.5447C21.2485 20.7544 20.1561 19.5347 19.6638 19.0573L19.6595 19.0532C19.2846 18.6897 19.0575 18.4696 18.7509 18.3804L18.749 18.3798C18.3954 18.277 18.0816 18.3921 17.6773 18.5663C17.6261 18.5881 17.5765 18.6102 17.5281 18.6319L17.528 18.6319L17.5027 18.6432C17.1096 18.8188 17.0015 18.8514 16.8411 18.7625C16.5307 18.5905 15.7146 17.7798 15.0814 16.5921C14.4482 15.4044 14.1838 14.1916 14.2012 13.815C14.2101 13.6277 14.2874 13.5439 14.6128 13.2705L14.6192 13.2651C14.6711 13.2214 14.7246 13.1764 14.7789 13.129C15.0808 12.8661 15.3377 12.6159 15.4348 12.2228C15.5171 11.8877 15.4628 11.5517 15.3805 11.0435L15.38 11.04C15.2564 10.2828 14.8093 8.68416 14.3865 7.90175C14.1805 7.51983 14.0427 7.30056 13.8624 7.16052C13.5925 6.94953 13.3267 6.99624 13.1513 7.02726C13.1219 7.03233 13.089 7.03785 13.0537 7.04341C12.7023 7.09486 12.356 7.18136 12.0192 7.3018C11.4245 7.52072 10.9433 7.77559 10.5269 8.31461C10.1777 8.76537 9.68148 9.91337 10.2788 12.5526C10.8073 14.8899 11.2816 16.1679 12.3903 18.2512C13.5411 20.4086 14.5435 21.6514 15.8853 23.072Z" stroke="#4A6382"/>
</svg>
