<svg width="32" height="32" viewBox="0 0 32 32" fill="none" xmlns="http://www.w3.org/2000/svg">
<path d="M28.1879 23.3748C27.1954 22.3748 24.7916 20.9154 23.6254 20.3273C22.1066 19.5623 21.9816 19.4998 20.7879 20.3866C19.9916 20.9785 19.4622 21.5073 18.5304 21.3085C17.5985 21.1098 15.5735 19.9891 13.8004 18.2216C12.0272 16.4541 10.8416 14.3704 10.6422 13.4416C10.4429 12.5129 10.9804 11.9898 11.5666 11.1916C12.3929 10.0666 12.3304 9.87913 11.6241 8.36038C11.0735 7.17913 9.57161 4.79788 8.56786 3.81038C7.49411 2.74976 7.49411 2.93726 6.80223 3.22476C6.23896 3.46175 5.69858 3.74983 5.18786 4.08538C4.18786 4.74976 3.63286 5.30163 3.24473 6.13101C2.85661 6.96038 2.68223 8.90476 4.68661 12.546C6.69098 16.1873 8.09723 18.0491 11.0079 20.9516C13.9185 23.8541 16.1566 25.4148 19.4285 27.2498C23.476 29.5166 25.0285 29.0748 25.8604 28.6873C26.6922 28.2998 27.2466 27.7498 27.9122 26.7498C28.2487 26.2399 28.5374 25.7001 28.7747 25.1373C29.0629 24.4479 29.2504 24.4479 28.1879 23.3748Z" stroke="#4A6382" stroke-miterlimit="10"/>
</svg>
