<svg width="32" height="32" viewBox="0 0 32 32" fill="none" xmlns="http://www.w3.org/2000/svg">
<path d="M9 29C8.73478 29 8.48043 28.8946 8.29289 28.7071C8.10536 28.5196 8 28.2652 8 28V24H6.5C5.30693 23.9987 4.16311 23.5241 3.31948 22.6805C2.47585 21.8369 2.00132 20.6931 2 19.5V7.5C2.00132 6.30693 2.47585 5.16311 3.31948 4.31948C4.16311 3.47585 5.30693 3.00132 6.5 3H25.5C26.6931 3.00132 27.8369 3.47585 28.6805 4.31948C29.5241 5.16311 29.9987 6.30693 30 7.5V19.5C29.9987 20.6931 29.5241 21.8369 28.6805 22.6805C27.8369 23.5241 26.6931 23.9987 25.5 24H15.3588L9.64062 28.7681C9.46067 28.9178 9.23405 28.9998 9 29Z" fill="#4A6382"/>
</svg>
