<svg width="32" height="32" viewBox="0 0 32 32" fill="none" xmlns="http://www.w3.org/2000/svg">
<path d="M25.5 4H6.5C5.57255 4.00264 4.68385 4.37223 4.02804 5.02804C3.37223 5.68385 3.00264 6.57255 3 7.5V19.5C3.00264 20.4274 3.37223 21.3162 4.02804 21.972C4.68385 22.6278 5.57255 22.9974 6.5 23H9V28L14.8575 23.1162C14.9474 23.0411 15.0609 23 15.1781 23H25.5C26.4274 22.9974 27.3162 22.6278 27.972 21.972C28.6278 21.3162 28.9974 20.4274 29 19.5V7.5C28.9974 6.57255 28.6278 5.68385 27.972 5.02804C27.3162 4.37223 26.4274 4.00264 25.5 4Z" stroke="#4A6382" stroke-linejoin="round"/>
</svg>
