<svg width="32" height="32" viewBox="0 0 32 32" fill="none" xmlns="http://www.w3.org/2000/svg">
<path d="M26 13.8281V26C26 26.7956 25.6839 27.5587 25.1213 28.1213C24.5587 28.6839 23.7956 29 23 29H9C8.20435 29 7.44129 28.6839 6.87868 28.1213C6.31607 27.5587 6 26.7956 6 26V6C6 5.20435 6.31607 4.44129 6.87868 3.87868C7.44129 3.31607 8.20435 3 9 3H15.1719C15.7021 3.00008 16.2106 3.21072 16.5856 3.58562L25.4144 12.4144C25.7893 12.7894 25.9999 13.2979 26 13.8281Z" stroke="#4A6382" stroke-linejoin="round"/>
<path d="M16 3.5V11C16 11.5304 16.2107 12.0391 16.5858 12.4142C16.9609 12.7893 17.4696 13 18 13H25.5M11 18H21M11 23H21" stroke="#4A6382" stroke-linecap="round" stroke-linejoin="round"/>
</svg>
