<svg width="32" height="32" viewBox="0 0 32 32" fill="none" xmlns="http://www.w3.org/2000/svg">
<path d="M16 2.5C23.453 2.5 29.5 8.54698 29.5 16C29.5 23.453 23.453 29.5 16 29.5C8.54698 29.5 2.5 23.453 2.5 16C2.5 8.54698 8.54698 2.5 16 2.5Z" stroke="#4A6382" stroke-miterlimit="10"/>
<path d="M15.001 8.46895L16.0009 18L16.999 8.46895C17.0051 8.40802 16.9835 8.34717 16.9355 8.29011C16.8875 8.23305 16.814 8.18098 16.7196 8.13709C16.6252 8.09321 16.5119 8.05841 16.3865 8.03484C16.2611 8.01128 16.1264 7.99943 15.9904 8.00002C15.8561 8.00059 15.7234 8.01329 15.6003 8.03738C15.4771 8.06146 15.3661 8.09643 15.2738 8.1402C15.1814 8.18397 15.1097 8.23564 15.0628 8.29212C15.0159 8.34861 14.9949 8.40875 15.001 8.46895Z" fill="#4A6382" stroke="#4A6382" stroke-linecap="round" stroke-linejoin="round"/>
<path d="M16 25C15.6044 25 15.2178 24.8827 14.8889 24.6629C14.56 24.4432 14.3036 24.1308 14.1522 23.7654C14.0009 23.3999 13.9613 22.9978 14.0384 22.6098C14.1156 22.2219 14.3061 21.8655 14.5858 21.5858C14.8655 21.3061 15.2219 21.1156 15.6098 21.0384C15.9978 20.9613 16.3999 21.0009 16.7654 21.1522C17.1308 21.3036 17.4432 21.56 17.6629 21.8889C17.8827 22.2178 18 22.6044 18 23C18 23.5304 17.7893 24.0391 17.4142 24.4142C17.0391 24.7893 16.5304 25 16 25Z" fill="#4A6382"/>
</svg>
