<svg width="32" height="32" viewBox="0 0 32 32" fill="none" xmlns="http://www.w3.org/2000/svg">
<path d="M2.21211 5.445L12.7527 17.7225C12.9103 17.9035 12.9979 18.135 12.9996 18.375V25.8325C12.9986 25.937 13.0306 26.0391 13.0911 26.1243C13.1516 26.2095 13.2375 26.2734 13.3365 26.3069L18.3459 27.9738C18.4207 27.9988 18.5005 28.0056 18.5785 27.9937C18.6566 27.9817 18.7306 27.9513 18.7946 27.905C18.8585 27.8587 18.9104 27.7978 18.9461 27.7273C18.9818 27.6569 19.0001 27.579 18.9996 27.5V18.375C19.0022 18.1346 19.0909 17.9031 19.2496 17.7225L29.7871 5.445C29.8961 5.31808 29.9664 5.16258 29.9897 4.99692C30.013 4.83127 29.9883 4.6624 29.9186 4.51033C29.8489 4.35827 29.7371 4.22937 29.5963 4.13892C29.4556 4.04848 29.2919 4.00026 29.1246 4H2.87773C2.71018 3.99967 2.54605 4.04744 2.40486 4.13766C2.26367 4.22787 2.15134 4.35673 2.08124 4.50891C2.01114 4.6611 1.98621 4.83021 2.0094 4.99615C2.0326 5.16209 2.10296 5.31788 2.21211 5.445Z" stroke="#4A6382" stroke-linecap="round" stroke-linejoin="round"/>
</svg>
