<svg width="32" height="32" viewBox="0 0 32 32" fill="none" xmlns="http://www.w3.org/2000/svg">
<path d="M16 2C8.27083 2 2 8.27083 2 16C2 23.7292 8.27083 30 16 30C23.7292 30 30 23.7292 30 16C30 8.27083 23.7292 2 16 2ZM15.5625 24.1667C15.2741 24.1667 14.9921 24.0811 14.7523 23.9209C14.5125 23.7606 14.3256 23.5329 14.2152 23.2664C14.1048 22.9999 14.0759 22.7067 14.1322 22.4238C14.1885 22.1409 14.3274 21.8811 14.5313 21.6771C14.7353 21.4732 14.9951 21.3343 15.278 21.278C15.5609 21.2218 15.8541 21.2506 16.1206 21.361C16.3871 21.4714 16.6148 21.6583 16.7751 21.8981C16.9353 22.1379 17.0208 22.4199 17.0208 22.7083C17.0208 23.0951 16.8672 23.466 16.5937 23.7395C16.3202 24.013 15.9493 24.1667 15.5625 24.1667ZM18.0008 16.7292C16.8189 17.5225 16.6562 18.2495 16.6562 18.9167C16.6562 19.1874 16.5487 19.4471 16.3573 19.6385C16.1658 19.8299 15.9062 19.9375 15.6354 19.9375C15.3647 19.9375 15.105 19.8299 14.9136 19.6385C14.7221 19.4471 14.6146 19.1874 14.6146 18.9167C14.6146 17.3191 15.3496 16.0489 16.8619 15.0331C18.2677 14.0896 19.0625 13.4917 19.0625 12.177C19.0625 11.283 18.5521 10.6042 17.4955 10.1018C17.2469 9.98365 16.6934 9.86844 16.0124 9.87646C15.1578 9.8874 14.4943 10.0916 13.9831 10.5028C13.0192 11.2786 12.9375 12.123 12.9375 12.1354C12.931 12.2695 12.8982 12.4009 12.841 12.5223C12.7837 12.6437 12.7031 12.7526 12.6037 12.8428C12.5043 12.9331 12.3882 13.0028 12.2619 13.0482C12.1355 13.0935 12.0015 13.1135 11.8674 13.107C11.7334 13.1006 11.6019 13.0678 11.4805 13.0105C11.3592 12.9532 11.2502 12.8726 11.16 12.7732C11.0698 12.6739 11 12.5577 10.9547 12.4314C10.9094 12.3051 10.8894 12.171 10.8958 12.037C10.9039 11.8598 11.0271 10.2636 12.702 8.91615C13.5704 8.2176 14.6751 7.85448 15.9832 7.83844C16.9093 7.8275 17.7792 7.98427 18.3691 8.26281C20.1344 9.09771 21.1042 10.4897 21.1042 12.177C21.1042 14.6438 19.4555 15.7514 18.0008 16.7292Z" fill="#4A6382"/>
</svg>
