<svg width="32" height="32" viewBox="0 0 32 32" fill="none" xmlns="http://www.w3.org/2000/svg">
<path d="M26 4H6C4.93949 4.00116 3.92275 4.42296 3.17285 5.17285C2.42296 5.92275 2.00116 6.93949 2 8V24C2.00116 25.0605 2.42296 26.0773 3.17285 26.8271C3.92275 27.577 4.93949 27.9988 6 28H26C27.0605 27.9988 28.0773 27.577 28.8271 26.8271C29.577 26.0773 29.9988 25.0605 30 24V8C29.9988 6.93949 29.577 5.92275 28.8271 5.17285C28.0773 4.42296 27.0605 4.00116 26 4ZM21 8C21.5933 8 22.1734 8.17595 22.6667 8.50559C23.1601 8.83524 23.5446 9.30377 23.7716 9.85195C23.9987 10.4001 24.0581 11.0033 23.9424 11.5853C23.8266 12.1672 23.5409 12.7018 23.1213 13.1213C22.7018 13.5409 22.1672 13.8266 21.5853 13.9424C21.0033 14.0581 20.4001 13.9987 19.8519 13.7716C19.3038 13.5446 18.8352 13.1601 18.5056 12.6667C18.1759 12.1734 18 11.5933 18 11C18.0008 10.2046 18.3172 9.44202 18.8796 8.87959C19.442 8.31716 20.2046 8.00083 21 8ZM6 26C5.46957 26 4.96086 25.7893 4.58579 25.4142C4.21071 25.0391 4 24.5304 4 24V19.7731L9.9275 14.5044C10.4994 13.9972 11.2432 13.7271 12.0073 13.7491C12.7714 13.7712 13.4983 14.0838 14.04 14.6231L18.0994 18.6737L10.7731 26H6ZM28 24C28 24.5304 27.7893 25.0391 27.4142 25.4142C27.0391 25.7893 26.5304 26 26 26H13.6019L21.1906 18.4112C21.7279 17.9543 22.4097 17.7026 23.115 17.7008C23.8203 17.6989 24.5035 17.9471 25.0431 18.4012L28 20.865V24Z" fill="#4A6382"/>
</svg>
