<svg width="32" height="32" viewBox="0 0 32 32" fill="none" xmlns="http://www.w3.org/2000/svg">
<path d="M13.5 14.0781H15.9998V23" stroke="#4A6382" stroke-linecap="round" stroke-linejoin="round"/>
<path d="M12.6875 23.4844H19.2188" stroke="#4A6382" stroke-miterlimit="10" stroke-linecap="round"/>
<path d="M8.49981 4.77516C10.7199 3.29176 13.33 2.5 16 2.5C19.5804 2.5 23.0142 3.92232 25.5459 6.45406C28.0777 8.9858 29.5 12.4196 29.5 16C29.5 18.67 28.7082 21.2801 27.2248 23.5002C25.7414 25.7203 23.633 27.4506 21.1662 28.4724C18.6994 29.4941 15.985 29.7615 13.3663 29.2406C10.7475 28.7197 8.34207 27.4339 6.45406 25.5459C4.56606 23.6579 3.28031 21.2525 2.7594 18.6337C2.2385 16.015 2.50585 13.3006 3.52763 10.8338C4.54942 8.36697 6.27974 6.25856 8.49981 4.77516Z" stroke="#4A6382" stroke-miterlimit="10"/>
<circle cx="15.7305" cy="10" r="2" fill="#4A6382"/>
</svg>
