<svg width="32" height="32" viewBox="0 0 32 32" fill="none" xmlns="http://www.w3.org/2000/svg">
<path d="M16 2C8.2804 2 2 8.2804 2 16C2 23.7196 8.2804 30 16 30C23.7196 30 30 23.7196 30 16C30 8.2804 23.7196 2 16 2ZM16 7.74C16.36 7.74 16.7118 7.84674 17.0111 8.04673C17.3104 8.24671 17.5437 8.53095 17.6815 8.86352C17.8192 9.19608 17.8553 9.56202 17.785 9.91506C17.7148 10.2681 17.5415 10.5924 17.2869 10.8469C17.0324 11.1015 16.7081 11.2748 16.3551 11.345C16.002 11.4153 15.6361 11.3792 15.3035 11.2415C14.971 11.1037 14.6867 10.8704 14.4867 10.5711C14.2867 10.2718 14.18 9.91996 14.18 9.56C14.18 9.07731 14.3717 8.61438 14.7131 8.27307C15.0544 7.93175 15.5173 7.74 16 7.74ZM19.36 23.56H13.2C12.903 23.56 12.6181 23.442 12.408 23.232C12.198 23.0219 12.08 22.737 12.08 22.44C12.08 22.143 12.198 21.8581 12.408 21.648C12.6181 21.438 12.903 21.32 13.2 21.32H15.16V15.16H14.04C13.743 15.16 13.4581 15.042 13.248 14.832C13.038 14.6219 12.92 14.337 12.92 14.04C12.92 13.743 13.038 13.4581 13.248 13.248C13.4581 13.038 13.743 12.92 14.04 12.92H16.28C16.577 12.92 16.8619 13.038 17.072 13.248C17.282 13.4581 17.4 13.743 17.4 14.04V21.32H19.36C19.657 21.32 19.9419 21.438 20.152 21.648C20.362 21.8581 20.48 22.143 20.48 22.44C20.48 22.737 20.362 23.0219 20.152 23.232C19.9419 23.442 19.657 23.56 19.36 23.56Z" fill="#4A6382"/>
</svg>
