<svg width="32" height="32" viewBox="0 0 32 32" fill="none" xmlns="http://www.w3.org/2000/svg">
<path d="M13 22H9C7.4087 22 5.88258 21.3679 4.75736 20.2426C3.63214 19.1174 3 17.5913 3 16C3 14.4087 3.63214 12.8826 4.75736 11.7574C5.88258 10.6321 7.4087 10 9 10H13M19 10H23C24.5913 10 26.1174 10.6321 27.2426 11.7574C28.3679 12.8826 29 14.4087 29 16C29 17.5913 28.3679 19.1174 27.2426 20.2426C26.1174 21.3679 24.5913 22 23 22H19M10.2056 16H21.9194" stroke="#4A6382" stroke-linecap="round" stroke-linejoin="round"/>
</svg>
