<svg width="32" height="32" viewBox="0 0 32 32" fill="none" xmlns="http://www.w3.org/2000/svg">
<path d="M26.5 5H5.5C4.57205 5.00099 3.68238 5.37006 3.02622 6.02622C2.37006 6.68238 2.00099 7.57205 2 8.5V23.5C2.00099 24.428 2.37006 25.3176 3.02622 25.9738C3.68238 26.6299 4.57205 26.999 5.5 27H26.5C27.428 26.999 28.3176 26.6299 28.9738 25.9738C29.6299 25.3176 29.999 24.428 30 23.5V8.5C29.999 7.57205 29.6299 6.68238 28.9738 6.02622C28.3176 5.37006 27.428 5.00099 26.5 5ZM25.6138 10.7894L16.6138 17.7894C16.4382 17.9258 16.2223 17.9999 16 17.9999C15.7777 17.9999 15.5618 17.9258 15.3862 17.7894L6.38625 10.7894C6.28051 10.7095 6.19169 10.6094 6.12496 10.495C6.05823 10.3805 6.01491 10.2539 5.99753 10.1225C5.98015 9.99118 5.98905 9.85767 6.02371 9.72978C6.05837 9.60189 6.1181 9.48216 6.19944 9.37755C6.28077 9.27294 6.38208 9.18554 6.49749 9.12043C6.61289 9.05532 6.74008 9.01379 6.87168 8.99825C7.00327 8.98272 7.13664 8.9935 7.26403 9.02996C7.39142 9.06642 7.5103 9.12783 7.61375 9.21062L16 15.7331L24.3862 9.21062C24.596 9.05226 24.8596 8.98281 25.1201 9.01728C25.3806 9.05175 25.617 9.18738 25.7783 9.39483C25.9396 9.60228 26.0128 9.86488 25.982 10.1259C25.9512 10.3868 25.8189 10.6252 25.6138 10.7894Z" fill="#4A6382"/>
</svg>
