<svg width="32" height="32" viewBox="0 0 32 32" fill="none" xmlns="http://www.w3.org/2000/svg">
<path d="M12 28H20M24 13V15C24 19.4 20.4 23 16 23C11.6 23 8 19.4 8 15V13M16 23V28" stroke="#4A6382" stroke-width="2" stroke-linecap="round" stroke-linejoin="round"/>
<path d="M16 20C15.3401 19.9985 14.6871 19.8644 14.08 19.6056C13.4728 19.3469 12.9239 18.9688 12.4657 18.4938C11.5276 17.5478 11.0009 16.2698 11 14.9375V8.00004C10.9975 7.34271 11.1251 6.69138 11.3754 6.08359C11.6258 5.47581 11.994 4.9236 12.4588 4.45879C12.9236 3.99399 13.4758 3.62579 14.0836 3.37542C14.6914 3.12506 15.3427 2.99748 16 3.00004C18.8038 3.00004 21 5.19629 21 8.00004V14.9375C21 17.7288 18.7569 20 16 20Z" fill="#4A6382"/>
</svg>
