<svg width="32" height="32" viewBox="0 0 32 32" fill="none" xmlns="http://www.w3.org/2000/svg">
<path d="M12 28H20M24 13V15C24 19.4 20.4 23 16 23C11.6 23 8 19.4 8 15V13M16 23V28" stroke="#4A6382" stroke-linecap="round" stroke-linejoin="round"/>
<path d="M16.0001 4.00005C15.474 3.9974 14.9527 4.09905 14.4662 4.29913C13.9797 4.49921 13.5377 4.79375 13.1657 5.16572C12.7938 5.53768 12.4992 5.97969 12.2991 6.46619C12.0991 6.95269 11.9974 7.47402 12.0001 8.00005V14.9376C12.0001 17.1376 13.8126 19.0001 16.0001 19.0001C18.1876 19.0001 20.0001 17.1876 20.0001 14.9376V8.00005C20.0001 5.75005 18.2501 4.00005 16.0001 4.00005Z" stroke="#4A6382" stroke-linecap="round" stroke-linejoin="round"/>
</svg>
