<svg width="32" height="32" viewBox="0 0 32 32" fill="none" xmlns="http://www.w3.org/2000/svg">
<path d="M24.6667 13.8333V26.2917C24.6667 26.6473 24.5966 26.9995 24.4605 27.3281C24.3244 27.6567 24.1249 27.9553 23.8734 28.2067C23.6219 28.4582 23.3234 28.6577 22.9948 28.7938C22.6662 28.9299 22.314 29 21.9583 29H5.70833C4.99004 29 4.30116 28.7147 3.79325 28.2067C3.28534 27.6988 3 27.01 3 26.2917V10.0417C3 9.32337 3.28534 8.6345 3.79325 8.12659C4.30116 7.61867 4.99004 7.33333 5.70833 7.33333H17.0481M21.4167 3H29V10.5833M13.8333 18.1667L28.4583 3.54167" stroke="#4A6382" stroke-linecap="round" stroke-linejoin="round"/>
</svg>
