<svg width="32" height="32" viewBox="0 0 32 32" fill="none" xmlns="http://www.w3.org/2000/svg">
<path d="M13.8462 19.2307C13.6332 19.2306 13.4251 19.1674 13.2481 19.049C13.0711 18.9307 12.9331 18.7625 12.8517 18.5658C12.7702 18.3691 12.7489 18.1526 12.7904 17.9438C12.8319 17.735 12.9344 17.5431 13.0849 17.3925L23.7155 6.76195C23.1653 6.46323 22.5491 6.30703 21.9231 6.30762H5.76923C4.7699 6.30869 3.8118 6.70614 3.10516 7.41278C2.39853 8.11942 2.00107 9.07752 2 10.0768V26.2307C2.00107 27.23 2.39853 28.1881 3.10516 28.8948C3.8118 29.6014 4.7699 29.9989 5.76923 29.9999H21.9231C22.9224 29.9989 23.8805 29.6014 24.5871 28.8948C25.2938 28.1881 25.6912 27.23 25.6923 26.2307V10.0768C25.6929 9.45082 25.5367 8.83461 25.238 8.28445L14.6074 18.915C14.5076 19.0153 14.389 19.0948 14.2583 19.149C14.1277 19.2031 13.9876 19.2309 13.8462 19.2307Z" fill="#4A6382"/>
<path d="M28.923 2H21.3845C21.0989 2 20.825 2.11346 20.623 2.31542C20.4211 2.51739 20.3076 2.79131 20.3076 3.07692C20.3076 3.36254 20.4211 3.63646 20.623 3.83842C20.825 4.04038 21.0989 4.15385 21.3845 4.15385H26.3229L23.7154 6.76202C24.3593 7.11179 24.8881 7.6406 25.2379 8.28452L27.8461 5.67702V10.6154C27.8461 10.901 27.9595 11.1749 28.1615 11.3769C28.3635 11.5788 28.6374 11.6923 28.923 11.6923C29.2086 11.6923 29.4825 11.5788 29.6845 11.3769C29.8865 11.1749 29.9999 10.901 29.9999 10.6154V3.07692C29.9999 2.79131 29.8865 2.51739 29.6845 2.31542C29.4825 2.11346 29.2086 2 28.923 2Z" fill="#4A6382"/>
</svg>
