<svg width="32" height="32" viewBox="0 0 32 32" fill="none" xmlns="http://www.w3.org/2000/svg">
<path d="M4 9.00012H18.1719C18.3788 9.58482 18.7618 10.091 19.2683 10.449C19.7748 10.807 20.3798 10.9993 21 10.9993C21.6202 10.9993 22.2252 10.807 22.7317 10.449C23.2382 10.091 23.6212 9.58482 23.8281 9.00012H28C28.2652 9.00012 28.5196 8.89477 28.7071 8.70723C28.8946 8.51969 29 8.26534 29 8.00012C29 7.73491 28.8946 7.48055 28.7071 7.29302C28.5196 7.10548 28.2652 7.00012 28 7.00012H23.8281C23.6212 6.41543 23.2382 5.90924 22.7317 5.55123C22.2252 5.19321 21.6202 5.00098 21 5.00098C20.3798 5.00098 19.7748 5.19321 19.2683 5.55123C18.7618 5.90924 18.3788 6.41543 18.1719 7.00012H4C3.73478 7.00012 3.48043 7.10548 3.29289 7.29302C3.10536 7.48055 3 7.73491 3 8.00012C3 8.26534 3.10536 8.51969 3.29289 8.70723C3.48043 8.89477 3.73478 9.00012 4 9.00012ZM28 23.0001H23.8281C23.6212 22.4154 23.2382 21.9092 22.7317 21.5512C22.2252 21.1932 21.6202 21.001 21 21.001C20.3798 21.001 19.7748 21.1932 19.2683 21.5512C18.7618 21.9092 18.3788 22.4154 18.1719 23.0001H4C3.73478 23.0001 3.48043 23.1055 3.29289 23.293C3.10536 23.4806 3 23.7349 3 24.0001C3 24.2653 3.10536 24.5197 3.29289 24.7072C3.48043 24.8948 3.73478 25.0001 4 25.0001H18.1719C18.3788 25.5848 18.7618 26.091 19.2683 26.449C19.7748 26.807 20.3798 26.9993 21 26.9993C21.6202 26.9993 22.2252 26.807 22.7317 26.449C23.2382 26.091 23.6212 25.5848 23.8281 25.0001H28C28.2652 25.0001 28.5196 24.8948 28.7071 24.7072C28.8946 24.5197 29 24.2653 29 24.0001C29 23.7349 28.8946 23.4806 28.7071 23.293C28.5196 23.1055 28.2652 23.0001 28 23.0001ZM28 15.0001H13.8281C13.6212 14.4154 13.2381 13.9092 12.7317 13.5512C12.2252 13.1932 11.6202 13.001 11 13.001C10.3798 13.001 9.77479 13.1932 9.26832 13.5512C8.76185 13.9092 8.37879 14.4154 8.17188 15.0001H4C3.73478 15.0001 3.48043 15.1055 3.29289 15.293C3.10536 15.4806 3 15.7349 3 16.0001C3 16.2653 3.10536 16.5197 3.29289 16.7072C3.48043 16.8948 3.73478 17.0001 4 17.0001H8.17188C8.37879 17.5848 8.76185 18.091 9.26832 18.449C9.77479 18.807 10.3798 18.9993 11 18.9993C11.6202 18.9993 12.2252 18.807 12.7317 18.449C13.2381 18.091 13.6212 17.5848 13.8281 17.0001H28C28.2652 17.0001 28.5196 16.8948 28.7071 16.7072C28.8946 16.5197 29 16.2653 29 16.0001C29 15.7349 28.8946 15.4806 28.7071 15.293C28.5196 15.1055 28.2652 15.0001 28 15.0001Z" fill="#4A6382"/>
</svg>
