<svg width="32" height="32" viewBox="0 0 32 32" fill="none" xmlns="http://www.w3.org/2000/svg">
<path d="M8.31293 27.5001C7.92919 27.4994 7.55225 27.3988 7.21918 27.2082C6.46918 26.7832 6.00293 25.9582 6.00293 25.0626V6.93761C6.00293 6.03949 6.46918 5.21699 7.21918 4.79199C7.56018 4.59601 7.94757 4.49523 8.34084 4.50017C8.73411 4.50512 9.11884 4.61562 9.4548 4.82011L24.9454 14.0926C25.2683 14.295 25.5344 14.5761 25.7189 14.9096C25.9034 15.243 26.0001 15.6178 26.0001 15.9989C26.0001 16.3799 25.9034 16.7547 25.7189 17.0881C25.5344 17.4216 25.2683 17.7027 24.9454 17.9051L9.4523 27.1801C9.10849 27.388 8.71469 27.4986 8.31293 27.5001Z" fill="#4A6382"/>
</svg>
