<svg width="32" height="32" viewBox="0 0 32 32" fill="none" xmlns="http://www.w3.org/2000/svg">
<path d="M8.49981 4.77516C10.7199 3.29176 13.33 2.5 16 2.5C19.5804 2.5 23.0142 3.92232 25.5459 6.45406C28.0777 8.9858 29.5 12.4196 29.5 16C29.5 18.67 28.7082 21.2801 27.2248 23.5002C25.7414 25.7203 23.633 27.4506 21.1662 28.4724C18.6994 29.4941 15.985 29.7615 13.3663 29.2406C10.7475 28.7197 8.34207 27.4339 6.45406 25.5459C4.56606 23.6579 3.28031 21.2525 2.7594 18.6337C2.2385 16.015 2.50585 13.3006 3.52763 10.8338C4.54942 8.36697 6.27974 6.25856 8.49981 4.77516Z" stroke="#4A6382" stroke-miterlimit="10"/>
<path d="M11.9062 12.0763C11.9062 12.0763 11.9686 10.7775 13.3587 9.65898C14.1833 8.99472 15.1719 8.8025 16.0625 8.78914C16.8737 8.77875 17.5981 8.91308 18.0315 9.11941C18.7737 9.47269 20.2188 10.3351 20.2188 12.1691C20.2188 14.0987 18.957 14.9753 17.5194 15.9394C16.0818 16.9035 15.6914 17.95 15.6914 19.0313" stroke="#4A6382" stroke-miterlimit="10" stroke-linecap="round"/>
<path d="M16.6016 22.8906C16.6016 23.4343 16.1608 23.875 15.6172 23.875C15.0735 23.875 14.6328 23.4343 14.6328 22.8906C14.6328 22.347 15.0735 21.9062 15.6172 21.9062C16.1608 21.9062 16.6016 22.347 16.6016 22.8906Z" fill="#4A6382" stroke="#4A6382"/>
</svg>
