<svg width="32" height="32" viewBox="0 0 32 32" fill="none" xmlns="http://www.w3.org/2000/svg">
<path d="M23.5 11H17V20.0625C17 20.3277 16.8946 20.5821 16.7071 20.7696C16.5196 20.9572 16.2652 21.0625 16 21.0625C15.7348 21.0625 15.4804 20.9572 15.2929 20.7696C15.1054 20.5821 15 20.3277 15 20.0625V11H8.5C7.57205 11.001 6.68238 11.3701 6.02622 12.0262C5.37006 12.6824 5.00099 13.5721 5 14.5V26.5C5.00099 27.428 5.37006 28.3176 6.02622 28.9738C6.68238 29.63 7.57205 29.999 8.5 30H23.5C24.428 29.999 25.3176 29.63 25.9738 28.9738C26.6299 28.3176 26.999 27.428 27 26.5V14.5C26.999 13.5721 26.6299 12.6824 25.9738 12.0262C25.3176 11.3701 24.428 11.001 23.5 11ZM17 5.4144L20.2931 8.7069C20.4822 8.88652 20.7339 8.98518 20.9947 8.98184C21.2555 8.9785 21.5046 8.87343 21.689 8.68903C21.8734 8.50463 21.9785 8.25549 21.9818 7.99472C21.9852 7.73396 21.8865 7.48221 21.7069 7.29315L16.7069 2.29315C16.5194 2.10576 16.2651 2.00049 16 2.00049C15.7349 2.00049 15.4806 2.10576 15.2931 2.29315L10.2931 7.29315C10.1135 7.48221 10.0148 7.73396 10.0182 7.99472C10.0215 8.25549 10.1266 8.50463 10.311 8.68903C10.4954 8.87343 10.7445 8.9785 11.0053 8.98184C11.2661 8.98518 11.5178 8.88652 11.7069 8.7069L15 5.4144V11H17V5.4144Z" fill="#4A6382"/>
</svg>
