<svg width="32" height="32" viewBox="0 0 32 32" fill="none" xmlns="http://www.w3.org/2000/svg">
<path d="M2.75424 15.7574C4.03961 13.8555 5.97613 11.7821 8.289 10.1881C10.6032 8.59324 13.2616 7.5 16 7.5C18.7384 7.5 21.3968 8.59324 23.711 10.1881C26.0239 11.7821 27.9604 13.8555 29.2458 15.7574C29.3456 15.9051 29.3456 16.0949 29.2458 16.2426C27.9604 18.1445 26.0239 20.2179 23.711 21.8119C21.3968 23.4068 18.7384 24.5 16 24.5C13.2616 24.5 10.6032 23.4068 8.289 21.8119C5.97613 20.2179 4.03961 18.1445 2.75424 16.2426C2.65443 16.0949 2.65443 15.9051 2.75424 15.7574Z" stroke="#4A6382" stroke-linecap="round" stroke-linejoin="round"/>
<path d="M11.5 16C11.5 15.1099 11.8385 13.9724 12.5756 13.0653C13.2999 12.1737 14.4111 11.5 16 11.5C17.5889 11.5 18.7001 12.1737 19.4244 13.0653C20.1615 13.9724 20.5 15.1099 20.5 16C20.5 16.8901 20.1615 18.0276 19.4244 18.9347C18.7001 19.8263 17.5889 20.5 16 20.5C14.4111 20.5 13.2999 19.8263 12.5756 18.9347C11.8385 18.0276 11.5 16.8901 11.5 16Z" stroke="#4A6382" stroke-linecap="round" stroke-linejoin="round"/>
</svg>
