<svg width="32" height="32" viewBox="0 0 32 32" fill="none" xmlns="http://www.w3.org/2000/svg">
<path d="M23.9343 11C24.9149 19.3923 14.6632 24.4178 9.73919 17.9867C8.58465 16.4851 7.97475 14.0025 8.00078 12" stroke="#4A6382" stroke-width="0.9375" stroke-linecap="round" stroke-linejoin="round"/>
<path d="M7.8377 12C6.27845 13.2035 6.72818 15.5895 8.70053 16" stroke="#4A6382" stroke-width="0.9375" stroke-linecap="round" stroke-linejoin="round"/>
<path d="M24.2619 12C25.8212 13.2035 25.3714 15.5895 23.3991 16" stroke="#4A6382" stroke-width="0.9375" stroke-linecap="round" stroke-linejoin="round"/>
<path d="M23.9759 11C24.0778 9.68503 24.0369 5.6627 20.0343 3.81249C15.2112 1.58302 11.6814 3.79437 11.6814 3.79437C8.01187 5.94033 7.83406 9.20366 8.06888 11C8.1249 11.4285 8.20439 11.7735 8.26557 12" stroke="#4A6382" stroke-width="0.9375" stroke-linecap="round" stroke-linejoin="round"/>
<path d="M3.55784 28.7733C4.76438 26.6895 6.29104 25.1308 9.79481 23.5478C9.82773 23.5628 9.8623 23.5786 9.89847 23.5952C10.9193 24.0626 13.2184 25.1154 16 25.1154C18.7816 25.1154 21.0807 24.0626 22.1015 23.5952C22.1377 23.5786 22.1723 23.5628 22.2052 23.5478C25.709 25.1308 27.2356 26.6895 28.4422 28.7733C28.531 28.9268 28.5148 29.0801 28.4102 29.2196C28.2983 29.3688 28.0775 29.5 27.7805 29.5H16.0003H4.21954C3.92247 29.5 3.70171 29.3688 3.58978 29.2196C3.48515 29.0801 3.46896 28.9268 3.55784 28.7733Z" stroke="#4A6382" stroke-linecap="round" stroke-linejoin="round"/>
<path d="M12.5363 6C13.2312 7.16108 13.1427 8.41828 12.2865 9.54724C11.4685 10.625 9.94068 11.4992 8 12M12.5 6C12.5 6 14.7816 12.2084 24 10.7891" stroke="#4A6382" stroke-width="0.9375" stroke-linecap="round" stroke-linejoin="round"/>
<path d="M13.0004 20.5C12.7825 21.7373 12 23 11 23.5M19 20.5C19.2179 21.7373 20.0004 23 21.0004 23.5" stroke="#4A6382" stroke-width="0.9375" stroke-linecap="round" stroke-linejoin="round"/>
<path d="M18 16C17.2721 17.1159 15.0345 17.5344 14 16" stroke="#4A6382" stroke-width="0.9375" stroke-linecap="round" stroke-linejoin="round"/>
</svg>
