<svg width="32" height="32" viewBox="0 0 32 32" fill="none" xmlns="http://www.w3.org/2000/svg">
<path d="M16 2C8.26837 2 2 8.26837 2 16C2 23.7316 8.26837 30 16 30C23.7316 30 30 23.7316 30 16C30 8.26837 23.7316 2 16 2ZM21.633 21.0245C20.6645 22.1053 19.4053 22.8842 18.0059 23.2682C16.6064 23.6522 15.126 23.625 13.7416 23.1899C12.3572 22.7547 11.1274 21.9301 10.1993 20.8145C9.27118 19.699 8.68401 18.3397 8.50798 16.8992C8.28529 17.0466 8.01579 17.106 7.75179 17.0658C7.48779 17.0257 7.24813 16.8889 7.0793 16.682C6.91048 16.4751 6.82455 16.2128 6.83818 15.9461C6.85181 15.6795 6.96404 15.4274 7.15308 15.2388L8.74154 13.6503C8.94055 13.4513 9.20954 13.3381 9.49095 13.335C9.77235 13.3318 10.0438 13.439 10.2472 13.6335L11.9077 15.2219C12.0941 15.3989 12.2112 15.6367 12.2376 15.8923C12.264 16.148 12.1981 16.4047 12.0518 16.6161C11.9055 16.8274 11.6884 16.9795 11.4398 17.0447C11.1912 17.11 10.9274 17.0842 10.6962 16.9719C10.8806 17.9644 11.3395 18.8854 12.0208 19.6303C12.7021 20.3753 13.5785 20.9144 14.5507 21.1865C15.5228 21.4586 16.5518 21.4528 17.5208 21.1699C18.4898 20.8869 19.3602 20.338 20.0331 19.5855C20.2262 19.3812 20.4916 19.2606 20.7724 19.2493C21.0533 19.238 21.3275 19.337 21.5363 19.5252C21.7452 19.7133 21.8722 19.9757 21.8903 20.2562C21.9084 20.5367 21.816 20.8132 21.633 21.0265V21.0245ZM24.8476 16.7613L23.2591 18.3497C23.0601 18.5487 22.7911 18.6619 22.5097 18.665C22.2283 18.6682 21.9569 18.561 21.7535 18.3665L20.093 16.7781C19.9101 16.6021 19.7953 16.3671 19.7688 16.1147C19.7423 15.8622 19.8058 15.6085 19.9481 15.3984C20.0904 15.1882 20.3024 15.035 20.5466 14.9659C20.7909 14.8968 21.0516 14.9162 21.283 15.0207C21.098 14.0304 20.6396 13.1116 19.9595 12.3684C19.2793 11.6252 18.4048 11.0872 17.4347 10.8154C16.4647 10.5436 15.4379 10.5487 14.4706 10.8302C13.5033 11.1118 12.6342 11.6585 11.9615 12.4085C11.8671 12.5137 11.7528 12.5994 11.6253 12.6605C11.4978 12.7216 11.3594 12.757 11.2182 12.7647C11.077 12.7723 10.9356 12.7521 10.8022 12.7051C10.6688 12.6581 10.546 12.5854 10.4407 12.4909C10.3354 12.3965 10.2498 12.2822 10.1887 12.1547C10.1276 12.0271 10.0922 11.8888 10.0845 11.7476C10.0769 11.6064 10.0971 11.465 10.1441 11.3316C10.191 11.1982 10.2638 11.0754 10.3583 10.9701C11.3275 9.88946 12.5877 9.11113 13.9879 8.72836C15.3882 8.34559 16.8691 8.3746 18.2532 8.81191C19.6374 9.24922 20.8662 10.0763 21.7923 11.1941C22.7185 12.3118 23.3028 13.6729 23.4752 15.1142C23.6964 14.9634 23.9658 14.9004 24.2309 14.9375C24.496 14.9745 24.7378 15.109 24.9092 15.3146C25.0806 15.5203 25.1692 15.7824 25.1578 16.0498C25.1464 16.3173 25.0358 16.5709 24.8476 16.7613Z" fill="#4A6382"/>
</svg>
