<svg width="32" height="32" viewBox="0 0 32 32" fill="none" xmlns="http://www.w3.org/2000/svg">
<path d="M16 2.5C23.453 2.5 29.5 8.54698 29.5 16C29.5 23.453 23.453 29.5 16 29.5C8.54698 29.5 2.5 23.453 2.5 16C2.5 8.54698 8.54698 2.5 16 2.5Z" stroke="#4A6382" stroke-miterlimit="10"/>
<path d="M18 22.3337V21.3337C18 20.1253 19.3142 18.9824 20.1667 18.167C21.3684 17.0183 22 15.4749 22 13.667C22 10.3337 19.3446 7.66702 16 7.66702C15.2115 7.66482 14.4303 7.81851 13.7013 8.11926C12.9724 8.42001 12.3101 8.86188 11.7525 9.41947C11.1949 9.97706 10.753 10.6394 10.4523 11.3683C10.1515 12.0973 9.99782 12.8785 10 13.667C10 15.4103 10.6588 17.0583 11.8334 18.167C12.6813 18.9674 14 20.1128 14 21.3337V22.3337M14.6667 26.3337H17.3334M14 24.3337H18" stroke="#4A6382" stroke-linecap="round" stroke-linejoin="round"/>
</svg>
