<svg width="32" height="32" viewBox="0 0 32 32" fill="none" xmlns="http://www.w3.org/2000/svg">
<path d="M29.4221 28.4917C29.4724 28.7785 29.4128 29.0302 29.3036 29.1943C29.2033 29.345 29.053 29.44 28.8325 29.44H3.1668C2.94683 29.44 2.79676 29.3452 2.69642 29.1944C2.5872 29.0303 2.52769 28.7785 2.57799 28.4917L2.57799 28.4917C3.14172 25.2766 4.96646 23.0606 7.42422 21.6336C9.8979 20.1974 13.0197 19.56 16.1238 19.56C19.2275 19.56 22.2847 20.1973 24.6942 21.6306C27.087 23.0541 28.8566 25.2688 29.4221 28.4917ZM29.4221 28.4917L29.9736 28.395L29.4221 28.4917ZM21.9818 9.46138C21.847 11.4091 21.0903 13.1689 20.0033 14.434C18.914 15.7018 17.5258 16.44 16.1238 16.44C14.7216 16.44 13.3321 15.7018 12.2422 14.4342C11.1547 13.1692 10.3981 11.4097 10.2658 9.46208C9.99319 5.44618 12.6244 2.55998 16.1238 2.55998C19.6196 2.55998 22.2542 5.52047 21.9818 9.46138Z" stroke="#4A6382" stroke-width="1.11996" stroke-miterlimit="10"/>
</svg>
