<svg width="32" height="32" viewBox="0 0 32 32" fill="none" xmlns="http://www.w3.org/2000/svg">
<path fill-rule="evenodd" clip-rule="evenodd" d="M18.761 2.1434C19.05 1.93096 19.4353 1.82475 19.7243 2.03718C20.1096 2.1434 20.3022 2.56827 20.3022 2.99314V23.6406L7.18921 9.57864H9.41722L18.761 2.1434ZM4.45456 9.57864H2.96327C2.38531 9.57864 2 10.0035 2 10.6408V21.2626C2 21.8999 2.38531 22.3248 2.96327 22.3248H9.41722L18.761 29.8662C18.9536 29.9724 19.1463 30.0786 19.3389 30.0786H19.339C19.5316 30.0786 19.6279 30.0786 19.8206 29.9724C20.1096 29.76 20.3022 29.4413 20.3022 29.0165V26.5732L4.45456 9.57864Z" fill="#4A6382"/>
<path fill-rule="evenodd" clip-rule="evenodd" d="M3.79111 4.51891C4.19502 4.14226 4.8278 4.16435 5.20446 4.56827L25.9236 26.7868C26.3002 27.1907 26.2781 27.8235 25.8742 28.2001C25.4703 28.5768 24.8375 28.5547 24.4609 28.1508L3.74175 5.93226C3.36509 5.52835 3.38719 4.89557 3.79111 4.51891Z" fill="#4A6382"/>
</svg>
