<svg width="32" height="32" viewBox="0 0 32 32" fill="none" xmlns="http://www.w3.org/2000/svg">
<path d="M19.7739 1.99796C19.4841 1.78493 19.0977 1.89144 18.8079 2.10447L9.43799 9.56053H2.96597C2.38639 9.56053 2 9.98659 2 10.6257V21.2772C2 21.9163 2.38639 22.3423 2.96597 22.3423H9.43799L18.8079 29.9049C19.0011 30.0114 19.1943 30.1179 19.3875 30.1179C19.5807 30.1179 19.6773 30.1179 19.8705 30.0114C20.1603 29.7984 20.3535 29.4788 20.3535 29.0528V2.95659C20.3535 2.53053 20.1603 2.10447 19.7739 1.99796Z" fill="#4A6382"/>
<mask id="path-2-inside-1_37602_15980" fill="white">
<path d="M22.9603 20.9603C23.345 21.345 23.9743 21.3482 24.3089 20.9192C25.3844 19.5399 25.9841 17.8376 25.9997 16.0706C26.0153 14.3036 25.4457 12.591 24.3948 11.193C24.0678 10.7581 23.4385 10.7502 23.0471 11.1281V11.1281C22.6556 11.506 22.6526 12.126 22.9617 12.5737C23.6631 13.5893 24.0405 14.8032 24.0295 16.0532C24.0185 17.3032 23.6196 18.5103 22.9004 19.5134C22.5834 19.9555 22.5755 20.5755 22.9603 20.9603V20.9603Z"/>
</mask>
<path d="M22.9603 20.9603C23.345 21.345 23.9743 21.3482 24.3089 20.9192C25.3844 19.5399 25.9841 17.8376 25.9997 16.0706C26.0153 14.3036 25.4457 12.591 24.3948 11.193C24.0678 10.7581 23.4385 10.7502 23.0471 11.1281V11.1281C22.6556 11.506 22.6526 12.126 22.9617 12.5737C23.6631 13.5893 24.0405 14.8032 24.0295 16.0532C24.0185 17.3032 23.6196 18.5103 22.9004 19.5134C22.5834 19.9555 22.5755 20.5755 22.9603 20.9603V20.9603Z" stroke="#4A6382" stroke-width="4" stroke-linejoin="round" mask="url(#path-2-inside-1_37602_15980)"/>
</svg>
