<svg width="32" height="32" viewBox="0 0 32 32" fill="none" xmlns="http://www.w3.org/2000/svg">
<path d="M19.6257 2.11466C19.3383 1.90341 18.9551 2.00904 18.6678 2.22029L9.37597 9.61418H2.95792C2.38317 9.61418 2 10.0367 2 10.6704V21.2331C2 21.8669 2.38317 22.2894 2.95792 22.2894H9.37597L18.6678 29.7889C18.8593 29.8946 19.0509 30.0002 19.2425 30.0002C19.4341 30.0002 19.5299 30.0002 19.7215 29.8946C20.0089 29.6833 20.2004 29.3664 20.2004 28.9439V3.06531C20.2004 2.6428 20.0089 2.22029 19.6257 2.11466Z" fill="#4A6382"/>
<mask id="path-2-inside-1_37602_15988" fill="white">
<path d="M22.9603 20.9603C23.345 21.345 23.9743 21.3482 24.3089 20.9192C25.3844 19.5399 25.9841 17.8376 25.9997 16.0706C26.0153 14.3036 25.4457 12.591 24.3948 11.193C24.0678 10.7581 23.4385 10.7502 23.0471 11.1281V11.1281C22.6556 11.506 22.6526 12.126 22.9617 12.5737C23.6631 13.5893 24.0405 14.8032 24.0295 16.0532C24.0185 17.3032 23.6196 18.5103 22.9004 19.5134C22.5834 19.9555 22.5755 20.5755 22.9603 20.9603V20.9603Z"/>
</mask>
<path d="M22.9603 20.9603C23.345 21.345 23.9743 21.3482 24.3089 20.9192C25.3844 19.5399 25.9841 17.8376 25.9997 16.0706C26.0153 14.3036 25.4457 12.591 24.3948 11.193C24.0678 10.7581 23.4385 10.7502 23.0471 11.1281V11.1281C22.6556 11.506 22.6526 12.126 22.9617 12.5737C23.6631 13.5893 24.0405 14.8032 24.0295 16.0532C24.0185 17.3032 23.6196 18.5103 22.9004 19.5134C22.5834 19.9555 22.5755 20.5755 22.9603 20.9603V20.9603Z" stroke="#4A6382" stroke-width="4" stroke-linejoin="round" mask="url(#path-2-inside-1_37602_15988)"/>
<mask id="path-3-inside-2_37602_15988" fill="white">
<path d="M24.9974 24.494C25.3468 24.9181 25.9771 24.9815 26.3708 24.5982C27.3979 23.5984 28.2394 22.4206 28.8532 21.1193C29.6088 19.5175 30.0004 17.7684 30 15.9973C29.9996 14.2263 29.6072 12.4773 28.8509 10.8758C28.2366 9.57486 27.3945 8.39746 26.367 7.39804C25.9731 7.01493 25.3428 7.07861 24.9936 7.50286V7.50286C24.6444 7.9271 24.7094 8.55083 25.0969 8.94038C25.9009 9.74867 26.5628 10.6902 27.0517 11.7255C27.6825 13.0614 28.0099 14.5204 28.0102 15.9978C28.0105 17.4751 27.6838 18.9343 27.0536 20.2705C26.5651 21.306 25.9037 22.2478 25.1001 23.0565C24.7127 23.4462 24.648 24.0699 24.9974 24.494V24.494Z"/>
</mask>
<path d="M24.9974 24.494C25.3468 24.9181 25.9771 24.9815 26.3708 24.5982C27.3979 23.5984 28.2394 22.4206 28.8532 21.1193C29.6088 19.5175 30.0004 17.7684 30 15.9973C29.9996 14.2263 29.6072 12.4773 28.8509 10.8758C28.2366 9.57486 27.3945 8.39746 26.367 7.39804C25.9731 7.01493 25.3428 7.07861 24.9936 7.50286V7.50286C24.6444 7.9271 24.7094 8.55083 25.0969 8.94038C25.9009 9.74867 26.5628 10.6902 27.0517 11.7255C27.6825 13.0614 28.0099 14.5204 28.0102 15.9978C28.0105 17.4751 27.6838 18.9343 27.0536 20.2705C26.5651 21.306 25.9037 22.2478 25.1001 23.0565C24.7127 23.4462 24.648 24.0699 24.9974 24.494V24.494Z" stroke="#4A6382" stroke-width="4" stroke-linejoin="round" mask="url(#path-3-inside-2_37602_15988)"/>
</svg>
