<svg width="32" height="32" viewBox="0 0 32 32" fill="none" xmlns="http://www.w3.org/2000/svg">
<path d="M24 20.0001C24.6087 18.787 25 17.4495 25 16.0001C25 14.5307 24.625 13.2251 24 12.0001M11.8531 12.0001H7.5C7.36739 12.0001 7.24021 12.0528 7.14645 12.1465C7.05268 12.2403 7 12.3675 7 12.5001V19.5001C7 19.6327 7.05268 19.7599 7.14645 19.8536C7.24021 19.9474 7.36739 20.0001 7.5 20.0001H11.8531C12.0842 20.0002 12.3082 20.0804 12.4869 20.227L18.2038 24.9145C18.2783 24.9693 18.3666 25.0024 18.4588 25.01C18.5511 25.0176 18.6436 24.9995 18.7261 24.9576C18.8087 24.9158 18.878 24.8518 18.9263 24.7729C18.9747 24.694 19.0002 24.6033 19 24.5107V7.48946C18.9999 7.39703 18.9743 7.30641 18.9258 7.22769C18.8774 7.14897 18.8081 7.08522 18.7256 7.04352C18.6431 7.00182 18.5506 6.9838 18.4585 6.99147C18.3664 6.99914 18.2782 7.03219 18.2038 7.08696L12.4869 11.7745C12.308 11.9206 12.0841 12.0003 11.8531 12.0001V12.0001Z" stroke="#4A6382" stroke-linecap="round" stroke-linejoin="round"/>
</svg>
