<svg width="144" height="144" viewBox="0 0 144 144" fill="none" xmlns="http://www.w3.org/2000/svg">
<path d="M59.132 36.3359L58.25 29.4354L64.892 28.7998L66.008 40.6215" fill="#F6BD4E"/>
<path d="M59.132 36.3359L58.25 29.4354L64.892 28.7998L66.008 40.6215" stroke="#647891" stroke-width="2" stroke-linecap="round" stroke-linejoin="round"/>
<path d="M65.493 52.2759L53.6387 53.8008L55.1636 65.6551L67.0179 64.1302L65.493 52.2759Z" stroke="#647891" stroke-width="2" stroke-linecap="round" stroke-linejoin="round"/>
<path fill-rule="evenodd" clip-rule="evenodd" d="M26.7832 49.4804L30.2399 79.1703L36.4483 78.0752L34.398 62.1901C33.8399 57.9417 36.4502 54.1073 40.1945 53.6213C43.9389 53.1352 47.4312 56.1955 47.9713 60.4439L49.9415 75.7696L74.5517 71.4538L70.7978 43.4856L46.5668 29.1562L26.7832 49.4804ZM53.6373 53.8008L65.4917 52.2759L67.0165 64.1302L55.1622 65.6551L53.6373 53.8008Z" fill="#F06E61" stroke="#647891" stroke-width="2" stroke-linecap="round" stroke-linejoin="round"/>
<path d="M59.584 53.0791L61.006 64.1311" stroke="#647891" stroke-width="2" stroke-linecap="round" stroke-linejoin="round"/>
<path d="M66.262 58.2451L54.418 59.7751" stroke="#647891" stroke-width="2" stroke-linecap="round" stroke-linejoin="round"/>
<path d="M76.7028 46.941L46.5679 29.1553L22.1035 54.2497" stroke="#647891" stroke-width="2" stroke-linecap="round" stroke-linejoin="round"/>
<path d="M122.4 109.104V72.6495L100.977 80.1048L103.123 93.6388L95.2972 93.1561L92.4301 103.24L87.1106 96.2848L90.8613 77.9416L81.7911 70.2002L21.5996 80.7306V109.729C21.5996 112.751 24.07 115.2 27.1175 115.2H116.269C119.641 115.2 122.382 112.483 122.382 109.139L122.4 109.104Z" stroke="#647891" stroke-width="2" stroke-linecap="round" stroke-linejoin="round"/>
<path d="M22.0664 97.04L37.8179 90.9014L41.7603 93.5297L51.0673 99.7223L57.9979 85.2129L71.8773 85.8429" stroke="#647891" stroke-width="2" stroke-linecap="round" stroke-linejoin="round"/>
<path d="M71.2465 96.5714L63.0566 98.4614L55.4785 90.9014" stroke="#647891" stroke-width="2" stroke-linecap="round" stroke-linejoin="round"/>
<path d="M115.065 49.3897C115.749 48.3276 116.217 47.1214 116.379 45.7713C116.937 41.1089 113.607 36.8965 108.962 36.3384C104.318 35.7803 100.087 39.1107 99.5291 43.7551C99.3671 45.1413 99.5472 46.4734 99.9972 47.6975C95.9468 47.8955 92.5085 50.9918 92.0044 55.1682C91.4464 59.8307 94.7767 64.0431 99.4211 64.6011C102.175 64.9252 104.786 63.8811 106.568 62.0089C107.864 64.2411 110.15 65.8613 112.904 66.2033C117.567 66.7614 121.779 63.431 122.337 58.7866C122.895 54.1421 119.637 50.0017 115.047 49.3717L115.065 49.3897Z" fill="#7CC694" stroke="#647891" stroke-width="2" stroke-linecap="round" stroke-linejoin="round"/>
<path d="M108.277 49.498L104.809 78.7692" stroke="#647891" stroke-width="2" stroke-linecap="round" stroke-linejoin="round"/>
<path d="M102.752 53.8359L107.27 58.8039L112.418 54.2319" stroke="#647891" stroke-width="2" stroke-linecap="round" stroke-linejoin="round"/>
<path d="M39.997 105.231L37.459 100.263L41.761 93.5312" stroke="#647891" stroke-width="2" stroke-linecap="round" stroke-linejoin="round"/>
</svg>
