<svg width="144" height="144" viewBox="0 0 144 144" fill="none" xmlns="http://www.w3.org/2000/svg">
<path d="M47.0018 105.854C46.9157 105.314 46.6685 104.811 46.2924 104.413C45.9163 104.015 45.4289 103.74 44.8938 103.623C44.3587 103.506 43.8008 103.554 43.2932 103.759C42.7855 103.965 42.3516 104.318 42.0482 104.774C41.7602 105.192 41.4722 105.667 41.1842 106.214C38.5634 111.01 34.8914 113.112 31.5218 110.318C24.3218 106.142 27.7346 85.536 32.3714 81.3888C32.4206 81.3492 32.4796 81.3238 32.5422 81.3154C32.6048 81.307 32.6685 81.3159 32.7264 81.3411C32.7842 81.3663 32.8341 81.4069 32.8705 81.4585C32.907 81.5101 32.9286 81.5706 32.933 81.6336C33.0626 83.6784 33.725 90 35.7122 90.6768C36.3266 90.9113 36.9883 90.9953 37.6418 90.9216C45.4898 90 31.9682 73.4976 48.4562 65.0016C48.5222 64.9674 48.5974 64.9554 48.6707 64.9674C48.744 64.9793 48.8116 65.0146 48.8633 65.0679C48.915 65.1212 48.9482 65.1898 48.9578 65.2635C48.9675 65.3371 48.9532 65.4119 48.917 65.4768C44.597 73.7568 54.4898 78.0912 55.397 86.328C55.6562 89.208 54.1586 94.2048 56.9234 92.4624C59.6882 90.72 59.9474 85.896 58.9826 83.0448C58.0178 80.1936 62.885 86.5728 64.2674 92.9088C68.8898 110.146 48.7442 119.03 47.0018 105.854Z" stroke="#6B7D94" stroke-width="2" stroke-miterlimit="10"/>
<path d="M21.6874 141.596C21.1046 141.615 20.5239 141.518 19.979 141.31C19.4341 141.103 18.9361 140.788 18.5139 140.386C18.0916 139.984 17.7537 139.502 17.5198 138.968C17.2858 138.434 17.1606 137.859 17.1514 137.276V43.5316C17.1514 28.2964 29.9674 15.9556 45.7786 15.9556C61.6186 15.9556 74.4202 28.2964 74.4202 43.5316V137.348C74.409 137.931 74.282 138.507 74.0465 139.041C73.8111 139.575 73.4718 140.057 73.0484 140.459C72.625 140.861 72.126 141.175 71.5803 141.382C71.0347 141.59 70.4532 141.687 69.8698 141.668L21.6874 141.596Z" stroke="#6B7D94" stroke-width="2"/>
<path d="M50.4736 6.68228C64.8736 5.40068 76.7824 16.1431 81.5488 28.0663C86.3296 38.1463 84.184 60.9847 85.1344 80.5687C85.3216 89.1367 89.6848 91.2823 93.4864 92.2039C102.242 93.9751 108.995 85.3495 111.89 78.9703" stroke="#6B7D94" stroke-width="2" stroke-linecap="round" stroke-linejoin="round"/>
<path d="M16.2139 60.8535L73.8715 60.9687" stroke="#6B7D94" stroke-width="2"/>
<path d="M16.2139 115.732L73.8715 115.862" stroke="#6B7D94" stroke-width="2"/>
<path d="M45.9951 15.8119L45.8799 9.56201" stroke="#6B7D94" stroke-width="2"/>
<path d="M46.1375 10.1675C48.2769 10.1675 50.0113 8.43315 50.0113 6.29371C50.0113 4.15428 48.2769 2.41992 46.1375 2.41992C43.998 2.41992 42.2637 4.15428 42.2637 6.29371C42.2637 8.43315 43.998 10.1675 46.1375 10.1675Z" stroke="#6B7D94" stroke-width="2"/>
<path d="M31.1484 3.7583L42.0354 6.48003L31.35 9.56178" stroke="#6B7D94" stroke-width="2" stroke-linecap="round" stroke-linejoin="round"/>
<path d="M113.185 60.6673L110.881 75.8025C110.811 76.2927 110.896 76.7926 111.124 77.2323C111.352 77.672 111.712 78.0295 112.153 78.2548C112.594 78.48 113.094 78.5619 113.584 78.4888C114.074 78.4158 114.529 78.1915 114.885 77.8474L126.103 66.946C126.38 66.6805 126.588 66.3515 126.71 65.9874C126.831 65.6234 126.862 65.2352 126.799 64.8565C126.737 64.4779 126.583 64.1201 126.352 63.8142C126.12 63.5083 125.817 63.2635 125.469 63.101L116.526 58.8672C116.192 58.7167 115.827 58.6452 115.46 58.6583C115.094 58.6714 114.735 58.7687 114.412 58.9428C114.089 59.1168 113.81 59.3629 113.597 59.662C113.385 59.961 113.244 60.305 113.185 60.6673V60.6673Z" fill="#6B7D94" stroke="#6B7D94" stroke-width="2" stroke-linecap="round" stroke-linejoin="round"/>
</svg>
