<svg width="144" height="144" viewBox="0 0 144 144" fill="none" xmlns="http://www.w3.org/2000/svg">
<path d="M96.8154 49.9804C93.6025 47.169 89.4072 45.7431 85.146 46.0141C80.8848 46.285 76.9041 48.2309 74.0735 51.4265L72.0192 53.8272L69.9649 51.4844C67.1486 48.2703 63.1705 46.3061 58.9056 46.0241C54.6406 45.742 50.4383 47.1651 47.223 49.9804C44.0077 52.7956 42.0429 56.7724 41.7608 61.0358C41.4786 65.2992 42.9022 69.5 45.7185 72.7142L50.5938 78.2675L71.3826 101.999C71.5838 102.227 71.7962 102.444 72.0192 102.65C72.2422 102.444 72.4546 102.227 72.6557 101.999L93.4446 78.2675L98.3199 72.7142C101.125 69.4951 102.542 65.2969 102.26 61.037C101.978 56.777 100.02 52.8019 96.8154 49.9804V49.9804Z" fill="#F06E61"/>
<path d="M72.0195 125.5C110.342 109.809 116.52 81.4497 116.52 62.259V27.9414C91.9259 33.162 72.0195 17.5 72.0195 17.5" stroke="#6B7D94" stroke-width="2" stroke-linecap="round" stroke-linejoin="round"/>
<path d="M72.0195 125.5C33.6969 109.809 27.5195 81.4497 27.5195 62.259V27.9414C52.1132 33.162 72.0195 17.5 72.0195 17.5" stroke="#6B7D94" stroke-width="2" stroke-linecap="round" stroke-linejoin="round"/>
</svg>
