<svg width="144" height="144" viewBox="0 0 144 144" fill="none" xmlns="http://www.w3.org/2000/svg">
<path d="M102.662 37.0362H41.3378C38.3898 37.0362 36 39.393 36 42.3003V116.372C36 119.279 38.3898 121.636 41.3378 121.636H102.662C105.61 121.636 108 119.279 108 116.372V42.3003C108 39.393 105.61 37.0362 102.662 37.0362Z" stroke="#647891" stroke-width="2" stroke-linecap="round" stroke-linejoin="round"/>
<path d="M80.1377 31.097C80.2275 30.6248 80.2814 30.1526 80.2814 29.6628C80.2814 25.2029 76.5808 21.6 72 21.6C67.4192 21.6 63.7186 25.2029 63.7186 29.6628C63.7186 30.1526 63.7725 30.6248 63.8623 31.097H54V43.2H90V31.097H80.1377Z" fill="#7CC694" stroke="#647891" stroke-width="2" stroke-linecap="round" stroke-linejoin="round"/>
<path d="M64.7998 82.8H93.5998" stroke="#647891" stroke-width="2" stroke-linecap="round" stroke-linejoin="round"/>
<path d="M64.7998 95.4H93.5998" stroke="#647891" stroke-width="2" stroke-linecap="round" stroke-linejoin="round"/>
<path d="M56.8756 79.2H51.1242C50.7242 79.2 50.3999 79.5243 50.3999 79.9244V85.6757C50.3999 86.0757 50.7242 86.4 51.1242 86.4H56.8756C57.2756 86.4 57.5999 86.0757 57.5999 85.6757V79.9244C57.5999 79.5243 57.2756 79.2 56.8756 79.2Z" fill="#F6BD4E"/>
<path d="M56.8756 91.8H51.1242C50.7242 91.8 50.3999 92.1243 50.3999 92.5244V98.2757C50.3999 98.6757 50.7242 99 51.1242 99H56.8756C57.2756 99 57.5999 98.6757 57.5999 98.2757V92.5244C57.5999 92.1243 57.2756 91.8 56.8756 91.8Z" fill="#F6BD4E"/>
<path d="M56.8756 104.4H51.1242C50.7242 104.4 50.3999 104.724 50.3999 105.124V110.876C50.3999 111.276 50.7242 111.6 51.1242 111.6H56.8756C57.2756 111.6 57.5999 111.276 57.5999 110.876V105.124C57.5999 104.724 57.2756 104.4 56.8756 104.4Z" fill="#F6BD4E"/>
<path d="M64.7998 108H93.5998" stroke="#647891" stroke-width="2" stroke-linecap="round" stroke-linejoin="round"/>
<path d="M71.9999 48.5706C65.0381 48.5706 59.3999 54.2088 59.3999 61.1706C59.3999 68.1324 65.0381 73.7706 71.9999 73.7706C78.9617 73.7706 84.5999 68.1324 84.5999 61.1706C84.5999 54.2088 78.9617 48.5706 71.9999 48.5706ZM78.9617 63.3021H74.3205V67.9433H70.2809V63.3021H65.6397V59.2625H70.2809V54.6213H74.3205V59.2625H78.9617V63.3021Z" fill="#F06E61"/>
</svg>
