<svg width="144" height="144" viewBox="0 0 144 144" fill="none" xmlns="http://www.w3.org/2000/svg">
<path d="M48.1621 53.6996L48.0703 59.0127L61.7921 59.2498L61.884 53.9368L48.1621 53.6996Z" fill="#7CC694"/>
<path d="M84.0246 59.2552L68.2126 59.0104L67.0605 53.7109L84.0966 53.9413L84.0246 59.2552Z" fill="#7CC694"/>
<path d="M70.2861 95.0402C73.4067 96.9243 76.9585 97.976 80.6018 98.0945C84.2451 98.213 87.8578 97.3944 91.0941 95.717C94.1114 94.1448 96.5771 91.6894 98.1621 88.6788C99.7471 85.6682 100.376 82.2456 99.9645 78.8682" stroke="#F6BD4E" stroke-width="2" stroke-miterlimit="10"/>
<path d="M80.1934 95.6294C90.8821 95.6294 99.547 87.938 99.547 78.4502C99.547 68.9624 90.8821 61.271 80.1934 61.271C69.5047 61.271 60.8398 68.9624 60.8398 78.4502C60.8398 87.938 69.5047 95.6294 80.1934 95.6294Z" stroke="#6B7D94" stroke-width="2" stroke-linecap="round" stroke-linejoin="round"/>
<path d="M60.9129 76.9396C60.2934 69.1957 60.7099 61.4038 62.1514 53.77C63.4043 47.8516 69.4525 58.7668 71.3678 62.986" stroke="#6B7D94" stroke-width="2" stroke-linecap="round" stroke-linejoin="round"/>
<path d="M99.577 79.4736C100.075 70.9481 99.6602 62.3939 98.3385 53.9568C97.2441 47.9952 91.0374 58.9392 89.1221 63.1728" stroke="#6B7D94" stroke-width="2" stroke-linecap="round" stroke-linejoin="round"/>
<path d="M82.239 87.624L80.0933 89.5681L78.25 87.5088" stroke="#6B7D94" stroke-width="2" stroke-linecap="round" stroke-linejoin="round"/>
<path d="M72.9948 86.659C65.3049 85.0749 61.0135 84.4269 53.3379 82.8428" stroke="#6B7D94" stroke-width="2" stroke-linecap="round" stroke-linejoin="round"/>
<path d="M59.2998 93.6005C63.62 92.6789 69.1499 90.4324 73.5133 89.5107" stroke="#6B7D94" stroke-width="2" stroke-linecap="round" stroke-linejoin="round"/>
<path d="M86.9756 87.3214C94.6508 85.7373 100.8 84.4413 108.475 82.8428" stroke="#6B7D94" stroke-width="2" stroke-linecap="round" stroke-linejoin="round"/>
<path d="M99.5194 92.9803L86.4004 90.2153" stroke="#6B7D94" stroke-width="2" stroke-linecap="round" stroke-linejoin="round"/>
<path d="M49.623 20.9091C58.263 10.8286 75.543 10.8286 84.0391 21.2403" stroke="#6B7D94" stroke-width="2" stroke-linecap="round" stroke-linejoin="round"/>
<path d="M67.2479 43.1997L70.7329 39.8011C71.3089 39.2395 70.8625 38.361 69.9985 38.361L63.5757 38.1738C62.7261 38.1738 62.2077 38.9659 62.6973 39.6139L65.5774 43.1997C65.684 43.3149 65.8131 43.4068 65.9569 43.4696C66.1006 43.5325 66.2558 43.5649 66.4127 43.5649C66.5696 43.5649 66.7247 43.5325 66.8685 43.4696C67.0122 43.4068 67.1414 43.3149 67.2479 43.1997V43.1997Z" fill="#6B7D94"/>
<path d="M57.2399 41.4424C57.1529 42.236 57.2935 43.0379 57.6454 43.7545C57.9974 44.4711 58.546 45.0727 59.2272 45.489C59.96 45.9326 60.7889 46.1931 61.6438 46.2482C62.4986 46.3034 63.3541 46.1516 64.1379 45.8058C64.8811 45.4892 65.5207 44.9705 65.984 44.3087C66.4473 43.6468 66.7157 42.8683 66.7588 42.0616" stroke="#6B7D94" stroke-width="2" stroke-linecap="round" stroke-linejoin="round"/>
<path d="M75.7447 41.6016C75.8317 42.3951 75.6911 43.1971 75.3392 43.9137C74.9873 44.6303 74.4386 45.2319 73.7574 45.6482C73.0246 46.0918 72.1957 46.3523 71.3408 46.4074C70.486 46.4626 69.6305 46.3108 68.8468 45.965C68.1062 45.6463 67.4696 45.1267 67.009 44.465C66.5483 43.8033 66.2821 43.0259 66.2402 42.2208" stroke="#6B7D94" stroke-width="2" stroke-linecap="round" stroke-linejoin="round"/>
<path d="M75.7305 77.5583C75.0196 78.147 74.1662 78.5381 73.2562 78.6923C72.3461 78.8465 71.4115 78.7584 70.5463 78.4367C69.6816 78.0862 68.9216 77.5194 68.339 76.7906C67.7565 76.0618 67.3711 75.1955 67.2197 74.2749" stroke="#6B7D94" stroke-width="2" stroke-linecap="round" stroke-linejoin="round"/>
<path d="M55.7715 29.837C56.1309 29.5213 56.5521 29.284 57.0083 29.1402C57.4646 28.9964 57.9458 28.9492 58.4212 29.0018C58.8811 29.0329 59.3281 29.1669 59.7293 29.3936C60.1306 29.6204 60.4759 29.9343 60.7397 30.3123" stroke="#6B7D94" stroke-width="2" stroke-linecap="round" stroke-linejoin="round"/>
<path d="M72.7197 30.4128C73.0433 30.0618 73.4381 29.7839 73.8776 29.5977C74.3172 29.4114 74.7914 29.3211 75.2687 29.3328C75.7319 29.3151 76.1932 29.4032 76.6173 29.5903C77.0415 29.7775 77.4175 30.0587 77.7168 30.4128" stroke="#6B7D94" stroke-width="2" stroke-linecap="round" stroke-linejoin="round"/>
<path d="M84.7734 77.8893C85.4844 78.478 86.3378 78.8692 87.2478 79.0234C88.1579 79.1776 89.0925 79.0894 89.9577 78.7678C90.8224 78.4173 91.5824 77.8505 92.165 77.1217C92.7475 76.3929 93.1329 75.5266 93.2843 74.606" stroke="#6B7D94" stroke-width="2" stroke-linecap="round" stroke-linejoin="round"/>
<path d="M76.3203 15.091C78.7137 12.569 81.9018 10.947 85.3496 10.4972C90.505 10.1804 95.9773 11.0732 95.8765 16.4735C95.0412 24.4803 88.8777 29.2469 87.1208 28.9157C82.0806 28.4549 86.1848 16.8623 81.4614 11.6349" stroke="#6B7D94" stroke-width="2" stroke-linecap="round" stroke-linejoin="round"/>
<path d="M57.2409 15.091C54.8416 12.5689 51.649 10.9472 48.1972 10.4972C43.0562 10.1804 37.5695 11.0732 37.6703 16.4735C38.5632 24.5379 44.6547 29.2469 46.4115 28.9157C51.4518 28.4549 46.6852 17.3952 51.8982 13.0749" stroke="#6B7D94" stroke-width="2" stroke-linecap="round" stroke-linejoin="round"/>
<path d="M46.9306 29.9668C46.7434 34.4164 54.217 58.0612 39.2698 72.0004C19.2394 90.5764 17.8282 104.904 30.1258 124.776" stroke="#6B7D94" stroke-width="2" stroke-linecap="round" stroke-linejoin="round"/>
<path d="M86.6741 29.3042C86.3285 39.485 81.605 48.0242 86.0837 61.8914" stroke="#6B7D94" stroke-width="2" stroke-linecap="round" stroke-linejoin="round"/>
<path d="M71.1366 95.6885C70.1846 98.8176 69.875 102.107 70.2264 105.359C70.5778 108.61 71.583 111.758 73.1815 114.611" stroke="#6B7D94" stroke-width="2" stroke-linecap="round" stroke-linejoin="round"/>
<path d="M73.0663 114.696L60.4801 117.115C60.4801 117.115 55.051 118.123 56.8511 124.647" stroke="#6B7D94" stroke-width="2" stroke-linecap="round" stroke-linejoin="round"/>
<path d="M87.6106 116.914L76.4213 119.52C76.4213 119.52 69.2209 120.874 71.7554 125.381" stroke="#6B7D94" stroke-width="2" stroke-linecap="round" stroke-linejoin="round"/>
<path d="M99.6621 78.5233C103.83 76.7814 108.351 76.0495 112.855 76.3874C117.36 76.7252 121.721 78.1232 125.582 80.4673C129.161 82.922 132.119 86.1769 134.221 89.9736C136.323 93.7704 137.512 98.0048 137.693 102.341C138.096 110.981 135.259 120.067 128.851 126.029" stroke="#6B7D94" stroke-width="2" stroke-linecap="round" stroke-linejoin="round"/>
<path d="M40.3203 87.8394C41.6944 88.0076 43.0211 88.4482 44.2229 89.1354C49.1047 91.929 50.9336 98.3658 49.9832 103.924C49.0327 109.483 48.1255 110.26 45.0293 114.969C46.311 114.969 53.7562 117.129 56.1467 120.167" stroke="#6B7D94" stroke-width="2" stroke-linecap="round" stroke-linejoin="round"/>
<path d="M26.8126 118.727C24.2227 118.452 21.7867 117.362 19.8541 115.616C17.9216 113.87 16.5919 111.556 16.0558 109.007C14.7886 103.679 15.7534 98.1067 16.7182 92.7211C17.683 87.3355 18.6622 81.7627 17.4382 76.4203C16.2142 71.0779 12.211 65.9803 6.78223 65.2603C11.3182 68.5147 13.1614 74.4763 13.1182 80.0635C13.075 85.6507 11.5198 91.0651 10.411 96.5515C9.30223 102.038 8.97103 107.899 11.1886 113.011C12.8128 116.517 15.364 119.513 18.5668 121.675C21.7695 123.838 25.5021 125.084 29.3614 125.279C39.355 125.596 50.0686 125.524 59.0254 125.726" stroke="#6B7D94" stroke-width="2" stroke-linecap="round" stroke-linejoin="round"/>
<path d="M26.2658 118.079C23.677 117.806 21.2413 116.72 19.3086 114.976C17.3759 113.232 16.0457 110.921 15.509 108.374C14.2562 103.046 15.2066 97.4729 16.1714 92.0729C17.1362 86.6729 18.1154 81.1289 16.8914 75.7865C15.6674 70.4441 11.6642 65.3465 6.23535 64.6265C10.7714 67.8665 12.629 73.8425 12.5714 79.4153C12.5138 84.9881 10.9154 90.4313 9.86415 95.9033C8.81295 101.375 8.42415 107.265 10.6562 112.362C12.2749 115.866 14.8212 118.86 18.0194 121.02C21.2176 123.18 24.9457 124.424 28.8002 124.617L26.2658 118.079Z" fill="#6B7D94" stroke="#6B7D94" stroke-width="2" stroke-linecap="round" stroke-linejoin="round"/>
<path d="M90.0148 126.015L51.9844 125.583" stroke="#6B7D94" stroke-width="2" stroke-linecap="round" stroke-linejoin="round"/>
<path d="M131.688 122.703C128.347 127.685 120.83 132.149 115.186 133.027C109.008 133.992 103.406 133.791 97.7617 131.127C89.5537 127.224 85.5505 118.483 88.7041 109.959C90.4245 105.735 93.5164 102.214 97.4818 99.9625C101.447 97.7108 106.055 96.8595 110.563 97.5457C114.002 98.0483 117.179 99.6674 119.606 102.154C120.8 103.403 121.683 104.915 122.183 106.569C122.684 108.223 122.788 109.971 122.486 111.672C122.054 113.703 120.398 115.834 118.354 115.474C116.309 115.114 115.474 112.335 114.437 110.319C113.185 108.161 111.169 106.552 108.787 105.811C106.406 105.069 103.833 105.249 101.578 106.315C99.3909 107.518 97.6589 109.404 96.6471 111.685C95.6353 113.966 95.3996 116.516 95.9761 118.944C97.1713 123.783 101.39 125.626 106.286 126.533C108.75 126.923 111.27 126.736 113.649 125.986C116.028 125.236 118.2 123.945 119.995 122.213" stroke="#6B7D94" stroke-width="2" stroke-linecap="round" stroke-linejoin="round"/>
<path d="M53.2807 12.4422C53.0385 12.3917 52.7885 12.3917 52.5463 12.4422C52.259 12.5593 52.0063 12.7476 51.8118 12.9894C50.7493 14.3693 50.1405 16.0446 50.0693 17.7848C50.0693 18.2168 50.0693 18.7785 50.4294 18.9513C50.6294 19.0239 50.8486 19.0239 51.0486 18.9513C52.7767 18.5336 53.9287 16.9064 55.5992 16.2439C56.0347 16.1411 56.4364 15.9278 56.7657 15.6247C57.3273 14.9479 56.2616 14.1846 55.844 13.6806C55.1581 12.9843 54.2525 12.5467 53.2807 12.4422V12.4422Z" fill="#6B7D94"/>
<path d="M80.2652 12.5852C80.5074 12.5347 80.7574 12.5347 80.9996 12.5852C81.2833 12.7019 81.5351 12.8846 81.7341 13.118C82.8225 14.509 83.447 16.2064 83.5197 17.9711C83.5197 18.4031 83.5197 18.9503 83.1597 19.1375C82.9584 19.2025 82.7418 19.2025 82.5405 19.1375C80.8124 18.7055 79.6604 17.0926 77.9899 16.4302C77.5558 16.3158 77.1557 16.0984 76.8234 15.7966C76.2618 15.1341 77.313 14.3565 77.7451 13.8669C78.4076 13.1557 79.3002 12.7017 80.2652 12.5852V12.5852Z" fill="#6B7D94"/>
</svg>
