<svg width="144" height="144" viewBox="0 0 144 144" fill="none" xmlns="http://www.w3.org/2000/svg">
<path d="M47.4819 56.498H24.8906V68.7145H47.4819V56.498Z" fill="#7CC694"/>
<path d="M100.944 62.8535V76.8442H123.682L113.941 62.8535H100.944Z" fill="#F6BD4E"/>
<path d="M100.944 62.8535V76.8442H123.682L113.941 62.8535H100.944Z" stroke="#647891" stroke-width="2" stroke-linecap="round" stroke-linejoin="round"/>
<path d="M36.5002 106.004C41.8797 106.004 46.2406 101.661 46.2406 96.3039C46.2406 90.9465 41.8797 86.6035 36.5002 86.6035C31.1207 86.6035 26.7598 90.9465 26.7598 96.3039C26.7598 101.661 31.1207 106.004 36.5002 106.004Z" stroke="#647891" stroke-width="2" stroke-linecap="round" stroke-linejoin="round"/>
<path d="M36.4996 100.827C39.0079 100.827 41.0413 98.8022 41.0413 96.3042C41.0413 93.8063 39.0079 91.7812 36.4996 91.7812C33.9914 91.7812 31.958 93.8063 31.958 96.3042C31.958 98.8022 33.9914 100.827 36.4996 100.827Z" fill="#F06E61"/>
<path d="M110.685 106.004C116.064 106.004 120.425 101.661 120.425 96.3039C120.425 90.9465 116.064 86.6035 110.685 86.6035C105.305 86.6035 100.944 90.9465 100.944 96.3039C100.944 101.661 105.305 106.004 110.685 106.004Z" stroke="#647891" stroke-width="2" stroke-linecap="round" stroke-linejoin="round"/>
<path d="M110.685 100.827C113.193 100.827 115.227 98.8022 115.227 96.3042C115.227 93.8063 113.193 91.7812 110.685 91.7812C108.177 91.7812 106.144 93.8063 106.144 96.3042C106.144 98.8022 108.177 100.827 110.685 100.827Z" fill="#F06E61"/>
<path d="M8.45996 89.5703L16.6524 96.3039H26.4672" stroke="#647891" stroke-width="2" stroke-linecap="round" stroke-linejoin="round"/>
<path d="M121.403 96.3757H130.633C131.276 96.3776 131.914 96.253 132.509 96.0091C133.104 95.7651 133.645 95.4065 134.101 94.9539C134.557 94.5013 134.919 93.9636 135.166 93.3715C135.412 92.7795 135.539 92.1447 135.539 91.5037V83.6794C135.535 82.7631 135.25 81.87 134.722 81.1198L117.198 56.8179H124.178C131.144 56.8179 130.647 49.8661 130.647 49.8661C130.64 48.7607 130.41 47.6679 129.972 46.6522C129.534 45.6366 128.896 44.7187 128.095 43.9527C127.295 43.1868 126.348 42.5883 125.312 42.1927C124.275 41.797 123.17 41.6122 122.06 41.6492H16.1413C14.1028 41.653 12.149 42.4622 10.7089 43.8991C9.26877 45.336 8.45996 47.2833 8.45996 49.3135V89.5695" stroke="#647891" stroke-width="2" stroke-linecap="round" stroke-linejoin="round"/>
<path d="M47.2188 96.3037H100.273" stroke="#647891" stroke-width="2" stroke-linecap="round" stroke-linejoin="round"/>
<path d="M64.8594 96.3037V56.9785H81.4487V96.3037" stroke="#647891" stroke-width="2" stroke-linecap="round" stroke-linejoin="round"/>
<path d="M46.8387 56.7891H24.6709V68.7873H46.8387V56.7891Z" stroke="#647891" stroke-width="2" stroke-linecap="round" stroke-linejoin="round"/>
<path d="M72.585 41.6496V35.4541H88.9407V41.6496" stroke="#647891" stroke-width="2" stroke-linecap="round" stroke-linejoin="round"/>
<path d="M121.769 56.833H91.9924L91.7588 96.3036" stroke="#647891" stroke-width="2" stroke-linecap="round" stroke-linejoin="round"/>
<path d="M128.136 88.3778C129.563 88.3778 130.72 86.8607 130.72 84.9892C130.72 83.1177 129.563 81.6006 128.136 81.6006C126.708 81.6006 125.551 83.1177 125.551 84.9892C125.551 86.8607 126.708 88.3778 128.136 88.3778Z" stroke="#647891" stroke-width="2" stroke-linecap="round" stroke-linejoin="round"/>
<path d="M10 80L64 80" stroke="#647891" stroke-width="2" stroke-linecap="round" stroke-linejoin="round"/>
<path d="M76.8194 62.5195H69.8828V70.3148H76.8194V62.5195Z" fill="#647891"/>
<path d="M16.0537 107.546H133.977" stroke="#647891" stroke-width="2" stroke-linecap="round" stroke-linejoin="round"/>
</svg>
