<svg width="144" height="144" viewBox="0 0 144 144" fill="none" xmlns="http://www.w3.org/2000/svg">
<path d="M71.9891 38.7837C71.9891 38.7837 59.5942 48.6158 44.3164 45.3322V66.9257C44.3164 78.9839 48.1542 96.8115 71.9891 106.681C95.8607 96.8115 99.6801 78.9839 99.6801 66.9257V45.3322C84.4023 48.6158 71.9891 38.7837 71.9891 38.7837Z" fill="#7CC694"/>
<path d="M72.394 85.6064C72.046 85.6121 71.7011 85.5402 71.3837 85.3959C71.0663 85.2517 70.7843 85.0385 70.5577 84.7716L54.472 64.9962C54.2526 64.7663 54.0827 64.4932 53.9727 64.1939C53.8627 63.8947 53.815 63.5757 53.8327 63.2569C53.8504 62.9382 53.933 62.6265 54.0755 62.3416C54.2179 62.0566 54.4171 61.8044 54.6604 61.6008C54.9038 61.3971 55.1862 61.2465 55.4899 61.1582C55.7936 61.07 56.112 61.046 56.4253 61.0879C56.7386 61.1297 57.04 61.2365 57.3105 61.4014C57.5811 61.5664 57.815 61.786 57.9976 62.0465L72.2471 79.466L102.087 36.6687C102.23 36.3607 102.438 36.0884 102.697 35.8708C102.955 35.6533 103.258 35.4959 103.584 35.4099C103.91 35.3239 104.25 35.3113 104.581 35.373C104.912 35.4347 105.226 35.5692 105.5 35.767C105.774 35.9649 106.001 36.2211 106.166 36.5176C106.331 36.8141 106.429 37.1437 106.454 37.4828C106.479 37.822 106.429 38.1626 106.309 38.4803C106.189 38.798 106.001 39.0852 105.759 39.3215L74.267 84.6232C74.0612 84.9236 73.787 85.1698 73.4675 85.3408C73.1479 85.5119 72.7924 85.603 72.4307 85.6064H72.394Z" fill="white"/>
<path d="M72.3594 125.5C110.682 109.809 116.859 81.4497 116.859 62.259V27.9414C92.2658 33.162 72.3594 17.5 72.3594 17.5" stroke="#6B7D94" stroke-width="2" stroke-linecap="round" stroke-linejoin="round"/>
<path d="M72.3594 125.5C34.0367 109.809 27.8594 81.4497 27.8594 62.259V27.9414C52.453 33.162 72.3594 17.5 72.3594 17.5" stroke="#6B7D94" stroke-width="2" stroke-linecap="round" stroke-linejoin="round"/>
</svg>
