<svg width="144" height="144" viewBox="0 0 144 144" fill="none" xmlns="http://www.w3.org/2000/svg">
<path d="M105.91 79.7969H90.666V94.2921H105.91V79.7969Z" fill="#F6BD4E"/>
<path d="M89.9832 32.4388L47.376 32.0483L84.0127 67.8716L125.806 66.2773L89.9832 32.4388Z" fill="#F06E61"/>
<path d="M37.338 110.008H25.3319C24.7462 110.008 24.2744 109.373 24.2744 108.592V91.3151C24.2744 86.0604 27.4305 81.7817 31.335 81.7817C35.2231 81.7817 38.3792 86.0604 38.3792 91.3151V108.592C38.3792 109.389 37.9237 110.024 37.338 110.024" fill="#F6BD4E"/>
<path d="M24.2744 110.219V91.3151C24.2744 86.0604 27.4305 81.7817 31.335 81.7817C35.2231 81.7817 38.3792 86.0604 38.3792 91.3151V110.431" stroke="#647891" stroke-width="2" stroke-linecap="round" stroke-linejoin="round"/>
<path d="M10.3652 111H132.168" stroke="#647891" stroke-width="2" stroke-linecap="round" stroke-linejoin="round"/>
<path d="M66.7359 79.6504H46.1562V98.1314H66.7359V79.6504Z" stroke="#647891" stroke-width="2" stroke-linecap="round" stroke-linejoin="round"/>
<path d="M56.4541 79.6504V96.8787" stroke="#647891" stroke-width="2" stroke-linecap="round" stroke-linejoin="round"/>
<path d="M98.2812 79.9922V93.8855" stroke="#647891" stroke-width="2" stroke-linecap="round" stroke-linejoin="round"/>
<path d="M66.7522 88.8911H46.1562" stroke="#647891" stroke-width="2" stroke-linecap="round" stroke-linejoin="round"/>
<path d="M17.5723 110.707V62.3408" stroke="#647891" stroke-width="2" stroke-linecap="round" stroke-linejoin="round"/>
<path d="M77.0498 62.064V109.405" stroke="#647891" stroke-width="2" stroke-linecap="round" stroke-linejoin="round"/>
<path d="M47.2946 32H89.5928L125.595 67.2864C125.595 67.2864 83.1342 67.5304 83.2968 67.2864L47.2946 32L11.5039 67.2213" stroke="#647891" stroke-width="2" stroke-linecap="round" stroke-linejoin="round"/>
<path d="M23.4131 54.6295V37.3198H31.8402V46.0235" stroke="#647891" stroke-width="2" stroke-linecap="round" stroke-linejoin="round"/>
<path d="M119.527 68.0513V109.894" stroke="#647891" stroke-width="2" stroke-linecap="round" stroke-linejoin="round"/>
<path d="M42.8701 63.6419V57.6389C42.8701 54.9546 44.5946 52.7583 46.7257 52.7583C48.8407 52.7583 50.5814 54.9546 50.5814 57.6389V63.6419C50.5814 63.6419 42.8701 63.7721 42.8701 63.6419Z" stroke="#647891" stroke-width="2" stroke-linecap="round" stroke-linejoin="round"/>
<path d="M105.91 79.7969H90.666V94.2921H105.91V79.7969Z" stroke="#647891" stroke-width="2" stroke-linecap="round" stroke-linejoin="round"/>
<path d="M125.481 98.7986C130.18 98.7986 133.99 93.6491 133.99 87.2968C133.99 80.9445 130.18 75.7949 125.481 75.7949C120.782 75.7949 116.973 80.9445 116.973 87.2968C116.973 93.6491 120.782 98.7986 125.481 98.7986Z" fill="#7CC694"/>
<path d="M125.481 98.7986C130.18 98.7986 133.99 93.6491 133.99 87.2968C133.99 80.9445 130.18 75.7949 125.481 75.7949C120.782 75.7949 116.973 80.9445 116.973 87.2968C116.973 93.6491 120.782 98.7986 125.481 98.7986Z" stroke="#647891" stroke-width="2" stroke-linecap="round" stroke-linejoin="round"/>
<path d="M125.48 87.2969V110.837" stroke="#647891" stroke-width="2" stroke-linecap="round" stroke-linejoin="round"/>
</svg>
