<svg width="144" height="144" viewBox="0 0 144 144" fill="none" xmlns="http://www.w3.org/2000/svg">
<path d="M68.0984 23.6302L67.9688 14.0537" stroke="#F06E61" stroke-width="2" stroke-linecap="round" stroke-linejoin="round"/>
<path d="M76.4782 23.6312L76.3486 14.0547" stroke="#F06E61" stroke-width="2" stroke-linecap="round" stroke-linejoin="round"/>
<path d="M80.7985 5.12695H64.0225C61.7718 5.12695 59.9473 6.94835 59.9473 9.19515C59.9473 11.442 61.7718 13.2634 64.0225 13.2634H80.7985C83.0491 13.2634 84.8737 11.442 84.8737 9.19515C84.8737 6.94835 83.0491 5.12695 80.7985 5.12695Z" stroke="#F06E61" stroke-width="2" stroke-linecap="round" stroke-linejoin="round"/>
<path d="M71.9995 138.874C103.588 138.874 129.196 113.266 129.196 81.6773C129.196 50.0883 103.588 24.4805 71.9995 24.4805C40.4106 24.4805 14.8027 50.0883 14.8027 81.6773C14.8027 113.266 40.4106 138.874 71.9995 138.874Z" stroke="#6B7D94" stroke-width="2" stroke-linecap="round" stroke-linejoin="round"/>
<path d="M72.0002 129.326C98.3163 129.326 119.65 107.992 119.65 81.676C119.65 55.3598 98.3163 34.0264 72.0002 34.0264C45.684 34.0264 24.3506 55.3598 24.3506 81.676C24.3506 107.992 45.684 129.326 72.0002 129.326Z" stroke="#6B7D94" stroke-width="2" stroke-linecap="round" stroke-linejoin="round"/>
<path d="M25.4453 81.8357L33.1065 81.7637" stroke="#6B7D94" stroke-width="2" stroke-linecap="round" stroke-linejoin="round"/>
<path d="M111.326 81.8357L118.987 81.7637" stroke="#6B7D94" stroke-width="2" stroke-linecap="round" stroke-linejoin="round"/>
<path d="M71.6687 42.8838L71.5967 35.2227" stroke="#6B7D94" stroke-width="2" stroke-linecap="round" stroke-linejoin="round"/>
<path d="M72.446 127.987L72.374 120.326" stroke="#6B7D94" stroke-width="2" stroke-linecap="round" stroke-linejoin="round"/>
<path d="M39.2979 114.842L44.6693 109.384" stroke="#6B7D94" stroke-width="2" stroke-linecap="round" stroke-linejoin="round"/>
<path d="M100.037 54.1149L105.394 48.6426" stroke="#6B7D94" stroke-width="2" stroke-linecap="round" stroke-linejoin="round"/>
<path d="M44.4393 54.6195L38.9814 49.248" stroke="#6B7D94" stroke-width="2" stroke-linecap="round" stroke-linejoin="round"/>
<path d="M105.178 114.25L99.7061 108.879" stroke="#6B7D94" stroke-width="2" stroke-linecap="round" stroke-linejoin="round"/>
<path d="M97.9209 29.3621L99.9658 26.3092C100.15 26.0227 100.392 25.7777 100.676 25.5895C100.96 25.4013 101.28 25.2741 101.616 25.2159C101.951 25.1577 102.295 25.1698 102.626 25.2514C102.957 25.333 103.267 25.4823 103.537 25.6899L113.978 33.7399C114.541 34.193 114.906 34.8467 114.998 35.5637C115.089 36.2807 114.899 37.0052 114.467 37.5849L112.696 39.9466" stroke="#6B7D94" stroke-width="2" stroke-linecap="round" stroke-linejoin="round"/>
<path d="M45.3892 28.9723L43.3443 25.9194C43.1585 25.6325 42.9153 25.3872 42.6301 25.1989C42.3448 25.0106 42.0237 24.8834 41.6869 24.8252C41.3501 24.767 41.0049 24.7792 40.673 24.8609C40.3411 24.9427 40.0298 25.0922 39.7585 25.3002L29.3324 33.3502C28.7626 33.797 28.3885 34.4477 28.2891 35.165C28.1897 35.8823 28.3728 36.6102 28.7996 37.1951L30.5709 39.5569" stroke="#6B7D94" stroke-width="2" stroke-linecap="round" stroke-linejoin="round"/>
<path d="M67.8386 84.514L56.1602 46.3828L76.8529 80.4676L67.8386 84.514Z" fill="#F06E61" stroke="#F06E61" stroke-width="2" stroke-linecap="round" stroke-linejoin="round"/>
<path d="M72.0006 90.9808C77.6074 90.9808 82.1526 86.4353 82.1526 80.8283C82.1526 75.2212 77.6074 70.6758 72.0006 70.6758C66.3938 70.6758 61.8486 75.2212 61.8486 80.8283C61.8486 86.4353 66.3938 90.9808 72.0006 90.9808Z" fill="#F06E61" stroke="#F06E61" stroke-width="2" stroke-linecap="round" stroke-linejoin="round"/>
</svg>
