<svg width="144" height="145" viewBox="0 0 144 145" fill="none" xmlns="http://www.w3.org/2000/svg">
<path d="M102.347 28.1687L23.4424 118.031" stroke="#647891" stroke-width="2" stroke-linecap="round" stroke-linejoin="round"/>
<path d="M81.1586 67.1536C77.4671 67.3293 77.2473 70.076 77.2034 72.0535L77.1372 112.988H99.0643V67.1536H81.1586Z" fill="#F6BD4E" stroke="#647891" stroke-width="2" stroke-linecap="square" stroke-linejoin="round"/>
<path d="M90.5387 77.1274H86.3638C85.6114 77.1274 85.0015 77.7374 85.0015 78.4898V85.9606C85.0015 86.713 85.6114 87.3229 86.3638 87.3229H90.5387C91.2911 87.3229 91.9012 86.713 91.9012 85.9606V78.4898C91.9012 77.7374 91.2911 77.1274 90.5387 77.1274Z" fill="#647891"/>
<path d="M119.126 115.231C121.262 115.231 122.993 113.499 122.993 111.363C122.993 109.228 121.262 107.496 119.126 107.496C116.99 107.496 115.258 109.228 115.258 111.363C115.258 113.499 116.99 115.231 119.126 115.231Z" fill="#647891"/>
<path d="M118.995 120.223C123.837 120.223 127.762 116.298 127.762 111.456C127.762 106.614 123.837 102.689 118.995 102.689C114.153 102.689 110.228 106.614 110.228 111.456C110.228 116.298 114.153 120.223 118.995 120.223Z" stroke="#647891" stroke-width="2" stroke-linecap="square" stroke-linejoin="round"/>
<path d="M61.5313 120.224C66.3733 120.224 70.2985 116.299 70.2985 111.457C70.2985 110.186 70.0281 108.978 69.5416 107.888H53.5211C53.0346 108.978 52.7642 110.186 52.7642 111.457C52.7642 116.299 56.6893 120.224 61.5313 120.224Z" stroke="#647891" stroke-width="2" stroke-linecap="square" stroke-linejoin="round"/>
<path d="M63.9172 108.366C64.7831 109.058 65.346 110.141 65.346 111.331C65.346 113.431 63.6358 115.141 61.536 115.141C59.4362 115.141 57.7261 113.431 57.7261 111.331C57.7261 110.097 58.3106 108.993 59.2197 108.301" fill="#647891"/>
<path d="M42.0439 107.803H77.1352" stroke="#647891" stroke-width="2" stroke-linecap="round" stroke-linejoin="round"/>
<path d="M91.2207 52.2781H128.422C130.192 52.2781 131.703 53.5519 132.006 55.3007L133.301 62.9221C133.668 65.1027 132.005 67.1106 129.782 67.1538H99.2072" stroke="#647891" stroke-width="2" stroke-linecap="round" stroke-linejoin="round"/>
<path d="M99.0601 112.988L110.248 112.988" stroke="#647891" stroke-width="2" stroke-linecap="square" stroke-linejoin="round"/>
<path d="M51.1831 96.7495H77.1337" stroke="#647891" stroke-width="2" stroke-linecap="round" stroke-linejoin="round"/>
<path d="M128.223 113.077H139.166C140.726 113.077 142 111.802 142 110.242V95.5644L120.532 68.0103" stroke="#647891" stroke-width="2" stroke-linecap="round" stroke-linejoin="round"/>
<path d="M108.164 79.1062H120.183L128.753 90.5322H108.164V79.1062Z" fill="#7CC694" stroke="#647891" stroke-width="2" stroke-linecap="square" stroke-linejoin="round"/>
<path d="M140.725 102.462H136.901" stroke="#647891" stroke-width="2" stroke-linecap="round" stroke-linejoin="round"/>
<path d="M58.5556 64.9377L41.2978 65.3075C37.5011 50.9345 27.5903 46.1764 11.8364 46.5955C9.66687 46.6448 8.38487 44.1302 9.79014 42.4291C14.7456 36.4383 30.8199 36.0931 36.1945 37.03C37.7723 37.3012 38.7585 38.3859 38.7585 39.9884C38.7585 43.218 39.2762 46.5462 46.5738 46.4476C54.389 46.349 74.9997 39.9884 84.738 36.9807" stroke="#647891" stroke-width="2" stroke-linecap="round" stroke-linejoin="round"/>
<path d="M33.9262 54.9026L31.0171 58.3048" stroke="#647891" stroke-width="2" stroke-linecap="round" stroke-linejoin="round"/>
<path d="M24.7044 48.739L22.1157 53.2752" stroke="#647891" stroke-width="2" stroke-linecap="round" stroke-linejoin="round"/>
<path d="M43.7886 45.9295C51.2341 44.7708 58.0878 41.7877 64.5718 37.1775C67.2098 35.3038 69.7984 33.1343 72.8062 32.4933C75.814 31.8523 79.3888 33.3316 80.4489 36.8323" stroke="#647891" stroke-width="2" stroke-linecap="round" stroke-linejoin="round"/>
<path d="M47.1985 23.9999L40.2217 24.0522L40.2426 26.838L47.2194 26.7856L47.1985 23.9999Z" fill="#647891" stroke="#647891" stroke-width="2" stroke-linecap="round" stroke-linejoin="round"/>
<path d="M39.7928 25.7622C37.7958 26.7483 36.2919 28.5234 35.2318 30.4957C34.1717 32.4679 33.7772 33.9225 33.1362 36.0673" stroke="#647891" stroke-width="2" stroke-linecap="round" stroke-linejoin="round"/>
<path d="M18.6878 77.9048C22.5275 77.9048 25.6402 74.7921 25.6402 70.9525C25.6402 67.1129 22.5275 64.0002 18.6878 64.0002C14.848 64.0002 11.7354 67.1129 11.7354 70.9525C11.7354 74.7921 14.848 77.9048 18.6878 77.9048Z" fill="#F06E61"/>
<path d="M18.6907 87.6434C27.9087 87.6434 35.3814 80.1709 35.3814 70.9531C35.3814 61.7352 27.9087 54.2627 18.6907 54.2627C9.47268 54.2627 2 61.7352 2 70.9531C2 80.1709 9.47268 87.6434 18.6907 87.6434Z" stroke="#647891" stroke-width="2" stroke-linecap="round" stroke-linejoin="round"/>
</svg>
