<svg width="144" height="144" viewBox="0 0 144 144" fill="none" xmlns="http://www.w3.org/2000/svg">
<path d="M49.5353 115.114C50.1499 116.585 51.3218 117.753 52.7951 118.363C54.2683 118.973 55.9231 118.975 57.3977 118.368L71.9993 112.32L86.6153 118.368C88.0878 118.974 89.7405 118.972 91.2114 118.362C92.6824 117.752 93.8516 116.584 94.4633 115.114L100.511 100.512L115.113 94.4643C116.584 93.8497 117.752 92.6777 118.362 91.2044C118.972 89.7312 118.974 88.0765 118.367 86.6019L112.319 72.0002L118.367 57.3986C118.974 55.924 118.972 54.2693 118.362 52.7961C117.752 51.3228 116.584 50.1508 115.113 49.5362L100.511 43.4882L94.4633 28.8866C93.8516 27.4164 92.6824 26.2485 91.2114 25.6385C89.7405 25.0285 88.0878 25.0263 86.6153 25.6322L71.9993 31.6802L57.3977 25.6322C55.9231 25.0257 54.2683 25.0276 52.7951 25.6374C51.3218 26.2472 50.1499 27.4154 49.5353 28.8866L43.4873 43.4882L28.8857 49.5362C27.4144 50.1508 26.2462 51.3228 25.6364 52.7961C25.0266 54.2693 25.0248 55.924 25.6313 57.3986L31.6793 72.0002L25.6313 86.6019C25.0248 88.0765 25.0266 89.7312 25.6364 91.2044C26.2462 92.6777 27.4144 93.8497 28.8857 94.4643L43.4873 100.512L49.5353 115.114Z" stroke="#6B7D94" stroke-width="2" stroke-linecap="round" stroke-linejoin="round"/>
<path d="M71.9995 96.4805C85.5195 96.4805 96.4795 85.5204 96.4795 72.0005C96.4795 58.4806 85.5195 47.5205 71.9995 47.5205C58.4796 47.5205 47.5195 58.4806 47.5195 72.0005C47.5195 85.5204 58.4796 96.4805 71.9995 96.4805Z" fill="#7CC694"/>
<path fill-rule="evenodd" clip-rule="evenodd" d="M72.3163 80.0784C72.03 80.0794 71.7465 80.021 71.4838 79.907C71.2211 79.793 70.9848 79.6258 70.7899 79.416L60.5515 68.5152C60.1696 68.1085 59.9649 67.5667 59.9825 67.009C60 66.4514 60.2384 65.9235 60.6451 65.5416C61.0519 65.1597 61.5937 64.955 62.1513 64.9726C62.709 64.9901 63.2368 65.2285 63.6187 65.6352L72.2587 74.88L89.9995 55.512C90.3815 55.0996 90.9116 54.8557 91.4733 54.8341C92.035 54.8125 92.5823 55.0149 92.9947 55.3968C93.4072 55.7787 93.6511 56.3088 93.6727 56.8706C93.6943 57.4323 93.4919 57.9795 93.11 58.392L73.8715 79.4016C73.6763 79.6159 73.4383 79.7868 73.1729 79.9033C72.9075 80.0199 72.6206 80.0796 72.3307 80.0784H72.3163Z" fill="white"/>
<path d="M49.5353 115.114C50.1499 116.585 51.3218 117.753 52.7951 118.363C54.2683 118.973 55.9231 118.975 57.3977 118.368L71.9993 112.32L86.6153 118.368C88.0878 118.974 89.7405 118.972 91.2114 118.362C92.6824 117.752 93.8516 116.584 94.4633 115.114L100.511 100.512L115.113 94.4643C116.584 93.8497 117.752 92.6777 118.362 91.2044C118.972 89.7312 118.974 88.0765 118.367 86.6019L112.319 72.0002L118.367 57.3986C118.974 55.924 118.972 54.2693 118.362 52.7961C117.752 51.3228 116.584 50.1508 115.113 49.5362L100.511 43.4882L94.4633 28.8866C93.8516 27.4164 92.6824 26.2485 91.2114 25.6385C89.7405 25.0285 88.0878 25.0263 86.6153 25.6322L71.9993 31.6802L57.3977 25.6322C55.9231 25.0257 54.2683 25.0276 52.7951 25.6374C51.3218 26.2472 50.1499 27.4154 49.5353 28.8866L43.4873 43.4882L28.8857 49.5362C27.4144 50.1508 26.2462 51.3228 25.6364 52.7961C25.0266 54.2693 25.0248 55.924 25.6313 57.3986L31.6793 72.0002L25.6313 86.6019C25.0248 88.0765 25.0266 89.7312 25.6364 91.2044C26.2462 92.6777 27.4144 93.8497 28.8857 94.4643L43.4873 100.512L49.5353 115.114Z" stroke="#6B7D94" stroke-width="2" stroke-linecap="round" stroke-linejoin="round"/>
<path d="M71.9995 96.4805C85.5195 96.4805 96.4795 85.5204 96.4795 72.0005C96.4795 58.4806 85.5195 47.5205 71.9995 47.5205C58.4796 47.5205 47.5195 58.4806 47.5195 72.0005C47.5195 85.5204 58.4796 96.4805 71.9995 96.4805Z" fill="#7CC694"/>
<path fill-rule="evenodd" clip-rule="evenodd" d="M72.3163 80.0784C72.03 80.0794 71.7465 80.021 71.4838 79.907C71.2211 79.793 70.9848 79.6258 70.7899 79.416L60.5515 68.5152C60.1696 68.1085 59.9649 67.5667 59.9825 67.009C60 66.4514 60.2384 65.9235 60.6451 65.5416C61.0519 65.1597 61.5937 64.955 62.1513 64.9726C62.709 64.9901 63.2368 65.2285 63.6187 65.6352L72.2587 74.88L89.9995 55.512C90.3815 55.0996 90.9116 54.8557 91.4733 54.8341C92.035 54.8125 92.5823 55.0149 92.9947 55.3968C93.4072 55.7787 93.6511 56.3088 93.6727 56.8706C93.6943 57.4323 93.4919 57.9795 93.11 58.392L73.8715 79.4016C73.6763 79.6159 73.4383 79.7868 73.1729 79.9033C72.9075 80.0199 72.6206 80.0796 72.3307 80.0784H72.3163Z" fill="white"/>
</svg>
