<svg width="33" height="32" viewBox="0 0 33 32" fill="none" xmlns="http://www.w3.org/2000/svg">
<path d="M28.6875 23.375C27.695 22.375 25.2912 20.9156 24.125 20.3275C22.6062 19.5625 22.4812 19.5 21.2875 20.3869C20.4912 20.9788 19.9619 21.5075 19.03 21.3088C18.0981 21.11 16.0731 19.9894 14.3 18.2219C12.5269 16.4544 11.3412 14.3706 11.1419 13.4419C10.9425 12.5131 11.48 11.99 12.0662 11.1919C12.8925 10.0669 12.83 9.87938 12.1237 8.36063C11.5731 7.17938 10.0712 4.79813 9.06749 3.81063C7.99374 2.75 7.99374 2.9375 7.30187 3.225C6.7386 3.46199 6.19822 3.75007 5.68749 4.08563C4.68749 4.75 4.13249 5.30188 3.74437 6.13125C3.35624 6.96063 3.18187 8.905 5.18624 12.5463C7.19062 16.1875 8.59687 18.0494 11.5075 20.9519C14.4181 23.8544 16.6562 25.415 19.9281 27.25C23.9756 29.5169 25.5281 29.075 26.36 28.6875C27.1919 28.3 27.7462 27.75 28.4119 26.75C28.7483 26.2401 29.037 25.7004 29.2744 25.1375C29.5625 24.4481 29.75 24.4481 28.6875 23.375Z" stroke="#4A6382" stroke-miterlimit="10"/>
</svg>
