<svg width="33" height="32" viewBox="0 0 33 32" fill="none" xmlns="http://www.w3.org/2000/svg">
<path d="M26.5 13.8281V26C26.5 26.7956 26.1839 27.5587 25.6213 28.1213C25.0587 28.6839 24.2956 29 23.5 29H9.5C8.70435 29 7.94129 28.6839 7.37868 28.1213C6.81607 27.5587 6.5 26.7956 6.5 26V6C6.5 5.20435 6.81607 4.44129 7.37868 3.87868C7.94129 3.31607 8.70435 3 9.5 3H15.6719C16.2021 3.00008 16.7106 3.21072 17.0856 3.58562L25.9144 12.4144C26.2893 12.7894 26.4999 13.2979 26.5 13.8281Z" stroke="#4A6382" stroke-linejoin="round"/>
<path d="M16.5 3.5V11C16.5 11.5304 16.7107 12.0391 17.0858 12.4142C17.4609 12.7893 17.9696 13 18.5 13H26M11.5 18H21.5M11.5 23H21.5" stroke="#4A6382" stroke-linecap="round" stroke-linejoin="round"/>
</svg>
