<svg width="33" height="32" viewBox="0 0 33 32" fill="none" xmlns="http://www.w3.org/2000/svg">
<path d="M16.5 3C11.5312 3 7.5 6.83687 7.5 11.5625C7.5 17 13.5 25.6169 15.7031 28.5931C15.7946 28.7188 15.9144 28.821 16.0529 28.8915C16.1914 28.962 16.3446 28.9987 16.5 28.9987C16.6554 28.9987 16.8086 28.962 16.9471 28.8915C17.0856 28.821 17.2054 28.7188 17.2969 28.5931C19.5 25.6181 25.5 17.0044 25.5 11.5625C25.5 6.83687 21.4688 3 16.5 3Z" stroke="#4A6382" stroke-linecap="round" stroke-linejoin="round"/>
<path d="M16.5 15C18.1569 15 19.5 13.6569 19.5 12C19.5 10.3431 18.1569 9 16.5 9C14.8431 9 13.5 10.3431 13.5 12C13.5 13.6569 14.8431 15 16.5 15Z" stroke="#4A6382" stroke-linecap="round" stroke-linejoin="round"/>
</svg>
