<svg width="33" height="32" viewBox="0 0 33 32" fill="none" xmlns="http://www.w3.org/2000/svg">
<path d="M23.8921 13.2427V10.7731C23.8921 6.75627 20.6358 3.5 16.619 3.5H16.3825C12.3656 3.5 9.10938 6.75627 9.10938 10.7731V13.2427" stroke="#4A6382"/>
<path d="M26.7464 13.9486C24.5735 13.1867 20.2976 12 16.5003 12C12.7069 12 8.43593 13.1843 6.26093 13.9463C5.79974 14.1078 5.50195 14.5545 5.50195 15.0511V26.9576C5.50195 27.4034 5.74134 27.815 6.14469 27.9886C8.18533 28.8671 12.4087 30 16.5003 30C20.5971 30 24.8258 28.8643 26.8635 27.9853C27.2627 27.8131 27.4987 27.4112 27.4987 26.9765V15.0311C27.4987 14.546 27.2042 14.1091 26.7464 13.9486Z" stroke="#4A6382"/>
<path d="M17.9285 21.1704L17.69 20.731L17.4285 20.8729V21.1704H17.9285ZM15.0705 21.1708H15.5705V20.8732L15.3089 20.7313L15.0705 21.1708ZM19 18.5312C19 19.4804 18.4713 20.3069 17.69 20.731L18.167 21.6099C19.2577 21.0179 20 19.8616 20 18.5312H19ZM16.4991 16.0303C17.8803 16.0303 19 17.15 19 18.5312H20C20 16.5977 18.4326 15.0303 16.4991 15.0303V16.0303ZM13.9982 18.5312C13.9982 17.15 15.1179 16.0303 16.4991 16.0303V15.0303C14.5656 15.0303 12.9982 16.5977 12.9982 18.5312H13.9982ZM15.3089 20.7313C14.5272 20.3073 13.9982 19.4807 13.9982 18.5312H12.9982C12.9982 19.8619 13.741 21.0185 14.8321 21.6103L15.3089 20.7313ZM15.5705 25.3908V21.1708H14.5705V25.3908H15.5705ZM16.4995 26.3198C15.9864 26.3198 15.5705 25.9038 15.5705 25.3908H14.5705C14.5705 26.4561 15.4341 27.3198 16.4995 27.3198V26.3198ZM17.4285 25.3908C17.4285 25.9038 17.0126 26.3198 16.4995 26.3198V27.3198C17.5648 27.3198 18.4285 26.4561 18.4285 25.3908H17.4285ZM17.4285 21.1704V25.3908H18.4285V21.1704H17.4285Z" fill="#4A6382"/>
</svg>
