<svg width="33" height="32" viewBox="0 0 33 32" fill="none" xmlns="http://www.w3.org/2000/svg">
<path d="M12.5 28H20.5M24.5 13V15C24.5 19.4 20.9 23 16.5 23C12.1 23 8.5 19.4 8.5 15V13M16.5 23V28" stroke="#4A6382" stroke-linecap="round" stroke-linejoin="round"/>
<path d="M16.5 4.00005C15.974 3.9974 15.4526 4.09905 14.9661 4.29913C14.4796 4.49921 14.0376 4.79375 13.6657 5.16572C13.2937 5.53768 12.9992 5.97969 12.7991 6.46619C12.599 6.95269 12.4974 7.47402 12.5 8.00005V14.9376C12.5 17.1376 14.3125 19.0001 16.5 19.0001C18.6875 19.0001 20.5 17.1876 20.5 14.9376V8.00005C20.5 5.75005 18.75 4.00005 16.5 4.00005Z" stroke="#4A6382" stroke-linecap="round" stroke-linejoin="round"/>
</svg>
