<svg width="33" height="32" viewBox="0 0 33 32" fill="none" xmlns="http://www.w3.org/2000/svg">
<circle cx="16.5" cy="16" r="12.5" stroke="#4A6382"/>
<path d="M18.5 16C18.5 14.9167 17.5833 14 16.5 14C15.375 14 14.5 14.9167 14.5 16C14.5 17.125 15.375 18 16.5 18C17.5833 18 18.5 17.125 18.5 16ZM23.5 14C22.375 14 21.5 14.9167 21.5 16C21.5 17.125 22.375 18 23.5 18C24.5833 18 25.5 17.125 25.5 16C25.5 14.9167 24.5833 14 23.5 14ZM9.5 14C8.375 14 7.5 14.9167 7.5 16C7.5 17.125 8.375 18 9.5 18C10.5833 18 11.5 17.125 11.5 16C11.5 14.9167 10.5833 14 9.5 14Z" fill="#4A6382"/>
</svg>
