<svg width="33" height="32" viewBox="0 0 33 32" fill="none" xmlns="http://www.w3.org/2000/svg">
<path d="M8.99981 4.77516C11.2199 3.29176 13.83 2.5 16.5 2.5C20.0804 2.5 23.5142 3.92232 26.0459 6.45406C28.5777 8.9858 30 12.4196 30 16C30 18.67 29.2082 21.2801 27.7248 23.5002C26.2414 25.7203 24.133 27.4506 21.6662 28.4724C19.1994 29.4941 16.485 29.7615 13.8663 29.2406C11.2475 28.7197 8.84207 27.4339 6.95406 25.5459C5.06606 23.6579 3.78031 21.2525 3.2594 18.6337C2.7385 16.015 3.00585 13.3006 4.02763 10.8338C5.04942 8.36697 6.77974 6.25856 8.99981 4.77516Z" stroke="#4A6382" stroke-miterlimit="10"/>
<path d="M12.4062 12.0763C12.4062 12.0763 12.4686 10.7775 13.8587 9.65898C14.6833 8.99472 15.6719 8.8025 16.5625 8.78914C17.3737 8.77875 18.0981 8.91308 18.5315 9.11941C19.2737 9.47269 20.7188 10.3351 20.7188 12.1691C20.7188 14.0987 19.457 14.9753 18.0194 15.9394C16.5818 16.9035 16.1914 17.95 16.1914 19.0313" stroke="#4A6382" stroke-miterlimit="10" stroke-linecap="round"/>
<path d="M17.1016 22.8906C17.1016 23.4343 16.6608 23.875 16.1172 23.875C15.5735 23.875 15.1328 23.4343 15.1328 22.8906C15.1328 22.347 15.5735 21.9062 16.1172 21.9062C16.6608 21.9062 17.1016 22.347 17.1016 22.8906Z" fill="#4A6382" stroke="#4A6382"/>
</svg>
