<svg width="33" height="32" viewBox="0 0 33 32" fill="none" xmlns="http://www.w3.org/2000/svg">
<path d="M24.4345 11C25.4151 19.3923 15.1634 24.4178 10.2394 17.9867C9.08484 16.4851 8.47494 14.0025 8.50096 12" stroke="#4A6382" stroke-width="0.9375" stroke-linecap="round" stroke-linejoin="round"/>
<path d="M8.33764 12C6.77839 13.2035 7.22812 15.5895 9.20047 16" stroke="#4A6382" stroke-width="0.9375" stroke-linecap="round" stroke-linejoin="round"/>
<path d="M24.7617 12C26.321 13.2035 25.8712 15.5895 23.8989 16" stroke="#4A6382" stroke-width="0.9375" stroke-linecap="round" stroke-linejoin="round"/>
<path d="M24.4759 11C24.5778 9.68503 24.5369 5.6627 20.5343 3.81249C15.7112 1.58302 12.1814 3.79437 12.1814 3.79437C8.51187 5.94033 8.33406 9.20366 8.56888 11C8.6249 11.4285 8.70439 11.7735 8.76557 12" stroke="#4A6382" stroke-width="0.9375" stroke-linecap="round" stroke-linejoin="round"/>
<path d="M4.05784 28.7733C5.26438 26.6895 6.79104 25.1308 10.2948 23.5478C10.3277 23.5628 10.3623 23.5786 10.3985 23.5952C11.4193 24.0626 13.7184 25.1154 16.5 25.1154C19.2816 25.1154 21.5807 24.0626 22.6015 23.5952C22.6377 23.5786 22.6723 23.5628 22.7052 23.5478C26.209 25.1308 27.7356 26.6895 28.9422 28.7733C29.031 28.9268 29.0148 29.0801 28.9102 29.2196C28.7983 29.3688 28.5775 29.5 28.2805 29.5H16.5003H4.71954C4.42247 29.5 4.20171 29.3688 4.08978 29.2196C3.98515 29.0801 3.96896 28.9268 4.05784 28.7733Z" stroke="#4A6382" stroke-linecap="round" stroke-linejoin="round"/>
<path d="M13.0363 6C13.7312 7.16108 13.6427 8.41828 12.7865 9.54724C11.9685 10.625 10.4407 11.4992 8.5 12M13 6C13 6 15.2816 12.2084 24.5 10.7891" stroke="#4A6382" stroke-width="0.9375" stroke-linecap="round" stroke-linejoin="round"/>
<path d="M13.5004 20.5C13.2825 21.7373 12.5 23 11.5 23.5M19.5 20.5C19.7179 21.7373 20.5004 23 21.5004 23.5" stroke="#4A6382" stroke-width="0.9375" stroke-linecap="round" stroke-linejoin="round"/>
<path d="M18.5 16C17.7721 17.1159 15.5345 17.5344 14.5 16" stroke="#4A6382" stroke-width="0.9375" stroke-linecap="round" stroke-linejoin="round"/>
</svg>
