<svg width="33" height="32" viewBox="0 0 33 32" fill="none" xmlns="http://www.w3.org/2000/svg">
<path d="M29.9221 28.4917C29.9724 28.7785 29.9128 29.0302 29.8036 29.1943C29.7033 29.345 29.553 29.44 29.3325 29.44H3.6668C3.44683 29.44 3.29676 29.3452 3.19642 29.1944C3.0872 29.0303 3.02769 28.7785 3.07799 28.4917L3.07799 28.4917C3.64172 25.2766 5.46646 23.0606 7.92422 21.6336C10.3979 20.1974 13.5197 19.56 16.6238 19.56C19.7275 19.56 22.7847 20.1973 25.1942 21.6306C27.587 23.0541 29.3566 25.2688 29.9221 28.4917ZM29.9221 28.4917L30.4736 28.395L29.9221 28.4917ZM22.4818 9.46138C22.347 11.4091 21.5903 13.1689 20.5033 14.434C19.414 15.7018 18.0258 16.44 16.6238 16.44C15.2216 16.44 13.8321 15.7018 12.7422 14.4342C11.6547 13.1692 10.8981 11.4097 10.7658 9.46208C10.4932 5.44618 13.1244 2.55998 16.6238 2.55998C20.1196 2.55998 22.7542 5.52047 22.4818 9.46138Z" stroke="#4A6382" stroke-width="1.11996" stroke-miterlimit="10"/>
</svg>
