<svg width="33" height="32" viewBox="0 0 33 32" fill="none" xmlns="http://www.w3.org/2000/svg">
<path d="M24.5 20.0001C25.1087 18.787 25.5 17.4495 25.5 16.0001C25.5 14.5307 25.125 13.2251 24.5 12.0001M12.3531 12.0001H8C7.86739 12.0001 7.74019 12.0528 7.64642 12.1465C7.55266 12.2403 7.5 12.3675 7.5 12.5001V19.5001C7.5 19.6327 7.55266 19.7599 7.64642 19.8536C7.74019 19.9474 7.86739 20.0001 8 20.0001H12.3531C12.5843 20.0002 12.8082 20.0804 12.9869 20.227L18.7037 24.9145C18.7783 24.9693 18.8666 25.0024 18.9588 25.01C19.051 25.0176 19.1436 24.9995 19.2261 24.9576C19.3087 24.9158 19.378 24.8518 19.4263 24.7729C19.4747 24.694 19.5002 24.6033 19.5 24.5107V7.48946C19.4999 7.39703 19.4743 7.30641 19.4258 7.22769C19.3774 7.14897 19.3081 7.08522 19.2256 7.04352C19.1431 7.00182 19.0506 6.9838 18.9585 6.99147C18.8664 6.99914 18.7782 7.03219 18.7037 7.08696L12.9869 11.7745C12.808 11.9206 12.5841 12.0003 12.3531 12.0001Z" stroke="#4A6382" stroke-linecap="round" stroke-linejoin="round"/>
</svg>
