<svg width="32" height="32" viewBox="0 0 32 32" fill="none" xmlns="http://www.w3.org/2000/svg">
<path fill-rule="evenodd" clip-rule="evenodd" d="M20.3011 4.8C20.3011 6.3464 19.0475 7.60001 17.5011 7.60001C15.9547 7.60001 14.7011 6.3464 14.7011 4.8C14.7011 3.2536 15.9547 2 17.5011 2C19.0475 2 20.3011 3.2536 20.3011 4.8ZM10.5002 13.678C7.2377 14.8312 4.90024 17.9426 4.90024 21.6001C4.90024 26.2393 8.66103 30.0001 13.3002 30.0001C16.9577 30.0001 20.0692 27.6626 21.2223 24.4001H18.1511C17.1828 26.0739 15.3731 27.2001 13.3002 27.2001C10.2075 27.2001 7.70024 24.6931 7.70024 21.6001C7.70024 19.5271 8.82642 17.7177 10.5002 16.7493V13.678ZM15.6372 10.3999C14.3475 10.3999 13.302 11.4454 13.302 12.7351V19.2647C13.302 20.5544 14.3475 21.5999 15.6372 21.5999H22.5103L25.902 27.4744L28.3269 26.0744L24.6344 19.679C24.5466 19.527 24.4366 19.389 24.3079 19.2695C23.9827 18.9677 23.5554 18.7999 23.1117 18.7999H20.302V12.7351C20.302 11.4454 19.2565 10.3999 17.9668 10.3999H15.6372Z" fill="#4A6382"/>
</svg>
