<svg width="32" height="32" viewBox="0 0 32 32" fill="none" xmlns="http://www.w3.org/2000/svg">
<path d="M16 2C8.28048 2 2 8.28048 2 16C2 23.7195 8.28048 30 16 30C23.7195 30 30 23.7195 30 16C30 8.28048 23.7195 2 16 2ZM16 23.5324C15.7338 23.5324 15.4735 23.4535 15.2521 23.3055C15.0307 23.1576 14.8582 22.9474 14.7563 22.7014C14.6544 22.4554 14.6278 22.1848 14.6797 21.9236C14.7317 21.6625 14.8599 21.4226 15.0481 21.2344C15.2364 21.0461 15.4763 20.9179 15.7374 20.866C15.9985 20.814 16.2692 20.8407 16.5152 20.9426C16.7611 21.0445 16.9714 21.217 17.1193 21.4384C17.2672 21.6597 17.3462 21.92 17.3462 22.1863C17.3462 22.5433 17.2043 22.8857 16.9519 23.1381C16.6994 23.3906 16.357 23.5324 16 23.5324ZM17.4619 9.99346L17.0756 18.205C17.0756 18.4906 16.9621 18.7645 16.7602 18.9665C16.5582 19.1685 16.2843 19.2819 15.9987 19.2819C15.713 19.2819 15.4391 19.1685 15.2372 18.9665C15.0352 18.7645 14.9217 18.4906 14.9217 18.205L14.5354 9.9975V9.99414C14.5269 9.79687 14.5585 9.59994 14.6281 9.41519C14.6978 9.23044 14.8041 9.0617 14.9407 8.91912C15.0773 8.77655 15.2413 8.66309 15.4229 8.58558C15.6045 8.50807 15.7999 8.46811 15.9973 8.46811C16.1948 8.46811 16.3902 8.50807 16.5717 8.58558C16.7533 8.66309 16.9174 8.77655 17.0539 8.91912C17.1905 9.0617 17.2969 9.23044 17.3665 9.41519C17.4362 9.59994 17.4677 9.79687 17.4592 9.99414L17.4619 9.99346Z" fill="#4A6382"/>
</svg>
