<svg width="144" height="144" viewBox="0 0 144 144" fill="none" xmlns="http://www.w3.org/2000/svg">
<path d="M40.3979 85.6803V80.8744C40.3979 76.4763 36.7979 72.8763 32.3999 72.8763C28.0019 72.8763 24.4019 76.4763 24.4019 80.8744V86.1059C24.4019 86.1059 28.2856 87.897 28.5693 87.897C28.8531 87.897 31.3713 88.0389 31.5841 88.0389C31.7969 88.0389 35.2373 87.897 35.2373 87.897L37.3831 87.5424L40.3802 85.6803H40.3979Z" fill="#F06E61"/>
<path d="M32.3999 88.1099C42.341 88.1099 50.3999 80.051 50.3999 70.1099C50.3999 60.1688 42.341 52.1099 32.3999 52.1099C22.4588 52.1099 14.3999 60.1688 14.3999 70.1099C14.3999 80.051 22.4588 88.1099 32.3999 88.1099Z" stroke="#647891" stroke-width="2" stroke-linecap="round" stroke-linejoin="round"/>
<path d="M32.2048 72.6105C35.3781 72.6105 37.9506 70.0381 37.9506 66.8647C37.9506 63.6914 35.3781 61.1189 32.2048 61.1189C29.0315 61.1189 26.459 63.6914 26.459 66.8647C26.459 70.0381 29.0315 72.6105 32.2048 72.6105Z" stroke="#647891" stroke-width="2" stroke-linecap="round" stroke-linejoin="round"/>
<path d="M40.3979 85.6803V80.8744C40.3979 76.4763 36.7979 72.8763 32.3999 72.8763C28.0019 72.8763 24.4019 76.4763 24.4019 80.8744V86.1059" stroke="#647891" stroke-width="2" stroke-linecap="round" stroke-linejoin="round"/>
<path d="M119.598 85.6803V80.8744C119.598 76.4763 115.998 72.8763 111.6 72.8763C107.202 72.8763 103.602 76.4763 103.602 80.8744V86.1059C103.602 86.1059 107.486 87.897 107.77 87.897C108.053 87.897 110.572 88.0389 110.784 88.0389C110.997 88.0389 114.438 87.897 114.438 87.897L116.583 87.5424L119.58 85.6803H119.598Z" fill="#F6BD4E"/>
<path d="M111.6 88.1099C121.541 88.1099 129.6 80.051 129.6 70.1099C129.6 60.1688 121.541 52.1099 111.6 52.1099C101.659 52.1099 93.6001 60.1688 93.6001 70.1099C93.6001 80.051 101.659 88.1099 111.6 88.1099Z" stroke="#647891" stroke-width="2" stroke-linecap="round" stroke-linejoin="round"/>
<path d="M111.405 72.6105C114.578 72.6105 117.151 70.0381 117.151 66.8647C117.151 63.6914 114.578 61.1189 111.405 61.1189C108.232 61.1189 105.659 63.6914 105.659 66.8647C105.659 70.0381 108.232 72.6105 111.405 72.6105Z" stroke="#647891" stroke-width="2" stroke-linecap="round" stroke-linejoin="round"/>
<path d="M119.598 85.6803V80.8744C119.598 76.4763 115.998 72.8763 111.6 72.8763C107.202 72.8763 103.602 76.4763 103.602 80.8744V86.1059" stroke="#647891" stroke-width="2" stroke-linecap="round" stroke-linejoin="round"/>
<path d="M74.66 90.6625C81.3185 85.9563 87.7789 80.8173 87.7789 71.0624C87.7789 61.3074 81.3185 56.1685 74.66 51.4623C80.9045 47.0446 86.9691 42.2302 87.7069 33.5932C82.9381 31.6819 77.7553 30.6 72.3026 30.6C67.1378 30.6 62.207 31.5557 57.6541 33.2867C58.2659 42.122 64.4025 46.9905 70.719 51.4623C64.0606 56.1685 57.6001 61.3254 57.6001 71.0624C57.6001 80.7993 64.0606 85.9563 70.719 90.6625C64.0606 95.3687 57.6001 100.508 57.6001 110.263C57.6001 110.443 57.6541 110.605 57.7081 110.749C62.243 112.462 67.1558 113.4 72.2846 113.4C76.9995 113.4 81.5164 112.607 85.7274 111.146L85.8354 111.056C85.8354 111.056 85.8714 111.074 85.8894 111.092C86.5192 110.876 87.1311 110.641 87.7429 110.389C87.7429 110.335 87.7789 110.299 87.7789 110.245C87.7789 100.49 81.3185 95.3506 74.66 90.6444V90.6625Z" fill="#7CC694"/>
<path d="M57.6001 71.0622H86.4001" stroke="#647891" stroke-width="2" stroke-linejoin="round"/>
<path d="M59.3999 40.4811H84.5999" stroke="#647891" stroke-width="2" stroke-linejoin="round"/>
<path d="M59.3999 102.563H84.5999" stroke="#647891" stroke-width="2" stroke-linejoin="round"/>
<path d="M59.3999 62.0648H84.5999" stroke="#647891" stroke-width="2" stroke-linejoin="round"/>
<path d="M61.2002 80.9587L82.8002 81" stroke="#647891" stroke-width="2" stroke-linejoin="round"/>
<path d="M57.6001 110.524C57.6001 90.8576 86.4001 90.8576 86.4001 71.191C86.4001 51.9586 58.8442 51.5244 57.6372 33.1242" stroke="#647891" stroke-width="2" stroke-linecap="round" stroke-linejoin="round"/>
<path d="M86.4001 110.524C86.4001 90.8576 57.6001 90.8576 57.6001 71.191C57.6001 51.9586 85.156 51.5244 86.363 33.1242" stroke="#647891" stroke-width="2" stroke-linecap="round" stroke-linejoin="round"/>
<path d="M109.8 88.8052C103.376 103.302 88.8712 113.4 72.0272 113.4C55.1832 113.4 40.6067 103.248 34.2002 88.697" stroke="#647891" stroke-width="2" stroke-linecap="round" stroke-linejoin="round"/>
<path d="M35.9819 51.7328C43.0722 39.1288 56.551 30.6 72.0273 30.6C87.5037 30.6 101.018 39.1469 108.091 51.7869" stroke="#647891" stroke-width="2" stroke-linecap="round" stroke-linejoin="round"/>
</svg>
