<svg width="144" height="144" viewBox="0 0 144 144" fill="none" xmlns="http://www.w3.org/2000/svg">
<path d="M116.41 95.9469H27.5909C26.2847 95.9469 25.0321 95.428 24.1085 94.5044C23.1849 93.5809 22.6661 92.3282 22.6661 91.0221V91.0221V74.3757C22.6576 72.1114 23.3948 69.9073 24.7638 68.1037C26.1327 66.3001 28.0574 64.9973 30.2405 64.3965C37.4405 62.4957 50.4005 60.3213 72.0005 60.3213C93.6005 60.3213 106.56 62.4957 113.76 64.3965C115.952 64.9893 117.886 66.2887 119.263 68.093C120.641 69.8973 121.384 72.1058 121.378 74.3757V91.0221C121.378 91.6725 121.249 92.3164 120.999 92.9168C120.749 93.5171 120.382 94.0619 119.92 94.5198C119.459 94.9777 118.91 95.3395 118.308 95.5845C117.705 95.8294 117.06 95.9526 116.41 95.9469Z" stroke="#6B7D94" stroke-width="2" stroke-linecap="round" stroke-linejoin="round"/>
<path d="M44.6402 95.9468V109.642C44.6402 110.369 44.3524 111.066 43.8397 111.582C43.3269 112.097 42.631 112.389 41.904 112.392H30.8875C30.1605 112.389 29.4646 112.097 28.9519 111.582C28.4392 111.066 28.1514 110.369 28.1514 109.642V95.9468" stroke="#6B7D94" stroke-width="2" stroke-linecap="round" stroke-linejoin="round"/>
<path d="M115.849 95.9468V109.642C115.849 110.369 115.561 111.066 115.049 111.582C114.536 112.097 113.84 112.389 113.113 112.392H102.14C101.776 112.396 101.415 112.328 101.078 112.191C100.741 112.055 100.435 111.853 100.176 111.597C99.9176 111.341 99.7125 111.037 99.5724 110.701C99.4324 110.366 99.3603 110.005 99.3604 109.642V95.9468" stroke="#6B7D94" stroke-width="2" stroke-linecap="round" stroke-linejoin="round"/>
<path d="M44.6411 78.1345C44.6411 79.4903 44.2391 80.8156 43.4859 81.9428C42.7327 83.0701 41.6621 83.9487 40.4096 84.4675C39.157 84.9863 37.7788 85.122 36.4491 84.8575C35.1194 84.5931 33.898 83.9402 32.9393 82.9816C31.9807 82.0229 31.3278 80.8015 31.0634 79.4718C30.7989 78.1421 30.9346 76.7639 31.4534 75.5113C31.9722 74.2588 32.8508 73.1882 33.9781 72.435C35.1053 71.6818 36.4306 71.2798 37.7864 71.2798V71.2798C39.6044 71.2798 41.3479 72.002 42.6334 73.2875C43.9189 74.573 44.6411 76.3165 44.6411 78.1345Z" fill="#F6BD4E"/>
<path d="M113.113 78.1345C113.113 79.4903 112.711 80.8156 111.958 81.9428C111.204 83.0701 110.134 83.9487 108.881 84.4675C107.629 84.9863 106.25 85.122 104.921 84.8575C103.591 84.5931 102.37 83.9402 101.411 82.9816C100.452 82.0229 99.7995 80.8015 99.535 79.4718C99.2705 78.1421 99.4063 76.7639 99.9251 75.5113C100.444 74.2588 101.323 73.1882 102.45 72.435C103.577 71.6818 104.902 71.2798 106.258 71.2798C108.076 71.2798 109.82 72.002 111.105 73.2875C112.391 74.573 113.113 76.3165 113.113 78.1345V78.1345Z" fill="#F6BD4E"/>
<path d="M57.8164 73.0664H86.1844L84.946 83.1469H59.0404L57.8164 73.0664Z" stroke="#6B7D94" stroke-width="2" stroke-linecap="round" stroke-linejoin="round"/>
<path d="M33.5234 62.6834L40.5362 36.4754C40.9289 35.0913 41.7634 33.8735 42.9125 33.0078C44.0616 32.1421 45.4623 31.6758 46.901 31.6802H97.0994C98.5488 31.6819 99.9576 32.1588 101.11 33.038C102.262 33.9171 103.094 35.15 103.479 36.5474L109.757 63.1874" stroke="#6B7D94" stroke-width="2" stroke-linecap="round" stroke-linejoin="round"/>
</svg>
