<svg width="32" height="32" viewBox="0 0 32 32" fill="none" xmlns="http://www.w3.org/2000/svg">
<path fill-rule="evenodd" clip-rule="evenodd" d="M8.99902 29.7004V6.3264C8.99902 6.2211 9.05422 6.12352 9.14446 6.06928L15.8443 2.0419C15.9394 1.98473 16.0583 1.98473 16.1534 2.0419L22.8533 6.06928C22.9435 6.12352 22.9987 6.22111 22.9987 6.3264V29.7004C22.9987 29.8661 22.8644 30.0004 22.6987 30.0004H9.29902C9.13334 30.0004 8.99902 29.8661 8.99902 29.7004ZM11.7986 7.55956H14.5985V10.3647H11.7986V7.55956ZM11.7986 13.1702H14.5985V15.9753H11.7986V13.1702ZM14.5985 18.7798H11.7986V21.5849H14.5985V18.7798ZM11.7986 24.3904H14.5985V27.1956H11.7986V24.3904ZM20.1985 7.55956H17.3985V10.3647H20.1985V7.55956ZM17.3985 13.1702H20.1985V15.9753H17.3985V13.1702ZM20.1985 18.7798H17.3985V21.5849H20.1985V18.7798ZM17.3985 24.3904H20.1985V27.1956H17.3985V24.3904Z" fill="#4A6382"/>
<path fill-rule="evenodd" clip-rule="evenodd" d="M24.7004 10.3638H29.7003C29.866 10.3638 30.0003 10.4981 30.0003 10.6638V28.9997C30.0003 29.552 29.5526 29.9997 29.0003 29.9997H24.7004C24.5347 29.9997 24.4004 29.8654 24.4004 29.6997V10.6638C24.4004 10.4981 24.5347 10.3638 24.7004 10.3638ZM28.6003 13.169H25.8003V15.9742H28.6003V13.169ZM28.6003 18.7796H25.8003V21.5848H28.6003V18.7796ZM25.8003 24.3893H28.6003V27.1944H25.8003V24.3893Z" fill="#4A6382"/>
<path fill-rule="evenodd" clip-rule="evenodd" d="M7.29961 10.3638H2.29973C2.13405 10.3638 1.99973 10.4981 1.99973 10.6638V28.9997C1.99973 29.552 2.44745 29.9997 2.99973 29.9997H7.29961C7.46529 29.9997 7.59961 29.8654 7.59961 29.6997V10.6638C7.59961 10.4981 7.46529 10.3638 7.29961 10.3638ZM3.40045 13.169H6.20039V15.9742H3.40045V13.169ZM3.40045 18.7796H6.20039V21.5848H3.40045V18.7796ZM6.20039 24.3893H3.40045V27.1944H6.20039V24.3893Z" fill="#4A6382"/>
</svg>
