<svg width="32" height="32" viewBox="0 0 32 32" fill="none" xmlns="http://www.w3.org/2000/svg">
<path d="M22.1609 5.4711C22.1609 3.55775 20.933 2 19.4297 2C18.9063 2 18.3977 2.18724 17.9587 2.54444L16.8361 3.45076C16.2917 3.8945 15.5822 3.8945 15.0364 3.45076L13.9139 2.54444C13.4761 2.18883 12.9688 2 12.4441 2C10.9408 2 9.71289 3.55775 9.71289 5.4711V10.4055C10.56 10.8146 13.28 12.0231 15.9678 12.0231C18.6246 12.0231 21.3187 10.8209 22.1595 10.4055L22.1609 5.4711Z" fill="#4A6382"/>
<path d="M9.71302 9.75811V11.7054C9.71302 11.9113 9.83458 12.1023 10.0256 12.1867C10.1422 12.24 12.9093 13.4406 15.963 13.4406C18.7413 13.4406 21.7045 12.245 21.8321 12.1916C22.033 12.1122 22.1608 11.9163 22.1608 11.7042V9.75684C20.9912 10.1798 18.4982 10.9587 15.9691 10.9587C13.4004 10.96 10.8874 10.1823 9.71289 9.75811H9.71302Z" fill="#4A6382"/>
<path d="M24.1449 8.94504C24.0807 8.9505 24.0165 8.96279 23.9523 8.96825V12.1091C23.9523 12.8315 23.5208 13.4665 22.8517 13.7286C22.8394 13.7341 19.338 15.1857 15.9652 15.1857C12.2658 15.1857 8.979 13.7177 8.94474 13.7C8.32751 13.4255 7.9192 12.7973 7.9192 12.1091V8.96825C7.85502 8.96279 7.79083 8.9505 7.72665 8.94504C4.71419 8.56678 2.902 8.34556 2.10459 9.05018C1.8424 9.2837 1.70312 9.59778 1.70312 9.96512C1.70312 12.2429 8.16489 18.2909 15.9366 18.2909C23.7026 18.2909 30.1644 12.2427 30.1644 9.96512C30.1644 9.59778 30.0306 9.28371 29.7684 9.05018C28.9695 8.34419 27.1506 8.56541 24.1449 8.94504H24.1449Z" fill="#4A6382"/>
<path d="M22.6538 16.7556C22.6609 16.8428 22.9255 17.2384 22.8544 17.8699C22.8544 19.5763 21.3958 20.9615 19.6894 20.9615C18.3549 20.9615 17.0434 19.5849 16.7929 18.2328C16.5068 18.2471 16.2253 18.1232 15.935 18.1232C15.709 18.1232 15.4812 18.2414 15.2567 18.2328C15.1554 19.6214 13.6948 20.9601 12.3631 20.9601C10.6567 20.9601 9.26925 19.5726 9.26925 17.8662C9.26925 17.1779 9.50765 16.9538 9.51194 16.8909C8.60222 16.5433 7.53251 15.8062 6.71719 15.3599C6.46109 20.9601 7.86749 26.3567 15.7759 29.9456C15.8546 29.9828 15.9404 29.9999 16.0262 29.9999C16.1121 29.9999 16.1964 29.9813 16.2765 29.9456C24.2781 26.3139 25.6786 19.6808 25.2128 15.3599C24.399 15.8161 23.5678 16.3966 22.6538 16.7556Z" fill="#4A6382"/>
</svg>
