<svg width="32" height="32" viewBox="0 0 32 32" fill="none" xmlns="http://www.w3.org/2000/svg">
<path d="M19.1733 29.8628C18.1912 29.5834 16.9067 28.814 15.1501 27.0012C13.0154 24.7913 11.4208 22.858 9.58998 19.5021C7.82605 16.2613 7.07139 14.2733 6.23066 10.6375C5.28036 6.53197 6.0698 4.74617 6.62536 4.04498C7.28784 3.20648 8.05337 2.81001 8.99946 2.46947C9.5353 2.28211 10.0863 2.14756 10.6454 2.06753C10.7015 2.05888 10.7538 2.05029 10.8005 2.04241C11.0797 1.99414 11.5024 1.92149 11.9319 2.24971C12.2188 2.46755 12.4379 2.80864 12.7657 3.40274C13.4383 4.61983 14.1496 7.10665 14.3462 8.28453C14.4776 9.07805 14.5648 9.60201 14.4334 10.1245C14.2791 10.736 13.8702 11.1252 13.3901 11.5341C13.3 11.6109 13.2115 11.6837 13.1258 11.7543C12.6081 12.1795 12.4851 12.3099 12.4709 12.6012C12.4433 13.187 12.8638 15.0737 13.8712 16.9212C14.8787 18.7687 16.177 20.0298 16.6709 20.2974C16.9261 20.4358 17.0979 20.3851 17.7234 20.1119C17.8131 20.0727 17.9054 20.032 18.0011 19.9923C18.6444 19.7213 19.1437 19.5422 19.7062 19.7022L19.7092 19.703C20.1987 19.8423 20.561 20.1869 21.1615 20.7561C21.9447 21.4986 23.6827 23.3959 24.3446 24.6254C24.6667 25.223 24.8367 25.5942 24.8716 25.9665C24.9242 26.527 24.653 26.8774 24.4744 27.1129C24.4446 27.1519 24.4117 27.1946 24.3764 27.2424C24.0301 27.7149 23.6436 28.1526 23.2218 28.55C22.4726 29.2471 21.7648 29.7504 20.7473 29.9401C20.2239 30.0412 19.6857 30.0148 19.1733 29.8628Z" fill="#4A6382"/>
</svg>
