<svg width="32" height="32" viewBox="0 0 32 32" fill="none" xmlns="http://www.w3.org/2000/svg">
<g clip-path="url(#clip0_37602_16002)">
<path d="M26.8895 2.06641H5.11118C3.39225 2.06641 2 3.47606 2 5.21648V24.1169C2 25.8573 3.39225 27.267 5.11118 27.267H26.8895C28.6084 27.267 30.0007 25.8573 30.0007 24.1169V5.21648C30.0007 3.47606 28.6084 2.06641 26.8895 2.06641ZM14.4447 13.0917H12.1113V12.3041H9.00016V17.0293H12.1113V16.2417H14.4447V17.8168C14.4447 18.683 13.7525 19.3918 12.8891 19.3918H8.22237C7.35901 19.3918 6.66678 18.683 6.66678 17.8168V11.5166C6.66678 10.6504 7.35901 9.94159 8.22237 9.94159H12.8891C13.7525 9.94159 14.4447 10.6504 14.4447 11.5166V13.0917ZM25.3339 13.0917H23.0005V12.3041H19.8893V17.0293H23.0005V16.2417H25.3339V17.8168C25.3339 18.683 24.6416 19.3918 23.7783 19.3918H19.1115C18.2482 19.3918 17.5559 18.683 17.5559 17.8168V11.5166C17.5559 10.6504 18.2482 9.94159 19.1115 9.94159H23.7783C24.6416 9.94159 25.3339 10.6504 25.3339 11.5166V13.0917Z" fill="#4A6382"/>
</g>
<defs>
<clipPath id="clip0_37602_16002">
<rect width="32" height="32" fill="white"/>
</clipPath>
</defs>
</svg>
