<svg width="33" height="32" viewBox="0 0 33 32" fill="none" xmlns="http://www.w3.org/2000/svg">
<path d="M26 4H7C6.07255 4.00264 5.18385 4.37223 4.52804 5.02804C3.87223 5.68385 3.50264 6.57255 3.5 7.5V19.5C3.50264 20.4274 3.87223 21.3162 4.52804 21.972C5.18385 22.6278 6.07255 22.9974 7 23H9.5V28L15.3575 23.1162C15.4474 23.0411 15.5609 23 15.6781 23H26C26.9274 22.9974 27.8162 22.6278 28.472 21.972C29.1278 21.3162 29.4974 20.4274 29.5 19.5V7.5C29.4974 6.57255 29.1278 5.68385 28.472 5.02804C27.8162 4.37223 26.9274 4.00264 26 4Z" stroke="#4A6382" stroke-linejoin="round"/>
</svg>
