<svg width="144" height="144" viewBox="0 0 144 144" fill="none" xmlns="http://www.w3.org/2000/svg">
<path d="M117 98.5H92V132H117V98.5Z" fill="#647891" stroke="#647891" stroke-width="2" stroke-linecap="round" stroke-linejoin="round"/>
<path d="M91.9634 72.8555H72.1738V131.753H91.9634V72.8555Z" fill="#E5EAEF"/>
<path d="M76.4347 48.6338H66.5576V65.6191H76.4347V48.6338Z" fill="#F6BD4E"/>
<path d="M94.8203 12.4473C94.8203 36.7039 84.3796 56.3659 71.4961 56.3659C58.6126 56.3659 48.1719 36.7039 48.1719 12.4473H94.8203Z" fill="#F6BD4E"/>
<path d="M96.4434 103.336H96.0738V103.705V110.498V110.867H96.4434H110.667H111.036V110.498V103.705V103.336H110.667H96.4434Z" fill="#F6BD4E" stroke="#647891" stroke-width="0.739093"/>
<path d="M79.29 78.1836H65.0664V84.9763H79.29V78.1836Z" fill="#F06E61"/>
<path d="M49.165 115.838H34.9414V122.631H49.165V115.838Z" fill="#7CC694"/>
<path d="M85.4805 72.6098H58.2246L60.8871 65.498H82.818L85.4805 72.6098Z" fill="#F6BD4E"/>
<path d="M66.9069 55.6881L66.7402 57.3473L76.5322 61.084L76.6138 55.5215L74.2916 55.8547L71.303 56.5177L68.8957 56.3511L66.9069 55.6881Z" fill="#647891"/>
<path d="M98.5 26.9998C98.5 26.9998 94.5 25.9998 94.5 21.9998C94.5 17.9998 98.4999 15.9998 101 15.9998C103.5 15.9998 108 17.7998 108 22.9998C108 32.9998 93.5003 32.5 90 39.9998C87.1997 45.9998 91 48.4998 93.5 48.4998C96 48.4998 98.0001 46.9998 98.0001 44.4998C98.0001 41.9998 96 40.6665 95 40.4998M44.5 26.9998C44.5 26.9998 48.5 25.9998 48.5 21.9998C48.5 17.9998 44.5001 15.9998 42.0001 15.9998C39.5001 15.9998 35 17.7998 35 22.9998C35 32.9998 49.4997 32.5 53 39.9998C55.8003 45.9998 52 48.4998 49.5 48.4998C47 48.4998 44.9999 46.9998 44.9999 44.4998C44.9999 41.9998 47 40.6665 48 40.4998M48.5 18.5323V12.5H71.5H94.5C94.5 12.5 94.5 18.4998 94.5 18.5323M48.5 18.5323H94.5M48.5 18.5323C49.2939 30.6149 54.2968 50.8253 66.5 55.1641M94.5 18.5323C93.7061 30.6149 88.7033 50.8253 76.5 55.1641M66.5 55.1641C68.0487 55.7147 69.7133 56.0097 71.5 56C73.2867 56.0097 74.9513 55.7147 76.5 55.1641M66.5 55.1641V65.4998M76.5 55.1641V65.4998M85.5 72.5L82.5 65.4998H61L58 72.5M58 72.5H52V110M58 72.5H92V132H57M52 110H57V132M52 110H27.5V132H57M49 116H35V122.5H49V116ZM65 78V85H79.5V78H65Z" stroke="#647891" stroke-width="2" stroke-linecap="round" stroke-linejoin="round"/>
<path d="M71.7015 23.2744L74.7753 29.5034L81.6495 30.5032L76.6755 35.3531L77.849 42.2025L71.7015 38.9692L65.5505 42.2025L66.724 35.3531L61.75 30.5032L68.6242 29.5034L71.7015 23.2744Z" fill="white"/>
</svg>
