<svg width="32" height="32" viewBox="0 0 32 32" fill="none" xmlns="http://www.w3.org/2000/svg">
<path d="M21 19L25 15H27" stroke="#4A6382" stroke-width="3" stroke-linecap="round" stroke-linejoin="round"/>
<path d="M19 4L20 5.875L19 8.125L20 10" stroke="#4A6382" stroke-width="3" stroke-linecap="round" stroke-linejoin="round"/>
<path d="M25 5L26 6.875L25 9.125L26 11" stroke="#4A6382" stroke-width="3" stroke-linecap="round" stroke-linejoin="round"/>
<path fill-rule="evenodd" clip-rule="evenodd" d="M8.24182 13.611C8.39818 13.2407 8.76109 13 9.16307 13H16.4196C16.7443 13 17.0487 13.1576 17.2362 13.4228L20.8251 18.5003C21.0125 18.7654 21.317 18.9231 21.6417 18.9231H27.9989C28.5512 18.9231 28.9989 19.3708 28.9989 19.9231V24.085C29.5821 24.2906 30 24.8465 30 25.5C30 26.3284 29.3284 27 28.5 27H26.9644C26.7218 28.6961 25.263 30 23.4998 30C21.7366 30 20.2779 28.6961 20.0353 27H12.9644C12.7218 28.6961 11.2631 30 9.49981 30C7.73658 30 6.27787 28.6961 6.03526 27H3.5C2.67157 27 2 26.3284 2 25.5C2 24.9068 2.34436 24.394 2.84409 24.1506L2.84488 19.9229C2.84498 19.3707 3.29267 18.9231 3.84488 18.9231H5.33566C5.73764 18.9231 6.10054 18.6824 6.25691 18.3121L8.24182 13.611ZM10.9998 16C10.9998 15.4477 11.4475 15 11.9998 15H14.3709C14.6778 15 14.9677 15.1409 15.1572 15.3822L16.7287 17.3822C17.2442 18.0383 16.7768 19 15.9424 19H11.9998C11.4475 19 10.9998 18.5523 10.9998 18V16Z" fill="#4A6382"/>
</svg>
