<svg width="144" height="144" viewBox="0 0 144 144" fill="none" xmlns="http://www.w3.org/2000/svg">
<path d="M40.2047 97.7766C54.4404 97.7766 65.9807 86.2363 65.9807 72.0006C65.9807 57.7649 54.4404 46.2246 40.2047 46.2246C25.969 46.2246 14.4287 57.7649 14.4287 72.0006C14.4287 86.2363 25.969 97.7766 40.2047 97.7766Z" fill="#F06E61"/>
<path d="M108.317 51.5381H77.6016V92.4773H108.317V51.5381Z" stroke="#647891" stroke-width="2"/>
<path d="M52.9209 72.0005C52.9143 70.5672 52.4409 69.175 51.5725 68.0348C50.7041 66.8945 49.4879 66.0682 48.1079 65.6809C46.728 65.2936 45.2595 65.3664 43.9246 65.8882C42.5897 66.4101 41.4612 67.3526 40.7097 68.5731L30.6297 66.413C30.2458 66.3315 29.8485 66.3368 29.4669 66.4285C29.0852 66.5202 28.7289 66.696 28.4239 66.943C28.1189 67.1901 27.873 67.5021 27.704 67.8564C27.535 68.2107 27.4473 68.5982 27.4473 68.9907V74.9958C27.4447 75.3892 27.5306 75.7781 27.6987 76.1337C27.8668 76.4894 28.1129 76.8026 28.4185 77.0502C28.7242 77.2978 29.0817 77.4734 29.4645 77.564C29.8472 77.6546 30.2455 77.6578 30.6297 77.5735L40.7097 75.4278C41.4612 76.6484 42.5897 77.5909 43.9246 78.1127C45.2595 78.6346 46.728 78.7073 48.1079 78.32C49.4879 77.9327 50.7041 77.1064 51.5725 75.9661C52.4409 74.8259 52.9143 73.4338 52.9209 72.0005V72.0005Z" fill="white"/>
<path d="M73.1092 16.7329H7.28675C4.80544 16.7329 2.79395 18.7444 2.79395 21.2257V122.775C2.79395 125.256 4.80544 127.267 7.28675 127.267H73.1092C75.5905 127.267 77.602 125.256 77.602 122.775V21.2257C77.602 18.7444 75.5905 16.7329 73.1092 16.7329Z" stroke="#647891" stroke-width="2"/>
<path d="M136.7 37.354H112.81C110.329 37.354 108.317 39.3655 108.317 41.8468V102.154C108.317 104.635 110.329 106.647 112.81 106.647H136.7C139.181 106.647 141.193 104.635 141.193 102.154V41.8468C141.193 39.3655 139.181 37.354 136.7 37.354Z" stroke="#647891" stroke-width="2"/>
<path d="M107.756 51.3647H78.7539V91.1664H107.756V51.3647Z" fill="#647891" stroke="#647891" stroke-width="2"/>
</svg>
