<svg width="144" height="144" viewBox="0 0 144 144" fill="none" xmlns="http://www.w3.org/2000/svg">
<path d="M88.1714 95.9756C101.691 95.9756 112.651 85.0156 112.651 71.4956C112.651 57.9757 101.691 47.0156 88.1714 47.0156C74.6515 47.0156 63.6914 57.9757 63.6914 71.4956C63.6914 85.0156 74.6515 95.9756 88.1714 95.9756Z" fill="#7CC694"/>
<path fill-rule="evenodd" clip-rule="evenodd" d="M88.4877 79.5745C88.1992 79.5757 87.9135 79.5176 87.6484 79.4036C87.3833 79.2897 87.1445 79.1223 86.9469 78.9121L76.7229 68.0113C76.5325 67.8115 76.3836 67.576 76.2848 67.3183C76.1861 67.0606 76.1393 66.7859 76.1474 66.5101C76.1554 66.2342 76.218 65.9627 76.3317 65.7112C76.4453 65.4597 76.6076 65.2333 76.8093 65.0449C77.2187 64.6666 77.7601 64.4638 78.3173 64.4799C78.8745 64.4961 79.4033 64.7299 79.7901 65.1313L88.4301 74.3761L106.156 55.0081C106.538 54.5956 107.069 54.3518 107.63 54.3302C108.192 54.3086 108.739 54.511 109.152 54.8929C109.564 55.2748 109.808 55.8049 109.83 56.3667C109.851 56.9284 109.649 57.4756 109.267 57.8881L90.0429 78.8977C89.8471 79.1113 89.609 79.2817 89.3437 79.3982C89.0784 79.5147 88.7918 79.5748 88.5021 79.5745H88.4877Z" fill="white"/>
<path d="M88.1431 107.741C107.882 107.741 123.884 91.7392 123.884 72.0001C123.884 52.261 107.882 36.2593 88.1431 36.2593C68.404 36.2593 52.4023 52.261 52.4023 72.0001C52.4023 91.7392 68.404 107.741 88.1431 107.741Z" stroke="#6B7D94" stroke-width="2" stroke-linecap="round" stroke-linejoin="round"/>
<path d="M52.5172 67.6806H25.1572C23.8205 67.6806 22.5386 67.1496 21.5934 66.2043C20.6482 65.2591 20.1172 63.9771 20.1172 62.6403V62.6403C20.1172 61.3036 20.6482 60.0216 21.5934 59.0764C22.5386 58.1311 23.8205 57.6001 25.1572 57.6001H54.994" stroke="#6B7D94" stroke-width="2" stroke-linecap="round" stroke-linejoin="round"/>
<path d="M52.6607 79.5176L25.9199 79.5896C24.5832 79.5896 23.3012 80.1206 22.3561 81.0658C21.4109 82.0111 20.8799 83.2931 20.8799 84.6298V84.6298C20.8799 85.9666 21.4109 87.2486 22.3561 88.1938C23.3012 89.139 24.5832 89.6701 25.9199 89.6701H55.7855" stroke="#6B7D94" stroke-width="2" stroke-linecap="round" stroke-linejoin="round"/>
</svg>
