<svg width="32" height="32" viewBox="0 0 32 32" fill="none" xmlns="http://www.w3.org/2000/svg">
<path d="M26.75 14H18C17.2044 14 16.4413 13.6839 15.8787 13.1213C15.3161 12.5587 15 11.7956 15 11V2.25C15 2.1837 14.9737 2.12011 14.9268 2.07322C14.8799 2.02634 14.8163 2 14.75 2H9C7.93913 2 6.92172 2.42143 6.17157 3.17157C5.42143 3.92172 5 4.93913 5 6V26C5 27.0609 5.42143 28.0783 6.17157 28.8284C6.92172 29.5786 7.93913 30 9 30H23C24.0609 30 25.0783 29.5786 25.8284 28.8284C26.5786 28.0783 27 27.0609 27 26V14.25C27 14.1837 26.9737 14.1201 26.9268 14.0732C26.8799 14.0263 26.8163 14 26.75 14Z" fill="#4A6382"/>
<path d="M26.2013 11.7867L17.2131 2.79856C17.1956 2.78118 17.1734 2.76936 17.1492 2.76458C17.1251 2.7598 17.1 2.76227 17.0772 2.77169C17.0545 2.78111 17.035 2.79705 17.0212 2.81751C17.0075 2.83797 17.0001 2.86204 17 2.88668V10.9998C17 11.265 17.1054 11.5194 17.2929 11.7069C17.4804 11.8945 17.7348 11.9998 18 11.9998H26.1131C26.1378 11.9997 26.1618 11.9923 26.1823 11.9786C26.2028 11.9648 26.2187 11.9453 26.2281 11.9226C26.2375 11.8998 26.24 11.8747 26.2352 11.8506C26.2304 11.8264 26.2186 11.8042 26.2013 11.7867V11.7867Z" fill="#4A6382"/>
</svg>
