<svg width="33" height="32" viewBox="0 0 33 32" fill="none" xmlns="http://www.w3.org/2000/svg">
<path d="M21.5 11H24C24.663 11 25.2989 11.2634 25.7678 11.7322C26.2366 12.2011 26.5 12.837 26.5 13.5V26.5C26.5 27.163 26.2366 27.7989 25.7678 28.2678C25.2989 28.7366 24.663 29 24 29H9C8.33696 29 7.70107 28.7366 7.23223 28.2678C6.76339 27.7989 6.5 27.163 6.5 26.5V13.5C6.5 12.837 6.76339 12.2011 7.23223 11.7322C7.70107 11.2634 8.33696 11 9 11H11.5" stroke="#4A6382" stroke-linecap="round" stroke-linejoin="round"/>
<path d="M11.5 17L16.5 22L21.5 17M16.5 3V21" stroke="#4A6382" stroke-linecap="round" stroke-linejoin="round"/>
</svg>
