<svg width="32" height="32" viewBox="0 0 32 32" fill="none" xmlns="http://www.w3.org/2000/svg">
<path d="M16.7772 20.6813L24.6499 16.5739V23.2737C24.6499 24.954 20.7097 28.1553 15.85 28.1553C10.9903 28.1553 7.05078 24.954 7.05078 23.2737L7.05144 16.5732L14.9254 20.6813C15.5055 20.984 16.1971 20.984 16.7772 20.6813Z" fill="#4A6382"/>
<path fill-rule="evenodd" clip-rule="evenodd" d="M15.404 3.94698L2.55328 10.3724C1.81557 10.7412 1.81557 11.794 2.55328 12.1628L15.404 18.5882C15.6858 18.7291 16.0175 18.7291 16.2993 18.5882L25.9207 13.7775L15.9634 12.1379C15.4179 12.0481 15.0486 11.5332 15.1384 10.9877C15.2282 10.4423 15.7431 10.0729 16.2886 10.1627L27.1602 11.9528C27.6045 12.026 27.9809 12.2778 28.2208 12.6274L29.15 12.1628C29.8877 11.794 29.8877 10.7412 29.15 10.3724L16.2993 3.94698C16.0175 3.80609 15.6858 3.80609 15.404 3.94698Z" fill="#4A6382"/>
<path d="M27.6431 17.623C26.9188 17.623 26.3316 18.2102 26.3316 18.9346C26.3316 19.2637 26.3639 19.5646 26.5088 19.7949C26.623 19.9764 26.7006 20.2083 26.5982 20.3967L25.6116 22.2118C25.4666 22.4785 25.6597 22.8033 25.9633 22.8033H29.3249C29.629 22.8033 29.8221 22.4776 29.6761 22.2108L28.6837 20.3971C28.5805 20.2086 28.6576 19.976 28.773 19.7948C28.9196 19.5645 28.9546 19.2637 28.9546 18.9346C28.9546 18.2102 28.3675 17.623 27.6431 17.623Z" fill="#4A6382"/>
<path d="M27.6455 17.7977L27.6455 14.9653" stroke="#4A6382" stroke-width="1.60143" stroke-linecap="round"/>
</svg>
