<svg width="144" height="144" viewBox="0 0 144 144" fill="none" xmlns="http://www.w3.org/2000/svg">
<mask id="path-1-inside-1_45894_37520" fill="white">
<path d="M21.5566 32.439L14.7795 110.661C14.5692 113.088 16.4827 115.174 18.919 115.174H124.229C126.354 115.174 128.137 113.571 128.361 111.458L135.586 43.3312C135.846 40.8768 133.922 38.738 131.454 38.738H80.5527C79.5389 38.738 78.5601 38.3673 77.8006 37.6958L68.7393 29.6847C67.9798 29.0132 67.001 28.6426 65.9872 28.6426H25.6962C23.5404 28.6426 21.7427 30.2913 21.5566 32.439Z"/>
</mask>
<path d="M21.5566 32.439L14.7795 110.661C14.5692 113.088 16.4827 115.174 18.919 115.174H124.229C126.354 115.174 128.137 113.571 128.361 111.458L135.586 43.3312C135.846 40.8768 133.922 38.738 131.454 38.738H80.5527C79.5389 38.738 78.5601 38.3673 77.8006 37.6958L68.7393 29.6847C67.9798 29.0132 67.001 28.6426 65.9872 28.6426H25.6962C23.5404 28.6426 21.7427 30.2913 21.5566 32.439Z" fill="#647891"/>
<path d="M14.7795 110.661L15.7758 110.747L15.7758 110.747L14.7795 110.661ZM21.5566 32.439L20.5604 32.3527L20.5604 32.3527L21.5566 32.439ZM68.7393 29.6847L69.4017 28.9355L69.4017 28.9355L68.7393 29.6847ZM77.8006 37.6958L78.4629 36.9466L78.4629 36.9466L77.8006 37.6958ZM135.586 43.3312L136.58 43.4367L136.58 43.4367L135.586 43.3312ZM128.361 111.458L129.355 111.563L129.355 111.563L128.361 111.458ZM15.7758 110.747L22.5529 32.5253L20.5604 32.3527L13.7832 110.574L15.7758 110.747ZM25.6962 29.6426H65.9872V27.6426H25.6962V29.6426ZM68.077 30.4339L77.1382 38.445L78.4629 36.9466L69.4017 28.9355L68.077 30.4339ZM80.5527 39.738H131.454V37.738H80.5527V39.738ZM134.591 43.2258L127.366 111.352L129.355 111.563L136.58 43.4367L134.591 43.2258ZM124.229 114.174H18.919V116.174H124.229V114.174ZM127.366 111.352C127.196 112.957 125.843 114.174 124.229 114.174V116.174C126.865 116.174 129.077 114.185 129.355 111.563L127.366 111.352ZM131.454 39.738C133.328 39.738 134.789 41.3621 134.591 43.2258L136.58 43.4367C136.903 40.3916 134.516 37.738 131.454 37.738V39.738ZM77.1382 38.445C78.0805 39.2781 79.2949 39.738 80.5527 39.738V37.738C79.7829 37.738 79.0396 37.4565 78.4629 36.9466L77.1382 38.445ZM65.9872 29.6426C66.757 29.6426 67.5002 29.924 68.077 30.4339L69.4017 28.9355C68.4594 28.1024 67.245 27.6426 65.9872 27.6426V29.6426ZM22.5529 32.5253C22.6942 30.8945 24.0593 29.6426 25.6962 29.6426V27.6426C23.0216 27.6426 20.7912 29.6881 20.5604 32.3527L22.5529 32.5253ZM13.7832 110.574C13.5223 113.586 15.8964 116.174 18.919 116.174V114.174C17.0691 114.174 15.6161 112.59 15.7758 110.747L13.7832 110.574Z" fill="#647891" mask="url(#path-1-inside-1_45894_37520)"/>
<mask id="path-3-inside-2_45894_37520" fill="white">
<path d="M6.33517 39.2145L14.4899 111.667C14.7264 113.769 16.5039 115.358 18.6188 115.358H124.369C126.874 115.358 128.81 113.157 128.49 110.673L120.469 48.3151C120.202 46.2423 118.438 44.6901 116.348 44.6901H64.4823C63.4685 44.6901 62.4897 44.3195 61.7302 43.648L52.669 35.6369C51.9094 34.9654 50.9306 34.5947 49.9168 34.5947H10.4642C7.98533 34.5947 6.05792 36.7512 6.33517 39.2145Z"/>
</mask>
<path d="M6.33517 39.2145L14.4899 111.667C14.7264 113.769 16.5039 115.358 18.6188 115.358H124.369C126.874 115.358 128.81 113.157 128.49 110.673L120.469 48.3151C120.202 46.2423 118.438 44.6901 116.348 44.6901H64.4823C63.4685 44.6901 62.4897 44.3195 61.7302 43.648L52.669 35.6369C51.9094 34.9654 50.9306 34.5947 49.9168 34.5947H10.4642C7.98533 34.5947 6.05792 36.7512 6.33517 39.2145Z" fill="white"/>
<path d="M14.4899 111.667L16.4773 111.444L16.4773 111.444L14.4899 111.667ZM6.33517 39.2145L4.34772 39.4382L6.33517 39.2145ZM52.669 35.6369L53.9937 34.1385L53.9937 34.1385L52.669 35.6369ZM61.7302 43.648L60.4055 45.1463L60.4055 45.1463L61.7302 43.648ZM120.469 48.3151L122.453 48.0599L122.453 48.0599L120.469 48.3151ZM128.49 110.673L130.474 110.417L130.474 110.417L128.49 110.673ZM16.4773 111.444L8.32262 38.9908L4.34772 39.4382L12.5024 111.891L16.4773 111.444ZM10.4642 36.5947H49.9168V32.5947H10.4642V36.5947ZM51.3442 37.1352L60.4055 45.1463L63.0549 42.1496L53.9937 34.1385L51.3442 37.1352ZM64.4823 46.6901H116.348V42.6901H64.4823V46.6901ZM118.485 48.5702L126.506 110.928L130.474 110.417L122.453 48.0599L118.485 48.5702ZM124.369 113.358H18.6188V117.358H124.369V113.358ZM126.506 110.928C126.672 112.217 125.668 113.358 124.369 113.358V117.358C128.08 117.358 130.947 114.098 130.474 110.417L126.506 110.928ZM116.348 46.6901C117.432 46.6901 118.347 47.4952 118.485 48.5702L122.453 48.0599C122.058 44.9895 119.444 42.6901 116.348 42.6901V46.6901ZM60.4055 45.1463C61.5306 46.1411 62.9806 46.6901 64.4823 46.6901V42.6901C63.9565 42.6901 63.4489 42.4979 63.0549 42.1496L60.4055 45.1463ZM49.9168 36.5947C50.4426 36.5947 50.9503 36.787 51.3442 37.1352L53.9937 34.1385C52.8686 33.1438 51.4186 32.5947 49.9168 32.5947V36.5947ZM8.32262 38.9908C8.17882 37.7132 9.17849 36.5947 10.4642 36.5947V32.5947C6.79217 32.5947 3.93702 35.7893 4.34772 39.4382L8.32262 38.9908ZM12.5024 111.891C12.8528 115.004 15.4859 117.358 18.6188 117.358V113.358C17.5219 113.358 16.6 112.534 16.4773 111.444L12.5024 111.891Z" fill="#647891" mask="url(#path-3-inside-2_45894_37520)"/>
<path d="M19.5826 59.7325C19.3306 57.9476 20.7163 56.3525 22.519 56.3525H33.0024C34.4801 56.3525 35.7323 57.4404 35.9388 58.9036L41.2791 96.7358C41.5311 98.5208 40.1454 100.116 38.3427 100.116H27.8593C26.3816 100.116 25.1294 99.0279 24.9228 97.5648L19.5826 59.7325Z" fill="#7CC694"/>
</svg>
