<svg width="32" height="32" viewBox="0 0 32 32" fill="none" xmlns="http://www.w3.org/2000/svg">
<path fill-rule="evenodd" clip-rule="evenodd" d="M22.625 2C23.1773 2 23.625 2.44772 23.625 3V5.875C23.625 6.53804 23.8884 7.17393 24.3572 7.64277C24.8261 8.11161 25.462 8.375 26.125 8.375H29C29.5523 8.375 30 8.82272 30 9.375C30 9.92728 29.5523 10.375 29 10.375H26.125C24.9315 10.375 23.7869 9.9009 22.943 9.05698C22.0991 8.21307 21.625 7.06847 21.625 5.875V3C21.625 2.44772 22.0727 2 22.625 2ZM10.125 2C10.6773 2 11.125 2.44772 11.125 3V5.875C11.125 7.06847 10.6509 8.21307 9.80698 9.05698C8.96307 9.9009 7.81847 10.375 6.625 10.375H3.75C3.19772 10.375 2.75 9.92728 2.75 9.375C2.75 8.82272 3.19772 8.375 3.75 8.375H6.625C7.28804 8.375 7.92393 8.11161 8.39277 7.64277C8.86161 7.17393 9.125 6.53804 9.125 5.875V3C9.125 2.44772 9.57272 2 10.125 2Z" fill="#4A6382"/>
<path d="M2 22.625C2 22.0727 2.44772 21.625 3 21.625H5.875C7.06847 21.625 8.21307 22.0991 9.05698 22.943C9.9009 23.7869 10.375 24.9315 10.375 26.125V29C10.375 29.5523 9.92728 30 9.375 30C8.82272 30 8.375 29.5523 8.375 29V26.125C8.375 25.462 8.11161 24.8261 7.64277 24.3572C7.17393 23.8884 6.53804 23.625 5.875 23.625H3C2.44772 23.625 2 23.1773 2 22.625Z" fill="#4A6382"/>
<path d="M26.125 23.625C25.462 23.625 24.8261 23.8884 24.3572 24.3572C23.8884 24.8261 23.625 25.462 23.625 26.125V29C23.625 29.5523 23.1773 30 22.625 30C22.0727 30 21.625 29.5523 21.625 29V26.125C21.625 24.9315 22.0991 23.7869 22.943 22.943C23.7869 22.0991 24.9315 21.625 26.125 21.625H29C29.5523 21.625 30 22.0727 30 22.625C30 23.1773 29.5523 23.625 29 23.625H26.125Z" fill="#4A6382"/>
</svg>
