<svg width="32" height="32" viewBox="0 0 32 32" fill="none" xmlns="http://www.w3.org/2000/svg">
<path fill-rule="evenodd" clip-rule="evenodd" d="M21.625 3C21.625 2.44772 22.0727 2 22.625 2H25.5C26.6935 2 27.8381 2.47411 28.682 3.31802C29.5259 4.16193 30 5.30653 30 6.5V9.375C30 9.92728 29.5523 10.375 29 10.375C28.4477 10.375 28 9.92728 28 9.375V6.5C28 5.83696 27.7366 5.20107 27.2678 4.73223C26.7989 4.26339 26.163 4 25.5 4H22.625C22.0727 4 21.625 3.55228 21.625 3Z" fill="#4A6382"/>
<path d="M6.5 4C5.83696 4 5.20107 4.26339 4.73223 4.73223C4.26339 5.20107 4 5.83696 4 6.5V9.375C4 9.92728 3.55228 10.375 3 10.375C2.44772 10.375 2 9.92728 2 9.375V6.5C2 5.30653 2.47411 4.16193 3.31802 3.31802C4.16193 2.47411 5.30653 2 6.5 2H9.375C9.92728 2 10.375 2.44772 10.375 3C10.375 3.55228 9.92728 4 9.375 4H6.5Z" fill="#4A6382"/>
<path d="M3 21.625C3.55228 21.625 4 22.0727 4 22.625V25.5C4 26.163 4.26339 26.7989 4.73223 27.2678C5.20107 27.7366 5.83696 28 6.5 28H9.375C9.92728 28 10.375 28.4477 10.375 29C10.375 29.5523 9.92728 30 9.375 30H6.5C5.30653 30 4.16193 29.5259 3.31802 28.682C2.47411 27.8381 2 26.6935 2 25.5V22.625C2 22.0727 2.44772 21.625 3 21.625Z" fill="#4A6382"/>
<path d="M29 21.625C29.5523 21.625 30 22.0727 30 22.625V25.5C30 26.6935 29.5259 27.8381 28.682 28.682C27.8381 29.5259 26.6935 30 25.5 30H22.625C22.0727 30 21.625 29.5523 21.625 29C21.625 28.4477 22.0727 28 22.625 28H25.5C26.163 28 26.7989 27.7366 27.2678 27.2678C27.7366 26.7989 28 26.163 28 25.5V22.625C28 22.0727 28.4477 21.625 29 21.625Z" fill="#4A6382"/>
</svg>
