<svg width="32" height="32" viewBox="0 0 32 32" fill="none" xmlns="http://www.w3.org/2000/svg">
<path d="M15.9997 28C15.5983 27.9995 15.2063 27.8782 14.8747 27.6519C9.96284 24.3175 7.83597 22.0313 6.66284 20.6019C4.16284 17.555 2.96597 14.4269 2.99972 11.0394C3.03909 7.1575 6.15347 4 9.94222 4C12.6972 4 14.6053 5.55188 15.7166 6.84438C15.7518 6.88491 15.7953 6.91741 15.8441 6.93968C15.893 6.96195 15.946 6.97348 15.9997 6.97348C16.0534 6.97348 16.1065 6.96195 16.1553 6.93968C16.2041 6.91741 16.2476 6.88491 16.2828 6.84438C17.3941 5.55063 19.3022 4 22.0572 4C25.846 4 28.9603 7.1575 28.9997 11.04C29.0335 14.4281 27.8353 17.5563 25.3366 20.6025C24.1635 22.0319 22.0366 24.3181 17.1247 27.6525C16.7931 27.8786 16.4011 27.9997 15.9997 28V28Z" fill="#4A6382"/>
</svg>
