<svg width="33" height="32" viewBox="0 0 33 32" fill="none" xmlns="http://www.w3.org/2000/svg">
<path d="M30.0624 11.4391L17.0398 3.26575C17.0288 3.2589 17.0185 3.25112 17.0086 3.24285C16.6212 2.91883 16.0503 2.91905 15.6632 3.24352C15.6538 3.25136 15.644 3.25875 15.6337 3.26533L2.84786 11.4391C2.14118 11.8549 2.58187 13.6146 3.53495 13.6146H4.28578C4.42385 13.6146 4.53578 13.7266 4.53578 13.8646V26.5425V28.7357C4.53578 28.8737 4.64771 28.9857 4.78578 28.9857H12.3046C12.4427 28.9857 12.5546 28.8737 12.5546 28.7357V17.77C12.5546 17.6319 12.6666 17.52 12.8047 17.52L20.125 17.5233C20.263 17.5233 20.3749 17.6352 20.3749 17.7733V28.7362C20.3749 28.874 20.4865 28.9859 20.6244 28.9862L27.3483 28.9994L28.1256 28.9999C28.2638 28.9999 28.3758 28.888 28.3758 28.7499V27.7856V26.5711V13.8646C28.3758 13.7266 28.4877 13.6146 28.6258 13.6146H29.3753C30.3284 13.6146 30.8125 11.9041 30.0624 11.4391Z" stroke="#4A6382"/>
</svg>
