<svg width="32" height="32" viewBox="0 0 32 32" fill="none" xmlns="http://www.w3.org/2000/svg">
<path d="M2.91961 14.9998C2.00558 14.9998 1.57061 13.8747 2.24694 13.2599L14.6633 1.97226C14.854 1.79889 15.1453 1.79889 15.336 1.97226L28.9008 14.3039C29.1713 14.5498 28.9973 14.9998 28.6317 14.9998H25.6663C22.0922 14.9998 19.1751 17.8126 19.0073 21.3449C18.1845 22.0776 17.6663 23.1449 17.6663 24.3332V26.9998H4.73301C4.51209 26.9998 4.33301 26.8208 4.33301 26.5998V14.9998H2.91961Z" fill="#4A6382"/>
<path d="M25.6663 17.6665C23.4572 17.6665 21.6663 19.4575 21.6663 21.6665V22.9998C21.4235 22.9998 21.1958 23.0648 20.9997 23.1782C20.6011 23.4088 20.333 23.8397 20.333 24.3332V26.9998H25.6663V22.9998H23.6663V21.6665C23.6663 21.1543 23.8589 20.687 24.1756 20.3332C24.5418 19.924 25.074 19.6665 25.6663 19.6665V17.6665Z" fill="#4A6382"/>
<path fill-rule="evenodd" clip-rule="evenodd" d="M21.6663 21.6665C21.6663 19.4575 23.4572 17.6665 25.6663 17.6665C27.8755 17.6665 29.6663 19.4575 29.6663 21.6665V22.9998C30.4028 22.9998 30.9997 23.5968 30.9997 24.3332V29.6665C30.9997 30.4028 30.4028 30.9998 29.6663 30.9998H21.6663C20.9299 30.9998 20.333 30.4028 20.333 29.6665V24.3332C20.333 23.5968 20.9299 22.9998 21.6663 22.9998V21.6665ZM27.6663 22.9998H23.6663V21.6665C23.6663 20.562 24.5618 19.6665 25.6663 19.6665C26.7709 19.6665 27.6663 20.562 27.6663 21.6665V22.9998Z" fill="#4A6382"/>
</svg>
