<svg width="32" height="32" viewBox="0 0 32 32" fill="none" xmlns="http://www.w3.org/2000/svg">
<path d="M7.58854 29.7694C7.28172 30.0766 6.78396 30.0769 6.47675 29.7701L2.58304 25.8812C2.27583 25.5744 2.27552 25.0766 2.58235 24.7694L8.23236 19.191C8.66621 18.7572 9.44924 18.7397 9.67807 18.7572L13.9233 19.0052H19.0419C21.2217 19.0038 21.2026 22.3269 19.0798 22.3734H15.3009C13.8149 22.4059 13.9779 24.5242 15.3478 24.4965H19.937C21.7735 24.4593 23.0038 22.6374 23.2112 21.1786C23.3119 20.4711 23.7886 19.874 24.4562 19.6192L28.5603 18.0528C28.9555 17.9019 29.4025 17.9972 29.7018 18.2962C30.1213 18.7152 30.1217 19.3949 29.7027 19.8145L20.8778 27.6571C20.5094 28.0259 20.0097 28.2333 19.4884 28.2336L10.5545 28.2392C10.0333 28.2395 8.90937 28.4469 8.54102 28.8157L7.58854 29.7694Z" fill="#4A6382"/>
<path d="M15.6392 2.13761C15.8442 1.95413 17.141 1.95413 17.3407 2.13761C17.3407 2.13761 22.1519 5.38378 24.351 6.86508L24.3564 6.87048C24.7503 7.14031 24.4967 8.1279 24.0002 8.1279H23.6116C23.5361 8.1279 23.4767 8.18726 23.4767 8.26282V16.8651C23.4767 16.9406 23.4173 17 23.3418 17L9.64886 16.9892C9.57331 16.9892 9.51395 16.9298 9.51395 16.8543V8.25742C9.51395 8.18187 9.45458 8.1225 9.37903 8.1225H8.99047C8.49398 8.1225 8.26732 7.10254 8.63429 6.86508L9.99184 5.9361V3.2406C9.99184 3.00088 10.162 2.79489 10.3974 2.74961L12.218 2.39934C12.5264 2.34001 12.8125 2.57609 12.8125 2.89012V4.07666C13.3862 3.68416 15.6392 2.13761 15.6392 2.13761Z" fill="#4A6382"/>
</svg>
