<svg width="33" height="32" viewBox="0 0 33 32" fill="none" xmlns="http://www.w3.org/2000/svg">
<path d="M13.5 22H9.5C7.9087 22 6.38258 21.3679 5.25736 20.2426C4.13214 19.1174 3.5 17.5913 3.5 16C3.5 14.4087 4.13214 12.8826 5.25736 11.7574C6.38258 10.6321 7.9087 10 9.5 10H13.5M19.5 10H23.5C25.0913 10 26.6174 10.6321 27.7426 11.7574C28.8679 12.8826 29.5 14.4087 29.5 16C29.5 17.5913 28.8679 19.1174 27.7426 20.2426C26.6174 21.3679 25.0913 22 23.5 22H19.5M10.7056 16H22.4194" stroke="#4A6382" stroke-linecap="round" stroke-linejoin="round"/>
</svg>
