<svg width="32" height="32" viewBox="0 0 32 32" fill="none" xmlns="http://www.w3.org/2000/svg">
<path fill-rule="evenodd" clip-rule="evenodd" d="M25.9206 6.06881C24.6263 4.77386 23.0886 3.7477 21.3961 3.04941C19.7036 2.35112 17.8896 1.9945 16.0588 2.00006C8.375 2.00006 2.12 8.22381 2.11687 15.8751C2.11348 18.3114 2.75568 20.7051 3.97813 22.8126L2 30.0001L9.39062 28.0707C11.4364 29.179 13.7265 29.759 16.0531 29.7582H16.0588C23.7419 29.7582 29.9963 23.5338 30 15.8832C30.0047 14.0585 29.6464 12.2512 28.9461 10.5663C28.2457 8.88137 27.2173 7.35257 25.9206 6.06881V6.06881ZM16.0588 27.4163H16.0537C13.9796 27.4169 11.9432 26.8619 10.1562 25.8088L9.73312 25.5588L5.3475 26.7038L6.51813 22.4482L6.2425 22.0107C5.08274 20.1746 4.46828 18.0468 4.47062 15.8751C4.47062 9.51694 9.67125 4.34381 16.0631 4.34381C19.1294 4.33834 22.0722 5.55102 24.2444 7.71514C26.4166 9.87926 27.6403 12.8176 27.6462 15.8838C27.6437 22.2426 22.4456 27.4163 16.0588 27.4163V27.4163ZM22.4144 18.7794C22.0663 18.6057 20.3519 17.7669 20.0344 17.6513C19.7169 17.5357 19.4825 17.4776 19.2506 17.8251C19.0188 18.1726 18.3506 18.9501 18.1475 19.1844C17.9444 19.4188 17.7413 19.4444 17.3931 19.2707C17.045 19.0969 15.9219 18.7313 14.5913 17.5501C13.5556 16.6307 12.8569 15.4957 12.6538 15.1488C12.4506 14.8019 12.6319 14.6138 12.8062 14.4413C12.9631 14.2857 13.1544 14.0363 13.3287 13.8338C13.5031 13.6313 13.5613 13.4863 13.6769 13.2551C13.7925 13.0238 13.735 12.8213 13.6481 12.6482C13.5612 12.4751 12.8644 10.7682 12.5744 10.0738C12.2913 9.39756 12.0044 9.48944 11.7906 9.47881C11.5875 9.46881 11.3531 9.46631 11.1225 9.46631C10.9462 9.4709 10.7727 9.51179 10.6129 9.58642C10.4531 9.66105 10.3104 9.76782 10.1938 9.90006C9.87438 10.2476 8.97437 11.0876 8.97437 12.7926C8.97437 14.4976 10.2244 16.1476 10.3969 16.3788C10.5694 16.6101 12.8531 20.1119 16.3475 21.6138C16.9964 21.8917 17.6594 22.1354 18.3337 22.3438C19.1681 22.6076 19.9275 22.5707 20.5275 22.4813C21.1969 22.3819 22.59 21.6426 22.8794 20.8326C23.1688 20.0226 23.1694 19.3288 23.0825 19.1844C22.9956 19.0401 22.7631 18.9526 22.4144 18.7794V18.7794Z" fill="#4A6382"/>
</svg>
