<svg width="32" height="32" viewBox="0 0 32 32" fill="none" xmlns="http://www.w3.org/2000/svg">
<path d="M8.16779 29H2.72334V10.6641H8.16779V29ZM5.29779 8.37211H5.2589C4.842 8.40472 4.42318 8.34659 4.02871 8.20139C3.63425 8.05619 3.27267 7.82705 2.96666 7.52835C2.66065 7.22965 2.41682 6.86784 2.25047 6.46562C2.08412 6.06341 1.99885 5.62948 2.00001 5.19106C2.00001 3.38031 3.31446 2.01001 5.33668 2.01001C5.75556 1.97517 6.17679 2.0315 6.57393 2.17547C6.97107 2.31944 7.33554 2.54795 7.64447 2.84665C7.9534 3.14535 8.20012 3.5078 8.36915 3.91124C8.53817 4.31468 8.62585 4.7504 8.62668 5.19106C8.62668 6.96919 7.34334 8.37211 5.29779 8.37211ZM30 29H23.7778V19.5139C23.7778 17.067 22.8133 15.3378 20.6667 15.3378C20.0116 15.3377 19.3732 15.5545 18.8425 15.9573C18.3118 16.3601 17.9158 16.9283 17.7111 17.5808C17.581 18.0659 17.5362 18.5717 17.5789 19.0735V29H11.4967C11.4967 29 11.5745 12.1975 11.4967 10.6723H17.6256V13.576C17.9911 12.3199 19.9589 10.5254 23.07 10.5254C26.9589 10.5254 30 13.16 30 18.837V29Z" fill="#4A6382"/>
</svg>
