<svg width="32" height="32" viewBox="0 0 32 32" fill="none" xmlns="http://www.w3.org/2000/svg">
<path fill-rule="evenodd" clip-rule="evenodd" d="M9 2C7.89543 2 7 2.83147 7 3.85714V17H4C2.89543 17 2 17.8315 2 18.8571V29.5C2 29.7761 2.22386 30 2.5 30H5L5 17.0006H7V30H25V17.0006H27V30H29.5C29.7761 30 30 29.7761 30 29.5V18.8571C30 17.8315 29.1046 17 28 17H25V3.85714C25 2.83147 24.1046 2 23 2H9ZM13.802 21.8415C13.6363 21.8415 13.502 21.9758 13.502 22.1415V29.9996H18.4975V22.1415C18.4975 21.9758 18.3632 21.8415 18.1975 21.8415H13.802ZM10 5.3C10 5.13431 10.1343 5 10.3 5H21.7C21.8657 5 22 5.13431 22 5.3V9.7C22 9.86568 21.8657 10 21.7 10H10.3C10.1343 10 10 9.86569 10 9.7V5.3ZM10.3 12C10.1343 12 10 12.1343 10 12.3V16.7C10 16.8657 10.1343 17 10.3 17H21.7C21.8657 17 22 16.8657 22 16.7V12.3C22 12.1343 21.8657 12 21.7 12H10.3Z" fill="#4A6382"/>
</svg>
