<svg width="144" height="144" viewBox="0 0 144 144" fill="none" xmlns="http://www.w3.org/2000/svg">
<path d="M42.6719 98.9979V75.3647C42.6719 69.2809 47.6288 64.2881 53.7099 64.2881C59.7725 64.2881 64.7479 69.2624 64.7479 75.3647V98.9979" fill="#F06E61" stroke="#647891" stroke-width="2" stroke-linecap="square" stroke-linejoin="round"/>
<path d="M119.201 66.6123H88.5566V85.5018H119.201V66.6123Z" fill="#F6BD4E" stroke="#647891" stroke-width="2"/>
<path d="M123.825 98.9854C124.434 100.111 124.765 101.383 124.765 102.748C124.765 107.138 121.209 110.699 116.823 110.699C112.437 110.699 108.881 107.138 108.881 102.748C108.881 101.463 109.169 100.112 109.84 99.0038L123.825 99.0038V98.9854Z" fill="#647891"/>
<path d="M106.265 98.9854C106.873 100.111 107.205 101.383 107.205 102.748C107.205 107.138 103.648 110.699 99.2625 110.699C94.8768 110.699 91.3203 107.138 91.3203 102.748C91.3203 101.48 91.5901 100.084 92.287 99.0038L106.265 99.0038V98.9854Z" fill="#647891"/>
<path d="M28.0774 98.9854C28.6855 100.111 29.0172 101.383 29.0172 102.748C29.0172 107.138 25.4608 110.699 21.075 110.699C16.6893 110.699 13.1328 107.138 13.1328 102.748C13.1328 101.452 13.4343 100.13 14.0875 99.0038L28.0774 99.0038V98.9854Z" fill="#647891"/>
<path d="M126.923 66.6123H80.9648V85.501H126.923V66.6123Z" stroke="#647891" stroke-width="2" stroke-linecap="round" stroke-linejoin="round"/>
<path d="M29.0914 69.0645H18.7168V82.9912H29.0914V69.0645Z" stroke="#647891" stroke-width="2" stroke-linecap="round" stroke-linejoin="round"/>
<path d="M7.2168 110.681H136.798" stroke="#647891" stroke-width="2" stroke-linecap="round" stroke-linejoin="round"/>
<path d="M57.9482 86.5356C59.4341 86.5356 60.6386 85.3299 60.6386 83.8425C60.6386 82.3552 59.4341 81.1494 57.9482 81.1494C56.4623 81.1494 55.2578 82.3552 55.2578 83.8425C55.2578 85.3299 56.4623 86.5356 57.9482 86.5356Z" fill="#647891"/>
<path d="M104.072 66.6123L104.072 85.5018" stroke="#647891" stroke-width="2" stroke-linecap="square" stroke-linejoin="round"/>
<path d="M88.5566 76.0566H119.201" stroke="#647891" stroke-width="2" stroke-linecap="square" stroke-linejoin="round"/>
<path d="M7.19922 55.8002H31.7729L52.6457 34.684C53.2833 34.0389 54.3335 34.0389 54.9711 34.684L75.8439 55.8002H75.8252H136.799" stroke="#647891" stroke-width="2" stroke-linecap="round" stroke-linejoin="round"/>
<path d="M62.0992 41.3994H125.398L136.799 55.7994V98.9988H7.19922V55.7994L18.3062 41.3994H45.8992" stroke="#647891" stroke-width="2" stroke-linecap="round" stroke-linejoin="round"/>
<path d="M7.19922 55.7994H31.7729L46.0069 41.3994H18.3062L7.19922 55.7994Z" fill="#7CC694"/>
<path d="M75.8439 55.7994H136.799L125.398 41.3994H61.6099L75.8439 55.7994Z" fill="#7CC694"/>
<path d="M75.8439 55.7994H75.8252M75.8439 55.7994H136.799L125.398 41.3994H61.6099L75.8439 55.7994ZM31.7729 55.7994H7.19922L18.3062 41.3994H46.0069L31.7729 55.7994Z" stroke="#647891" stroke-width="2" stroke-linecap="round" stroke-linejoin="round"/>
<path d="M36.8848 99V110.607" stroke="#647891" stroke-width="2" stroke-linecap="round" stroke-linejoin="round"/>
<path d="M71.1426 99V110.607" stroke="#647891" stroke-width="2" stroke-linecap="round" stroke-linejoin="round"/>
<path d="M37.0898 104.869H70.1118" stroke="#647891" stroke-width="2" stroke-linecap="square" stroke-linejoin="round"/>
<path d="M106.025 41.3238V33.2998H115.958V41.0471" stroke="#647891" stroke-width="2" stroke-linecap="round" stroke-linejoin="round"/>
</svg>
