<svg width="32" height="32" viewBox="0 0 32 32" fill="none" xmlns="http://www.w3.org/2000/svg">
<path fill-rule="evenodd" clip-rule="evenodd" d="M22.3636 4.51562C21.6607 4.51562 21.0909 5.08544 21.0909 5.78835V7.06108H18.5455V9.60653H21.7273V10.8793L16.6364 15.3338H12.1818V12.152H16V9.60653H3.27273V12.152H6.9775C6.66158 13.0111 5.73064 13.6479 4.75801 14.3132C3.41853 15.2294 2 16.1997 2 17.8793C2 18.5976 2.18769 19.2502 2.43065 19.7841C2.15454 20.3638 2 21.0126 2 21.6974C2 24.1578 3.99438 26.152 6.45455 26.152C8.69866 26.152 10.5552 24.4926 10.864 22.3338H21.136C21.4448 24.4926 23.3013 26.152 25.5455 26.152C28.0056 26.152 30 24.1578 30 21.6974C30 19.8751 28.9058 18.3085 27.3387 17.6185L27.1717 17.2429H30V14.6974H26.0404L23.6364 9.28835V8.33381H26.1818V4.51562H22.3636ZM9.63636 18.5799V18.5156H9.57213C9.59375 18.5368 9.61517 18.5582 9.63636 18.5799ZM6.45455 23.6065C7.50891 23.6065 8.36364 22.7517 8.36364 21.6974C8.36364 20.6432 7.50891 19.7884 6.45455 19.7884C5.40018 19.7884 4.54545 20.6432 4.54545 21.6974C4.54545 22.7517 5.40018 23.6065 6.45455 23.6065ZM25.5455 23.6065C26.5998 23.6065 27.4545 22.7517 27.4545 21.6974C27.4545 20.6432 26.5998 19.7884 25.5455 19.7884C24.4911 19.7884 23.6364 20.6432 23.6364 21.6974C23.6364 22.7517 24.4911 23.6065 25.5455 23.6065Z" fill="#4A6382"/>
</svg>
