<svg width="144" height="144" viewBox="0 0 144 144" fill="none" xmlns="http://www.w3.org/2000/svg">
<path d="M21.6181 115.2H117.364C120.151 115.2 122.4 112.909 122.4 110.068V70.2002L98.7836 87.0184L94.7516 96.9994L74.5915 91.7154L61.3435 101.696L27.9356 105.219L21.5996 115.2H21.6181Z" fill="#7CC694" stroke="#647891" stroke-width="2" stroke-linecap="round" stroke-linejoin="round"/>
<path d="M71.7686 70.2971L61.6023 73.634C60.4325 74.0179 59.7958 75.2769 60.1799 76.446L60.6262 77.8043C61.0104 78.9734 62.2699 79.6099 63.4397 79.226L73.606 75.8892C74.7757 75.5052 75.4126 74.2463 75.0285 73.0771L74.5822 71.7188C74.198 70.5497 72.9384 69.9132 71.7686 70.2971Z" stroke="#647891" stroke-width="2" stroke-linecap="round" stroke-linejoin="round"/>
<path d="M53.4961 79.2536L60.091 77.0801" stroke="#647891" stroke-width="2" stroke-linecap="round" stroke-linejoin="round"/>
<path d="M74.8965 72.2175L83.9064 69.2637" stroke="#647891" stroke-width="2" stroke-linecap="round" stroke-linejoin="round"/>
<path d="M38.5045 102.705C47.2152 102.705 54.2765 95.6475 54.2765 86.9414C54.2765 78.2354 47.2152 71.1777 38.5045 71.1777C29.7938 71.1777 22.7324 78.2354 22.7324 86.9414C22.7324 95.6475 29.7938 102.705 38.5045 102.705Z" stroke="#647891" stroke-width="2" stroke-linecap="round" stroke-linejoin="round"/>
<path d="M99.4564 71.9935C102.76 71.9935 105.438 69.3168 105.438 66.0148C105.438 62.7129 102.76 60.0361 99.4564 60.0361C96.1527 60.0361 93.4746 62.7129 93.4746 66.0148C93.4746 69.3168 96.1527 71.9935 99.4564 71.9935Z" fill="#F6BD4E"/>
<path d="M38.5054 92.9193C41.8091 92.9193 44.4872 90.2425 44.4872 86.9406C44.4872 83.6387 41.8091 80.9619 38.5054 80.9619C35.2017 80.9619 32.5234 83.6387 32.5234 86.9406C32.5234 90.2425 35.2017 92.9193 38.5054 92.9193Z" fill="#F6BD4E" stroke="#647891" stroke-width="2" stroke-linecap="round" stroke-linejoin="round"/>
<path d="M99.4576 81.7764C108.168 81.7764 115.23 74.7187 115.23 66.0127C115.23 57.3067 108.168 50.249 99.4576 50.249C90.7469 50.249 83.6855 57.3067 83.6855 66.0127C83.6855 74.7187 90.7469 81.7764 99.4576 81.7764Z" stroke="#647891" stroke-width="2" stroke-linecap="round" stroke-linejoin="round"/>
<path d="M99.4564 71.9906C102.76 71.9906 105.438 69.3138 105.438 66.0119C105.438 62.71 102.76 60.0332 99.4564 60.0332C96.1527 60.0332 93.4746 62.71 93.4746 66.0119C93.4746 69.3138 96.1527 71.9906 99.4564 71.9906Z" fill="#F6BD4E" stroke="#647891" stroke-width="2" stroke-linecap="round" stroke-linejoin="round"/>
<path d="M24.0518 68.2072C34.6594 62.2842 45.6757 64.3266 52.0663 68.6528C53.6454 69.7297 53.9055 70.3239 56.7292 69.3769L76.2539 63.1755C76.997 62.9712 77.61 62.4142 77.8701 61.6715C79.1334 57.9766 84.1306 46.4648 98.175 42.1572C100.126 41.563 100.479 38.9451 98.7509 37.8681C92.6019 34.0433 78.2602 38.5366 73.8017 40.9689C72.5013 41.6745 71.9254 42.937 72.4084 44.3296C73.3744 47.189 73.1329 48.6372 67.4111 52.3693C61.5221 56.2127 44.524 57.3824 28.7705 56.5469C23.1787 56.2498 22.5099 69.0984 24.0518 68.2258V68.2072Z" fill="#F06E61" stroke="#647891" stroke-width="2" stroke-linecap="round" stroke-linejoin="round"/>
<path d="M69.8816 50.4193C61.7077 53.2415 54.5926 52.7402 47.0131 51.1805C43.9478 50.5493 40.8268 49.658 37.7244 50.1408C34.622 50.6235 31.5382 52.963 31.4453 56.1009" stroke="#647891" stroke-width="2" stroke-linecap="round" stroke-linejoin="round"/>
<path d="M68.3994 30.6004L62.2578 32.6162L63.0756 35.1051L69.2171 33.0893L68.3994 30.6004Z" fill="#647891" stroke="#647891" stroke-width="2" stroke-linecap="round" stroke-linejoin="round"/>
<path d="M69.0645 31.8145C69.0645 31.8145 79.7835 29.1965 84.1306 37.2361" stroke="#647891" stroke-width="2" stroke-linecap="round" stroke-linejoin="round"/>
<path d="M34.3996 64.79L34.2324 71.4743" stroke="#647891" stroke-width="2" stroke-linecap="round" stroke-linejoin="round"/>
<path d="M88.5527 47.9863L91.4322 50.8658" stroke="#647891" stroke-width="2" stroke-linecap="round" stroke-linejoin="round"/>
</svg>
