<svg width="33" height="32" viewBox="0 0 33 32" fill="none" xmlns="http://www.w3.org/2000/svg">
<path d="M24.5 14V25.5C24.5 25.8283 24.4353 26.1534 24.3097 26.4567C24.1841 26.76 23.9999 27.0356 23.7678 27.2678C23.5356 27.4999 23.26 27.6841 22.9567 27.8097C22.6534 27.9353 22.3283 28 22 28H7C6.33696 28 5.70107 27.7366 5.23223 27.2678C4.76339 26.7989 4.5 26.163 4.5 25.5V10.5C4.5 9.83696 4.76339 9.20107 5.23223 8.73223C5.70107 8.26339 6.33696 8 7 8H17.4675M21.5 4H28.5V11M14.5 18L28 4.5" stroke="#4A6382" stroke-linecap="round" stroke-linejoin="round"/>
</svg>
