<svg width="32" height="32" viewBox="0 0 32 32" fill="none" xmlns="http://www.w3.org/2000/svg">
<path fill-rule="evenodd" clip-rule="evenodd" d="M23.8565 7.30204C23.3563 9.87115 21.3727 11.6808 19.426 11.3439C17.4793 11.0071 16.3068 8.65137 16.807 6.08225C17.3072 3.51313 19.2909 1.70351 21.2375 2.04034C23.1842 2.37718 24.3568 4.73292 23.8565 7.30204ZM29.9017 14.3955C29.4786 16.5682 27.8011 18.0986 26.1548 17.8137C24.5085 17.5289 23.5169 15.5366 23.94 13.364C24.363 11.1913 26.0405 9.66088 27.6868 9.94574C29.3331 10.2306 30.3247 12.2228 29.9017 14.3955ZM11.7731 15.9161C11.2532 16.8093 10.6986 17.7624 9.83972 18.5721C9.06253 19.3047 8.22307 19.9199 7.4411 20.493C5.78363 21.7077 4.38452 22.733 4.38452 24.2859C4.38452 26.5715 8.02132 29.9998 15.901 29.9998C23.7808 29.9998 27.4176 26.5715 27.4176 24.2859C27.4176 22.3151 26.2157 21.6661 24.8483 20.9277C23.8371 20.3816 22.7354 19.7866 21.9624 18.5721C21.6194 18.0332 21.3105 17.5258 21.0226 17.0528L21.0225 17.0526L21.0225 17.0525C19.4227 14.4243 18.4694 12.8582 15.901 12.8582C13.5526 12.8582 12.7206 14.2878 11.7731 15.9161ZM7.77031 7.80385C8.21663 10.096 9.98642 11.7106 11.7232 11.41C13.4601 11.1095 14.5062 9.00773 14.0599 6.71555C13.6136 4.42338 11.8438 2.80884 10.107 3.10936C8.37016 3.40989 7.324 5.51168 7.77031 7.80385ZM5.65781 17.7964C7.05732 17.4429 7.76626 15.659 7.24126 13.812C6.71626 11.965 5.15613 10.7543 3.75662 11.1078C2.3571 11.4613 1.64817 13.2451 2.17316 15.0921C2.69816 16.9391 4.25829 18.1499 5.65781 17.7964Z" fill="#4A6382"/>
</svg>
