<svg width="144" height="144" viewBox="0 0 144 144" fill="none" xmlns="http://www.w3.org/2000/svg">
<g clip-path="url(#clip0_37301_16504)">
<circle cx="72" cy="72" r="71" stroke="#6B7D94" stroke-width="2" stroke-dasharray="5.76 5.76"/>
<path d="M48.2381 97.177L50.2181 95.137L48.7829 93.744L46.8029 95.784L48.2381 97.177ZM54.1781 91.057L58.1381 86.977L56.7029 85.584L52.7429 89.664L54.1781 91.057ZM62.0981 82.897L66.0581 78.817L64.6229 77.424L60.6629 81.504L62.0981 82.897ZM70.0181 74.737L73.9781 70.657L72.5429 69.264L68.5829 73.344L70.0181 74.737ZM77.9381 66.577L81.8981 62.497L80.4629 61.104L76.5029 65.184L77.9381 66.577ZM85.8581 58.417L89.8181 54.337L88.3829 52.944L84.4229 57.024L85.8581 58.417ZM93.7781 50.257L95.7581 48.217L94.3229 46.824L92.3429 48.864L93.7781 50.257Z" fill="#6B7D94"/>
<path d="M94.3225 97.177L92.3425 95.137L93.7776 93.744L95.7576 95.784L94.3225 97.177ZM88.3825 91.057L84.4225 86.977L85.8576 85.584L89.8176 89.664L88.3825 91.057ZM80.4625 82.897L76.5025 78.817L77.9376 77.424L81.8976 81.504L80.4625 82.897ZM72.5425 74.737L68.5825 70.657L70.0176 69.264L73.9776 73.344L72.5425 74.737ZM64.6225 66.577L60.6625 62.497L62.0976 61.104L66.0576 65.184L64.6225 66.577ZM56.7025 58.417L52.7425 54.337L54.1776 52.944L58.1376 57.024L56.7025 58.417ZM48.7825 50.257L46.8025 48.217L48.2376 46.824L50.2176 48.864L48.7825 50.257Z" fill="#6B7D94"/>
</g>
<defs>
<clipPath id="clip0_37301_16504">
<rect width="144" height="144" fill="white"/>
</clipPath>
</defs>
</svg>
