<svg width="32" height="32" viewBox="0 0 32 32" fill="none" xmlns="http://www.w3.org/2000/svg">
<path fill-rule="evenodd" clip-rule="evenodd" d="M8.4043 24.1462C7.32047 22.2525 6.19922 20.2934 6.19922 17.4C6.19922 15.9269 6.53665 14.6646 7.05935 13.5752L8.99917 16L13.1992 15.3L11.0992 18.8L14.5992 20.9L15.9992 24.4V19.5L13.8992 18.1L16.6992 13.2H10.3992L8.73069 11.1144C9.54503 10.1997 10.4265 9.45953 11.1631 8.84098C11.3911 8.64952 11.6052 8.46972 11.7992 8.3V4.8H10.3992V2.2C10.3992 2.08954 10.4888 2 10.5992 2H21.3992C21.5097 2 21.5992 2.08954 21.5992 2.2V4.8H20.1992V8.3C20.3932 8.46972 20.6073 8.64953 20.8353 8.84098C22.8015 10.4919 25.7992 13.0092 25.7992 17.4C25.7992 20.2934 24.678 22.2525 23.5941 24.1462C22.6093 25.8668 21.6554 27.5335 21.6016 29.7981C21.599 29.9085 21.5097 30 21.3992 30H10.5992C10.4888 30 10.3995 29.9085 10.3968 29.7981C10.343 27.5335 9.38909 25.8668 8.4043 24.1462Z" fill="#4A6382"/>
</svg>
