<svg width="144" height="144" viewBox="0 0 144 144" fill="none" xmlns="http://www.w3.org/2000/svg">
<path d="M111.601 24.9268H32.4011C30.0788 24.9268 28.1963 26.8093 28.1963 29.1316V114.869C28.1963 117.191 30.0788 119.074 32.4011 119.074H111.601C113.923 119.074 115.806 117.191 115.806 114.869V29.1316C115.806 26.8093 113.923 24.9268 111.601 24.9268Z" stroke="#6B7D94" stroke-width="2" stroke-linecap="round" stroke-linejoin="round"/>
<path d="M41.4863 46.4258L102.668 46.4259" stroke="#6B7D94" stroke-width="2" stroke-linecap="round" stroke-linejoin="round"/>
<path d="M41.4863 60.4258L102.668 60.4259" stroke="#6B7D94" stroke-width="2" stroke-linecap="round" stroke-linejoin="round"/>
<path d="M41.4863 74.4258L102.668 74.4259" stroke="#6B7D94" stroke-width="2" stroke-linecap="round" stroke-linejoin="round"/>
<path d="M50.7891 91.4541C48.2258 91.4541 46.1521 91.6125 43.8768 91.6269C43.4194 91.5887 42.9614 91.6934 42.566 91.9265C42.1706 92.1597 41.8573 92.5097 41.6692 92.9285C41.4812 93.3472 41.4277 93.8139 41.5162 94.2643C41.6046 94.7147 41.8307 95.1266 42.1631 95.4431C43.7616 96.7536 48.557 96.3071 50.9187 97.6032C52.8628 98.6689 52.7764 101.592 50.1555 101.679C47.8514 101.679 44.8272 101.779 42.3359 101.808" stroke="#6B7D94" stroke-width="2" stroke-linecap="round" stroke-linejoin="round"/>
<path d="M46.8447 87.0908L47.0031 105.005" stroke="#6B7D94" stroke-width="2" stroke-linecap="round" stroke-linejoin="round"/>
<path d="M103.09 88.833H63.4902V103.637H103.09V88.833Z" stroke="#7CC694" stroke-width="2" stroke-linecap="round" stroke-linejoin="round"/>
</svg>
