<svg width="144" height="144" viewBox="0 0 144 144" fill="none" xmlns="http://www.w3.org/2000/svg">
<path d="M52.2011 41.9619L36.3604 42.0627L36.5188 54.1881" stroke="#6B7D94" stroke-width="2" stroke-linecap="round" stroke-linejoin="round"/>
<path d="M89.1937 85.392C91.1241 83.8249 92.5767 81.7482 93.3869 79.3974C94.1971 77.0466 94.3324 74.5159 93.7774 72.0921C93.2224 69.6684 91.9994 67.4487 90.247 65.6847C88.4947 63.9207 86.2831 62.683 83.8631 62.112C81.4431 61.5409 78.9115 61.6595 76.5554 62.4541C74.1993 63.2487 72.113 64.6875 70.5331 66.6075C68.9532 68.5275 67.9429 70.8518 67.6168 73.3168C67.2907 75.7818 67.6618 78.2888 68.6881 80.5536L46.8145 98.5105L55.9873 99.8352L56.8945 95.2705L61.5601 95.8752V91.224L66.0241 92.4336L73.7137 86.4C76.0753 87.8719 78.8389 88.5662 81.6157 88.3854C84.3926 88.2046 87.0428 87.1577 89.1937 85.392Z" fill="#F6BD4E" stroke="#F6BD4E" stroke-width="2" stroke-linecap="round" stroke-linejoin="round"/>
<path d="M111.427 57.3145V112.553C111.42 113.64 110.983 114.68 110.211 115.446C109.439 116.213 108.396 116.642 107.309 116.642H37.2242C36.1815 116.642 35.1816 116.228 34.4444 115.491C33.7071 114.754 33.293 113.754 33.293 112.711V57.8905" stroke="#6B7D94" stroke-width="2" stroke-linecap="round" stroke-linejoin="round"/>
<path d="M118.526 62.626L73.8 27.3604L25.4736 63.3604" stroke="#6B7D94" stroke-width="2" stroke-linecap="round" stroke-linejoin="round"/>
</svg>
