<svg width="144" height="144" viewBox="0 0 144 144" fill="none" xmlns="http://www.w3.org/2000/svg">
<path d="M53.4381 97.7917L46.6914 91.751L19.8226 121.76L26.5693 127.801L53.4381 97.7917Z" fill="#6B7D94"/>
<path d="M87.9221 89.6508C107.763 89.6508 123.847 73.5666 123.847 53.7258C123.847 33.8849 107.763 17.8008 87.9221 17.8008C68.0813 17.8008 51.9971 33.8849 51.9971 53.7258C51.9971 73.5666 68.0813 89.6508 87.9221 89.6508Z" stroke="#6B7D94" stroke-width="2" stroke-linecap="round" stroke-linejoin="round"/>
<path d="M55.3496 94.0784L60.8499 87.9338C61.4298 87.2864 61.7292 86.4353 61.6822 85.5673C61.6352 84.6994 61.2458 83.8856 60.5993 83.3045C60.2787 83.0166 59.9043 82.7949 59.4977 82.6522C59.0911 82.5095 58.6603 82.4486 58.2301 82.473C57.7999 82.4974 57.3787 82.6066 56.9908 82.7944C56.603 82.9821 56.256 83.2447 55.97 83.567L50.4697 89.6996C51.806 90.8808 54.073 92.945 55.3496 94.0784Z" stroke="#6B7D94" stroke-width="2" stroke-linecap="round" stroke-linejoin="round"/>
<path d="M87.9217 80.2019C102.544 80.2019 114.397 68.3484 114.397 53.7264C114.397 39.1044 102.544 27.251 87.9217 27.251C73.2998 27.251 61.4463 39.1044 61.4463 53.7264C61.4463 68.3484 73.2998 80.2019 87.9217 80.2019Z" fill="#F6BD4E"/>
<path d="M87.9217 80.2019C102.544 80.2019 114.397 68.3484 114.397 53.7264C114.397 39.1044 102.544 27.251 87.9217 27.251C73.2998 27.251 61.4463 39.1044 61.4463 53.7264C61.4463 68.3484 73.2998 80.2019 87.9217 80.2019Z" stroke="#6B7D94" stroke-width="2" stroke-linecap="round" stroke-linejoin="round"/>
<path d="M61.7324 54.9424C61.7324 54.9424 85.9886 27.5005 114.23 55.181C114.266 55.181 87.4801 79.2225 61.7324 54.9424Z" fill="white"/>
<path d="M61.7324 54.9424C61.7324 54.9424 85.9886 27.5005 114.23 55.181C114.266 55.181 87.4801 79.2225 61.7324 54.9424Z" stroke="#6B7D94" stroke-width="2" stroke-linecap="round" stroke-linejoin="round"/>
<path d="M87.6355 64.8222C93.6846 64.8222 98.5884 59.8276 98.5884 53.6665C98.5884 47.5053 93.6846 42.5107 87.6355 42.5107C81.5864 42.5107 76.6826 47.5053 76.6826 53.6665C76.6826 59.8276 81.5864 64.8222 87.6355 64.8222Z" fill="#6B7D94"/>
<path d="M97.3004 55.6233C99.2575 55.6233 100.844 54.0368 100.844 52.0797C100.844 50.1226 99.2575 48.5361 97.3004 48.5361C95.3434 48.5361 93.7568 50.1226 93.7568 52.0797C93.7568 54.0368 95.3434 55.6233 97.3004 55.6233Z" fill="white"/>
</svg>
