<svg width="32" height="32" viewBox="0 0 32 32" fill="none" xmlns="http://www.w3.org/2000/svg">
<path d="M16.4023 1.17676C16.1459 1.06412 15.8541 1.06412 15.5977 1.17676L4.59773 6.01009C4.23452 6.16968 4 6.52889 4 6.92561L4 14.1818C4 21.4145 9.00399 28.1829 15.7655 29.9412C15.9191 29.9811 16.0809 29.9811 16.2345 29.9412C22.996 28.1831 28 21.4145 28 14.1818V6.92561C28 6.52889 27.7655 6.16968 27.4023 6.01009L16.4023 1.17676ZM16 6.71177C18.2083 6.71177 19.9741 8.48307 19.9741 10.6663C19.9741 12.8496 18.2083 14.6209 16 14.6209C13.7917 14.6209 12 12.8496 12 10.6663C12 8.48307 13.7917 6.71177 16 6.71177ZM22.8399 22.0909C21.2541 24.4919 18.8969 26.294 16.152 27.2086C16.0534 27.2414 15.9466 27.2414 15.848 27.2086C13.103 26.294 10.7459 24.492 9.16011 22.0909C8.75465 21.5014 8.74967 21.4511 8.5242 20.9472C8.4655 20.816 8.4308 20.6733 8.44465 20.5303C8.64787 18.4322 11.7599 16.4294 16 16.4294C20.2423 16.4294 23.4235 18.3055 23.6283 20.432C23.6421 20.575 23.6077 20.7178 23.548 20.8485C23.3089 21.3719 23.2463 21.5002 22.8399 22.0909Z" fill="#4A6382"/>
</svg>
