<svg width="144" height="144" viewBox="0 0 144 144" fill="none" xmlns="http://www.w3.org/2000/svg">
<path d="M37.2106 58.3999C31.7676 35.3481 51.8823 18.6824 73.3847 19.0731C95.8706 19.4504 113.183 35.0787 110.435 57.3355" stroke="#6B7D94" stroke-width="2" stroke-linecap="round" stroke-linejoin="round"/>
<path d="M82.2225 77.7334C79.3259 81.1824 70.3801 82.4893 66.2305 77.7334" stroke="#6B7D94" stroke-width="2" stroke-linecap="round" stroke-linejoin="round"/>
<path d="M103.779 58.8174C107.484 90.0066 68.7497 105.891 50.1305 81.9904C45.3447 75.8713 43.0318 68.1778 43.6501 60.4341" stroke="#6B7D94" stroke-width="2" stroke-linecap="round" stroke-linejoin="round"/>
<path d="M58.888 90.5586C58.1336 96.5539 56.3821 102.684 51.9766 105.096" stroke="#6B7D94" stroke-width="2" stroke-linecap="round" stroke-linejoin="round"/>
<path d="M87.1135 90.9902C86.7228 97.0934 90.037 104.908 93.5534 107.481" stroke="#6B7D94" stroke-width="2" stroke-linecap="round" stroke-linejoin="round"/>
<path d="M41.8723 59.0186C36.6988 63.6397 39.1104 72.8011 45.7389 74.3774" stroke="#6B7D94" stroke-width="2" stroke-linecap="round" stroke-linejoin="round"/>
<path d="M103.805 56.7959C103.805 56.7959 109.464 58.965 108.723 66.2268C108.547 67.9752 107.831 69.6255 106.675 70.9485C105.518 72.2716 103.979 73.2017 102.27 73.6098" stroke="#6B7D94" stroke-width="2" stroke-linecap="round" stroke-linejoin="round"/>
<path d="M43.4884 60.8383C43.4884 60.8383 35.9168 40.7235 56.4087 29.2313C56.4087 29.2313 70.1104 21.013 88.8644 29.2987C107.618 37.5844 103.994 57.5913 103.994 57.5913" stroke="#6B7D94" stroke-width="2" stroke-linecap="round" stroke-linejoin="round"/>
<path d="M50.0363 103.318C54.617 105.918 75.796 112.641 94.4961 103.318C94.9136 103.106 95.3752 102.996 95.8434 102.996C96.3116 102.996 96.7731 103.106 97.1907 103.318C104.991 107.05 116.416 112.358 122.587 123.015C122.875 123.557 123.017 124.164 122.998 124.777C122.98 125.39 122.803 125.988 122.483 126.512C122.163 127.035 121.713 127.466 121.176 127.763C120.639 128.059 120.034 128.211 119.421 128.202H25.5968C24.9879 128.211 24.3868 128.063 23.8517 127.772C23.3165 127.482 22.8653 127.058 22.5417 126.542C22.2181 126.026 22.0329 125.435 22.004 124.827C21.9751 124.219 22.1035 123.613 22.3769 123.069C25.2061 117.68 31.8077 109.246 46.9106 103.156C47.4108 102.949 47.951 102.856 48.4917 102.884C49.0325 102.912 49.5602 103.06 50.0363 103.318Z" fill="#F06E61"/>
<path d="M53.6465 37.3828C53.6465 37.3828 65.2869 61.0139 103.819 55.6113" stroke="#6B7D94" stroke-width="2" stroke-linecap="round" stroke-linejoin="round"/>
<path d="M53.243 37.2334C54.656 41.6192 54.4698 46.3637 52.7176 50.6252C51.0425 54.7033 47.9051 58.009 43.9199 59.8944" stroke="#6B7D94" stroke-width="2" stroke-linecap="round" stroke-linejoin="round"/>
<path d="M104.561 53.4807C104.421 53.4573 104.279 53.4684 104.145 53.513C104.011 53.5576 103.89 53.6344 103.793 53.7367C104.856 58.5714 105.071 63.5542 104.426 68.4623C104.116 71.3455 101.65 74.3364 100.869 77.0849C100.788 77.3678 100.694 77.8528 100.6 78.1357C100.761 78.3782 101.058 78.3109 101.395 78.3378C109.64 79.0519 114.153 73.1104 114.476 66.6166C114.8 60.1228 110.421 54.4373 104.561 53.4807Z" fill="#6B7D94"/>
<path d="M42.8691 53.4824C43.179 53.4824 42.438 54.6545 42.6266 54.8297C41.4275 59.4912 43.2463 62.334 43.7583 66.9551C44.0682 69.8517 45.7927 74.2708 46.5606 77.0192C46.6415 77.3021 46.7492 77.7871 46.8301 78.0701C46.6684 78.3126 46.372 78.2452 46.0352 78.2721C37.7899 78.9862 33.2766 73.0448 32.9667 66.5509C32.6568 60.0571 37.022 54.439 42.8691 53.4824Z" fill="#6B7D94"/>
<path d="M44.8223 73.3008C45.1726 86.2076 57.1767 98.2926 66.9444 101.081" stroke="#6B7D94" stroke-width="2" stroke-linecap="round" stroke-linejoin="round"/>
<path d="M70.9732 106.24C72.9599 106.24 74.5704 104.63 74.5704 102.643C74.5704 100.656 72.9599 99.0459 70.9732 99.0459C68.9865 99.0459 67.376 100.656 67.376 102.643C67.376 104.63 68.9865 106.24 70.9732 106.24Z" stroke="#6B7D94" stroke-width="2" stroke-linecap="round" stroke-linejoin="round"/>
</svg>
