<svg width="32" height="32" viewBox="0 0 32 32" fill="none" xmlns="http://www.w3.org/2000/svg">
<path d="M28.1333 23.4895C27.872 23.4893 27.6137 23.4343 27.375 23.3279C27.3195 23.3033 27.2665 23.2732 27.2169 23.2381L22.3922 19.8419C22.1475 19.6697 21.9478 19.4411 21.8099 19.1756C21.6721 18.91 21.6001 18.6152 21.6 18.3159V13.6843C21.6001 13.385 21.6721 13.0902 21.8099 12.8246C21.9478 12.5591 22.1475 12.3305 22.3922 12.1583L27.2169 8.7621C27.2665 8.72701 27.3195 8.69692 27.375 8.67226C27.6592 8.54591 27.9705 8.49257 28.2805 8.5171C28.5906 8.54162 28.8896 8.64324 29.1504 8.8127C29.4112 8.98216 29.6255 9.21411 29.7739 9.48746C29.9223 9.76081 30 10.0669 30 10.3779V21.6223C30 22.1173 29.8033 22.5921 29.4533 22.9422C29.1032 23.2923 28.6284 23.4889 28.1333 23.4889V23.4895ZM16.7 24.4001H5.96667C4.91497 24.399 3.90666 23.9808 3.163 23.2371C2.41934 22.4934 2.00108 21.4851 2 20.4334V11.5668C2.00108 10.5151 2.41934 9.50676 3.163 8.7631C3.90666 8.01944 4.91497 7.60118 5.96667 7.6001H16.728C17.7722 7.60133 18.7733 8.01669 19.5117 8.75507C20.2501 9.49345 20.6654 10.4945 20.6667 11.5388V20.4334C20.6656 21.4851 20.2473 22.4934 19.5037 23.2371C18.76 23.9808 17.7517 24.399 16.7 24.4001V24.4001Z" fill="#4A6382"/>
</svg>
