<svg width="33" height="32" viewBox="0 0 33 32" fill="none" xmlns="http://www.w3.org/2000/svg">
<path d="M5.84812 27.8906H27.1519C27.4979 27.8906 27.838 27.8007 28.1389 27.6299C28.4398 27.4591 28.6912 27.2131 28.8686 26.9161C29.046 26.619 29.1433 26.281 29.151 25.9351C29.1587 25.5892 29.0765 25.2472 28.9125 24.9425L18.2612 5.16125C17.5056 3.75875 15.4944 3.75875 14.7387 5.16125L4.0875 24.9425C3.92347 25.2472 3.84128 25.5892 3.84897 25.9351C3.85667 26.281 3.95397 26.619 4.13138 26.9161C4.30879 27.2131 4.56023 27.4591 4.86113 27.6299C5.16204 27.8007 5.50211 27.8906 5.84812 27.8906V27.8906Z" stroke="#4A6382" stroke-linecap="round" stroke-linejoin="round"/>
<path d="M16.1412 12.212L16.5 19.837L16.8581 12.2151C16.8603 12.1664 16.8526 12.1177 16.8354 12.0721C16.8181 12.0265 16.7918 11.9848 16.7579 11.9497C16.724 11.9146 16.6834 11.8868 16.6384 11.868C16.5934 11.8491 16.545 11.8396 16.4962 11.8401V11.8401C16.4483 11.8406 16.401 11.8506 16.357 11.8697C16.3131 11.8888 16.2734 11.9165 16.2403 11.9511C16.2072 11.9858 16.1814 12.0267 16.1644 12.0715C16.1473 12.1163 16.1395 12.1641 16.1412 12.212V12.212Z" stroke="#4A6382" stroke-linecap="round" stroke-linejoin="round"/>
<path d="M16.5 24.8281C16.2528 24.8281 16.0111 24.7548 15.8055 24.6175C15.6 24.4801 15.4398 24.2849 15.3452 24.0565C15.2505 23.8281 15.2258 23.5767 15.274 23.3343C15.3223 23.0918 15.4413 22.8691 15.6161 22.6942C15.7909 22.5194 16.0137 22.4004 16.2561 22.3521C16.4986 22.3039 16.7499 22.3287 16.9784 22.4233C17.2068 22.5179 17.402 22.6781 17.5393 22.8837C17.6767 23.0892 17.75 23.3309 17.75 23.5781C17.75 23.9096 17.6183 24.2276 17.3839 24.462C17.1495 24.6964 16.8315 24.8281 16.5 24.8281Z" fill="#4A6382"/>
</svg>
