<svg width="144" height="144" viewBox="0 0 144 144" fill="none" xmlns="http://www.w3.org/2000/svg">
<path d="M132.092 23.7177C134.079 25.6741 135.658 28.0064 136.735 30.5787C137.813 33.1511 138.368 35.9121 138.368 38.7009C138.368 41.4898 137.813 44.2508 136.735 46.8231C135.658 49.3955 134.079 51.7278 132.092 53.6841C130.098 55.6629 127.734 57.2295 125.135 58.2944C122.536 59.3593 119.752 59.9017 116.943 59.8905C113.431 59.8875 109.972 59.0326 106.863 57.3993L106.561 57.1977L106.172 57.3417L97.2583 60.4809H97.0278V60.3657V60.2793L99.7207 51.7977L99.8647 51.3369L99.5911 50.9337C96.6903 46.8631 95.3347 41.8921 95.7675 36.9124C96.2003 31.9327 98.3931 27.2701 101.953 23.7609L132.092 23.7177ZM132.193 23.7609C128.155 19.8032 122.727 17.5864 117.073 17.5864C111.419 17.5864 105.99 19.8032 101.953 23.7609" fill="#F06E61"/>
<path d="M125.625 96.6233L123.84 95.6297L120.556 93.9737C117.878 92.6345 114.321 90.8489 110.476 88.8473C102.852 85.0266 95.4393 80.7965 88.2715 76.1753C84.618 73.7294 81.1082 71.0755 77.7595 68.2265C77.3707 67.8665 77.0539 67.5785 76.7947 67.3193C80.5029 65.3229 83.4484 62.1584 85.174 58.3167C86.8996 54.475 87.3088 50.1712 86.338 46.0732C85.3673 41.9751 83.0709 38.3122 79.8054 35.6528C76.5398 32.9935 72.4877 31.4865 68.278 31.3658C64.0683 31.245 59.9365 32.5173 56.5239 34.9852C53.1113 37.453 50.6088 40.9783 49.4048 45.0139C48.2007 49.0496 48.3626 53.3698 49.8652 57.3041C51.3678 61.2383 54.1271 64.5665 57.7147 66.7721C57.3979 67.0889 56.9371 67.5641 56.1883 68.2121C52.8393 71.0561 49.3295 73.7053 45.6763 76.1465C38.4425 80.7895 30.9522 85.0203 23.2411 88.8185C19.3243 90.8057 15.7099 92.6057 12.9883 93.9449H12.9595L9.63313 95.6297C8.81233 96.0473 8.19313 96.3497 7.97713 96.5081C7.69247 96.6858 7.45907 96.9346 7.29998 97.2301C7.14088 97.5256 7.06159 97.8574 7.06993 98.1929C7.11307 98.7971 7.3169 99.3787 7.66033 99.8777C8.3981 100.931 9.38831 101.783 10.5403 102.354C10.7302 102.441 10.9365 102.485 11.1451 102.484C11.3321 102.498 11.5198 102.498 11.7067 102.484C12.0955 102.484 12.5563 102.34 13.1467 102.21C14.2123 101.951 15.6235 101.534 17.2219 101.03C19.9147 100.166 23.2267 99.0281 26.6395 97.8473L28.6987 97.1273C32.8315 95.6873 36.9643 94.2473 40.2187 93.3545C41.8459 92.8793 43.2283 92.5193 44.2651 92.3177C44.669 92.2365 45.078 92.1836 45.4891 92.1593H45.7771V92.2889C45.8747 92.5993 45.9469 92.9172 45.9931 93.2393C46.1223 94.3867 46.1848 95.5406 46.1803 96.6953C46.1803 99.5753 46.0075 103.19 45.8203 106.919C45.6475 110.649 45.4603 114.407 45.4747 117.374C45.4572 118.644 45.5246 119.914 45.6763 121.175C45.7302 121.636 45.8315 122.089 45.9787 122.529C46.091 122.937 46.3215 123.303 46.6411 123.58C46.9848 123.806 47.3647 123.972 47.7643 124.07C48.2865 124.199 48.8153 124.3 49.3483 124.372C50.5723 124.545 52.2283 124.674 53.9995 124.775C57.6571 124.977 62.3227 125.063 66.9595 125.034C71.5963 125.006 76.2187 124.862 79.8187 124.646C81.6043 124.53 83.1595 124.401 84.3259 124.242C84.9163 124.17 85.4203 124.084 85.7659 123.998C85.981 123.961 86.1928 123.909 86.3995 123.839C86.578 123.781 86.7477 123.699 86.9035 123.594C87.216 123.327 87.4291 122.961 87.5083 122.558C87.6123 122.147 87.6797 121.728 87.7099 121.305C87.7763 120.096 87.7763 118.885 87.7099 117.676C87.6235 115.17 87.3931 112.017 87.1483 108.777C87.1483 108.33 87.1483 107.898 87.0475 107.452C86.7739 103.751 86.5147 100.05 86.4715 97.1273C86.4469 95.9114 86.4902 94.6951 86.6011 93.4841C86.6397 93.1087 86.712 92.7376 86.8171 92.3753C86.8425 92.2746 86.8813 92.1777 86.9323 92.0873C86.9268 92.0636 86.9268 92.039 86.9323 92.0153C87.0273 91.9955 87.1254 91.9955 87.2203 92.0153C87.6177 91.9738 88.0182 91.9738 88.4155 92.0153C89.7863 92.1891 91.1432 92.4586 92.4763 92.8217C95.7595 93.6425 99.9355 94.9817 104.126 96.4073C107.236 97.4585 110.332 98.5529 113.054 99.5177C113.99 99.8633 114.897 100.18 115.747 100.468C117.374 101.044 118.771 101.534 119.836 101.908L121.176 102.311C121.475 102.405 121.784 102.463 122.097 102.484C122.782 102.429 123.446 102.222 124.042 101.878C124.637 101.534 125.148 101.062 125.539 100.497C125.954 99.9605 126.222 99.3252 126.316 98.6537C126.373 98.2846 126.34 97.9073 126.22 97.5537C126.099 97.2002 125.895 96.881 125.625 96.6233Z" stroke="#6B7D94" stroke-width="2" stroke-linecap="round" stroke-linejoin="round"/>
<path d="M116.366 33.3656L116.942 33.9272L117.518 33.3656C118.152 32.7194 118.863 32.1536 119.635 31.6807C120.462 31.147 121.416 30.8438 122.399 30.8022V30.8022C123.131 30.7649 123.863 30.873 124.552 31.1202C125.242 31.3673 125.876 31.7487 126.417 32.2423C126.909 32.7494 127.291 33.3527 127.539 34.0144C127.787 34.676 127.895 35.3818 127.857 36.0873C127.785 37.3773 127.329 38.6162 126.547 39.6443C126.122 40.2377 125.64 40.7876 125.107 41.286V41.286L116.956 48.9615L108.806 41.1852L108.691 41.07L108.359 40.7387C108.024 40.3695 107.711 39.98 107.423 39.5723C106.623 38.5453 106.151 37.3005 106.07 36.0009C106.032 35.2954 106.14 34.5896 106.388 33.9279C106.636 33.2663 107.018 32.663 107.51 32.1559C108.432 31.355 109.589 30.8755 110.807 30.7898C112.025 30.7041 113.238 31.0167 114.263 31.6807C115.031 32.1532 115.737 32.7192 116.366 33.3656V33.3656Z" fill="white"/>
<path d="M125.625 96.6233L123.84 95.6297L120.556 93.9737C117.878 92.6345 114.321 90.8489 110.476 88.8473C102.852 85.0266 95.4393 80.7965 88.2715 76.1753C84.618 73.7294 81.1082 71.0755 77.7595 68.2265C77.3707 67.8665 77.0539 67.5785 76.7947 67.3193C80.5029 65.3229 83.4484 62.1584 85.174 58.3167C86.8996 54.475 87.3088 50.1712 86.338 46.0732C85.3673 41.9751 83.0709 38.3122 79.8054 35.6528C76.5398 32.9935 72.4877 31.4865 68.278 31.3658C64.0683 31.245 59.9365 32.5173 56.5239 34.9852C53.1113 37.453 50.6088 40.9783 49.4048 45.0139C48.2007 49.0496 48.3626 53.3698 49.8652 57.3041C51.3678 61.2383 54.1271 64.5665 57.7147 66.7721C57.3979 67.0889 56.9371 67.5641 56.1883 68.2121C52.8393 71.0561 49.3295 73.7053 45.6763 76.1465C38.4425 80.7895 30.9522 85.0203 23.2411 88.8185C19.3243 90.8057 15.7099 92.6057 12.9883 93.9449H12.9595L9.63313 95.6297C8.81233 96.0473 8.19313 96.3497 7.97713 96.5081C7.69247 96.6858 7.45907 96.9346 7.29998 97.2301C7.14088 97.5256 7.06159 97.8574 7.06993 98.1929C7.11307 98.7971 7.3169 99.3787 7.66033 99.8777C8.3981 100.931 9.38831 101.783 10.5403 102.354C10.7302 102.441 10.9365 102.485 11.1451 102.484C11.3321 102.498 11.5198 102.498 11.7067 102.484C12.0955 102.484 12.5563 102.34 13.1467 102.21C14.2123 101.951 15.6235 101.534 17.2219 101.03C19.9147 100.166 23.2267 99.0281 26.6395 97.8473L28.6987 97.1273C32.8315 95.6873 36.9643 94.2473 40.2187 93.3545C41.8459 92.8793 43.2283 92.5193 44.2651 92.3177C44.669 92.2365 45.078 92.1836 45.4891 92.1593H45.7771V92.2889C45.8747 92.5993 45.9469 92.9172 45.9931 93.2393C46.1223 94.3867 46.1848 95.5406 46.1803 96.6953C46.1803 99.5753 46.0075 103.19 45.8203 106.919C45.6475 110.649 45.4603 114.407 45.4747 117.374C45.4572 118.644 45.5246 119.914 45.6763 121.175C45.7302 121.636 45.8315 122.089 45.9787 122.529C46.091 122.937 46.3215 123.303 46.6411 123.58C46.9848 123.806 47.3647 123.972 47.7643 124.07C48.2865 124.199 48.8153 124.3 49.3483 124.372C50.5723 124.545 52.2283 124.674 53.9995 124.775C57.6571 124.977 62.3227 125.063 66.9595 125.034C71.5963 125.006 76.2187 124.862 79.8187 124.646C81.6043 124.53 83.1595 124.401 84.3259 124.242C84.9163 124.17 85.4203 124.084 85.7659 123.998C85.981 123.961 86.1928 123.909 86.3995 123.839C86.578 123.781 86.7477 123.699 86.9035 123.594C87.216 123.327 87.4291 122.961 87.5083 122.558C87.6123 122.147 87.6797 121.728 87.7099 121.305C87.7763 120.096 87.7763 118.885 87.7099 117.676C87.6235 115.17 87.3931 112.017 87.1483 108.777C87.1483 108.33 87.1483 107.898 87.0475 107.452C86.7739 103.751 86.5147 100.05 86.4715 97.1273C86.4469 95.9114 86.4902 94.6951 86.6011 93.4841C86.6397 93.1087 86.712 92.7376 86.8171 92.3753C86.8425 92.2746 86.8813 92.1777 86.9323 92.0873C86.9268 92.0636 86.9268 92.039 86.9323 92.0153C87.0273 91.9955 87.1254 91.9955 87.2203 92.0153C87.6177 91.9738 88.0182 91.9738 88.4155 92.0153C89.7863 92.1891 91.1432 92.4586 92.4763 92.8217C95.7595 93.6425 99.9355 94.9817 104.126 96.4073C107.236 97.4585 110.332 98.5529 113.054 99.5177C113.99 99.8633 114.897 100.18 115.747 100.468C117.374 101.044 118.771 101.534 119.836 101.908L121.176 102.311C121.475 102.405 121.784 102.463 122.097 102.484C122.782 102.429 123.446 102.222 124.042 101.878C124.637 101.534 125.148 101.062 125.539 100.497C125.954 99.9605 126.222 99.3252 126.316 98.6537C126.373 98.2846 126.34 97.9073 126.22 97.5537C126.099 97.2002 125.895 96.881 125.625 96.6233Z" stroke="#6B7D94" stroke-width="2" stroke-linecap="round" stroke-linejoin="round"/>
<path d="M74.8805 56.3462C72.3316 59.3703 64.4688 60.508 60.8398 56.3462" stroke="#6B7D94" stroke-width="2" stroke-linecap="round" stroke-linejoin="round"/>
</svg>
