<svg width="32" height="32" viewBox="0 0 32 32" fill="none" xmlns="http://www.w3.org/2000/svg">
<path fill-rule="evenodd" clip-rule="evenodd" d="M9 6.32641V29.0004C9 29.5527 9.44772 30.0004 10 30.0004H22C22.5523 30.0004 23 29.5527 23 29.0004V6.32641C23 6.22112 22.9448 6.12353 22.8546 6.06929L16.1546 2.0419C16.0594 1.98473 15.9406 1.98473 15.8454 2.0419L12.236 4.21152L15.1381 9.01868L13.5843 13.0145L17.4049 11.664L18.7029 15.5454L21.7923 17.6447L17.0577 16.6375L16.1436 14.2799L10.824 16.0326L12.1401 9.82304L9.35176 5.94527L9.14544 6.06929C9.0552 6.12353 9 6.22112 9 6.32641ZM20.2007 7.55956H17.4007V10.3647H20.2007V7.55956ZM11.8005 18.7798H14.6005V21.5849H11.8005V18.7798ZM11.8005 24.3904H14.6005V27.1956H11.8005V24.3904ZM17.4007 18.7798H20.2007V21.5849H17.4007V18.7798ZM20.2007 24.3904H17.4007V27.1956H20.2007V24.3904Z" fill="#4A6382"/>
</svg>
