<svg width="32" height="32" viewBox="0 0 32 32" fill="none" xmlns="http://www.w3.org/2000/svg">
<path d="M9.48803 10.3655L12.1606 4H8.06932C7.44072 4.0059 6.85054 4.28337 6.4763 4.74975L2.42338 9.63497C2.24264 9.85635 2.10829 10.1072 2.02832 10.3758H9.49141L9.48803 10.3655ZM7.17687 6.93416L5.42069 9.05056L5.41909 9.05203C5.20317 9.30736 4.80332 9.35606 4.52501 9.1583C4.24512 8.96053 4.19073 8.59156 4.40346 8.33329L6.15964 6.21541C6.37556 5.96009 6.77542 5.91286 7.05372 6.11063C7.33362 6.30692 7.388 6.67588 7.17687 6.93416ZM7.90619 5.79627C7.64868 5.79627 7.41358 5.65164 7.31441 5.43174C7.21524 5.21036 7.26962 4.95651 7.45355 4.78827C7.63589 4.61855 7.91099 4.56837 8.15089 4.65987C8.38921 4.75138 8.54435 4.96685 8.54435 5.20594C8.54435 5.5321 8.25966 5.79627 7.90619 5.79627Z" fill="#4A6382"/>
<path d="M7.17687 6.93416L5.42069 9.05056L5.41909 9.05203C5.20317 9.30736 4.80332 9.35606 4.52501 9.1583C4.24512 8.96053 4.19073 8.59156 4.40346 8.33329L6.15964 6.21541C6.37556 5.96009 6.77542 5.91286 7.05372 6.11063C7.33362 6.30692 7.388 6.67588 7.17687 6.93416Z" fill="#4A6382"/>
<path d="M7.90619 5.79627C7.64868 5.79627 7.41358 5.65164 7.31441 5.43174C7.21524 5.21036 7.26962 4.95651 7.45355 4.78827C7.63589 4.61855 7.91099 4.56837 8.15089 4.65987C8.38921 4.75138 8.54435 4.96685 8.54435 5.20594C8.54435 5.5321 8.25966 5.79627 7.90619 5.79627Z" fill="#4A6382"/>
<path d="M2 11.9933C2.06717 12.2604 2.18553 12.5128 2.35027 12.7401L14.0903 28.5564C14.1561 28.6451 14.2959 28.5773 14.2671 28.4707L9.80967 11.9932L2 11.9933Z" fill="#4A6382"/>
<path d="M11.8232 11.9932L15.8057 29.1572C15.8536 29.3638 16.1478 29.3635 16.1954 29.1569L20.1473 11.9932H11.8232Z" fill="#4A6382"/>
<path d="M20.0907 10.3757L18.4688 4H13.5362L11.8633 10.3757H20.0907Z" fill="#4A6382"/>
<path d="M22.1903 11.9932L17.7345 28.4692C17.7057 28.5758 17.8455 28.6436 17.9113 28.5549L29.6501 12.7386C29.8165 12.5128 29.9348 12.259 30.0004 11.9933L22.1903 11.9932Z" fill="#4A6382"/>
<path d="M22.5075 10.3757H29.9718C29.8919 10.1086 29.7575 9.85618 29.5768 9.63482L25.5271 4.75564H25.5287C25.1496 4.28631 24.5546 4.00589 23.9212 4H19.8379L22.5105 10.3655L22.5075 10.3757Z" fill="#4A6382"/>
</svg>
