<svg width="32" height="32" viewBox="0 0 32 32" fill="none" xmlns="http://www.w3.org/2000/svg">
<path fill-rule="evenodd" clip-rule="evenodd" d="M10.1667 24.1668C14.677 24.1668 18.3333 20.5105 18.3333 16.0002C18.3333 11.4899 14.677 7.8335 10.1667 7.8335C5.65637 7.8335 2 11.4899 2 16.0002C2 20.5105 5.65637 24.1668 10.1667 24.1668ZM10.1667 19.5002C12.0997 19.5002 13.6667 17.933 13.6667 16.0002C13.6667 14.0673 12.0997 12.5002 10.1667 12.5002C8.23366 12.5002 6.66667 14.0673 6.66667 16.0002C6.66667 17.933 8.23366 19.5002 10.1667 19.5002Z" fill="#4A6382"/>
<path d="M17.1667 13.6668H30V18.3335H17.1667V13.6668Z" fill="#4A6382"/>
<path d="M23 17.1668H27.6667V21.8335H23V17.1668Z" fill="#4A6382"/>
</svg>
