<svg width="33" height="32" viewBox="0 0 33 32" fill="none" xmlns="http://www.w3.org/2000/svg">
<path fill-rule="evenodd" clip-rule="evenodd" d="M0.998047 8.2857C0.998047 7.02334 2.02139 6 3.28375 6H30.7122C31.9746 6 32.9979 7.02334 32.9979 8.2857V9.93164H0.998047V8.2857ZM0.998047 13.9316H32.9979V24.2856C32.9979 25.548 31.9746 26.5713 30.7122 26.5713H3.28375C2.02139 26.5713 0.998047 25.548 0.998047 24.2856V13.9316ZM23.1154 17.9771C22.7998 17.9771 22.5439 18.2329 22.5439 18.5485V21.161C22.5439 21.4766 22.7998 21.7325 23.1154 21.7325H28.0583C28.3739 21.7325 28.6297 21.4766 28.6297 21.161V18.5485C28.6297 18.2329 28.3739 17.9771 28.0583 17.9771H23.1154Z" fill="#4A6382"/>
</svg>
