<svg width="32" height="32" viewBox="0 0 32 32" fill="none" xmlns="http://www.w3.org/2000/svg">
<path d="M9.47317 6.73447L13.1476 5.43127C16.0105 4.41591 19.1544 5.9136 20.1697 8.77644L22.3297 14.8667L15.112 17.4266L12.1798 9.15906C11.7627 7.98283 10.7931 7.08744 9.58742 6.76502L9.47317 6.73447Z" fill="#4A6382"/>
<path fill-rule="evenodd" clip-rule="evenodd" d="M5.84904 8.01782C3.8477 8.72763 2.8007 10.9255 3.51051 12.9268L6.22376 20.577L13.4713 18.0065L10.758 10.3564C10.0482 8.35501 7.85039 7.30801 5.84904 8.01782ZM7.61289 15.5553C6.94578 15.7919 6.59678 16.5245 6.83338 17.1916C7.06998 17.8587 7.8026 18.2077 8.46971 17.9711L10.0803 17.3999C10.7474 17.1633 11.0964 16.4307 10.8598 15.7636C10.6232 15.0965 9.89057 14.7475 9.22345 14.9841L7.61289 15.5553Z" fill="#4A6382"/>
<path d="M4.5332 3.04924L5.97178 7.07403L8.38762 6.21721L7.81573 4.60476L9.01378 4.17985C9.68089 3.94325 10.0299 3.21064 9.79329 2.54352C9.55668 1.87641 8.82407 1.52741 8.15696 1.76401L4.5332 3.04924Z" fill="#4A6382"/>
<path d="M18.2969 27.5L20.5 20L18 15" stroke="#4A6382" stroke-width="3" stroke-linecap="round" stroke-linejoin="round"/>
<path fill-rule="evenodd" clip-rule="evenodd" d="M24 23L26 26C26.2811 26.3154 26.884 25.9104 26.8054 25.5V23.2688C26.7585 23.0237 26.9459 22.7949 27.2021 22.7848L30.5957 22.651C31.0246 22.6341 31.1552 22.0766 30.7763 21.8805L27.7794 20.3296C27.5529 20.2124 27.486 19.927 27.6378 19.7258L29.6455 17.0648C29.8995 16.7282 29.5334 16.2811 29.1394 16.4467L26.0208 17.7574C25.7856 17.8563 25.515 17.7295 25.4478 17.489L24.5579 14.302C24.4454 13.8993 23.8582 13.8993 23.7457 14.302L23 16.9726L24.272 19.0478C24.5388 19.4832 24.629 20.0042 24.5241 20.504L24 23Z" fill="#4A6382"/>
</svg>
