<svg width="32" height="32" viewBox="0 0 32 32" fill="none" xmlns="http://www.w3.org/2000/svg">
<path fill-rule="evenodd" clip-rule="evenodd" d="M3.99984 5C2.89536 5 2 5.89536 2 6.99984V17.8992C2 19.0037 2.89536 19.8991 3.99984 19.8991H13.2161V24.0035H7.32422C6.49586 24.0035 5.82434 24.675 5.82434 25.5034C5.82434 26.3317 6.49586 27.0033 7.32422 27.0033H14.716H19.876V24.0035H16.2158V19.8991H19.876V17.6069H5.19635C4.70605 17.6069 4.30859 17.2103 4.30859 16.7211V8.17759C4.30859 7.68838 4.70605 7.2918 5.19635 7.2918H24.3824C24.8727 7.2918 25.2701 7.68838 25.2701 8.17759V13.4617H27.5775V6.99984C27.5775 5.89536 26.6822 5 25.5777 5H3.99984ZM23.2703 13.4617V9.29164H6.30843V15.6071H19.876V15.0616C19.876 14.178 20.5923 13.4617 21.4758 13.4617H23.2703Z" fill="#4A6382"/>
<path fill-rule="evenodd" clip-rule="evenodd" d="M29.1971 26.9445C29.6405 26.9445 29.9999 26.5859 29.9999 26.1435V16.1628C29.9999 15.7204 29.6405 15.3618 29.1971 15.3618H22.4503C22.0069 15.3618 21.6475 15.7204 21.6475 16.1628V26.1435C21.6475 26.5859 22.0069 26.9445 22.4503 26.9445H29.1971ZM25.8237 20.329C24.4119 20.329 23.2673 21.471 23.2673 22.8797C23.2673 24.2884 24.4119 25.4304 25.8237 25.4304C27.2355 25.4304 28.3801 24.2884 28.3801 22.8797C28.3801 21.471 27.2355 20.329 25.8237 20.329ZM26.7596 17.8821C26.7596 18.398 26.3405 18.8161 25.8235 18.8161C25.3065 18.8161 24.8874 18.398 24.8874 17.8821C24.8874 17.3663 25.3065 16.9481 25.8235 16.9481C26.3405 16.9481 26.7596 17.3663 26.7596 17.8821Z" fill="#4A6382"/>
<ellipse cx="25.8245" cy="22.9096" rx="1.07641" ry="1.09469" fill="#4A6382"/>
</svg>
