<svg width="32" height="32" viewBox="0 0 32 32" fill="none" xmlns="http://www.w3.org/2000/svg">
<path fill-rule="evenodd" clip-rule="evenodd" d="M8.00772 21.4348C8.41409 21.205 8.9254 21.2869 9.23962 21.6322C10.8543 23.4066 13.6457 23.4066 15.2604 21.6322C15.4499 21.4239 15.7184 21.3052 16 21.3052C16.2816 21.3052 16.5501 21.4239 16.7396 21.6322C18.3543 23.4066 21.1457 23.4066 22.7604 21.6322C23.0746 21.2869 23.5859 21.205 23.9923 21.4348L26.0753 22.6129C26.9387 23.1012 27.9502 23.259 28.9213 23.0569C29.462 22.9444 29.9915 23.2916 30.104 23.8323C30.2165 24.373 29.8694 24.9025 29.3287 25.015C27.8826 25.3159 26.3764 25.0809 25.0907 24.3537L23.6548 23.5416C21.4571 25.3938 18.2438 25.4358 16 23.6677C13.7563 25.4358 10.5429 25.3938 8.34525 23.5416L6.87521 24.373C5.64752 25.0673 4.25249 25.4106 2.84279 25.3651C2.29079 25.3473 1.85774 24.8854 1.87553 24.3334C1.89332 23.7814 2.35523 23.3484 2.90723 23.3662C3.9502 23.3998 4.98232 23.1459 5.89063 22.6321L8.00772 21.4348Z" fill="#4A6382"/>
<path d="M13.6712 14.4336L16.2023 10.1803C16.2796 10.0504 16.4159 9.99033 16.5456 10.0289L29.5083 13.8863C29.9926 14.0304 30.1643 14.7445 29.8173 15.1717L26.1948 19.6323C26.1159 19.7294 25.9885 19.7748 25.8682 19.7403C25.1254 19.5269 24.4233 19.0558 23.8628 18.3226C23.7399 18.1618 23.5657 18.0702 23.3831 18.0702C23.2005 18.0702 23.0264 18.1618 22.9035 18.3226C22.1126 19.3571 21.0568 19.9163 19.9796 20H19.4097C18.3325 19.9163 17.2768 19.3571 16.4859 18.3226C16.363 18.1618 16.1888 18.0702 16.0062 18.0702C15.8236 18.0702 15.6495 18.1618 15.5266 18.3226C14.7356 19.3571 13.6799 19.9163 12.6027 20H12.0328C10.9556 19.9163 9.89986 19.3571 9.10894 18.3226C8.98604 18.1618 8.8119 18.0702 8.62929 18.0702C8.44669 18.0702 8.27254 18.1618 8.14964 18.3226C7.35873 19.3571 6.30297 19.9163 5.22577 20H4.65589C3.99226 19.9484 3.33676 19.7164 2.74631 19.3039C2.54096 19.1605 2.42076 18.9281 2.39091 18.6793L2.00664 15.4776C1.95083 15.0126 2.25399 14.5965 2.64864 14.5965H3.52219L5.38488 9.23839C5.43504 9.0941 5.55331 9 5.6845 9H8.27235C8.34598 9 8.41742 9.02983 8.47491 9.08458L11.5 11.5L11.5476 11.5066L13.1457 11.0034C13.5585 10.7707 14.0513 10.9882 14.2368 11.4851C14.4112 11.952 14.2505 12.4999 13.8699 12.7363L10.85 13.6118C10.8303 13.624 10.8066 13.6225 10.7881 13.6078L8.73933 11.9821C8.56143 11.8409 8.31945 11.9397 8.25184 12.1811L7.71771 14.0885C7.64772 14.3384 7.804 14.5965 8.02533 14.5965H13.4066C13.5117 14.5965 13.6104 14.5358 13.6712 14.4336Z" fill="#4A6382"/>
<circle cx="8.15385" cy="5.15385" r="2.15385" fill="#4A6382"/>
</svg>
