<svg width="32" height="32" viewBox="0 0 32 32" fill="none" xmlns="http://www.w3.org/2000/svg">
<path fill-rule="evenodd" clip-rule="evenodd" d="M25.8 18.8H24.4777L20.1222 9H27.2L25.9595 5.27864C25.8642 4.9928 25.5967 4.8 25.2954 4.8H15.1045C14.8032 4.8 14.5357 4.9928 14.4404 5.27864L13.6666 7.6H10.96L12.8479 2.88005C13.0605 2.34853 13.5753 2 14.1478 2H26.2521C26.8246 2 27.3394 2.34853 27.552 2.88005L29.8998 8.74967C29.966 8.91504 30 9.09151 30 9.26961V19.5C30 20.6598 29.0598 21.6 27.9 21.6C26.7402 21.6 25.8 20.6598 25.8 19.5V18.8ZM25.8 14.6C26.5732 14.6 27.2 13.9731 27.2 13.2C27.2 12.4269 26.5732 11.8 25.8 11.8C25.0267 11.8 24.4 12.4269 24.4 13.2C24.4 13.9731 25.0267 14.6 25.8 14.6ZM2 17.6025C2 17.4689 2.02549 17.3366 2.0751 17.2125L4.53598 11.0603C4.69544 10.6617 5.08154 10.4003 5.51089 10.4003H18.0891C18.5185 10.4003 18.9046 10.6617 19.064 11.0603L21.5249 17.2125C21.5745 17.3366 21.6 17.4689 21.6 17.6025V27.9003C21.6 29.0601 20.6598 30.0003 19.5 30.0003C18.3402 30.0003 17.4 29.0601 17.4 27.9003V27.2003H6.2V27.9003C6.2 29.0601 5.2598 30.0003 4.1 30.0003C2.9402 30.0003 2 29.0601 2 27.9003V17.6025ZM7.6 21.6003C7.6 22.3734 6.97323 23.0003 6.2 23.0003C5.42677 23.0003 4.8 22.3734 4.8 21.6003C4.8 20.8272 5.42677 20.2003 6.2 20.2003C6.97323 20.2003 7.6 20.8272 7.6 21.6003ZM18.8 21.6003C18.8 22.3734 18.1732 23.0003 17.4 23.0003C16.6268 23.0003 16 22.3734 16 21.6003C16 20.8272 16.6268 20.2003 17.4 20.2003C18.1732 20.2003 18.8 20.8272 18.8 21.6003ZM6.08034 13.5593C6.1518 13.3449 6.35242 13.2003 6.5784 13.2003H17.0216C17.2476 13.2003 17.4482 13.3449 17.5197 13.5593L18.8 17.4003H4.8L6.08034 13.5593Z" fill="#4A6382"/>
</svg>
