<svg width="32" height="32" viewBox="0 0 32 32" fill="none" xmlns="http://www.w3.org/2000/svg">
<path fill-rule="evenodd" clip-rule="evenodd" d="M9.33366 27.9998C11.911 27.9998 14.0003 25.9105 14.0003 23.3332C14.0003 20.7558 11.911 18.6665 9.33366 18.6665C6.75633 18.6665 4.66699 20.7558 4.66699 23.3332C4.66699 25.9105 6.75633 27.9998 9.33366 27.9998ZM9.33398 25.333C10.4386 25.333 11.334 24.4376 11.334 23.333C11.334 22.2284 10.4386 21.333 9.33398 21.333C8.22941 21.333 7.33398 22.2284 7.33398 23.333C7.33398 24.4376 8.22941 25.333 9.33398 25.333Z" fill="#4A6382"/>
<path fill-rule="evenodd" clip-rule="evenodd" d="M22.6667 27.9998C25.244 27.9998 27.3333 25.9105 27.3333 23.3332C27.3333 20.7558 25.244 18.6665 22.6667 18.6665C20.0893 18.6665 18 20.7558 18 23.3332C18 25.9105 20.0893 27.9998 22.6667 27.9998ZM22.667 25.333C23.7716 25.333 24.667 24.4376 24.667 23.333C24.667 22.2284 23.7716 21.333 22.667 21.333C21.5624 21.333 20.667 22.2284 20.667 23.333C20.667 24.4376 21.5624 25.333 22.667 25.333Z" fill="#4A6382"/>
<path fill-rule="evenodd" clip-rule="evenodd" d="M2 6.33349C2 5.78121 2.44772 5.3335 3 5.3335H23.5963C24.265 5.3335 24.8895 5.6677 25.2604 6.2241L29.8321 13.0816C29.9416 13.2458 30 13.4388 30 13.6363V23.0002C30 23.5524 29.5523 24.0002 29 24.0002H27.2861C27.3172 23.7825 27.3333 23.5599 27.3333 23.3337C27.3333 20.7563 25.244 18.667 22.6667 18.667C20.0893 18.667 18 20.7563 18 23.3337C18 23.5599 18.0161 23.7825 18.0472 24.0002H13.9531C13.9842 23.7825 14.0003 23.5599 14.0003 23.3337C14.0003 20.7563 11.911 18.667 9.33366 18.667C6.75633 18.667 4.66699 20.7563 4.66699 23.3337C4.66699 23.5599 4.6831 23.7825 4.71423 24.0002H3C2.44771 24.0002 2 23.5524 2 23.0002V6.33349ZM4.66699 9C4.66699 8.44771 5.11471 8 5.66699 8H10.0003V14.6667H4.66699V9ZM18.0003 8H12.667V14.6667H18.0003V8ZM22.7675 8H20.667V14.6667H27.3337L23.625 8.4855C23.4442 8.1843 23.1187 8 22.7675 8Z" fill="#4A6382"/>
</svg>
