<svg width="144" height="144" viewBox="0 0 144 144" fill="none" xmlns="http://www.w3.org/2000/svg">
<path d="M128.191 92.0038V50.8984C128.151 47.0356 127.086 43.2527 125.103 39.9371C123.121 36.6214 120.294 33.892 116.91 32.0283L116.678 32.2327C116.951 33.578 117.088 34.9474 117.087 36.3201V70.9538C117.087 83.1206 106.637 92.9848 93.7344 92.9848H44.0591L39.1682 94.5L35.2031 100.383C37.4522 102.696 40.1456 104.53 43.1214 105.775C46.0972 107.021 49.2941 107.652 52.52 107.631H102.209C103.26 107.622 104.298 107.855 105.244 108.314C106.189 108.772 107.016 109.443 107.659 110.274L120.629 127.632C123.136 130.97 128.722 129.267 128.668 125.18L128.191 92.0038Z" fill="#F6BD4E"/>
<path d="M92.7341 14.209H40.4156C27.5131 14.209 17.0631 24.0868 17.0631 36.2536V77.359L16.668 110.508C16.668 114.595 22.1178 116.312 24.6929 112.96L37.6635 95.5206C38.3036 94.6873 39.1299 94.0154 40.0762 93.5588C41.0226 93.1022 42.0627 92.8735 43.1133 92.891H92.7886C105.691 92.891 116.141 83.0268 116.141 70.8601V36.2536C116.087 24.0868 105.637 14.209 92.7341 14.209Z" stroke="#6B7D94" stroke-width="2" stroke-linecap="round" stroke-linejoin="round"/>
<path d="M49.7209 59.6327C52.3245 59.6327 54.4351 57.5222 54.4351 54.9186C54.4351 52.3151 52.3245 50.2046 49.7209 50.2046C47.1174 50.2046 45.0068 52.3151 45.0068 54.9186C45.0068 57.5222 47.1174 59.6327 49.7209 59.6327Z" fill="#7CC694"/>
<path d="M49.7077 60.3001C48.2623 60.3001 46.8761 59.7259 45.854 58.7038C44.832 57.6818 44.2578 56.2956 44.2578 54.8502C44.2578 53.4048 44.832 52.0187 45.854 50.9966C46.8761 49.9746 48.2623 49.4004 49.7077 49.4004C51.153 49.4004 52.5392 49.9746 53.5613 50.9966C54.5833 52.0187 55.1575 53.4048 55.1575 54.8502C55.1575 56.2956 54.5833 57.6818 53.5613 58.7038C52.5392 59.7259 51.153 60.3001 49.7077 60.3001ZM49.7077 50.8855C48.6236 50.8855 47.584 51.3161 46.8174 52.0826C46.0509 52.8492 45.6203 53.8888 45.6203 54.9728C45.6203 56.0569 46.0509 57.0965 46.8174 57.8631C47.584 58.6296 48.6236 59.0602 49.7077 59.0602C50.7917 59.0602 51.8313 58.6296 52.5979 57.8631C53.3644 57.0965 53.795 56.0569 53.795 54.9728C53.795 54.4361 53.6893 53.9046 53.4839 53.4087C53.2785 52.9128 52.9774 52.4622 52.5979 52.0826C52.2183 51.7031 51.7677 51.402 51.2718 51.1966C50.7759 50.9912 50.2444 50.8855 49.7077 50.8855Z" fill="#7CC694"/>
<path d="M68.0325 59.6327C70.636 59.6327 72.7466 57.5222 72.7466 54.9186C72.7466 52.3151 70.636 50.2046 68.0325 50.2046C65.4289 50.2046 63.3184 52.3151 63.3184 54.9186C63.3184 57.5222 65.4289 59.6327 68.0325 59.6327Z" fill="#7CC694"/>
<path d="M68.0328 60.3001C66.5875 60.3001 65.2013 59.7259 64.1792 58.7038C63.1572 57.6818 62.583 56.2956 62.583 54.8502C62.583 53.4048 63.1572 52.0187 64.1792 50.9966C65.2013 49.9746 66.5875 49.4004 68.0328 49.4004C69.4782 49.4004 70.8644 49.9746 71.8865 50.9966C72.9085 52.0187 73.4827 53.4048 73.4827 54.8502C73.4827 56.2956 72.9085 57.6818 71.8865 58.7038C70.8644 59.7259 69.4782 60.3001 68.0328 60.3001ZM68.0328 50.8855C66.9488 50.8855 65.9092 51.3161 65.1426 52.0826C64.3761 52.8492 63.9455 53.8888 63.9455 54.9728C63.9455 56.0569 64.3761 57.0965 65.1426 57.8631C65.9092 58.6296 66.9488 59.0602 68.0328 59.0602C69.1169 59.0602 70.1565 58.6296 70.9231 57.8631C71.6896 57.0965 72.1202 56.0569 72.1202 54.9728C72.1202 54.4361 72.0145 53.9046 71.8091 53.4087C71.6037 52.9128 71.3026 52.4622 70.9231 52.0826C70.5435 51.7031 70.0929 51.402 69.597 51.1966C69.1011 50.9912 68.5696 50.8855 68.0328 50.8855Z" fill="#7CC694"/>
<path d="M86.344 59.6327C88.9475 59.6327 91.0581 57.5222 91.0581 54.9186C91.0581 52.3151 88.9475 50.2046 86.344 50.2046C83.7405 50.2046 81.6299 52.3151 81.6299 54.9186C81.6299 57.5222 83.7405 59.6327 86.344 59.6327Z" fill="#7CC694"/>
<path d="M86.358 60.3001C84.9127 60.3001 83.5265 59.7259 82.5044 58.7038C81.4824 57.6818 80.9082 56.2956 80.9082 54.8502C80.9082 53.4048 81.4824 52.0187 82.5044 50.9966C83.5265 49.9746 84.9127 49.4004 86.358 49.4004C87.7916 49.4183 89.1603 50.0004 90.1677 51.0205C91.175 52.0406 91.7399 53.4166 91.7398 54.8502C91.7399 56.2839 91.175 57.6598 90.1677 58.68C89.1603 59.7001 87.7916 60.2821 86.358 60.3001ZM86.358 50.8855C85.274 50.8855 84.2344 51.3161 83.4678 52.0826C82.7013 52.8492 82.2707 53.8888 82.2707 54.9728C82.2707 56.0569 82.7013 57.0965 83.4678 57.8631C84.2344 58.6296 85.274 59.0602 86.358 59.0602C87.4302 59.0424 88.4525 58.6038 89.2043 57.8392C89.9562 57.0746 90.3774 56.0452 90.3773 54.9728C90.3774 53.9005 89.9562 52.8711 89.2043 52.1065C88.4525 51.3419 87.4302 50.9033 86.358 50.8855V50.8855Z" fill="#7CC694"/>
</svg>
