<svg width="144" height="144" viewBox="0 0 144 144" fill="none" xmlns="http://www.w3.org/2000/svg">
<path d="M125.77 95.8321L133.992 97.2722C134.173 97.2898 134.354 97.247 134.508 97.1506C134.662 97.0542 134.779 96.9096 134.842 96.7394L137.132 91.6847C137.48 90.9265 137.69 90.112 137.751 89.2798" stroke="#6B7D94" stroke-width="2" stroke-linecap="round" stroke-linejoin="round"/>
<path d="M8.16473 70.5596L11.3329 71.2076C11.1687 71.3674 10.9904 71.512 10.8001 71.6396C9.95665 72.2653 8.96325 72.6577 7.91992 72.7773L8.16473 70.5596Z" fill="#F06E61"/>
<path d="M7.45749 68.9756C7.30587 68.9776 7.16001 69.0339 7.04639 69.1344C6.93277 69.2348 6.85892 69.3726 6.83826 69.5228L6.30543 73.6846C6.29706 73.775 6.30822 73.8662 6.33815 73.9519C6.36808 74.0376 6.41608 74.1159 6.47889 74.1814C6.54171 74.247 6.61788 74.2982 6.70224 74.3318C6.7866 74.3653 6.87719 74.3804 6.96786 74.3759H7.09747C8.71454 74.3299 10.2862 73.831 11.6337 72.9358C14.413 70.9629 12.5985 70.0556 12.5985 70.0556L7.54389 69.0188L7.45749 68.9756Z" fill="#6B7D94"/>
<path d="M104.127 68.9763C103.926 68.9763 91.6282 56.0163 72.7498 53.7267C51.5386 51.0915 36.5194 52.7907 20.737 63.4467C12.961 68.7171 6.91304 65.3331 6.22184 69.6963C5.44424 74.6211 4.95464 81.4323 4.78184 84.0963C4.77089 84.3192 4.67548 84.5296 4.515 84.6848C4.35453 84.8399 4.14101 84.9281 3.91784 84.9315H3.42824C3.23693 84.9318 3.05113 84.9956 2.89997 85.1129C2.74882 85.2301 2.64087 85.3943 2.59304 85.5795C2.39906 86.2978 2.37751 87.0517 2.53016 87.7799C2.68281 88.5081 3.00532 89.19 3.47144 89.7699C4.91144 91.6563 9.82184 92.9667 11.881 93.4563C11.9998 93.4906 12.1245 93.4986 12.2467 93.4797C12.3688 93.4608 12.4854 93.4156 12.5882 93.347C12.691 93.2785 12.7776 93.1883 12.842 93.0828C12.9064 92.9773 12.947 92.8591 12.961 92.7363C13.4362 89.7699 15.841 80.6403 27.361 80.4387C36.001 80.3235 41.761 86.9907 41.977 95.1123C41.9845 95.3364 42.0788 95.5489 42.2401 95.7047C42.4013 95.8606 42.6168 95.9476 42.841 95.9475L94.681 96.3939C94.903 96.3981 95.1181 96.3167 95.2817 96.1665C95.4452 96.0164 95.5447 95.809 95.5594 95.5875C95.7466 92.4627 97.273 81.5043 109.095 80.7411C122.79 79.8627 125.18 91.9875 125.569 95.1411C125.594 95.3499 125.693 95.5426 125.85 95.6831C126.006 95.8236 126.208 95.9022 126.419 95.9043" stroke="#6B7D94" stroke-width="2" stroke-linecap="round" stroke-linejoin="round"/>
<path d="M37.3351 95.1839C37.3351 100.661 32.9108 105.096 27.4605 105.096C22.0102 105.096 17.5859 100.661 17.5859 95.1839C17.5859 89.7065 22.0102 85.272 27.4605 85.272C32.9108 85.272 37.3351 89.7065 37.3351 95.1839Z" stroke="#6B7D94" stroke-width="2"/>
<path d="M27.4601 99.389C29.7745 99.389 31.6507 97.5064 31.6507 95.184C31.6507 92.8616 29.7745 90.979 27.4601 90.979C25.1457 90.979 23.2695 92.8616 23.2695 95.184C23.2695 97.5064 25.1457 99.389 27.4601 99.389Z" fill="#F06E61"/>
<path d="M120.335 95.472C120.335 100.948 115.912 105.382 110.462 105.382C105.013 105.382 100.59 100.948 100.59 95.472C100.59 89.9956 105.013 85.562 110.462 85.562C115.912 85.562 120.335 89.9956 120.335 95.472Z" stroke="#6B7D94" stroke-width="2"/>
<path d="M110.462 99.6771C112.776 99.6771 114.653 97.7945 114.653 95.4721C114.653 93.1497 112.776 91.2671 110.462 91.2671C108.148 91.2671 106.271 93.1497 106.271 95.4721C106.271 97.7945 108.148 99.6771 110.462 99.6771Z" fill="#F06E61"/>
<path d="M67.2766 58.8683L68.3134 69.7264C68.3297 69.8554 68.3904 69.9747 68.4849 70.064C68.5794 70.1533 68.702 70.207 68.8318 70.216L93.8158 71.4977C104.976 71.9585 84.5134 58.3498 67.795 58.2778C67.7211 58.2794 67.6484 58.2963 67.5814 58.3275C67.5144 58.3587 67.4546 58.4035 67.4059 58.459C67.3571 58.5145 67.3204 58.5796 67.2982 58.65C67.2759 58.7205 67.2686 58.7948 67.2766 58.8683V58.8683Z" fill="#7CC694"/>
<path d="M61.9199 53.5684C63.1152 65.794 63.72 79.8484 64.1232 92.1028" stroke="#6B7D94" stroke-width="2" stroke-linecap="round" stroke-linejoin="round"/>
<path d="M58.8385 59.4154C58.8467 59.1345 58.7467 58.8613 58.559 58.6522C58.3714 58.4431 58.1105 58.3142 57.8305 58.2921C53.8129 58.1913 38.7073 58.9834 29.8369 64.5996C27.1729 66.2701 28.6849 68.1134 29.9233 68.4446C33.7825 69.4815 54.2305 69.8847 58.1473 70.0143C58.2975 70.0053 58.4444 69.9662 58.5792 69.8993C58.714 69.8324 58.834 69.7391 58.9321 69.6249C59.0301 69.5107 59.1042 69.378 59.15 69.2346C59.1957 69.0912 59.2122 68.9401 59.1985 68.7902L58.8385 59.4154Z" fill="#7CC694"/>
<path d="M4.7959 84.9023H8.25207" stroke="#6B7D94" stroke-width="2" stroke-linecap="round" stroke-linejoin="round"/>
<path d="M131.703 86.9473C130.559 86.9163 129.456 86.5117 128.564 85.7953C128.386 85.6026 128.249 85.3753 128.162 85.1276C128.076 84.8798 128.041 84.6169 128.06 84.3552C128.06 83.7359 129.053 82.9151 130.306 82.2095C130.325 83.8875 130.808 85.5276 131.703 86.9473V86.9473Z" fill="#F6BD4E"/>
<path d="M131.875 79.8911C131.875 79.8911 126.691 81.6912 126.619 84.2833C126.518 87.8835 130.637 88.4883 133.373 88.4883C134.167 88.4903 134.961 88.4422 135.749 88.3443C135.749 88.3443 130.853 87.1491 131.875 79.8911Z" fill="#6B7D94"/>
<path d="M138.398 61.2576C138.398 61.2576 130.536 65.5778 130.161 65.2898L125.467 60.7536C125.176 60.5424 124.817 60.4475 124.46 60.4875C124.103 60.5274 123.774 60.6994 123.537 60.9696L118.296 66.7299C118.149 66.8974 117.966 67.0287 117.761 67.1136C117.556 67.1986 117.333 67.2348 117.112 67.2194C116.89 67.2041 116.675 67.1376 116.483 67.0252C116.291 66.9128 116.128 66.7575 116.006 66.5715L113.4 62.7841C113.282 62.6059 113.127 62.4559 112.945 62.3451C112.762 62.2342 112.558 62.1653 112.345 62.1432C112.133 62.1212 111.919 62.1466 111.718 62.2176C111.516 62.2885 111.333 62.4034 111.182 62.5537L104.414 68.9188" stroke="#6B7D94" stroke-width="2" stroke-linecap="round" stroke-linejoin="round"/>
<path d="M104.314 69.12L109.354 68.0976C109.988 67.9968 110.218 68.4144 110.377 68.9328L111.745 74.1024C111.924 74.3567 112.181 74.546 112.477 74.642C112.773 74.7381 113.092 74.7357 113.386 74.6352L120.082 72.4752C120.383 72.3756 120.709 72.378 121.008 72.4821C121.308 72.5863 121.564 72.7863 121.738 73.0512L124.186 76.6656C124.368 76.8883 124.604 77.0607 124.871 77.1665C125.138 77.2724 125.428 77.3082 125.713 77.2704C128.262 77.1696 129.73 77.1408 132.049 77.0688C133.316 77.0688 128.478 82.8288 137.809 89.4528" stroke="#6B7D94" stroke-width="2" stroke-linecap="round" stroke-linejoin="round"/>
<path d="M118.44 58.9395C120.485 57.4995 120.557 54.3459 119.578 52.0275C118.599 49.7091 116.813 47.8227 115.69 45.5619C114.242 42.5834 113.975 39.1677 114.941 36.0003C115.933 32.8718 118.088 30.2432 120.96 28.6562" stroke="#6B7D94" stroke-width="2" stroke-linecap="round" stroke-linejoin="round"/>
<path d="M125.194 57.068C127.167 56.0312 127.469 53.4248 126.749 51.4088C126.029 49.3928 124.546 47.6648 123.696 45.6488C123.149 44.385 122.867 43.0226 122.867 41.6456C122.867 40.2685 123.149 38.9061 123.696 37.6424C124.897 35.0491 127.069 33.032 129.745 32.0264" stroke="#6B7D94" stroke-width="2" stroke-linecap="round" stroke-linejoin="round"/>
<path d="M124.633 102.672C127.692 102.285 130.715 101.659 133.676 100.8C134.423 100.641 135.139 100.358 135.793 99.965C136.121 99.769 136.396 99.496 136.594 99.1698C136.792 98.8436 136.908 98.4739 136.931 98.0929C136.931 97.711 136.779 97.3447 136.509 97.0746C136.239 96.8046 135.873 96.6528 135.491 96.6528" stroke="#6B7D94" stroke-width="2" stroke-linecap="round" stroke-linejoin="round"/>
</svg>
