<svg width="32" height="32" viewBox="0 0 32 32" fill="none" xmlns="http://www.w3.org/2000/svg">
<g clip-path="url(#clip0_36749_15905)">
<path d="M4.58912 24.3457C6.66991 21.7933 10.0913 20.7468 13.2467 21.6893V21.6893C15.0676 22.2332 17.0127 22.2335 18.8329 21.6873V21.6873C21.975 20.7446 25.3756 21.7879 27.4484 24.3305L30.1273 27.6165C30.8969 28.5606 30.2251 29.9749 29.0071 29.9749H3.04591C1.82664 29.9749 1.15419 28.5591 1.92462 27.6141L4.58912 24.3457Z" fill="#4A6382"/>
<path fill-rule="evenodd" clip-rule="evenodd" d="M22.8547 12.727C21.9221 16.0112 19.2175 18.3861 16.0264 18.3861C12.0633 18.3861 8.85059 14.7231 8.85059 10.2045C8.85059 9.81374 8.87461 9.42938 8.92108 9.05323L22.8547 12.727ZM10.5606 4.90319C11.8768 3.14079 13.8371 2.02295 16.0264 2.02295C19.376 2.02295 22.1895 4.63957 22.9804 8.17781L10.5606 4.90319Z" fill="#4A6382"/>
</g>
<defs>
<clipPath id="clip0_36749_15905">
<rect width="31.9999" height="31.9999" fill="white"/>
</clipPath>
</defs>
</svg>
