<svg width="32" height="32" viewBox="0 0 32 32" fill="none" xmlns="http://www.w3.org/2000/svg">
<path fill-rule="evenodd" clip-rule="evenodd" d="M2 6.36592V28.575C2 29.3475 2.62621 29.9737 3.39868 29.9737H14.5882C14.8321 29.9737 15.0615 29.9113 15.2612 29.8015C15.186 29.7418 15.1108 29.6807 15.0356 29.6183C14.285 28.9954 13.4726 28.1801 12.7869 27.1767H10.3947V24.3793H11.4724C11.2776 23.6702 11.1651 22.9065 11.1651 22.0889C11.1651 21.9158 11.1684 21.7467 11.1747 21.5814H10.3947V18.7841H11.6477C12.0142 17.6467 12.5479 16.757 13.1007 15.9877H10.3947V13.1903H13.192V15.8618C13.2643 15.7632 13.3368 15.6665 13.4091 15.5714C13.5302 15.4124 13.6446 15.264 13.7526 15.1239L13.7527 15.1239C14.5667 14.0682 15.0192 13.4816 15.2108 12.3316L15.9747 7.74858L15.9869 7.76077V6.36592C15.9869 6.26054 15.9316 6.16288 15.8412 6.10867L9.14778 2.09261C9.05277 2.03561 8.93409 2.03561 8.83908 2.09261L2.14565 6.10867C2.05529 6.16288 2 6.26054 2 6.36592ZM15.9869 21.2862C15.9609 21.5316 15.9472 21.7977 15.9472 22.0889C15.9472 22.2741 15.9608 22.4564 15.9869 22.6355V21.2862ZM7.59536 7.59511H4.79799V10.3925H7.59536V7.59511ZM7.59536 13.1905H4.79799V15.9879H7.59536V13.1905ZM4.79799 18.784H7.59536V21.5814H4.79799V18.784ZM7.59536 24.3794H4.79799V27.1768H7.59536V24.3794ZM10.3947 7.59511H13.192V10.3925H10.3947V7.59511Z" fill="#4A6382"/>
<path d="M18.7852 15.9864C20.6787 13.7379 21.2699 11.8902 21.5825 7.59424C25.0272 11.222 26.1827 13.6927 25.7786 19.4831C26.8544 18.2931 27.3032 17.3602 27.8766 15.287C29.3172 17.5071 29.9747 18.7837 29.9747 22.2804C29.9747 25.7772 27.2384 28.8179 23.6806 29.9732C25.0793 26.4765 23.9322 23.3608 21.5825 20.1824C19.4845 22.9798 18.0858 26.4765 19.4845 29.9732C19.4751 30.3034 13.1904 27.5567 13.1904 22.2804C13.1904 17.0042 16.6871 16.6857 17.3865 12.4896C18.7852 13.8883 18.7852 15.9864 18.7852 15.9864Z" fill="#4A6382"/>
</svg>
