<svg width="144" height="144" viewBox="0 0 144 144" fill="none" xmlns="http://www.w3.org/2000/svg">
<path d="M130.493 27.5181H13.5214C10.6743 27.5181 8.36621 29.8261 8.36621 32.6733V111.326C8.36621 114.173 10.6743 116.481 13.5214 116.481H130.493C133.34 116.481 135.648 114.173 135.648 111.326V32.6733C135.648 29.8261 133.34 27.5181 130.493 27.5181Z" stroke="#6B7D94" stroke-width="2" stroke-linecap="round" stroke-linejoin="round"/>
<path d="M67.9531 40.9971H23.0827C21.6671 40.9971 20.5195 42.1447 20.5195 43.5603V100.771C20.5195 102.187 21.6671 103.335 23.0827 103.335H67.9531C69.3687 103.335 70.5163 102.187 70.5163 100.771V43.5603C70.5163 42.1447 69.3687 40.9971 67.9531 40.9971Z" stroke="#6B7D94" stroke-width="2" stroke-linecap="round" stroke-linejoin="round"/>
<path d="M124.445 92.5493H115.027V101.967H124.445V92.5493Z" fill="#6B7D94" stroke="#6B7D94" stroke-width="2" stroke-linecap="round" stroke-linejoin="round"/>
<path d="M107.236 92.5493H97.8184V101.967H107.236V92.5493Z" fill="#6B7D94" stroke="#6B7D94" stroke-width="2" stroke-linecap="round" stroke-linejoin="round"/>
<path d="M90.0284 92.5493H80.6104V101.967H90.0284V92.5493Z" fill="#6B7D94" stroke="#6B7D94" stroke-width="2" stroke-linecap="round" stroke-linejoin="round"/>
<path d="M124.445 75.9893H115.027V85.4073H124.445V75.9893Z" fill="#6B7D94" stroke="#6B7D94" stroke-width="2" stroke-linecap="round" stroke-linejoin="round"/>
<path d="M107.236 75.9893H97.8184V85.4073H107.236V75.9893Z" fill="#6B7D94" stroke="#6B7D94" stroke-width="2" stroke-linecap="round" stroke-linejoin="round"/>
<path d="M90.0284 75.9893H80.6104V85.4073H90.0284V75.9893Z" fill="#6B7D94" stroke="#6B7D94" stroke-width="2" stroke-linecap="round" stroke-linejoin="round"/>
<path d="M124.445 59.4292H115.027V68.8473H124.445V59.4292Z" fill="#6B7D94" stroke="#6B7D94" stroke-width="2" stroke-linecap="round" stroke-linejoin="round"/>
<path d="M107.236 59.4292H97.8184V68.8473H107.236V59.4292Z" fill="#6B7D94" stroke="#6B7D94" stroke-width="2" stroke-linecap="round" stroke-linejoin="round"/>
<path d="M90.0284 59.4292H80.6104V68.8473H90.0284V59.4292Z" fill="#6B7D94" stroke="#6B7D94" stroke-width="2" stroke-linecap="round" stroke-linejoin="round"/>
<path d="M124.445 42.8691H115.027V52.2872H124.445V42.8691Z" fill="#6B7D94" stroke="#6B7D94" stroke-width="2" stroke-linecap="round" stroke-linejoin="round"/>
<path d="M107.236 42.8691H97.8184V52.2872H107.236V42.8691Z" fill="#6B7D94" stroke="#6B7D94" stroke-width="2" stroke-linecap="round" stroke-linejoin="round"/>
<path d="M90.0284 42.8691H80.6104V52.2872H90.0284V42.8691Z" fill="#6B7D94" stroke="#6B7D94" stroke-width="2" stroke-linecap="round" stroke-linejoin="round"/>
<path d="M53.3667 67.1758H37.5411C34.9166 67.1758 32.7891 69.3033 32.7891 71.9278V85.4782C32.7891 88.1026 34.9166 90.2302 37.5411 90.2302H53.3667C55.9911 90.2302 58.1187 88.1026 58.1187 85.4782V71.9278C58.1187 69.3033 55.9911 67.1758 53.3667 67.1758Z" fill="#6B7D94" stroke="#6B7D94" stroke-width="2" stroke-linecap="round" stroke-linejoin="round"/>
<path d="M53.1646 63.9647C53.1646 59.6622 49.6765 56.1743 45.3738 56.1743C41.0711 56.1743 37.583 59.6622 37.583 63.9647V70.7903C37.583 75.0928 41.0711 78.5807 45.3738 78.5807C49.6765 78.5807 53.1646 75.0928 53.1646 70.7903V63.9647Z" stroke="#6B7D94" stroke-width="2" stroke-linecap="round" stroke-linejoin="round"/>
</svg>
