<svg width="32" height="32" viewBox="0 0 32 32" fill="none" xmlns="http://www.w3.org/2000/svg">
<path d="M27.4401 20.0049C27.0847 19.5107 26.5888 19.1322 26.015 18.9138L25.4855 17.6481L24.5396 15.3031C24.2382 14.5695 23.7741 13.9126 23.1809 13.3796C22.6006 12.8522 21.9082 12.46 21.1524 12.2309C20.6371 12.0759 20.0996 11.9988 19.5607 12.0008L13.4386 12C12.897 12.0005 12.3568 12.0817 11.84 12.24C11.3409 12.3959 10.8644 12.618 10.4272 12.8995C10.213 13.0481 10.0071 13.2103 9.8138 13.3849C9.42075 13.7358 9.08678 14.1433 8.82236 14.5955C8.67782 14.8226 8.55557 15.0641 8.45661 15.3152L7.5159 17.5684L6.98867 18.9069C6.70387 19.0155 6.43426 19.1629 6.18997 19.3442C5.44296 19.912 5.00458 20.7859 5 21.7102L5.00374 23.9673C4.99369 24.5103 5.1406 25.048 5.4261 25.5133C5.52069 25.6663 5.62913 25.8111 5.7524 25.9431L5.74692 28.4773C5.75845 28.6791 5.81297 28.8787 5.90645 29.0612C6.14564 29.6175 6.70309 29.9775 7.31996 29.9753L8.84946 29.9695C9.25994 29.9765 9.65152 29.8218 9.94681 29.5416C10.24 29.2619 10.4066 28.8804 10.4116 28.4784L10.4057 26.9782L22.6472 26.9783L22.653 28.4784C22.6522 29.3071 23.3258 29.9834 24.1705 30L25.7 29.9943C26.3165 29.9989 26.875 29.6404 27.115 29.0821C27.193 28.8972 27.2332 28.6998 27.2378 28.4982L27.2291 25.9542C27.3501 25.8256 27.4585 25.6846 27.5548 25.5332C27.8426 25.0658 27.9953 24.5326 28 23.9866L27.9963 21.7294C27.9991 21.1096 27.8048 20.5079 27.4401 20.0049ZM11.1758 23.2098C11.1762 24.1102 9.78975 23.959 8.87168 23.9594C8.0246 23.9592 7.34078 23.2878 7.34167 22.4591C7.3398 21.6289 8.02639 20.9576 8.87135 20.9585C10.2209 21.1703 10.9429 22.0801 11.1758 23.2098ZM10.3662 18.7173L11.3178 16.3779C11.6613 15.5177 12.5105 14.9546 13.4519 14.9638L19.5706 14.952C20.2592 14.9601 20.9092 15.2643 21.351 15.7809C21.4982 15.9583 21.6151 16.1595 21.6968 16.3744L22.6527 18.7055L10.3662 18.7173ZM25.7348 22.459C25.7611 22.8663 25.6049 23.2608 25.3113 23.5474C25.0156 23.8345 24.6105 23.9815 24.197 23.955C23.2789 23.9554 21.8981 24.1022 21.9012 23.2143C22.1405 22.0821 23.0439 21.1962 24.1995 20.9646C24.6079 20.9473 25.0059 21.1016 25.2904 21.3871C25.5777 21.674 25.7613 22.0603 25.7348 22.459Z" fill="#4A6382"/>
<path d="M10 8C10 7.44772 10.4477 7 11 7H21C21.5523 7 22 7.44772 22 8V10C22 10.5523 21.5523 11 21 11H11C10.4477 11 10 10.5523 10 10V8Z" fill="#4A6382"/>
<path fill-rule="evenodd" clip-rule="evenodd" d="M11 2C10.4477 2 10 2.44772 10 3V5C10 5.55228 10.4477 6 11 6H12V2H11ZM13 2V6H19V2H13ZM20 2V6H21C21.5523 6 22 5.55228 22 5V3C22 2.44772 21.5523 2 21 2H20Z" fill="#4A6382"/>
</svg>
