<svg width="32" height="32" viewBox="0 0 32 32" fill="none" xmlns="http://www.w3.org/2000/svg">
<g clip-path="url(#clip0_37602_15998)">
<path d="M26.8893 2.06689H5.11202C3.39317 2.06689 2.00098 3.47649 2.00098 5.21682V24.1164C2.00098 25.8567 3.39317 27.2663 5.11202 27.2663H26.8893C28.6081 27.2663 30.0003 25.8567 30.0003 24.1164V5.21682C30.0003 3.47649 28.6081 2.06689 26.8893 2.06689ZM14.4451 13.0916H12.1119V12.3042H9.00081V17.029H12.1119V16.2416H14.4451V17.8165C14.4451 18.6828 13.7529 19.3915 12.8896 19.3915H8.22305C7.35974 19.3915 6.66753 18.6828 6.66753 17.8165V11.5167C6.66753 10.6504 7.35974 9.94171 8.22305 9.94171H12.8896C13.7529 9.94171 14.4451 10.6504 14.4451 11.5167V13.0916ZM25.3338 13.0916H23.0005V12.3042H19.8895V17.029H23.0005V16.2416H25.3338V17.8165C25.3338 18.6828 24.6416 19.3915 23.7782 19.3915H19.1117C18.2484 19.3915 17.5562 18.6828 17.5562 17.8165V11.5167C17.5562 10.6504 18.2484 9.94171 19.1117 9.94171H23.7782C24.6416 9.94171 25.3338 10.6504 25.3338 11.5167V13.0916Z" fill="#4A6382"/>
<rect x="2" y="30" width="28" height="2" rx="1" fill="#4A6382"/>
</g>
<defs>
<clipPath id="clip0_37602_15998">
<rect width="32" height="32" fill="white"/>
</clipPath>
</defs>
</svg>
