<svg width="32" height="32" viewBox="0 0 32 32" fill="none" xmlns="http://www.w3.org/2000/svg">
<path fill-rule="evenodd" clip-rule="evenodd" d="M25.8238 2H8.68748C7.74315 2 7 2.71991 7 3.6322V28.3678C7 29.2812 7.7443 30 8.68748 30H25.8238C27.5694 30 29 28.6164 29 26.9279V5.07179C29 3.38337 27.5695 2 25.8238 2ZM22.7247 12.3719C22.7247 9.88313 20.7096 7.9082 18.261 7.9082C15.8123 7.9082 13.7973 9.88321 13.7973 12.3719C13.7973 14.8607 15.8124 16.8356 18.261 16.8356C20.7498 16.8356 22.7247 14.8606 22.7247 12.3719ZM24.5022 24.0916C25.1348 24.0916 25.6872 23.5393 25.6872 22.9066L25.687 21.9979C25.687 20.6222 25.2917 19.8467 24.6125 19.2416C23.3516 18.1182 21.4325 18.4454 19.7307 18.7355C19.6078 18.7565 19.486 18.7772 19.3656 18.7972C19.0068 18.8569 18.6381 18.8875 18.2609 18.8875C17.9046 18.8875 17.5531 18.8601 17.2097 18.8067C17.0554 18.7827 16.8987 18.7572 16.7401 18.7314C15.0299 18.4534 13.1076 18.1409 11.8674 19.279C11.2138 19.8788 10.835 20.6505 10.835 21.9979V22.9066C10.835 23.5778 11.3488 24.0916 12.0199 24.0916H24.5022Z" fill="#4A6382"/>
<rect x="3" y="6.55322" width="5" height="6.49773" rx="1.14285" fill="#4A6382"/>
<rect x="3" y="18.9453" width="5" height="6.49773" rx="1.14285" fill="#4A6382"/>
</svg>
