<svg width="32" height="32" viewBox="0 0 32 32" fill="none" xmlns="http://www.w3.org/2000/svg">
<path d="M23.5 10H17V19.5856L20.2931 16.2931C20.4822 16.1135 20.7339 16.0148 20.9947 16.0182C21.2555 16.0215 21.5046 16.1266 21.689 16.311C21.8734 16.4954 21.9785 16.7445 21.9818 17.0053C21.9852 17.2661 21.8865 17.5178 21.7069 17.7069L16.7069 22.7069C16.5194 22.8943 16.2651 22.9995 16 22.9995C15.7349 22.9995 15.4806 22.8943 15.2931 22.7069L10.2931 17.7069C10.1135 17.5178 10.0148 17.2661 10.0182 17.0053C10.0215 16.7445 10.1266 16.4954 10.311 16.311C10.4954 16.1266 10.7445 16.0215 11.0053 16.0182C11.2661 16.0148 11.5178 16.1135 11.7069 16.2931L15 19.5856V10H8.5C7.57205 10.001 6.68238 10.3701 6.02622 11.0262C5.37006 11.6824 5.00099 12.572 5 13.5V26.5C5.00099 27.428 5.37006 28.3176 6.02622 28.9738C6.68238 29.6299 7.57205 29.999 8.5 30H23.5C24.428 29.999 25.3176 29.6299 25.9738 28.9738C26.6299 28.3176 26.999 27.428 27 26.5V13.5C26.999 12.572 26.6299 11.6824 25.9738 11.0262C25.3176 10.3701 24.428 10.001 23.5 10V10ZM17 3C17 2.73478 16.8946 2.48043 16.7071 2.29289C16.5196 2.10536 16.2652 2 16 2C15.7348 2 15.4804 2.10536 15.2929 2.29289C15.1054 2.48043 15 2.73478 15 3V10H17V3Z" fill="#4A6382"/>
</svg>
