<svg width="33" height="32" viewBox="0 0 33 32" fill="none" xmlns="http://www.w3.org/2000/svg">
<path d="M16.5 18C17.6046 18 18.5 17.1046 18.5 16C18.5 14.8954 17.6046 14 16.5 14C15.3954 14 14.5 14.8954 14.5 16C14.5 17.1046 15.3954 18 16.5 18Z" stroke="#4A6382" stroke-miterlimit="10"/>
<path d="M26.5 18C27.6046 18 28.5 17.1046 28.5 16C28.5 14.8954 27.6046 14 26.5 14C25.3954 14 24.5 14.8954 24.5 16C24.5 17.1046 25.3954 18 26.5 18Z" stroke="#4A6382" stroke-miterlimit="10"/>
<path d="M6.5 18C7.60457 18 8.5 17.1046 8.5 16C8.5 14.8954 7.60457 14 6.5 14C5.39543 14 4.5 14.8954 4.5 16C4.5 17.1046 5.39543 18 6.5 18Z" stroke="#4A6382" stroke-miterlimit="10"/>
</svg>
