<svg width="144" height="144" viewBox="0 0 144 144" fill="none" xmlns="http://www.w3.org/2000/svg">
<path d="M132.263 87.763C131.46 85.0312 126.696 82.1635 124.028 81.1578C119.495 79.4454 117.481 83.0062 112.648 82.5984C108.987 82.2859 105.611 79.8667 101.95 80.2065C98.3154 80.5462 95.5387 83.4682 93.1294 86.2C86.7592 82.1228 78.4561 81.2258 71.3645 83.8488C68.1657 85.0312 65.2392 86.8796 61.9861 87.8853C60.3663 88.3881 58.6784 88.6599 56.9906 88.7279C56.6367 89.4754 56.2692 90.2229 55.9561 90.984C54.0913 95.5777 54.6902 100.769 55.5886 105.635C56.4053 110.052 57.4262 114.537 57.045 118.968L134.931 118.723C136.877 113.681 136.727 104.915 136.877 98.1735C136.932 95.3331 133.107 90.4539 132.304 87.7222L132.263 87.763Z" fill="#7CC694"/>
<path d="M44.549 95.1426C44.549 92.207 44.5899 89.054 45.8285 86.3358C45.883 86.1999 45.951 86.0776 46.0055 85.9552C44.726 85.2349 43.4737 84.4874 42.0717 84.0933C37.4846 82.8158 32.6389 85.5339 27.9156 84.9359C24.9619 84.569 22.049 82.9245 19.177 83.7128C17.5708 84.1613 16.5363 85.6291 15.1615 86.5668C5.63342 93.1584 8.21963 106.233 8.61436 116.806C9.30856 118.261 9.4719 119.226 11.0645 119.13L44.6307 119.022C44.6035 111.058 44.5762 103.093 44.549 95.1291V95.1426Z" fill="#647891"/>
<path d="M12.9971 54.4923C11.1867 65.2835 12.0307 76.3192 12.8746 87.2327C15.9508 86.6347 18.537 85.0038 21.0279 82.8836C23.5189 80.7634 24.8256 76.8765 22.988 74.2398C22.3483 73.3157 21.3818 72.6769 20.5379 71.9158C17.625 69.3064 16.1958 65.1612 16.8764 61.3149C16.9581 60.8529 17.1078 60.35 17.5025 60.119C17.7884 59.9559 18.1287 59.9695 18.4553 59.9695C25.4653 60.0918 31.958 55.8378 36.5179 50.5238C40.2611 52.1955 43.2965 57.2785 43.4599 61.3693C43.6232 65.4602 41.527 69.5238 38.2466 71.9838C37.4435 72.5818 36.5315 73.139 36.0688 74.0224C35.5787 74.933 35.6468 76.0474 35.8646 77.0667C36.7221 81.076 39.9345 83.9573 43.8682 85.1805C44.6032 85.4115 45.3383 86.1182 46.0461 85.8464C47.3256 85.3571 47.7475 83.7806 47.9381 82.4215C48.4009 79.1597 48.7003 75.8571 48.5098 72.5682L48.0061 53.9215C47.3119 53.84 47.1622 52.2227 46.468 52.1411C43.841 46.4194 38.0288 42.8314 31.7675 42.1519C23.8728 41.2956 14.3582 46.2155 12.9835 54.4788L12.9971 54.4923Z" fill="#9EAFC2"/>
<path d="M90.4611 39.7602C90.8831 39.1893 91.1281 38.4962 91.1281 37.7351C91.1281 35.7645 89.4267 34.1743 87.3305 34.1471C87.4122 33.9025 87.4802 33.6443 87.5074 33.3725C87.698 31.4018 86.1327 29.635 84.0092 29.4447C83.3831 29.3904 82.7842 29.4855 82.2261 29.6893C82.2261 29.5942 82.2533 29.4991 82.2533 29.4039C82.2533 27.4197 80.5383 25.816 78.4149 25.816C77.3668 25.816 76.4276 26.2101 75.7334 26.8353C75.257 25.3539 73.7869 24.2666 72.0446 24.2666C70.3024 24.2666 68.9684 25.2587 68.424 26.645C67.757 26.1285 66.8995 25.816 65.9739 25.816C63.8505 25.816 62.1354 27.4197 62.1354 29.4039C62.1354 29.4991 62.1626 29.5942 62.1626 29.6893C61.6182 29.4855 61.0192 29.3904 60.3795 29.4447C58.2697 29.635 56.7044 31.4018 56.8813 33.3725C56.9085 33.6443 56.963 33.9025 57.0583 34.1471C54.9621 34.1743 53.2606 35.7645 53.2606 37.7351C53.2606 38.4826 53.5056 39.1758 53.9276 39.7602C52.267 40.1543 51.0283 41.5542 51.0283 43.2258C51.0283 45.2101 52.7434 46.8138 54.8668 46.8138C56.9902 46.8138 58.7053 45.2101 58.7053 43.2258C58.7053 42.4783 58.4603 41.7852 58.0383 41.2008C59.6989 40.8067 60.9376 39.4068 60.9376 37.7351C60.9376 37.3274 60.8559 36.9604 60.7198 36.5935C60.8287 36.5935 60.924 36.5935 61.0329 36.5935C63.129 36.4032 64.6672 34.6772 64.531 32.7201C64.9802 32.8832 65.4566 32.9783 65.9603 32.9783C67.6209 32.9783 69.0365 31.9862 69.5809 30.5999C70.2479 31.1164 71.1054 31.429 72.031 31.429C73.0791 31.429 74.0183 31.0348 74.7125 30.4097C75.1889 31.8911 76.659 32.9783 78.4013 32.9783C78.9049 32.9783 79.3949 32.8832 79.8305 32.7201C79.6808 34.6636 81.2325 36.3896 83.3287 36.5935C83.4376 36.5935 83.5328 36.5935 83.6417 36.5935C83.5056 36.9604 83.4239 37.3274 83.4239 37.7351C83.4239 39.4068 84.6626 40.8067 86.3232 41.2008C85.9013 41.7716 85.6563 42.4647 85.6563 43.2258C85.6563 45.2101 87.3713 46.8138 89.4947 46.8138C91.6181 46.8138 93.3332 45.2101 93.3332 43.2258C93.3332 41.5542 92.0945 40.1543 90.4339 39.7602H90.4611Z" fill="#647891"/>
<path d="M46.1549 86.5537C44.821 85.6567 41.3364 83.6453 39.7847 83.1152C39.5669 83.224 39.3491 83.3191 39.1585 83.4142C38.0968 83.9035 36.9943 84.3248 35.8645 84.6238C33.7275 85.1946 31.4544 85.3713 29.2629 85.2218C26.8809 85.0587 24.5533 84.42 22.4026 83.4278C21.7901 83.1424 21.0687 83.0337 20.4426 83.2919C13.0106 86.2547 8.57324 92.4657 8.57324 100.267V116.589C8.57324 118.003 9.73023 119.158 11.1458 119.158H122.353" stroke="#647891" stroke-width="2" stroke-linecap="round" stroke-linejoin="round"/>
<path d="M95.4285 119.267V95.0889C95.4285 85.7927 89.3985 77.9237 81.0274 75.1104C80.7824 75.2327 80.5238 75.3414 80.2924 75.4501C79.0537 76.0209 77.7742 76.5102 76.4539 76.8636C73.9766 77.5159 71.3223 77.7334 68.7633 77.5567C66.0274 77.3664 63.3595 76.6461 60.8822 75.5045C59.9702 75.0832 58.9221 75.1103 57.9965 75.4773C50.1835 78.5624 44.6436 86.1733 44.6436 95.0753V119.253H95.4285V119.267Z" fill="#F6BD4E"/>
<path d="M107.258 119.158H134.209C135.407 119.158 136.359 118.261 136.359 117.146V98.4723C136.359 89.978 130.466 82.7749 122.285 80.2062C122.04 80.3149 121.795 80.4237 121.564 80.5188C120.352 81.0488 119.1 81.4838 117.807 81.8099C115.384 82.4079 112.784 82.6118 110.28 82.4351C107.462 82.2448 104.712 81.5245 102.181 80.3829C101.663 80.1519 101.078 80.0839 100.534 80.2606C98.4511 80.9401 95.0754 83.4544 93.3604 84.6776" stroke="#647891" stroke-width="2" stroke-linecap="round" stroke-linejoin="round"/>
<path d="M95.5646 119.131L95.4285 95.0889C95.4285 85.7927 89.3985 77.9237 81.0274 75.1104C80.7824 75.2327 80.5238 75.3414 80.2924 75.4501C79.0537 76.0209 77.7742 76.5102 76.4539 76.8636C73.9766 77.5159 71.3223 77.7334 68.7633 77.5567C66.0274 77.3664 63.3595 76.6461 60.8822 75.5045C59.9702 75.0832 58.9221 75.1103 57.9965 75.4773C50.1835 78.5624 44.6436 86.1733 44.6436 95.0753L44.7797 119.117H95.5646V119.131Z" stroke="#647891" stroke-width="2" stroke-linecap="round" stroke-linejoin="round"/>
<path d="M76.7531 56.1646C75.1197 58.108 70.0834 58.8284 67.7559 56.1646" stroke="#647891" stroke-width="2" stroke-linecap="round" stroke-linejoin="round"/>
<path d="M60.5703 75.0422C63.2654 73.0444 63.8507 67.8527 63.524 64.686" stroke="#647891" stroke-width="2" stroke-linecap="round" stroke-linejoin="round"/>
<path d="M79.8711 65.0396C80.1705 68.6003 79.8575 72.5689 82.6342 75.3278" stroke="#647891" stroke-width="2" stroke-linecap="round" stroke-linejoin="round"/>
<path d="M56.4725 46.814C56.4725 46.814 53.1785 47.5886 53.5188 52.1144C53.791 55.6072 57.1803 56.2596 57.1803 56.2596" stroke="#647891" stroke-width="2" stroke-linecap="round" stroke-linejoin="round"/>
<path d="M87.2754 46.9907C87.2754 46.9907 90.3652 47.7654 90.0385 52.2911C89.7799 55.784 86.6084 56.4364 86.6084 56.4364" stroke="#647891" stroke-width="2" stroke-linecap="round" stroke-linejoin="round"/>
<path d="M116.078 65.3247C114.621 67.0507 110.143 67.7031 108.074 65.3247" stroke="#647891" stroke-width="2" stroke-linecap="round" stroke-linejoin="round"/>
<path d="M23.7638 74.458C23.5052 77.2305 23.4916 80.6283 20.7012 83.0338" stroke="#647891" stroke-width="2" stroke-linecap="round" stroke-linejoin="round"/>
<path d="M36.0146 74.9331C36.2733 78.0862 36.7224 79.9345 40.5745 83.4138" stroke="#647891" stroke-width="2" stroke-linecap="round" stroke-linejoin="round"/>
<path d="M34.3127 67.5264C32.8018 69.3204 28.133 69.9999 25.9688 67.5264" stroke="#647891" stroke-width="2" stroke-linecap="round" stroke-linejoin="round"/>
<path d="M12.7922 87.8445C11.8666 59.0863 11.186 54.2615 15.9229 48.3223C25.1107 36.8109 46.2223 41.7172 48.0326 56.0148C48.9446 63.1635 48.5635 82.8431 48.5635 82.6528" stroke="#647891" stroke-width="2" stroke-linecap="round" stroke-linejoin="round"/>
<path d="M37.2665 48.6353C32.2983 56.98 22.1576 61.3563 9.89355 58.5702" stroke="#647891" stroke-width="2" stroke-linecap="round" stroke-linejoin="round"/>
<path d="M111.708 73.6969C103.12 73.6969 96.1504 66.7384 96.1504 58.1626" stroke="#647891" stroke-width="2" stroke-linecap="round" stroke-linejoin="round"/>
<path d="M111.708 73.6829C120.301 73.6829 127.267 66.728 127.267 58.1486C127.267 49.5692 120.301 42.6143 111.708 42.6143C103.116 42.6143 96.1504 49.5692 96.1504 58.1486C96.1504 66.728 103.116 73.6829 111.708 73.6829Z" stroke="#647891" stroke-width="2" stroke-linecap="round" stroke-linejoin="round"/>
<path d="M103.937 45.4819C103.937 45.4819 108.388 57.7952 126.096 55.6207" stroke="#647891" stroke-width="2" stroke-linecap="round" stroke-linejoin="round"/>
<path d="M96.1504 58.1489C96.1504 58.1489 104.944 56.8034 104.263 47.0044" stroke="#647891" stroke-width="2" stroke-linecap="round" stroke-linejoin="round"/>
<path d="M127.321 58.3525C129.131 58.5156 130.356 60.1193 130.193 61.9269C130.03 63.7345 128.424 65.08 126.613 64.9169" stroke="#647891" stroke-width="2" stroke-linecap="round" stroke-linejoin="round"/>
<path d="M96.3546 58.3525C94.5443 58.5156 93.1968 60.1193 93.3601 61.9269C93.5234 63.7345 95.1296 65.08 96.9399 64.9169" stroke="#647891" stroke-width="2" stroke-linecap="round" stroke-linejoin="round"/>
<path d="M71.976 67.7166C80.3279 67.7166 87.0985 59.4412 87.0985 49.233C87.0985 39.0249 80.3279 30.7495 71.976 30.7495C63.6241 30.7495 56.8535 39.0249 56.8535 49.233C56.8535 59.4412 63.6241 67.7166 71.976 67.7166Z" stroke="#647891" stroke-width="2" stroke-linecap="round" stroke-linejoin="round"/>
<path d="M119.154 72.2563C119.154 72.2563 119.045 76.918 121.876 79.8808" stroke="#647891" stroke-width="2" stroke-linecap="round" stroke-linejoin="round"/>
<path d="M104.086 71.7666C104.086 71.7666 104.617 76.6321 101.908 79.6901" stroke="#647891" stroke-width="2" stroke-linecap="round" stroke-linejoin="round"/>
<path d="M96.8586 54.3836C96.7497 55.1991 95.8513 57.7134 96.5863 58.0939C97.2261 58.4201 100.425 56.0281 101.01 55.5932C103.297 53.9216 103.624 52.1411 104.685 49.5181C109.898 53.8536 116.677 56.2728 123.456 56.2592C124.477 56.2592 125.688 56.0689 126.11 55.1583C126.328 54.6826 126.273 54.1254 126.164 53.5954C125.252 48.9337 121.428 45.0875 116.881 43.6469C108.347 40.9423 98.0155 45.0739 96.8449 54.3836H96.8586Z" fill="#647891"/>
<path d="M36.4234 50.293C40.7519 52.5219 43.692 56.9797 43.692 62.1034C43.692 69.4696 37.594 75.436 30.0804 75.436C22.5667 75.436 16.4688 69.4696 16.4688 62.1034C16.4688 61.3559 16.5368 60.6356 16.6457 59.9289" stroke="#647891" stroke-width="2" stroke-linecap="round" stroke-linejoin="round"/>
<path d="M54.3623 99.3018V118.696" stroke="#647891" stroke-width="2" stroke-linecap="round" stroke-linejoin="round"/>
<path d="M85.6973 99.3018V118.696" stroke="#647891" stroke-width="2" stroke-linecap="round" stroke-linejoin="round"/>
</svg>
