<svg width="33" height="33" viewBox="0 0 33 33" fill="none" xmlns="http://www.w3.org/2000/svg">
<path fill-rule="evenodd" clip-rule="evenodd" d="M4.82031 10.6348V7.71484C4.82031 6.11879 6.11881 4.82031 7.71484 4.82031H10.6348C10.9993 4.82031 11.2949 4.52474 11.2949 4.16016C11.2949 3.79557 10.9993 3.5 10.6348 3.5H7.71484C5.39079 3.5 3.5 5.39076 3.5 7.71484V10.6348C3.5 10.9993 3.79557 11.2949 4.16016 11.2949C4.52474 11.2949 4.82031 10.9993 4.82031 10.6348ZM10.6348 28.1797C10.9993 28.1797 11.2949 28.4753 11.2949 28.8398C11.2949 29.2044 10.9993 29.5 10.6348 29.5H7.71484C5.39079 29.5 3.5 27.6092 3.5 25.2852V22.3652C3.5 22.0007 3.79557 21.7051 4.16016 21.7051C4.52474 21.7051 4.82031 22.0007 4.82031 22.3652V25.2852C4.82031 26.8812 6.11881 28.1797 7.71484 28.1797H10.6348ZM29.5 22.3652V25.2852C29.5 27.6092 27.6092 29.5 25.2852 29.5H22.3652C22.0007 29.5 21.7051 29.2044 21.7051 28.8398C21.7051 28.4753 22.0007 28.1797 22.3652 28.1797H25.2852C26.8812 28.1797 28.1797 26.8812 28.1797 25.2852V22.3652C28.1797 22.0007 28.4753 21.7051 28.8398 21.7051C29.2044 21.7051 29.5 22.0007 29.5 22.3652ZM29.5 7.71484V10.6348C29.5 10.9993 29.2044 11.2949 28.8398 11.2949C28.4753 11.2949 28.1797 10.9993 28.1797 10.6348V7.71484C28.1797 6.11879 26.8812 4.82031 25.2852 4.82031H22.3652C22.0007 4.82031 21.7051 4.52474 21.7051 4.16016C21.7051 3.79557 22.0007 3.5 22.3652 3.5H25.2852C27.6092 3.5 29.5 5.39076 29.5 7.71484ZM21.0558 22.7165C21.3339 22.4596 21.3511 22.0259 21.0942 21.7477C20.8372 21.4696 20.4035 21.4524 20.1254 21.7093C19.1358 22.6235 17.8482 23.1269 16.4999 23.1269C15.1517 23.1269 13.8641 22.6235 12.8745 21.7093C12.5963 21.4524 12.1626 21.4696 11.9057 21.7477C11.6488 22.0259 11.666 22.4596 11.9441 22.7165C13.1879 23.8653 14.8058 24.498 16.4999 24.498C18.1941 24.498 19.812 23.8653 21.0558 22.7165ZM17.8711 13.3008V18.1758C17.8711 19.1418 17.0852 19.9277 16.1191 19.9277H15.5605C15.1819 19.9277 14.875 19.6208 14.875 19.2422C14.875 18.8636 15.1819 18.5566 15.5605 18.5566H16.1191C16.3291 18.5566 16.5 18.3858 16.5 18.1758V13.3008C16.5 12.9222 16.8069 12.6152 17.1855 12.6152C17.5642 12.6152 17.8711 12.9222 17.8711 13.3008ZM22.5938 15.2178V13.2627C22.5938 12.9051 22.3039 12.6152 21.9463 12.6152C21.5887 12.6152 21.2988 12.9051 21.2988 13.2627V15.2178C21.2988 15.5753 21.5887 15.8652 21.9463 15.8652C22.3039 15.8652 22.5938 15.5753 22.5938 15.2178ZM10.5586 15.2178C10.5586 15.5753 10.8485 15.8652 11.2061 15.8652C11.5636 15.8652 11.8535 15.5753 11.8535 15.2178V13.2627C11.8535 12.9051 11.5636 12.6152 11.2061 12.6152C10.8485 12.6152 10.5586 12.9051 10.5586 13.2627V15.2178Z" fill="#4A6382"/>
</svg>
