<svg width="33" height="33" viewBox="0 0 33 33" fill="none" xmlns="http://www.w3.org/2000/svg">
<g clip-path="url(#clip0_50265_90329)">
<path d="M19.403 2.91274C17.4416 2.42348 15.3776 2.35356 13.3693 2.78712C13.2141 2.82063 13.1154 2.97361 13.1489 3.12882C13.1824 3.28402 13.3354 3.38268 13.4906 3.34918C15.414 2.93397 17.3952 3.00243 19.2797 3.47476C23.7864 4.6043 27.5377 7.99272 28.9664 12.4189C29.519 14.1307 29.7537 15.9533 29.8007 17.8635C29.8046 18.0223 29.9365 18.1478 30.0952 18.1439C30.2539 18.14 30.3795 18.0081 30.3755 17.8494C30.3279 15.913 30.0904 14.0434 29.5242 12.2752C28.0405 7.64128 24.1198 4.08928 19.403 2.91274Z" fill="#4A6382"/>
<path d="M11.9103 3.78259C12.0634 3.74036 12.1532 3.58205 12.111 3.42898C12.0688 3.27592 11.9104 3.18606 11.7574 3.22829C9.65708 3.8077 6.70258 5.80977 4.87667 8.48438C4.87596 8.48542 4.87525 8.48647 4.87456 8.48752C3.27129 10.9037 2.26627 13.9399 2.54687 16.8862C2.54713 16.889 2.54744 16.8918 2.54779 16.8946C2.61504 17.4326 2.72793 17.9696 2.84096 18.5072C3.07902 19.6395 3.31766 20.7746 3.13165 21.9278C3.10636 22.0845 3.21294 22.2321 3.3697 22.2574C3.52645 22.2827 3.67403 22.1761 3.69932 22.0194C3.89375 20.814 3.65232 19.6382 3.41084 18.4622C3.29916 17.9183 3.18747 17.3744 3.11888 16.8275C2.85497 14.0435 3.80556 11.1391 5.35263 8.80702C7.10908 6.23507 9.95332 4.32246 11.9103 3.78259Z" fill="#4A6382"/>
<path d="M15.6831 4.42493C19.2926 4.20451 22.9015 5.67763 25.3251 8.49985C25.4286 8.62031 25.4148 8.80183 25.2943 8.90527C25.1739 9.00872 24.9924 8.99493 24.8889 8.87447C22.5841 6.19064 19.15 4.78875 15.7164 4.99898C15.7151 4.99905 15.7139 4.99912 15.7127 4.99918C11.3705 5.20929 7.30394 8.15499 5.80819 12.2826C5.7541 12.4319 5.58923 12.5091 5.43994 12.455C5.29066 12.4009 5.21349 12.236 5.26759 12.0867C6.8433 7.73842 11.1134 4.64682 15.6831 4.42493Z" fill="#4A6382"/>
<path d="M26.201 9.75587C26.1125 9.62406 25.9339 9.58896 25.802 9.67749C25.6702 9.76601 25.6351 9.94463 25.7237 10.0764C27.0673 12.0771 27.6228 14.2541 27.8424 16.8376C27.8559 16.9958 27.995 17.1132 28.1532 17.0997C28.3114 17.0863 28.4288 16.9471 28.4154 16.7889C28.1909 14.1489 27.618 11.8658 26.201 9.75587Z" fill="#4A6382"/>
<path d="M28.2231 18.0095C28.3816 17.9996 28.5181 18.1201 28.528 18.2786C28.6364 20.0122 28.6374 21.9736 28.4456 23.4231C28.4248 23.5805 28.2803 23.6913 28.1229 23.6704C27.9655 23.6496 27.8547 23.5051 27.8756 23.3477C28.0604 21.9506 28.0614 20.0308 27.9541 18.3144C27.9442 18.1559 28.0647 18.0195 28.2231 18.0095Z" fill="#4A6382"/>
<path d="M5.37404 13.6752C5.4113 13.5208 5.31639 13.3655 5.16204 13.3282C5.00769 13.291 4.85236 13.3859 4.81509 13.5402C4.60407 14.4142 4.49453 15.312 4.49019 16.2107C4.48571 17.137 4.65842 18.0411 4.8312 18.9456C4.97254 19.6855 5.11392 20.4256 5.15839 21.1783C5.21681 22.167 5.00884 23.1571 4.64948 24.0995C4.5929 24.2478 4.66731 24.414 4.81567 24.4706C4.96403 24.5271 5.13017 24.4527 5.18674 24.3044C5.5666 23.3083 5.79685 22.2353 5.73239 21.1444C5.68822 20.3969 5.54685 19.661 5.40554 18.9255C5.23311 18.028 5.06075 17.1309 5.06518 16.2135C5.06931 15.3596 5.17342 14.5061 5.37404 13.6752Z" fill="#4A6382"/>
<path d="M12.918 7.28626C12.9772 7.43361 12.9057 7.60102 12.7583 7.66019C9.77774 8.85717 7.53949 11.5583 7.08288 14.7435C6.89211 16.0743 7.09821 17.3924 7.30426 18.7102C7.42029 19.4524 7.53631 20.1944 7.58142 20.9385C7.67922 22.552 7.49544 24.3242 6.44539 25.9367C6.35874 26.0698 6.18064 26.1074 6.04758 26.0207C5.91452 25.9341 5.8769 25.756 5.96355 25.6229C6.92025 24.1538 7.10134 22.5219 7.00746 20.9733C6.9617 20.2183 6.84641 19.4677 6.73118 18.7175C6.52446 17.3716 6.31797 16.0273 6.51369 14.6619C7.00123 11.2609 9.385 8.39525 12.5441 7.12661C12.6914 7.06744 12.8588 7.13892 12.918 7.28626Z" fill="#4A6382"/>
<path d="M23.011 8.9231C20.6596 6.72074 17.2515 5.95208 14.1542 6.63144C13.9991 6.66546 13.9009 6.81877 13.935 6.97386C13.969 7.12896 14.1223 7.22711 14.2774 7.19309C17.2103 6.54978 20.4194 7.28363 22.6179 9.34278C24.471 11.0784 25.547 13.6038 25.8287 16.3591C25.8449 16.517 25.986 16.632 26.144 16.6158C26.3019 16.5997 26.4169 16.4586 26.4007 16.3006C26.1082 13.4396 24.9868 10.7736 23.011 8.9231Z" fill="#4A6382"/>
<path d="M26.3406 17.6698C26.4985 17.6536 26.6397 17.7685 26.6559 17.9264C26.929 20.5849 26.8113 23.4564 26.3991 26.2342C26.3758 26.3913 26.2296 26.4997 26.0725 26.4764C25.9155 26.4531 25.807 26.3069 25.8303 26.1498C26.2368 23.4106 26.3513 20.5879 26.0839 17.9852C26.0677 17.8272 26.1826 17.686 26.3406 17.6698Z" fill="#4A6382"/>
<path d="M16.3171 8.34295C11.9115 8.34295 8.33191 11.8578 8.33191 16.2033C8.33191 16.6675 8.3731 17.1223 8.45163 17.5646C8.47939 17.7209 8.62863 17.8252 8.78496 17.7974C8.9413 17.7697 9.04554 17.6204 9.01778 17.4641C8.94508 17.0546 8.90692 16.6334 8.90692 16.2033C8.90692 12.1842 12.2202 8.91795 16.3171 8.91795C18.1686 8.91795 19.8602 9.58526 21.1585 10.6879C21.2795 10.7907 21.461 10.7759 21.5638 10.6548C21.6665 10.5338 21.6518 10.3524 21.5307 10.2496C20.1316 9.0614 18.309 8.34295 16.3171 8.34295Z" fill="#4A6382"/>
<path d="M22.1749 11.3215C22.2895 11.2116 22.4715 11.2155 22.5814 11.3301C23.8502 12.6532 24.2563 14.7327 24.5251 16.4779C24.8278 18.4437 24.874 20.3614 24.874 21.2506C24.874 21.4094 24.7453 21.5381 24.5865 21.5381C24.4277 21.5381 24.299 21.4094 24.299 21.2506C24.299 20.3758 24.2532 18.4905 23.9568 16.5654C23.7073 14.9452 23.3476 12.9599 22.1664 11.728C22.0565 11.6134 22.0603 11.4314 22.1749 11.3215Z" fill="#4A6382"/>
<path d="M24.801 22.8971C24.8136 22.7388 24.6955 22.6003 24.5373 22.5877C24.379 22.575 24.2404 22.6931 24.2278 22.8514C24.0866 24.6223 23.9021 26.3914 23.5278 28.0255C23.4923 28.1803 23.589 28.3345 23.7438 28.3699C23.8986 28.4054 24.0528 28.3086 24.0883 28.1539C24.4725 26.4767 24.6594 24.6728 24.801 22.8971Z" fill="#4A6382"/>
<path d="M8.9144 18.6228C9.07019 18.5921 9.22136 18.6935 9.25203 18.8493C9.85992 21.9363 9.43998 24.7405 7.83019 27.1969C7.74316 27.3298 7.56494 27.3669 7.43214 27.2798C7.29933 27.1928 7.26223 27.0146 7.34926 26.8818C8.8639 24.5705 9.27153 21.9243 8.68786 18.9604C8.65719 18.8046 8.75861 18.6534 8.9144 18.6228Z" fill="#4A6382"/>
<path d="M16.3171 10.2136C13.4573 10.2136 10.6518 12.4273 10.3654 15.2095C10.2401 16.4276 10.4162 17.6274 10.5923 18.8277C10.7462 19.8757 10.9001 20.9242 10.8533 21.9854C10.7464 24.4143 10.0338 26.4192 8.80924 28.0706C8.71466 28.1981 8.74138 28.3782 8.86893 28.4728C8.99647 28.5674 9.17654 28.5406 9.27111 28.4131C10.5699 26.6616 11.3163 24.5439 11.4278 22.0107C11.4743 20.9542 11.3199 19.9091 11.1657 18.8647C10.9893 17.6704 10.813 16.477 10.9374 15.2684C11.189 12.8243 13.7047 10.7886 16.3171 10.7886C17.5356 10.7886 20.6882 11.4484 21.6911 14.7152C22.3195 16.7624 22.4909 19.533 22.3387 22.2246C22.1865 24.9159 21.713 27.49 21.0764 29.1406C21.0192 29.2887 21.093 29.4552 21.2412 29.5123C21.3893 29.5695 21.5557 29.4957 21.6129 29.3475C22.2789 27.6206 22.7587 24.9814 22.9128 22.2571C23.0668 19.5332 22.8975 16.6859 22.2408 14.5465C21.1276 10.9202 17.638 10.2136 16.3171 10.2136Z" fill="#4A6382"/>
<path d="M11.8927 27.1974C12.0257 27.2841 12.0632 27.4623 11.9765 27.5953C11.7982 27.8686 11.6413 28.1546 11.4845 28.4406C11.3277 28.7266 11.1708 29.0127 10.9925 29.2861C10.9057 29.4191 10.7276 29.4565 10.5946 29.3698C10.4616 29.2831 10.4241 29.1049 10.5109 28.9719C10.6891 28.6986 10.846 28.4126 11.0028 28.1266C11.1597 27.8406 11.3165 27.5545 11.4948 27.2811C11.5816 27.1481 11.7597 27.1106 11.8927 27.1974Z" fill="#4A6382"/>
<path d="M14.3545 13.198C14.4865 13.1097 14.5219 12.9312 14.4336 12.7992C14.3454 12.6672 14.1668 12.6318 14.0348 12.72C12.8963 13.4815 12.1979 14.5286 12.1979 16.0626C12.1979 16.976 12.3597 17.7226 12.5257 18.4884C12.774 19.6343 12.9425 20.7777 12.9122 21.9548C12.8754 23.384 12.5958 24.6901 12.0582 25.9342C11.9953 26.08 12.0624 26.2492 12.2081 26.3122C12.3539 26.3752 12.5231 26.3081 12.5861 26.1623C13.1545 24.8468 13.4485 23.4679 13.487 21.9695C13.5185 20.7465 13.3453 19.5578 13.0878 18.3668C12.9214 17.5977 12.7729 16.911 12.7729 16.0626C12.7729 14.7483 13.3511 13.8691 14.3545 13.198Z" fill="#4A6382"/>
<path d="M15.4766 12.1878C16.6697 11.9446 17.9535 12.2452 18.8984 13.01C20.5863 14.3762 20.8108 16.8676 20.9927 18.8865L21.002 18.9894C21.2371 21.5918 20.968 24.1196 20.426 26.6581C20.3928 26.8134 20.24 26.9124 20.0848 26.8793C19.9295 26.8461 19.8305 26.6934 19.8636 26.5381C20.3975 24.0376 20.6578 21.57 20.4293 19.0411C20.4218 18.9574 20.4142 18.8725 20.4066 18.7865L20.4065 18.7853C20.2449 16.9608 20.0426 14.6758 18.5367 13.4569C17.7288 12.803 16.6208 12.5414 15.5915 12.7512C15.4359 12.783 15.2841 12.6826 15.2523 12.527C15.2206 12.3714 15.321 12.2195 15.4766 12.1878Z" fill="#4A6382"/>
<path d="M20.0196 28.0887C20.0588 27.9349 19.9658 27.7784 19.8119 27.7392C19.6581 27.7 19.5016 27.793 19.4624 27.9469C19.2886 28.6296 19.0208 29.2458 18.6812 29.8132C18.5996 29.9494 18.644 30.126 18.7802 30.2075C18.9165 30.289 19.093 30.2447 19.1746 30.1085C19.5405 29.4971 19.831 28.8295 20.0196 28.0887Z" fill="#4A6382"/>
<path d="M18.6137 23.9166C18.7714 23.9352 18.8841 24.0782 18.8654 24.2359C18.5939 26.5304 17.9809 28.5769 16.9973 30.3518C16.9203 30.4907 16.7453 30.5409 16.6064 30.4639C16.4676 30.387 16.4174 30.212 16.4943 30.0731C17.4357 28.3744 18.03 26.4023 18.2944 24.1683C18.3131 24.0106 18.456 23.8979 18.6137 23.9166Z" fill="#4A6382"/>
<path d="M18.5545 15.9118C18.3551 14.8468 17.4411 14.0321 16.3314 14.0321C14.8287 14.0321 13.7744 15.5468 14.1459 16.956C14.7746 19.4435 14.8778 21.8409 14.4522 24.1499L14.4519 24.1516C14.0826 26.2247 13.3734 28.0897 12.4061 29.6701C12.3232 29.8056 12.3658 29.9825 12.5012 30.0654C12.6366 30.1483 12.8136 30.1057 12.8965 29.9703C13.9034 28.3253 14.6367 26.3923 15.0178 24.2533C15.4597 21.8552 15.3502 19.3737 14.703 16.8136L14.7023 16.8106C14.4236 15.7565 15.2003 14.6071 16.3314 14.6071C17.1476 14.6071 17.8367 15.2076 17.9889 16.0156C18.4074 18.443 18.6254 20.694 18.4702 22.632C18.4575 22.7903 18.5755 22.9289 18.7338 22.9415C18.8921 22.9542 19.0307 22.8362 19.0433 22.6779C19.2042 20.6691 18.9771 18.3627 18.5552 15.9158C18.555 15.9145 18.5547 15.9132 18.5545 15.9118Z" fill="#4A6382"/>
<path d="M15.4735 28.3638C15.6147 28.4363 15.6704 28.6096 15.5978 28.7509L14.836 30.2334C14.7634 30.3746 14.5901 30.4303 14.4489 30.3577C14.3076 30.2851 14.252 30.1118 14.3246 29.9706L15.0864 28.4881C15.1589 28.3468 15.3323 28.2912 15.4735 28.3638Z" fill="#4A6382"/>
<path d="M16.5452 16.189C16.5089 16.0345 16.3541 15.9386 16.1996 15.9749C16.045 16.0112 15.9491 16.166 15.9854 16.3205C16.955 20.4476 16.8218 24.0717 15.6409 27.1588C15.5841 27.3071 15.6584 27.4733 15.8067 27.5301C15.955 27.5868 16.1212 27.5125 16.1779 27.3642C17.4093 24.1453 17.5344 20.3999 16.5452 16.189Z" fill="#4A6382"/>
</g>
<defs>
<clipPath id="clip0_50265_90329">
<rect width="28" height="28" fill="white" transform="translate(2.5 2.5)"/>
</clipPath>
</defs>
</svg>
