<svg width="32" height="32" viewBox="0 0 32 32" fill="none" xmlns="http://www.w3.org/2000/svg">
<path d="M18.903 2.41274C16.9416 1.92348 14.8776 1.85356 12.8693 2.28712C12.7141 2.32063 12.6154 2.47361 12.6489 2.62882C12.6824 2.78402 12.8354 2.88268 12.9906 2.84918C14.914 2.43397 16.8952 2.50243 18.7797 2.97476C23.2864 4.1043 27.0377 7.49272 28.4664 11.9189C29.019 13.6307 29.2537 15.4533 29.3007 17.3635C29.3046 17.5223 29.4365 17.6478 29.5952 17.6439C29.7539 17.64 29.8795 17.5081 29.8755 17.3494C29.8279 15.413 29.5904 13.5434 29.0242 11.7752C27.5405 7.14128 23.6198 3.58928 18.903 2.41274Z" fill="#4A6382"/>
<path d="M11.4103 3.28259C11.5634 3.24036 11.6532 3.08205 11.611 2.92898C11.5688 2.77592 11.4104 2.68606 11.2574 2.72829C9.15708 3.3077 6.20258 5.30977 4.37667 7.98438C4.37596 7.98542 4.37525 7.98647 4.37456 7.98752C2.77129 10.4037 1.76627 13.4399 2.04687 16.3862C2.04713 16.389 2.04744 16.3918 2.04779 16.3946C2.11504 16.9326 2.22793 17.4696 2.34096 18.0072C2.57902 19.1395 2.81766 20.2746 2.63165 21.4278C2.60636 21.5845 2.71294 21.7321 2.8697 21.7574C3.02645 21.7827 3.17403 21.6761 3.19932 21.5194C3.39375 20.314 3.15232 19.1382 2.91084 17.9622C2.79916 17.4183 2.68747 16.8744 2.61888 16.3275C2.35497 13.5435 3.30556 10.6391 4.85263 8.30702C6.60908 5.73507 9.45332 3.82246 11.4103 3.28259Z" fill="#4A6382"/>
<path d="M15.1831 3.92493C18.7926 3.70451 22.4015 5.17763 24.8251 7.99985C24.9286 8.12031 24.9148 8.30183 24.7943 8.40527C24.6739 8.50872 24.4924 8.49493 24.3889 8.37447C22.0841 5.69064 18.65 4.28875 15.2164 4.49898C15.2151 4.49905 15.2139 4.49912 15.2127 4.49918C10.8705 4.70929 6.80394 7.65499 5.30819 11.7826C5.2541 11.9319 5.08923 12.0091 4.93994 11.955C4.79066 11.9009 4.71349 11.736 4.76759 11.5867C6.3433 7.23842 10.6134 4.14682 15.1831 3.92493Z" fill="#4A6382"/>
<path d="M25.701 9.25587C25.6125 9.12406 25.4339 9.08896 25.302 9.17749C25.1702 9.26601 25.1351 9.44463 25.2237 9.57645C26.5673 11.5771 27.1228 13.7541 27.3424 16.3376C27.3559 16.4958 27.495 16.6132 27.6532 16.5997C27.8114 16.5863 27.9288 16.4471 27.9154 16.2889C27.6909 13.6489 27.118 11.3658 25.701 9.25587Z" fill="#4A6382"/>
<path d="M27.7231 17.5095C27.8816 17.4996 28.0181 17.6201 28.028 17.7786C28.1364 19.5122 28.1374 21.4736 27.9456 22.9231C27.9248 23.0805 27.7803 23.1913 27.6229 23.1704C27.4655 23.1496 27.3547 23.0051 27.3756 22.8477C27.5604 21.4506 27.5614 19.5308 27.4541 17.8144C27.4442 17.6559 27.5647 17.5195 27.7231 17.5095Z" fill="#4A6382"/>
<path d="M4.87404 13.1752C4.9113 13.0208 4.81639 12.8655 4.66204 12.8282C4.50769 12.791 4.35236 12.8859 4.31509 13.0402C4.10407 13.9142 3.99453 14.812 3.99019 15.7107C3.98571 16.637 4.15842 17.5411 4.3312 18.4456C4.47254 19.1855 4.61392 19.9256 4.65839 20.6783C4.71681 21.667 4.50884 22.6571 4.14948 23.5995C4.0929 23.7478 4.16731 23.914 4.31567 23.9706C4.46403 24.0271 4.63017 23.9527 4.68674 23.8044C5.0666 22.8083 5.29685 21.7353 5.23239 20.6444C5.18822 19.8969 5.04685 19.161 4.90554 18.4255C4.73311 17.528 4.56075 16.6309 4.56518 15.7135C4.56931 14.8596 4.67342 14.0061 4.87404 13.1752Z" fill="#4A6382"/>
<path d="M12.418 6.78626C12.4772 6.93361 12.4057 7.10102 12.2583 7.16019C9.27774 8.35717 7.03949 11.0583 6.58288 14.2435C6.39211 15.5743 6.59821 16.8924 6.80426 18.2102C6.92029 18.9524 7.03631 19.6944 7.08142 20.4385C7.17922 22.052 6.99544 23.8242 5.94539 25.4367C5.85874 25.5698 5.68064 25.6074 5.54758 25.5207C5.41452 25.4341 5.3769 25.256 5.46355 25.1229C6.42025 23.6538 6.60134 22.0219 6.50746 20.4733C6.4617 19.7183 6.34641 18.9677 6.23118 18.2175C6.02446 16.8716 5.81797 15.5273 6.01369 14.1619C6.50123 10.7609 8.885 7.89525 12.0441 6.62661C12.1914 6.56744 12.3588 6.63892 12.418 6.78626Z" fill="#4A6382"/>
<path d="M22.511 8.4231C20.1596 6.22074 16.7515 5.45208 13.6542 6.13144C13.4991 6.16546 13.4009 6.31877 13.435 6.47386C13.469 6.62896 13.6223 6.72711 13.7774 6.69309C16.7103 6.04978 19.9194 6.78363 22.1179 8.84278C23.971 10.5784 25.047 13.1038 25.3287 15.8591C25.3449 16.017 25.486 16.132 25.644 16.1158C25.8019 16.0997 25.9169 15.9586 25.9007 15.8006C25.6082 12.9396 24.4868 10.2736 22.511 8.4231Z" fill="#4A6382"/>
<path d="M25.8406 17.1698C25.9985 17.1536 26.1397 17.2685 26.1559 17.4264C26.429 20.0849 26.3113 22.9564 25.8991 25.7342C25.8758 25.8913 25.7296 25.9997 25.5725 25.9764C25.4155 25.9531 25.307 25.8069 25.3303 25.6498C25.7368 22.9106 25.8513 20.0879 25.5839 17.4852C25.5677 17.3272 25.6826 17.186 25.8406 17.1698Z" fill="#4A6382"/>
<path d="M15.8171 7.84295C11.4115 7.84295 7.83191 11.3578 7.83191 15.7033C7.83191 16.1675 7.8731 16.6223 7.95163 17.0646C7.97939 17.2209 8.12863 17.3252 8.28496 17.2974C8.4413 17.2697 8.54554 17.1204 8.51778 16.9641C8.44508 16.5546 8.40692 16.1334 8.40692 15.7033C8.40692 11.6842 11.7202 8.41795 15.8171 8.41795C17.6686 8.41795 19.3602 9.08526 20.6585 10.1879C20.7795 10.2907 20.961 10.2759 21.0638 10.1548C21.1665 10.0338 21.1518 9.85238 21.0307 9.7496C19.6316 8.5614 17.809 7.84295 15.8171 7.84295Z" fill="#4A6382"/>
<path d="M21.6749 10.8215C21.7895 10.7116 21.9715 10.7155 22.0814 10.8301C23.3502 12.1532 23.7563 14.2327 24.0251 15.9779C24.3278 17.9437 24.374 19.8614 24.374 20.7506C24.374 20.9094 24.2453 21.0381 24.0865 21.0381C23.9277 21.0381 23.799 20.9094 23.799 20.7506C23.799 19.8758 23.7532 17.9905 23.4568 16.0654C23.2073 14.4452 22.8476 12.4599 21.6664 11.228C21.5565 11.1134 21.5603 10.9314 21.6749 10.8215Z" fill="#4A6382"/>
<path d="M24.301 22.3971C24.3136 22.2388 24.1955 22.1003 24.0373 22.0877C23.879 22.075 23.7404 22.1931 23.7278 22.3514C23.5866 24.1223 23.4021 25.8914 23.0278 27.5255C22.9923 27.6803 23.089 27.8345 23.2438 27.8699C23.3986 27.9054 23.5528 27.8086 23.5883 27.6539C23.9725 25.9767 24.1594 24.1728 24.301 22.3971Z" fill="#4A6382"/>
<path d="M8.4144 18.1228C8.57019 18.0921 8.72136 18.1935 8.75203 18.3493C9.35992 21.4363 8.93998 24.2405 7.33019 26.6969C7.24316 26.8298 7.06494 26.8669 6.93214 26.7798C6.79933 26.6928 6.76223 26.5146 6.84926 26.3818C8.3639 24.0705 8.77153 21.4243 8.18786 18.4604C8.15719 18.3046 8.25861 18.1534 8.4144 18.1228Z" fill="#4A6382"/>
<path d="M15.8171 9.71358C12.9573 9.71358 10.1518 11.9273 9.86542 14.7095C9.74005 15.9276 9.91616 17.1274 10.0923 18.3277C10.2462 19.3757 10.4001 20.4242 10.3533 21.4854C10.2464 23.9143 9.53376 25.9192 8.30924 27.5706C8.21466 27.6981 8.24138 27.8782 8.36893 27.9728C8.49647 28.0674 8.67654 28.0406 8.77111 27.9131C10.0699 26.1616 10.8163 24.0439 10.9278 21.5107C10.9743 20.4542 10.8199 19.4091 10.6657 18.3647C10.4893 17.1704 10.313 15.977 10.4374 14.7684C10.689 12.3243 13.2047 10.2886 15.8171 10.2886C17.0356 10.2886 20.1882 10.9484 21.1911 14.2152C21.8195 16.2624 21.9909 19.033 21.8387 21.7246C21.6865 24.4159 21.213 26.99 20.5764 28.6406C20.5192 28.7887 20.593 28.9552 20.7412 29.0123C20.8893 29.0695 21.0557 28.9957 21.1129 28.8475C21.7789 27.1206 22.2587 24.4814 22.4128 21.7571C22.5668 19.0332 22.3975 16.1859 21.7408 14.0465C20.6276 10.4202 17.138 9.71358 15.8171 9.71358Z" fill="#4A6382"/>
<path d="M11.3927 26.6974C11.5257 26.7841 11.5632 26.9623 11.4765 27.0953C11.2982 27.3686 11.1413 27.6546 10.9845 27.9406C10.8277 28.2266 10.6708 28.5127 10.4925 28.7861C10.4057 28.9191 10.2276 28.9565 10.0946 28.8698C9.96162 28.7831 9.92412 28.6049 10.0109 28.4719C10.1891 28.1986 10.346 27.9126 10.5028 27.6266C10.6597 27.3406 10.8165 27.0545 10.9948 26.7811C11.0816 26.6481 11.2597 26.6106 11.3927 26.6974Z" fill="#4A6382"/>
<path d="M13.8545 12.698C13.9865 12.6097 14.0219 12.4312 13.9336 12.2992C13.8454 12.1672 13.6668 12.1318 13.5348 12.22C12.3963 12.9815 11.6979 14.0286 11.6979 15.5626C11.6979 16.476 11.8597 17.2226 12.0257 17.9884C12.274 19.1343 12.4425 20.2777 12.4122 21.4548C12.3754 22.884 12.0958 24.1901 11.5582 25.4342C11.4953 25.58 11.5624 25.7492 11.7081 25.8122C11.8539 25.8752 12.0231 25.8081 12.0861 25.6623C12.6545 24.3468 12.9485 22.9679 12.987 21.4695C13.0185 20.2465 12.8453 19.0578 12.5878 17.8668C12.4214 17.0977 12.2729 16.411 12.2729 15.5626C12.2729 14.2483 12.8511 13.3691 13.8545 12.698Z" fill="#4A6382"/>
<path d="M14.9766 11.6878C16.1697 11.4446 17.4535 11.7452 18.3984 12.51C20.0863 13.8762 20.3108 16.3676 20.4927 18.3865L20.502 18.4894C20.7371 21.0918 20.468 23.6196 19.926 26.1581C19.8928 26.3134 19.74 26.4124 19.5848 26.3793C19.4295 26.3461 19.3305 26.1934 19.3636 26.0381C19.8975 23.5376 20.1578 21.07 19.9293 18.5411C19.9218 18.4574 19.9142 18.3725 19.9066 18.2865L19.9065 18.2853C19.7449 16.4608 19.5426 14.1758 18.0367 12.9569C17.2288 12.303 16.1208 12.0414 15.0915 12.2512C14.9359 12.283 14.7841 12.1826 14.7523 12.027C14.7206 11.8714 14.821 11.7195 14.9766 11.6878Z" fill="#4A6382"/>
<path d="M19.5196 27.5887C19.5588 27.4349 19.4658 27.2784 19.3119 27.2392C19.1581 27.2 19.0016 27.293 18.9624 27.4469C18.7886 28.1296 18.5208 28.7458 18.1812 29.3132C18.0996 29.4494 18.144 29.626 18.2802 29.7075C18.4165 29.789 18.593 29.7447 18.6746 29.6085C19.0405 28.9971 19.331 28.3295 19.5196 27.5887Z" fill="#4A6382"/>
<path d="M18.1137 23.4166C18.2714 23.4352 18.3841 23.5782 18.3654 23.7359C18.0939 26.0304 17.4809 28.0769 16.4973 29.8518C16.4203 29.9907 16.2453 30.0409 16.1064 29.9639C15.9676 29.887 15.9174 29.712 15.9943 29.5731C16.9357 27.8744 17.53 25.9023 17.7944 23.6683C17.8131 23.5106 17.956 23.3979 18.1137 23.4166Z" fill="#4A6382"/>
<path d="M18.0545 15.4118C17.8551 14.3468 16.9411 13.5321 15.8314 13.5321C14.3287 13.5321 13.2744 15.0468 13.6459 16.456C14.2746 18.9435 14.3778 21.3409 13.9522 23.6499L13.9519 23.6516C13.5826 25.7247 12.8734 27.5897 11.9061 29.1701C11.8232 29.3056 11.8658 29.4825 12.0012 29.5654C12.1366 29.6483 12.3136 29.6057 12.3965 29.4703C13.4034 27.8253 14.1367 25.8923 14.5178 23.7533C14.9597 21.3552 14.8502 18.8737 14.203 16.3136L14.2023 16.3106C13.9236 15.2565 14.7003 14.1071 15.8314 14.1071C16.6476 14.1071 17.3367 14.7076 17.4889 15.5156C17.9074 17.943 18.1254 20.194 17.9702 22.132C17.9575 22.2903 18.0755 22.4289 18.2338 22.4415C18.3921 22.4542 18.5307 22.3362 18.5433 22.1779C18.7042 20.1691 18.4771 17.8627 18.0552 15.4158C18.055 15.4145 18.0547 15.4132 18.0545 15.4118Z" fill="#4A6382"/>
<path d="M14.9735 27.8638C15.1147 27.9363 15.1704 28.1096 15.0978 28.2509L14.336 29.7334C14.2634 29.8746 14.0901 29.9303 13.9489 29.8577C13.8076 29.7851 13.752 29.6118 13.8246 29.4706L14.5864 27.9881C14.6589 27.8468 14.8323 27.7912 14.9735 27.8638Z" fill="#4A6382"/>
<path d="M16.0452 15.689C16.0089 15.5345 15.8541 15.4386 15.6996 15.4749C15.545 15.5112 15.4491 15.666 15.4854 15.8205C16.455 19.9476 16.3218 23.5717 15.1409 26.6588C15.0841 26.8071 15.1584 26.9733 15.3067 27.0301C15.455 27.0868 15.6212 27.0125 15.6779 26.8642C16.9093 23.6453 17.0344 19.8999 16.0452 15.689Z" fill="#4A6382"/>
</svg>
