<svg width="32" height="32" viewBox="0 0 32 32" fill="none" xmlns="http://www.w3.org/2000/svg">
<path fill-rule="evenodd" clip-rule="evenodd" d="M29.6453 10.5261L16.7268 2.34337C16.6862 2.31763 16.6482 2.28847 16.6102 2.25933L16.5901 2.24391C16.2353 1.97338 15.7463 1.97338 15.3915 2.24391L15.3714 2.25932C15.3334 2.28845 15.2954 2.31763 15.2548 2.34337L2.33628 10.5261C1.65314 10.9441 2.07914 12.7134 3.00047 12.7134H3.20529C3.6265 12.7134 3.96796 13.0549 3.96796 13.4761V21.8985C3.96796 21.9768 4.45401 22.1868 4.51881 22.1428C5.57979 21.4053 6.7013 20.981 7.85496 20.8614V16.7427C7.85496 16.2231 8.30323 15.802 8.85621 15.802H14.0162C14.5692 15.802 15.0175 16.2231 15.0175 16.7427V22.8832C16.5548 23.2082 17.9861 22.9879 19.4097 21.9984C19.4765 21.9521 19.5435 21.9071 19.6108 21.8634C19.6505 21.8377 19.6747 21.7937 19.6747 21.7464C19.6747 21.6749 19.6198 21.6162 19.5498 21.6013C19.1033 21.5067 18.7697 21.1318 18.7697 20.6836V16.7427C18.7697 16.2231 19.218 15.802 19.771 15.802H23.7168C24.2698 15.802 24.7181 16.2231 24.7181 16.7427V20.6836C24.7181 20.8178 24.8129 20.9328 24.9438 20.9618C25.441 21.0719 25.9547 21.2223 26.4525 21.4036C27.1733 21.6661 28.0149 21.1627 28.0149 20.3955V13.6796C28.0149 13.146 28.4475 12.7134 28.9811 12.7134C29.9025 12.7134 30.3705 10.9936 29.6453 10.5261Z" fill="#4A6382"/>
<path d="M19.3174 25.472C20.5515 24.4987 21.7696 24.0737 23.1285 24.0869C24.4872 24.1001 25.8849 24.5791 27.2677 25.4698C28.2178 26.0818 28.3885 27.372 28.2093 27.8131C28.0301 28.2543 27.3246 29.299 26.0619 28.7377C23.3116 27.5154 22.7372 26.5571 20.5813 28.2571C18.1135 30.207 14.8098 30.9546 12.042 29.172C9.17315 27.1275 8.39764 26.7259 6.03408 28.2571C5.04292 28.7954 4.31938 28.1332 4.08422 27.7938C3.84908 27.4545 3.92635 26.0717 4.57748 25.5565C7.04533 23.6065 9.03115 23.454 11.7968 25.2365C14.3294 26.8683 17.1616 27.1753 19.3174 25.472Z" fill="#4A6382"/>
</svg>
