<svg width="33" height="32" viewBox="0 0 33 32" fill="none" xmlns="http://www.w3.org/2000/svg">
<path d="M2.7125 5.445L13.2531 17.7225C13.4107 17.9035 13.4983 18.135 13.5 18.375V25.8325C13.499 25.937 13.531 26.0391 13.5915 26.1243C13.652 26.2095 13.7379 26.2734 13.8369 26.3069L18.8463 27.9738C18.9211 27.9988 19.0009 28.0056 19.0789 27.9937C19.157 27.9817 19.231 27.9513 19.295 27.905C19.3589 27.8587 19.4108 27.7978 19.4465 27.7273C19.4822 27.6569 19.5005 27.579 19.5 27.5V18.375C19.5026 18.1346 19.5913 17.9031 19.75 17.7225L30.2875 5.445C30.3965 5.31808 30.4668 5.16258 30.4901 4.99692C30.5134 4.83127 30.4887 4.6624 30.419 4.51033C30.3493 4.35827 30.2375 4.22937 30.0967 4.13892C29.956 4.04848 29.7923 4.00026 29.625 4H3.37813C3.21058 3.99967 3.04645 4.04744 2.90526 4.13766C2.76406 4.22787 2.65174 4.35673 2.58164 4.50891C2.51154 4.6611 2.4866 4.83021 2.5098 4.99615C2.533 5.16209 2.60335 5.31788 2.7125 5.445Z" stroke="#4A6382" stroke-linecap="round" stroke-linejoin="round"/>
</svg>
