<svg width="32" height="32" viewBox="0 0 32 32" fill="none" xmlns="http://www.w3.org/2000/svg">
<path fill-rule="evenodd" clip-rule="evenodd" d="M17.4372 4.16289C17.3272 3.48056 16.7525 2.96968 16.062 2.9403C15.3715 2.91091 14.7555 3.37112 14.5878 4.04163L11.358 16.9608L10.8177 15.5199C10.6046 14.9517 10.0615 14.5753 9.45466 14.5753H5.42862C4.92554 13.7061 3.9856 13.1214 2.90908 13.1214C1.30244 13.1214 0 14.4238 0 16.0305C0 17.6371 1.30244 18.9395 2.90908 18.9395C3.98514 18.9395 4.92474 18.3553 5.42798 17.4867H8.44586L10.2735 22.3603C10.4972 22.957 11.083 23.3388 11.7193 23.3025C12.3555 23.2663 12.8942 22.8205 13.0487 22.2022L15.6923 11.6281L18.1993 27.1719C18.3114 27.8671 18.9051 28.3823 19.6092 28.3955C20.3132 28.4087 20.9258 27.9161 21.0639 27.2255L23.0116 17.4867H26.5723C27.0755 18.3553 28.0151 18.9395 29.0912 18.9395C30.6978 18.9395 32.0003 17.6371 32.0003 16.0305C32.0003 14.4238 30.6978 13.1214 29.0912 13.1214C28.0147 13.1214 27.0747 13.7061 26.5716 14.5753H21.8183C21.1243 14.5753 20.5269 15.0651 20.3908 15.7455L19.79 18.7498L17.4372 4.16289Z" fill="#4A6382"/>
</svg>
