<svg width="32" height="32" viewBox="0 0 32 32" fill="none" xmlns="http://www.w3.org/2000/svg">
<path fill-rule="evenodd" clip-rule="evenodd" d="M29.6138 11.1261L16.6576 2.39156C16.6457 2.38352 16.6344 2.37434 16.6238 2.36458C16.2507 2.0204 15.7019 2.0204 15.3287 2.36458C15.3181 2.37434 15.3069 2.38352 15.295 2.39156L2.33879 11.1261C1.6565 11.5705 2.08197 13.4512 3.00215 13.4512H3.71843C3.8565 13.4512 3.96843 13.5632 3.96843 13.7012V27.2684V29.6298C3.96843 29.7678 4.08026 29.8797 4.21827 29.8798L7.85059 29.8821V17.2344C7.85059 16.9582 8.07444 16.7344 8.35059 16.7344H14.5042C14.7803 16.7344 15.0042 16.9582 15.0042 17.2344V29.8867L26.9934 29.8943L27.7353 29.8948C27.8734 29.8949 27.9854 29.7829 27.9854 29.6448V28.597V27.299V13.7012C27.9854 13.5632 28.0974 13.4512 28.2354 13.4512H28.9504C29.8706 13.4512 30.338 11.623 29.6138 11.1261ZM19.2518 16.7344C18.9756 16.7344 18.7518 16.9582 18.7518 17.2344V22.4236C18.7518 22.6998 18.9756 22.9236 19.2518 22.9236H24.1927C24.4688 22.9236 24.6927 22.6998 24.6927 22.4236V17.2344C24.6927 16.9582 24.4688 16.7344 24.1927 16.7344H19.2518Z" fill="#4A6382"/>
</svg>
