<svg width="144" height="144" viewBox="0 0 144 144" fill="none" xmlns="http://www.w3.org/2000/svg">
<path d="M79.6742 117.196H63.9342C63.5523 117.196 63.186 117.047 62.9159 116.782C62.6459 116.517 62.4941 116.157 62.4941 115.782V99.3947C62.4941 96.9873 63.4682 94.6784 65.202 92.9761C66.9358 91.2738 69.2874 90.3174 71.7394 90.3174V90.3174C72.9547 90.3155 74.1585 90.549 75.2818 91.0043C76.4052 91.4596 77.4261 92.128 78.2861 92.9711C79.1461 93.8142 79.8284 94.8155 80.2939 95.9177C80.7594 97.0199 80.9991 98.2015 80.9991 99.3947V115.853C80.9991 116.228 80.8473 116.587 80.5773 116.852C80.3072 117.118 79.9409 117.267 79.559 117.267" fill="#7CC694"/>
<path d="M82.2235 58.3911H61.3867V78.8504H82.2235V58.3911Z" stroke="#6B7D94" stroke-width="2" stroke-linecap="round" stroke-linejoin="round"/>
<path d="M71.7988 58.3911V77.4657" stroke="#6B7D94" stroke-width="2" stroke-linecap="round" stroke-linejoin="round"/>
<path d="M82.2235 68.6279H61.3867" stroke="#6B7D94" stroke-width="2" stroke-linecap="round" stroke-linejoin="round"/>
<path d="M79.6752 117.198H63.9352C63.5533 117.198 63.187 117.052 62.9169 116.793C62.6468 116.533 62.4951 116.181 62.4951 115.815V99.7853C62.4951 97.4305 63.4692 95.172 65.203 93.5069C66.9368 91.8417 69.2884 90.9063 71.7404 90.9063V90.9063C72.9557 90.9044 74.1594 91.1328 75.2828 91.5782C76.4061 92.0236 77.427 92.6773 78.2871 93.502C79.1471 94.3267 79.8294 95.3061 80.2949 96.3843C80.7604 97.4624 81 98.6181 81 99.7853V115.884C81 116.251 80.8483 116.602 80.5782 116.862C80.3082 117.121 79.9419 117.267 79.56 117.267" fill="#7CC694"/>
<path d="M110.878 58.2612V112.736C110.878 115.012 109.337 116.898 105.665 116.869H36.6751C36.1569 116.869 35.6439 116.767 35.1652 116.569C34.6865 116.371 34.2515 116.08 33.8851 115.714C33.5188 115.347 33.2281 114.912 33.0298 114.434C32.8315 113.955 32.7295 113.442 32.7295 112.924V58.5348" stroke="#6B7D94" stroke-width="2" stroke-linecap="round" stroke-linejoin="round"/>
<path d="M119.074 63.6617L71.7988 27.1289L24.9268 63.6041" stroke="#6B7D94" stroke-width="2" stroke-linecap="round" stroke-linejoin="round"/>
</svg>
