<svg width="144" height="144" viewBox="0 0 144 144" fill="none" xmlns="http://www.w3.org/2000/svg">
<path d="M106.378 73.9294L53.488 56.1521C46.7262 53.8794 39.4138 57.553 37.1553 64.3573L29.4692 87.5135C27.2107 94.3178 30.8613 101.676 37.6231 103.949L90.5135 121.726C97.2753 123.999 104.588 120.325 106.846 113.521L114.532 90.3649C116.791 83.5606 113.14 76.2021 106.378 73.9294Z" stroke="#647891" stroke-width="2" stroke-linecap="round" stroke-linejoin="round"/>
<path d="M43.8164 76.5439L69.5975 85.1616" stroke="#647891" stroke-width="2" stroke-linecap="round" stroke-linejoin="round"/>
<path d="M41.4219 83.668L67.2209 92.2856" stroke="#647891" stroke-width="2" stroke-linecap="round" stroke-linejoin="round"/>
<path d="M39.0488 90.7949L64.8478 99.4126" stroke="#647891" stroke-width="2" stroke-linecap="round" stroke-linejoin="round"/>
<path d="M57.591 28.6289L54.5742 37.7389C63.1559 40.5995 67.7796 49.8828 64.919 58.4465L64.5342 59.7933" stroke="#647891" stroke-width="2" stroke-linecap="round" stroke-linejoin="round"/>
<path d="M56.6967 67.8924C52.9546 69.7635 48.4928 70.1953 44.211 68.774C35.6473 65.9134 31.0056 56.6481 33.8662 48.0664L37.5004 52.3123" stroke="#647891" stroke-width="2" stroke-linecap="round" stroke-linejoin="round"/>
<path d="M58.6216 28.796C60.6089 28.796 62.2198 27.185 62.2198 25.1978C62.2198 23.2106 60.6089 21.5996 58.6216 21.5996C56.6344 21.5996 55.0234 23.2106 55.0234 25.1978C55.0234 27.185 56.6344 28.796 58.6216 28.796Z" stroke="#647891" stroke-width="2" stroke-linecap="round" stroke-linejoin="round"/>
<path d="M91.1311 95.2007C93.8635 95.2007 96.0786 92.9856 96.0786 90.2532C96.0786 87.5207 93.8635 85.3057 91.1311 85.3057C88.3987 85.3057 86.1836 87.5207 86.1836 90.2532C86.1836 92.9856 88.3987 95.2007 91.1311 95.2007Z" stroke="#647891" stroke-width="2" stroke-linecap="round" stroke-linejoin="round"/>
<path d="M78.7073 104.739L80.4106 100.079C81.688 96.2472 85.8619 94.1783 89.694 95.4556C93.526 96.733 95.595 100.907 94.3176 104.739L92.6143 109.399" fill="#F6BD4E"/>
<path d="M78.7073 104.739L80.4106 100.079C81.688 96.2472 85.8619 94.1783 89.694 95.4556C93.526 96.733 95.595 100.907 94.3176 104.739L92.6143 109.399" stroke="#647891" stroke-width="2" stroke-linecap="round" stroke-linejoin="round"/>
<path d="M106.77 83.8904L82.8457 75.8994L73.7604 103.1L97.6845 111.091L106.77 83.8904Z" stroke="#647891" stroke-width="2" stroke-linecap="round" stroke-linejoin="round"/>
</svg>
