<svg width="33" height="32" viewBox="0 0 33 32" fill="none" xmlns="http://www.w3.org/2000/svg">
<path d="M14.0002 14.0781H16.5V23" stroke="#4A6382" stroke-linecap="round" stroke-linejoin="round"/>
<path d="M13.1875 23.4844H19.7188" stroke="#4A6382" stroke-miterlimit="10" stroke-linecap="round"/>
<path d="M8.99981 4.77516C11.2199 3.29176 13.83 2.5 16.5 2.5C20.0804 2.5 23.5142 3.92232 26.0459 6.45406C28.5777 8.9858 30 12.4196 30 16C30 18.67 29.2082 21.2801 27.7248 23.5002C26.2414 25.7203 24.133 27.4506 21.6662 28.4724C19.1994 29.4941 16.485 29.7615 13.8663 29.2406C11.2475 28.7197 8.84207 27.4339 6.95406 25.5459C5.06606 23.6579 3.78031 21.2525 3.2594 18.6337C2.7385 16.015 3.00585 13.3006 4.02763 10.8338C5.04942 8.36697 6.77974 6.25856 8.99981 4.77516Z" stroke="#4A6382" stroke-miterlimit="10"/>
<circle cx="16.23" cy="10" r="2" fill="#4A6382"/>
</svg>
