<svg width="144" height="144" viewBox="0 0 144 144" fill="none" xmlns="http://www.w3.org/2000/svg">
<path d="M12.8594 66.3557L44.1362 37.7861L61.2578 49.6949M80.2802 51.4517H96.1202V42.9413H110.016V51.4517H124.416L131.242 69.9269H102.888" stroke="#6B7D94" stroke-width="2" stroke-linecap="round" stroke-linejoin="round"/>
<path d="M16.1709 65.1172V105.005C16.1709 106.022 16.3714 107.029 16.7609 107.968C17.1504 108.907 17.7213 109.76 18.4409 110.478C19.1605 111.196 20.0146 111.766 20.9545 112.154C21.8943 112.541 22.9014 112.74 23.9181 112.738H44.7549M123.422 70.2724V104.026C123.422 105.171 123.196 106.305 122.758 107.363C122.319 108.421 121.676 109.382 120.865 110.191C120.055 111.001 119.093 111.642 118.034 112.079C116.975 112.516 115.841 112.74 114.696 112.738H95.7597" stroke="#6B7D94" stroke-width="2" stroke-linecap="round" stroke-linejoin="round"/>
<path d="M108.67 100.395L107.559 99.7765L105.515 98.7458C103.848 97.9123 101.635 96.801 99.2416 95.5553C94.4962 93.1774 89.8829 90.5447 85.4219 87.6685C83.1481 86.1463 80.9636 84.4946 78.8795 82.7214C78.6375 82.4974 78.4404 82.3181 78.2791 82.1568C80.5869 80.9143 82.4201 78.9448 83.4941 76.5538C84.5681 74.1629 84.8227 71.4843 84.2186 68.9338C83.6144 66.3833 82.1852 64.1036 80.1528 62.4484C78.1204 60.7933 75.5985 59.8554 72.9785 59.7803C70.3585 59.7051 67.7869 60.497 65.663 62.0329C63.5391 63.5688 61.9816 65.7629 61.2322 68.2745C60.4829 70.7862 60.5836 73.475 61.5188 75.9236C62.454 78.3722 64.1713 80.4435 66.4042 81.8162C66.207 82.0134 65.9202 82.3092 65.4542 82.7125C63.3698 84.4825 61.1854 86.1313 58.9118 87.6506C54.4096 90.5403 49.7478 93.1734 44.9487 95.5373C42.511 96.7741 40.2615 97.8944 38.5676 98.7279H38.5497L36.4794 99.7765C35.9686 100.036 35.5832 100.225 35.4488 100.323C35.2716 100.434 35.1264 100.589 35.0273 100.773C34.9283 100.956 34.879 101.163 34.8842 101.372C34.911 101.748 35.0379 102.11 35.2516 102.42C35.7108 103.076 36.3271 103.606 37.044 103.962C37.1622 104.016 37.2906 104.043 37.4205 104.042C37.5368 104.051 37.6536 104.051 37.77 104.042C38.012 104.042 38.2988 103.953 38.6662 103.872C39.3294 103.711 40.2077 103.451 41.2025 103.137C42.8784 102.6 44.9397 101.892 47.0638 101.157L48.3454 100.709C50.9175 99.8123 53.4897 98.9161 55.5151 98.3604C56.5278 98.0647 57.3882 97.8406 58.0335 97.7152C58.2848 97.6646 58.5394 97.6317 58.7953 97.6166H58.9745V97.6972C59.0352 97.8904 59.0802 98.0883 59.1089 98.2887C59.1893 99.0029 59.2282 99.721 59.2255 100.44C59.2255 102.232 59.1179 104.482 59.0014 106.803C58.8938 109.124 58.7773 111.463 58.7863 113.309C58.7754 114.1 58.8173 114.89 58.9118 115.675C58.9453 115.962 59.0084 116.244 59.1 116.518C59.1699 116.772 59.3133 116.999 59.5122 117.172C59.7261 117.313 59.9626 117.416 60.2113 117.477C60.5363 117.557 60.8654 117.62 61.1971 117.665C61.9589 117.773 62.9896 117.853 64.0919 117.916C66.3683 118.041 69.2721 118.095 72.1579 118.077C75.0437 118.059 77.9206 117.97 80.1611 117.835C81.2724 117.764 82.2403 117.683 82.9663 117.584C83.3337 117.54 83.6474 117.486 83.8625 117.432C83.9963 117.409 84.1282 117.376 84.2568 117.333C84.3679 117.297 84.4735 117.246 84.5705 117.181C84.765 117.014 84.8976 116.787 84.9469 116.536C85.0116 116.28 85.0536 116.019 85.0724 115.756C85.1137 115.004 85.1137 114.25 85.0724 113.498C85.0186 111.938 84.8752 109.975 84.7229 107.959C84.7229 107.681 84.7229 107.412 84.6601 107.134C84.4898 104.831 84.3285 102.528 84.3016 100.709C84.2863 99.9518 84.3132 99.1948 84.3823 98.4411C84.4063 98.2075 84.4513 97.9765 84.5167 97.751C84.5325 97.6883 84.5567 97.6281 84.5884 97.5718C84.585 97.557 84.585 97.5417 84.5884 97.527C84.6475 97.5146 84.7086 97.5146 84.7677 97.527C85.015 97.5012 85.2643 97.5012 85.5115 97.527C86.3646 97.6352 87.2092 97.8029 88.0389 98.0288C90.0823 98.5397 92.6813 99.3732 95.2893 100.26C97.2251 100.915 99.152 101.596 100.846 102.196C101.428 102.411 101.993 102.609 102.522 102.788C103.534 103.146 104.404 103.451 105.067 103.684L105.901 103.935C106.087 103.993 106.279 104.03 106.474 104.042C106.9 104.008 107.314 103.879 107.684 103.665C108.055 103.451 108.373 103.158 108.616 102.806C108.874 102.472 109.041 102.076 109.1 101.659C109.135 101.429 109.115 101.194 109.04 100.974C108.965 100.754 108.838 100.555 108.67 100.395Z" fill="#7CC694"/>
</svg>
