<svg width="32" height="32" viewBox="0 0 32 32" fill="none" xmlns="http://www.w3.org/2000/svg">
<path fill-rule="evenodd" clip-rule="evenodd" d="M9 11C7.67392 11 6.40215 11.5268 5.46447 12.4645C4.52678 13.4021 4 14.6739 4 16C4 17.3261 4.52678 18.5979 5.46447 19.5355C6.40215 20.4732 7.67392 21 9 21H12.5413C13.0935 21 13.5413 21.4477 13.5413 22C13.5413 22.5523 13.0935 23 12.5413 23H9C7.14349 23 5.36301 22.2625 4.05025 20.9497C2.7375 19.637 2 17.8565 2 16C2 14.1435 2.7375 12.363 4.05025 11.0503C5.36301 9.7375 7.14348 9 9 9H12.4631C13.0154 9 13.4631 9.44772 13.4631 10C13.4631 10.5523 13.0154 11 12.4631 11H9ZM18.5369 10C18.5369 9.44772 18.9846 9 19.5369 9H23C24.8565 9 26.637 9.7375 27.9497 11.0503C29.2625 12.363 30 14.1435 30 16C30 17.8565 29.2625 19.637 27.9497 20.9497C26.637 22.2625 24.8565 23 23 23H19.4587C18.9065 23 18.4587 22.5523 18.4587 22C18.4587 21.4477 18.9065 21 19.4587 21H23C24.3261 21 25.5979 20.4732 26.5355 19.5355C27.4732 18.5979 28 17.3261 28 16C28 14.6739 27.4732 13.4021 26.5355 12.4645C25.5979 11.5268 24.3261 11 23 11H19.5369C18.9846 11 18.5369 10.5523 18.5369 10ZM9.56688 16C9.56688 15.4477 10.0146 15 10.5669 15H21.5581C22.1104 15 22.5581 15.4477 22.5581 16C22.5581 16.5523 22.1104 17 21.5581 17H10.5669C10.0146 17 9.56688 16.5523 9.56688 16Z" fill="#4A6382"/>
</svg>
