<svg width="32" height="32" viewBox="0 0 32 32" fill="none" xmlns="http://www.w3.org/2000/svg">
<path fill-rule="evenodd" clip-rule="evenodd" d="M7 2C5.89543 2 5 2.89543 5 4V28.2173C5 28.9981 5.85497 29.4777 6.52132 29.0706L10.5 26.64L15.4787 29.6815C15.7987 29.877 16.2013 29.877 16.5213 29.6815L21.5 26.64L25.4787 29.0706C26.145 29.4777 27 28.9981 27 28.2173V4C27 2.89543 26.1046 2 25 2H7ZM15.2852 19.6471C14.4943 19.5451 13.8254 19.3001 13.2784 18.9121C12.5361 18.3807 12.11 17.5633 12 16.4599L14.0893 16.4143C14.1993 16.9154 14.4353 17.2975 14.7973 17.5607C15.1638 17.8189 15.622 17.9479 16.1718 17.9479C16.5017 17.9479 16.7927 17.8897 17.0447 17.7733C17.3013 17.6518 17.5029 17.4899 17.6495 17.2874C17.7961 17.0799 17.8694 16.8445 17.8694 16.5813C17.8694 16.1764 17.7526 15.8753 17.5189 15.6779C17.2852 15.4754 16.9255 15.3134 16.4399 15.192L14.811 14.8048C14.055 14.6377 13.4479 14.3062 12.9897 13.8102C12.5361 13.3091 12.3047 12.6385 12.2955 11.7983C12.291 11.1099 12.4582 10.5152 12.7973 10.0141C13.1409 9.50795 13.606 9.11822 14.1924 8.8449C14.5432 8.68273 14.9189 8.56867 15.3196 8.50272V7H17.0584V8.5116C17.449 8.58403 17.804 8.70779 18.1237 8.88286C18.6735 9.17643 19.0951 9.57375 19.3883 10.0748C19.6861 10.5709 19.8305 11.12 19.8213 11.7223L17.7938 11.7603C17.7297 11.2744 17.583 10.8923 17.354 10.6139C17.1249 10.3355 16.7446 10.1963 16.2131 10.1963C15.9381 10.1963 15.693 10.2292 15.4777 10.295C15.2623 10.3608 15.0767 10.4544 14.921 10.5759C14.7652 10.6923 14.646 10.8315 14.5636 10.9935C14.4857 11.1555 14.4467 11.3377 14.4467 11.5401C14.4467 11.859 14.543 12.1121 14.7354 12.2993C14.9324 12.4816 15.3013 12.6511 15.8419 12.808L17.4433 13.2408C18.3459 13.4787 18.9966 13.8861 19.3952 14.4631C19.7984 15.0401 20 15.7411 20 16.5662C20 17.1988 19.8419 17.7505 19.5258 18.2213C19.2142 18.692 18.7721 19.0564 18.1993 19.3145C17.8441 19.4747 17.45 19.5851 17.0172 19.6459V21H15.2852V19.6471Z" fill="#4A6382"/>
</svg>
