<svg width="144" height="144" viewBox="0 0 144 144" fill="none" xmlns="http://www.w3.org/2000/svg">
<path d="M81.246 74.2026C78.1354 77.8892 68.5734 79.2717 64.1523 74.2026" stroke="#6B7D94" stroke-width="2" stroke-linecap="round" stroke-linejoin="round"/>
<path d="M94.6378 37.4401C98.3122 41.1257 101.022 45.6597 102.528 50.6414C104.033 55.6231 104.289 60.899 103.271 66.0028C102.253 71.1066 99.9935 75.881 96.692 79.904C93.3906 83.927 89.1488 87.0748 84.3418 89.069C79.5348 91.0632 74.3105 91.8424 69.1307 91.3378C63.951 90.8331 58.9753 89.0602 54.6436 86.1757C50.3119 83.2912 46.7575 79.3839 44.2946 74.7993C41.8317 70.2147 40.5362 65.094 40.5226 59.8897C40.4565 54.2555 41.927 48.7097 44.7763 43.8485C47.6255 38.9873 51.7456 34.9946 56.6938 32.2993" stroke="#6B7D94" stroke-width="2" stroke-linecap="round" stroke-linejoin="round"/>
<path d="M55.397 86.7461C54.7778 92.8664 54.8354 101.78 49.6367 105.597" stroke="#6B7D94" stroke-width="2" stroke-linecap="round" stroke-linejoin="round"/>
<path d="M87.3506 87.6235C87.9122 94.4063 88.3874 102.787 91.6708 106.028" stroke="#6B7D94" stroke-width="2" stroke-linecap="round" stroke-linejoin="round"/>
<path d="M40.8824 52.6465C40.8824 52.6465 34.6181 54.0866 35.2805 62.727C35.4515 64.6043 36.219 66.3776 37.4706 67.7873C38.7222 69.197 40.3921 70.169 42.236 70.561" stroke="#6B7D94" stroke-width="2" stroke-linecap="round" stroke-linejoin="round"/>
<path d="M103.94 51.8394C103.94 51.8394 109.816 53.2794 109.196 61.9198C109.089 63.7563 108.399 65.5106 107.225 66.9273C106.052 68.3441 104.457 69.3495 102.673 69.797" stroke="#6B7D94" stroke-width="2" stroke-linecap="round" stroke-linejoin="round"/>
<path d="M51.8403 104.156C55.9587 106.532 69.9843 112.796 91.7715 104.156C92.5332 103.846 93.3858 103.846 94.1475 104.156C98.0931 105.711 110.636 111.356 116.943 122.17C117.221 122.667 117.364 123.229 117.356 123.799C117.348 124.369 117.191 124.926 116.898 125.415C116.606 125.905 116.19 126.308 115.693 126.585C115.195 126.863 114.632 127.004 114.063 126.994L29.8947 126.865C29.3432 126.862 28.8015 126.719 28.3209 126.448C27.8403 126.178 27.4366 125.789 27.1482 125.319C26.8598 124.849 26.6962 124.313 26.6728 123.762C26.6495 123.211 26.7671 122.663 27.0147 122.17C29.5635 117.26 35.5251 109.527 49.0323 103.954C49.4842 103.769 49.9728 103.691 50.4599 103.726C50.947 103.761 51.4195 103.908 51.8403 104.156V104.156Z" fill="#7CC694"/>
<path d="M39.1105 55.4398C39.1105 55.4398 31.1185 35.5534 53.6401 22.3198C53.6401 22.3198 68.2849 13.5358 88.3297 22.3918C108.375 31.2478 105.941 52.6318 105.941 52.6318" stroke="#6B7D94" stroke-width="2" stroke-linecap="round" stroke-linejoin="round"/>
<path d="M53.7266 23.0537L56.6499 32.4862" stroke="#6B7D94" stroke-width="2" stroke-linecap="round" stroke-linejoin="round"/>
<path d="M56.2324 32.3857C56.2324 32.3857 71.4676 37.4404 94.5076 37.5556" stroke="#6B7D94" stroke-width="2" stroke-linecap="round" stroke-linejoin="round"/>
</svg>
