<svg width="32" height="32" viewBox="0 0 32 32" fill="none" xmlns="http://www.w3.org/2000/svg">
<rect x="11.6895" y="2" width="8.61842" height="3.07918" rx="0.583333" fill="#4A6382"/>
<path fill-rule="evenodd" clip-rule="evenodd" d="M2 9.48226C2 8.19359 3.04467 7.14893 4.33333 7.14893H27.6667C28.9553 7.14893 30 8.19359 30 9.48226V10H2V9.48226ZM2 13H30V27.667C30 28.9557 28.9553 30.0003 27.6667 30.0003H4.33333C3.04467 30.0003 2 28.9557 2 27.667V13ZM16.0039 14.9352C16.8323 14.9352 17.5039 15.6165 17.5039 16.457V19.7285H20.7285C21.5569 19.7285 22.2285 20.4098 22.2285 21.2503C22.2285 22.0908 21.5569 22.7721 20.7285 22.7721H17.5039V26.0436C17.5039 26.8841 16.8323 27.5655 16.0039 27.5655C15.1755 27.5655 14.5039 26.8841 14.5039 26.0436V22.7721H11.2793C10.4509 22.7721 9.7793 22.0908 9.7793 21.2503C9.7793 20.4098 10.4509 19.7285 11.2793 19.7285H14.5039V16.457C14.5039 15.6165 15.1755 14.9352 16.0039 14.9352Z" fill="#4A6382"/>
</svg>
