<svg width="32" height="32" viewBox="0 0 32 32" fill="none" xmlns="http://www.w3.org/2000/svg">
<path fill-rule="evenodd" clip-rule="evenodd" d="M16.6547 2.39156L29.6109 11.1261C30.3351 11.623 29.8677 13.4512 28.9475 13.4512H28.2325C28.0944 13.4512 27.9825 13.5632 27.9825 13.7012V29.6448C27.9825 29.7829 27.8705 29.8949 27.7323 29.8948L4.21534 29.8798C4.07733 29.8797 3.9655 29.7678 3.9655 29.6298V13.7012C3.9655 13.5632 3.85357 13.4512 3.7155 13.4512H2.99922C2.07904 13.4512 1.65357 11.5705 2.33586 11.1261L15.2921 2.39156C15.304 2.38352 15.3152 2.37434 15.3258 2.36458C15.699 2.0204 16.2477 2.0204 16.6209 2.36458C16.6315 2.37434 16.6427 2.38352 16.6547 2.39156ZM14.6667 25.7V26.35C14.6667 26.5233 14.7333 26.675 14.8667 26.805C15 26.935 15.1556 27 15.3333 27H16.6667C16.8444 27 17 26.935 17.1333 26.805C17.2667 26.675 17.3333 26.5233 17.3333 26.35V25.7H18.6667C19.0444 25.7 19.3611 25.5754 19.6167 25.3263C19.8722 25.0771 20 24.7683 20 24.4V20.5C20 20.1317 19.8722 19.8229 19.6167 19.5737C19.3611 19.3246 19.0444 19.2 18.6667 19.2H14.6667V17.9H18.6667C19.0444 17.9 19.3611 17.7754 19.6167 17.5263C19.8722 17.2771 20 16.9683 20 16.6C20 16.2317 19.8722 15.9229 19.6167 15.6737C19.3611 15.4246 19.0444 15.3 18.6667 15.3H17.3333V14.65C17.3333 14.4767 17.2667 14.325 17.1333 14.195C17 14.065 16.8444 14 16.6667 14H15.3333C15.1556 14 15 14.065 14.8667 14.195C14.7333 14.325 14.6667 14.4767 14.6667 14.65V15.3H13.3333C12.9556 15.3 12.6389 15.4246 12.3833 15.6737C12.1278 15.9229 12 16.2317 12 16.6V20.5C12 20.8683 12.1278 21.1771 12.3833 21.4263C12.6389 21.6754 12.9556 21.8 13.3333 21.8H17.3333V23.1H13.3333C12.9556 23.1 12.6389 23.2246 12.3833 23.4738C12.1278 23.7229 12 24.0317 12 24.4C12 24.7683 12.1278 25.0771 12.3833 25.3263C12.6389 25.5754 12.9556 25.7 13.3333 25.7H14.6667Z" fill="#4A6382"/>
</svg>
