<svg width="33" height="32" viewBox="0 0 33 32" fill="none" xmlns="http://www.w3.org/2000/svg">
<path d="M23.5 8H28.5M4.5 8H19.5M23.5 24H28.5M4.5 24H19.5M13.5 16H28.5M4.5 16H9.5" stroke="#4A6382" stroke-linecap="round" stroke-linejoin="round"/>
<path d="M21.5 10C22.6046 10 23.5 9.10457 23.5 8C23.5 6.89543 22.6046 6 21.5 6C20.3954 6 19.5 6.89543 19.5 8C19.5 9.10457 20.3954 10 21.5 10Z" stroke="#4A6382" stroke-linecap="round" stroke-linejoin="round"/>
<path d="M11.5 18C12.6046 18 13.5 17.1046 13.5 16C13.5 14.8954 12.6046 14 11.5 14C10.3954 14 9.5 14.8954 9.5 16C9.5 17.1046 10.3954 18 11.5 18Z" stroke="#4A6382" stroke-linecap="round" stroke-linejoin="round"/>
<path d="M21.5 26C22.6046 26 23.5 25.1046 23.5 24C23.5 22.8954 22.6046 22 21.5 22C20.3954 22 19.5 22.8954 19.5 24C19.5 25.1046 20.3954 26 21.5 26Z" stroke="#4A6382" stroke-linecap="round" stroke-linejoin="round"/>
</svg>
