<svg width="32" height="32" viewBox="0 0 32 32" fill="none" xmlns="http://www.w3.org/2000/svg">
<path fill-rule="evenodd" clip-rule="evenodd" d="M17.8662 2.52318C16.7382 1.82558 15.3127 1.82561 14.1847 2.52325L9.49081 5.42634C9.06169 5.69175 8.69503 6.0468 8.41597 6.46717L7.49372 7.85645C6.38232 9.53065 4.88362 10.9122 3.12468 11.8839L2.77483 12.0772C2.04979 12.4778 1.78674 13.3903 2.1873 14.1153C2.58785 14.8403 3.50033 15.1034 4.22537 14.7028L4.57523 14.5095C4.71822 14.4305 4.85983 14.3494 5 14.266V28.0002C5 29.1047 5.89532 30 6.99976 30H8.18921C8.18921 29.9983 8.18921 29.9967 8.18921 29.995V19.1706C8.18921 18.6583 8.42642 18.2876 8.74604 18.0443C8.78236 18.015 8.82033 17.9887 8.85964 17.9652C9.16105 17.7735 9.51425 17.6826 9.80801 17.6826H22.1865C22.4924 17.6826 22.8628 17.7811 23.172 17.9895C23.1985 18.0066 23.2243 18.0251 23.2493 18.0449C23.5685 18.2882 23.8053 18.6588 23.8053 19.1706V29.995C23.8053 29.9967 23.8053 29.9983 23.8053 30H25.0002C26.1047 30 27 29.1047 27 28.0002V14.2597C27.1366 14.342 27.2745 14.4222 27.4138 14.5004L27.766 14.698C28.4883 15.1033 29.4025 14.8463 29.8079 14.124C30.2132 13.4016 29.9562 12.4874 29.2339 12.0821L28.8817 11.8844C27.1538 10.9148 25.6811 9.54833 24.5853 7.89763L23.6355 6.46711C23.3565 6.04675 22.9898 5.69171 22.5607 5.42633L17.8662 2.52318ZM20.7068 30L15.9974 25.9069L11.2794 30H20.7068ZM12.4989 10.0459C12.4989 9.49368 12.9465 9.04602 13.4987 9.04602H18.4982C19.0504 9.04602 19.498 9.49368 19.498 10.0459V13.0339C19.498 13.5861 19.0504 14.0338 18.4982 14.0338H13.4987C12.9465 14.0338 12.4989 13.5861 12.4989 13.0339V10.0459ZM10.189 28.2986V20.8585L14.473 24.5819L10.189 28.2986ZM11.8842 19.6824L15.9986 23.2584L20.1205 19.6824H11.8842ZM21.8055 28.3054L17.523 24.5833L21.8055 20.868V28.3054Z" fill="#4A6382"/>
</svg>
