<svg width="32" height="32" viewBox="0 0 32 32" fill="none" xmlns="http://www.w3.org/2000/svg">
<circle cx="20.134" cy="4.8" r="2.8" fill="#4A6382"/>
<path d="M23.4525 17.1592L15.3613 6.37097C15.2919 6.27851 15.1575 6.26494 15.0706 6.3411C10.385 10.4457 9.42354 15.177 8.95464 17.3033C8.94093 17.3655 8.95797 17.4285 8.9999 17.4764L13.8046 22.9675C13.8235 22.9891 13.8375 23.0144 13.8457 23.0418L15.8904 29.8577C15.9158 29.9423 15.9937 30.0002 16.082 30.0002H18.4644C18.5984 30.0002 18.6945 29.871 18.656 29.7427L16.6382 23.0167C16.6349 23.0057 16.6306 22.995 16.6255 22.9848L13.8747 17.4832C13.8484 17.4305 13.8466 17.369 13.8697 17.3149L15.8081 12.7922C15.8661 12.6569 16.0455 12.6285 16.1424 12.7393L20.7527 18.0082C20.8021 18.0647 20.879 18.0888 20.9518 18.0706L23.341 17.4733C23.4797 17.4386 23.5383 17.2737 23.4525 17.1592Z" fill="#4A6382"/>
<path d="M22.3698 19.4319L23.3961 18.9188C23.5149 18.8593 23.6576 18.9302 23.6821 19.0608L25.6888 29.7633C25.7119 29.8864 25.6174 30.0002 25.4922 30.0002H24.4972C24.4018 30.0002 24.3197 29.9329 24.301 29.8394L22.2632 19.65C22.2455 19.5615 22.2892 19.4722 22.3698 19.4319Z" fill="#4A6382"/>
<path d="M7.62095 29.7369L10.2309 21.9072C10.2779 21.7661 10.4569 21.7239 10.562 21.829L12.3458 23.6128C12.3994 23.6664 12.4181 23.7456 12.3941 23.8175L10.3788 29.8634C10.3516 29.9451 10.2751 30.0002 10.1891 30.0002H7.81069C7.67418 30.0002 7.57778 29.8665 7.62095 29.7369Z" fill="#4A6382"/>
</svg>
