<svg width="144" height="144" viewBox="0 0 144 144" fill="none" xmlns="http://www.w3.org/2000/svg">
<path d="M86.6018 69.8129C86.4691 68.9099 86.4004 67.9854 86.4004 67.0445C86.4004 56.8577 94.4593 48.5996 104.4 48.5996C114.342 48.5996 122.4 56.8577 122.4 67.0445C122.4 73.4065 119.257 79.0162 114.475 82.3318" stroke="#647891" stroke-width="2" stroke-linecap="round" stroke-linejoin="round"/>
<path d="M96.0098 27.4219L90.4902 34.7992L103.995 48.3035L117.499 34.7992L111.961 27.4219H96.0098Z" fill="#F6BD4E" stroke="#647891" stroke-width="2" stroke-linecap="round" stroke-linejoin="round"/>
<path d="M90.4902 34.7988H117.284" stroke="#647891" stroke-width="2" stroke-linecap="round" stroke-linejoin="round"/>
<path d="M103.477 46.0889L98.6543 35.1211L101.745 28.1367" stroke="#647891" stroke-width="2" stroke-linecap="round" stroke-linejoin="round"/>
<path d="M104.227 46.0877L109.157 35.1199L105.781 28.0283" stroke="#647891" stroke-width="2" stroke-linecap="round" stroke-linejoin="round"/>
<path d="M70.2012 69.5867L70.2012 28.7998L23.4012 28.7998V82.7998H46.8012" stroke="#647891" stroke-width="2" stroke-linecap="round" stroke-linejoin="round"/>
<path d="M63.4301 70.2531V35.8008H30.0801V76.3316H47.4257" stroke="#647891" stroke-width="2" stroke-linecap="round" stroke-linejoin="round"/>
<path d="M39.5996 28.7996L46.8085 21.5996L53.9996 28.7996" stroke="#647891" stroke-width="2" stroke-linecap="round" stroke-linejoin="round"/>
<path d="M114.465 70.293H47.4258V109.591H114.465V70.293Z" stroke="#647891" stroke-width="2" stroke-linecap="round" stroke-linejoin="round"/>
<path d="M107.428 76.5273H53.7676V103.339H107.428V76.5273Z" stroke="#647891" stroke-width="2" stroke-linecap="round" stroke-linejoin="round"/>
<path d="M62.5742 122.414L62.5742 116.719H99.3181V122.414" fill="#F06E61"/>
<path d="M62.5742 122.414L62.5742 116.719H99.3181V122.414" stroke="#647891" stroke-width="2" stroke-linecap="round" stroke-linejoin="round"/>
<path d="M30.9023 122.399H115.769" stroke="#647891" stroke-width="2" stroke-linecap="round" stroke-linejoin="round"/>
<path d="M69.3262 83.332L87.9392 97.1757" stroke="#647891" stroke-width="2" stroke-linecap="round" stroke-linejoin="round"/>
<path d="M77.2031 109.592V116.076" stroke="#647891" stroke-width="2" stroke-linecap="round" stroke-linejoin="round"/>
<path d="M83.9922 109.592V116.076" stroke="#647891" stroke-width="2" stroke-linecap="round" stroke-linejoin="round"/>
<path d="M39.6191 76.3311C41.7627 64.7381 51.2299 55.7889 62.8944 54.6992" stroke="#647891" stroke-width="2" stroke-linecap="round" stroke-linejoin="round"/>
<path d="M30.082 69.5596H41.1213" stroke="#647891" stroke-width="2" stroke-linecap="round" stroke-linejoin="round"/>
<path d="M39.6189 50.8244L30.0879 59.8374V63.1494H46.1366C50.3969 58.4772 56.3212 55.3136 62.8941 54.6996H63.3575V52.9311L55.2489 41.625L45.0492 57.3086L39.6189 50.8244Z" fill="#7CC694" stroke="#647891" stroke-width="2" stroke-linecap="round" stroke-linejoin="round"/>
<path d="M45.0506 57.308L39.6203 50.8238L36.1105 54.13C35.5202 53.0367 34.9808 51.9571 34.7619 50.7171C33.976 46.1621 37.0305 41.8393 41.5856 41.0533C46.1406 40.2673 50.5014 43.1611 51.2874 47.7161L45.0506 57.308Z" fill="#F6BD4E" stroke="#647891" stroke-width="2" stroke-linecap="round" stroke-linejoin="round"/>
<path d="M80.6504 83.5664L91.654 91.7476" stroke="#647891" stroke-width="2" stroke-linecap="round" stroke-linejoin="round"/>
<path d="M69.3262 91.5146L77.4002 97.5166" stroke="#647891" stroke-width="2" stroke-linecap="round" stroke-linejoin="round"/>
</svg>
