<svg width="32" height="32" viewBox="0 0 32 32" fill="none" xmlns="http://www.w3.org/2000/svg">
<rect x="10.6484" y="3" width="7.69501" height="2.74927" rx="0.583333" fill="#4A6382"/>
<path d="M4.33333 6.59619C3.04467 6.59619 2 7.64086 2 8.92953V24.6659C2 25.9546 3.04467 26.9992 4.33333 26.9992H15.754C14.6565 25.6297 14 23.8915 14 22C14 17.5817 17.5817 14 22 14C23.8919 14 25.6304 14.6567 27 15.7546V8.92952C27 7.64086 25.9553 6.59619 24.6667 6.59619H4.33333Z" fill="#4A6382"/>
<path d="M22.7944 17H21.4902V18.0732C21.1897 18.1203 20.9074 18.2019 20.6443 18.3177C20.2045 18.513 19.8557 18.7914 19.5979 19.1529C19.3436 19.5108 19.2182 19.9356 19.2216 20.4273C19.2285 21.0274 19.4021 21.5065 19.7423 21.8644C20.0859 22.2187 20.5412 22.4555 21.1082 22.5748L22.3299 22.8514C22.6942 22.9381 22.9639 23.0538 23.1392 23.1984C23.3144 23.3394 23.4021 23.5545 23.4021 23.8438C23.4021 24.0318 23.3471 24.1999 23.2371 24.3481C23.1271 24.4927 22.9759 24.6084 22.7835 24.6952C22.5945 24.7783 22.3763 24.8199 22.1289 24.8199C21.7165 24.8199 21.3729 24.7277 21.0979 24.5433C20.8265 24.3553 20.6495 24.0824 20.567 23.7245L19 23.757C19.0825 24.5451 19.4021 25.129 19.9588 25.5086C20.369 25.7857 20.8707 25.9607 21.4639 26.0336V27H22.7629V26.0327C23.0875 25.9893 23.383 25.9104 23.6495 25.7961C24.079 25.6117 24.4107 25.3514 24.6443 25.0151C24.8814 24.6789 25 24.2848 25 23.8329C25 23.2436 24.8488 22.7429 24.5464 22.3308C24.2474 21.9186 23.7595 21.6276 23.0825 21.4577L21.8814 21.1485C21.4759 21.0365 21.1993 20.9154 21.0515 20.7852C20.9072 20.6514 20.8351 20.4707 20.8351 20.2429C20.8351 20.0983 20.8643 19.9681 20.9227 19.8525C20.9845 19.7368 21.0739 19.6373 21.1907 19.5542C21.3076 19.4674 21.4467 19.4005 21.6082 19.3535C21.7698 19.3065 21.9536 19.283 22.1598 19.283C22.5584 19.283 22.8436 19.3825 23.0155 19.5813C23.1873 19.7801 23.2973 20.0531 23.3454 20.4002L24.866 20.3731C24.8729 19.9428 24.7646 19.5506 24.5412 19.1963C24.3213 18.8384 24.0052 18.5545 23.5928 18.3449C23.353 18.2198 23.0867 18.1314 22.7938 18.0797L22.7944 17Z" fill="#4A6382"/>
</svg>
