<svg width="32" height="32" viewBox="0 0 32 32" fill="none" xmlns="http://www.w3.org/2000/svg">
<path d="M16 2C8.28048 2 2 8.28048 2 16C2 23.7195 8.28048 30 16 30C23.7195 30 30 23.7195 30 16C30 8.28048 23.7195 2 16 2ZM21.0326 16.626L13.3292 21.2796C13.2188 21.3458 13.0928 21.3814 12.9641 21.3827C12.8354 21.3841 12.7086 21.3512 12.5968 21.2874C12.485 21.2237 12.3922 21.1313 12.3279 21.0198C12.2635 20.9083 12.23 20.7817 12.2308 20.653V11.347C12.23 11.2183 12.2635 11.0917 12.3279 10.9802C12.3922 10.8687 12.485 10.7763 12.5968 10.7126C12.7086 10.6488 12.8354 10.6159 12.9641 10.6173C13.0928 10.6186 13.2188 10.6542 13.3292 10.7204L21.0326 15.374C21.14 15.4395 21.2287 15.5314 21.2903 15.641C21.3519 15.7506 21.3842 15.8743 21.3842 16C21.3842 16.1257 21.3519 16.2494 21.2903 16.359C21.2287 16.4686 21.14 16.5605 21.0326 16.626V16.626Z" fill="#4A6382"/>
</svg>
