<svg width="144" height="144" viewBox="0 0 144 144" fill="none" xmlns="http://www.w3.org/2000/svg">
<path d="M88.3443 22.4064H95.2275C97.5046 22.3559 99.7094 23.2066 101.363 24.7734C103.016 26.3402 103.983 28.4963 104.055 30.7728V125.525C103.991 127.806 103.026 129.97 101.372 131.543C99.7185 133.116 97.5094 133.97 95.2275 133.92H19.7139C17.4369 133.97 15.232 133.12 13.5789 131.553C11.9258 129.986 10.9583 127.83 10.8867 125.554V30.7728C10.9583 28.4963 11.9258 26.3402 13.5789 24.7734C15.232 23.2066 17.4369 22.3559 19.7139 22.4064H27.7491" stroke="#6B7D94" stroke-width="2" stroke-linecap="round" stroke-linejoin="round"/>
<path d="M58.1554 9H58.1556H58.1844H58.1846C59.8099 8.99974 61.3703 9.63766 62.53 10.7764C63.6896 11.9152 64.3558 13.4638 64.385 15.0889L64.3854 15.1071L64.3864 15.1253C64.3914 15.2186 64.3914 15.312 64.3864 15.4053L64.3289 16.4597H65.3849H85.0854C85.6833 16.4597 86.2568 16.6972 86.6796 17.1201C87.1025 17.5429 87.34 18.1164 87.34 18.7143V25.1803C87.34 25.4764 87.2817 25.7696 87.1684 26.0431C87.0551 26.3167 86.889 26.5652 86.6796 26.7746C86.4703 26.984 86.2217 27.15 85.9482 27.2633C85.6746 27.3766 85.3815 27.4349 85.0854 27.4349H31.269C30.669 27.435 30.0933 27.1973 29.6681 26.7739C29.2433 26.351 29.0032 25.7773 29 25.1779V18.7167C29.0032 18.1174 29.2433 17.5436 29.6681 17.1207C30.0933 16.6974 30.669 16.4597 31.269 16.4597H50.9551H51.9551V15.4597V15.0802C51.9866 13.4583 52.6524 11.9132 53.81 10.7764C54.9697 9.63766 56.5301 8.99974 58.1554 9Z" stroke="#647891" stroke-width="2"/>
<path d="M57.9879 15.508C57.8417 15.4855 57.7084 15.4114 57.6121 15.2992C57.5158 15.1869 57.4629 15.0439 57.4629 14.896C57.4629 14.7481 57.5158 14.6051 57.6121 14.4929C57.7084 14.3806 57.8417 14.3065 57.9879 14.2841C58.0761 14.2705 58.1663 14.2761 58.2521 14.3007C58.3379 14.3252 58.4175 14.368 58.4852 14.4261C58.553 14.4842 58.6073 14.5563 58.6446 14.6374C58.6819 14.7185 58.7012 14.8067 58.7012 14.896C58.7012 14.9853 58.6819 15.0735 58.6446 15.1546C58.6073 15.2357 58.553 15.3078 58.4852 15.3659C58.4175 15.4241 58.3379 15.4668 58.2521 15.4914C58.1663 15.5159 58.0761 15.5215 57.9879 15.508V15.508Z" fill="#6B7D94"/>
<path d="M57.988 12.8447C57.5807 12.8447 57.1826 12.9655 56.8439 13.1918C56.5053 13.4181 56.2413 13.7397 56.0855 14.116C55.9296 14.4923 55.8888 14.9063 55.9683 15.3058C56.0477 15.7052 56.2439 16.0722 56.5319 16.3602C56.8199 16.6482 57.1868 16.8443 57.5863 16.9238C57.9857 17.0032 58.3998 16.9624 58.7761 16.8066C59.1524 16.6507 59.474 16.3868 59.7003 16.0481C59.9265 15.7095 60.0473 15.3113 60.0473 14.904C60.0473 14.3579 59.8304 13.8341 59.4442 13.4479C59.058 13.0617 58.5342 12.8447 57.988 12.8447V12.8447Z" fill="#6B7D94"/>
<path d="M29.2891 101.866H85.6507" stroke="#6B7D94" stroke-width="2" stroke-linecap="round" stroke-linejoin="round"/>
<path d="M29.2891 90.418H85.6507" stroke="#6B7D94" stroke-width="2" stroke-linecap="round" stroke-linejoin="round"/>
<path d="M29.2891 78.9551H85.6507" stroke="#6B7D94" stroke-width="2" stroke-linecap="round" stroke-linejoin="round"/>
<path d="M29.2891 67.5063H85.6507" stroke="#6B7D94" stroke-width="2" stroke-linecap="round" stroke-linejoin="round"/>
<path d="M29.2891 56.0449H85.6507" stroke="#6B7D94" stroke-width="2" stroke-linecap="round" stroke-linejoin="round"/>
<path d="M29.2891 44.5972H85.6507" stroke="#6B7D94" stroke-width="2" stroke-linecap="round" stroke-linejoin="round"/>
<path d="M98.3535 62.7089L98.3537 62.7085C98.864 61.8258 99.5975 61.0929 100.481 60.5834C101.364 60.0739 102.365 59.8057 103.385 59.8057C104.404 59.8057 105.406 60.0739 106.289 60.5834C107.172 61.0929 107.906 61.8258 108.416 62.7085L108.416 62.7089L133.702 106.399L133.704 106.401C134.218 107.284 134.49 108.287 134.493 109.31C134.496 110.332 134.229 111.336 133.719 112.222C133.209 113.108 132.475 113.844 131.59 114.356C130.705 114.867 129.701 115.137 128.679 115.136H128.678H78.1066C77.0845 115.135 76.0807 114.865 75.196 114.353C74.3112 113.842 73.5767 113.106 73.0661 112.221C72.5555 111.335 72.2868 110.331 72.2871 109.309C72.2874 108.287 72.5565 107.283 73.0674 106.398C73.0674 106.398 73.0675 106.398 73.0676 106.398L98.3535 62.7089Z" fill="#F6BD4E" stroke="#647891" stroke-width="2"/>
<path d="M101.132 103.809C100.767 103.496 100.476 103.107 100.279 102.669C100.082 102.231 99.9852 101.755 99.9943 101.274C99.9815 100.783 100.077 100.295 100.273 99.8447C100.47 99.3943 100.763 98.9926 101.132 98.668C101.981 97.9578 103.065 97.5928 104.171 97.6456C105.262 97.5952 106.333 97.9606 107.166 98.668C107.535 98.9926 107.828 99.3943 108.024 99.8447C108.221 100.295 108.316 100.783 108.304 101.274C108.313 101.755 108.215 102.231 108.019 102.669C107.822 103.107 107.531 103.496 107.166 103.809C106.331 104.511 105.26 104.871 104.171 104.817C103.067 104.875 101.982 104.515 101.132 103.809V103.809ZM108.116 79.9336L107.267 95.3992H101.06L100.21 79.9336H108.116Z" fill="#6B7D94"/>
</svg>
