<svg width="144" height="144" viewBox="0 0 144 144" fill="none" xmlns="http://www.w3.org/2000/svg">
<path d="M17.207 79.5359V46.3735" stroke="#647891" stroke-width="2" stroke-linecap="round" stroke-linejoin="round"/>
<path d="M125.365 46.3735V79.7858" stroke="#647891" stroke-width="2" stroke-linecap="round" stroke-linejoin="round"/>
<path d="M134.401 50.2573L71.2671 13L8.67188 50.1611" stroke="#647891" stroke-width="2" stroke-linecap="round" stroke-linejoin="round"/>
<path d="M56.2907 46.9883C58.4027 48.4087 60.1752 50.2776 61.482 52.4617C62.7889 54.6458 63.5978 57.0913 63.8511 59.6239C64.1043 62.1564 63.7957 64.7137 62.9472 67.1133C62.0988 69.5129 60.7313 71.6958 58.9424 73.5063C57.1535 75.3168 54.9872 76.7103 52.5979 77.5875C50.2087 78.4647 47.6552 78.804 45.1198 78.5811C42.5844 78.3583 40.1293 77.5788 37.9297 76.2983C35.7301 75.0177 33.8402 73.2676 32.3945 71.1728" stroke="#647891" stroke-width="2" stroke-linecap="round" stroke-linejoin="round"/>
<path d="M56.1945 46.9116C50.4271 56.7931 38.354 61.9645 23.8779 58.6771" stroke="#647891" stroke-width="2" stroke-linecap="round" stroke-linejoin="round"/>
<path fill-rule="evenodd" clip-rule="evenodd" d="M79.0034 128.116H123C123.894 128.117 124.753 127.767 125.393 127.142C126.032 126.516 126.402 125.666 126.422 124.771L126.749 105.931C126.661 101.679 125.326 97.5466 122.91 94.0467C120.493 90.5469 117.102 87.8341 113.157 86.2453C111.388 89.2059 105.467 91.3975 98.4116 91.3975C91.3562 91.3975 85.3966 89.2059 83.6471 86.2261C80.5845 87.4878 77.8623 89.4275 75.6777 91.8853C75.6919 91.9058 75.7059 91.9264 75.72 91.947C78.5369 96.0751 80.0893 100.935 80.1872 105.931L79.8603 124.829C79.836 125.988 79.5378 127.112 79.0034 128.116Z" fill="#F6BD4E"/>
<path d="M23.2051 124.252H72.0356L72.3431 105.873C72.2712 102.84 71.4177 99.8769 69.8651 97.2702C68.3125 94.6635 66.1134 92.5016 63.4806 90.9937C58.7759 93.7933 53.4026 95.2711 47.9279 95.2711C42.4531 95.2711 37.08 93.7933 32.3752 90.9937C29.74 92.5164 27.5417 94.6927 25.9927 97.3126C24.4436 99.9325 23.5961 102.907 23.5319 105.95L23.2051 124.252Z" fill="white"/>
<path d="M62.6924 86.2453C60.9237 89.2059 55.0026 91.3975 47.9471 91.3975C40.8917 91.3975 34.9321 89.2059 33.1827 86.2261C29.2613 87.8389 25.8976 90.5641 23.5063 94.0656C21.115 97.5671 19.8007 101.692 19.7255 105.931L19.3987 125.021C19.3936 125.426 19.4689 125.828 19.6202 126.203C19.7715 126.578 19.9959 126.92 20.2802 127.208C20.5646 127.496 20.9033 127.724 21.2767 127.88C21.6501 128.036 22.0507 128.116 22.4553 128.116H72.5546C73.449 128.117 74.308 127.767 74.9476 127.142C75.5871 126.516 75.9565 125.666 75.9766 124.771L76.3034 105.931C76.2093 101.678 74.8695 97.5462 72.4502 94.047C70.0308 90.5479 66.6381 87.8353 62.6924 86.2453Z" fill="#F06E61"/>
<path d="M98.5657 79.2857C108.259 79.2857 116.118 71.4274 116.118 61.7337C116.118 52.04 108.259 44.1816 98.5657 44.1816C88.872 44.1816 81.0137 52.04 81.0137 61.7337C81.0137 71.4274 88.872 79.2857 98.5657 79.2857Z" stroke="#647891" stroke-width="2" stroke-linecap="round" stroke-linejoin="round"/>
<path d="M89.5498 47.4307C89.5498 47.4307 94.0676 62.9449 114.042 60.4841" stroke="#647891" stroke-width="2" stroke-linecap="round" stroke-linejoin="round"/>
<path d="M80.8789 61.7337C83.7359 61.2244 86.2848 59.6286 87.9909 57.281C89.6969 54.9333 90.4277 52.0163 90.0298 49.1416" stroke="#647891" stroke-width="2" stroke-linecap="round" stroke-linejoin="round"/>
<path d="M106.717 77.6709C106.412 79.0137 106.427 80.4092 106.761 81.7449C107.095 83.0807 107.738 84.3193 108.639 85.3607" stroke="#647891" stroke-width="2" stroke-linecap="round" stroke-linejoin="round"/>
<path d="M89.5494 77.6709C89.8509 79.0138 89.8341 80.4086 89.5002 81.7438C89.1664 83.079 88.5249 84.3177 87.627 85.3607" stroke="#647891" stroke-width="2" stroke-linecap="round" stroke-linejoin="round"/>
<path d="M99.6426 28.495V17.2871H114.061V36.3963" stroke="#647891" stroke-width="2" stroke-linecap="round" stroke-linejoin="round"/>
<path d="M26.6655 87.5521C27.7604 81.9894 27.8905 76.2798 27.05 70.6729C26.1465 62.2718 25.4544 53.6592 31.0488 46.6422C41.9107 33.0312 65.1724 39.1254 68.9789 55.7547C70.7091 63.2523 67.5562 72.9414 68.1522 80.8619" stroke="#647891" stroke-width="2" stroke-linecap="round" stroke-linejoin="round"/>
<path d="M40.1036 77.5171C40.1337 78.883 39.8393 80.2365 39.2444 81.4664C38.6495 82.6963 37.7712 83.7675 36.6816 84.5917" stroke="#647891" stroke-width="2" stroke-linecap="round" stroke-linejoin="round"/>
<path d="M54.7344 78.0171C54.8824 79.2912 55.3021 80.5186 55.9655 81.6164C56.6288 82.7142 57.5202 83.6568 58.5793 84.3804" stroke="#647891" stroke-width="2" stroke-linecap="round" stroke-linejoin="round"/>
<path d="M116.099 59.9846C116.064 63.8423 115.321 67.6608 113.907 71.2502C114.125 71.3544 114.359 71.4195 114.599 71.4425H115.138C116.667 71.5699 118.185 71.0845 119.357 70.0931C120.528 69.1016 121.258 67.6853 121.386 66.1557C121.513 64.6261 121.028 63.1085 120.036 61.9368C119.045 60.7651 117.628 60.0352 116.099 59.9077V59.9846Z" fill="#647891"/>
<path d="M80.1671 59.9846C80.2035 63.8404 80.9395 67.6574 82.3395 71.2502C82.1219 71.3544 81.8876 71.4195 81.6474 71.4425H81.1283C79.5987 71.5699 78.0812 71.0845 76.9095 70.0931C75.7378 69.1016 75.0078 67.6853 74.8804 66.1557C74.7529 64.6261 75.2383 63.1085 76.2297 61.9368C77.2212 60.7651 78.6375 60.0352 80.1671 59.9077V59.9846Z" fill="#647891"/>
</svg>
