<svg width="33" height="32" viewBox="0 0 33 32" fill="none" xmlns="http://www.w3.org/2000/svg">
<path d="M21.5 12H24C24.663 12 25.2989 12.2634 25.7678 12.7322C26.2366 13.2011 26.5 13.837 26.5 14.5V26.5C26.5 27.163 26.2366 27.7989 25.7678 28.2678C25.2989 28.7366 24.663 29 24 29H9C8.33696 29 7.70107 28.7366 7.23223 28.2678C6.76339 27.7989 6.5 27.163 6.5 26.5V14.5C6.5 13.837 6.76339 13.2011 7.23223 12.7322C7.70107 12.2634 8.33696 12 9 12H11.5M21.5 8L16.5 3L11.5 8M16.5 20.0625V3" stroke="#4A6382" stroke-linecap="round" stroke-linejoin="round"/>
</svg>
