<svg width="144" height="144" viewBox="0 0 144 144" fill="none" xmlns="http://www.w3.org/2000/svg">
<path d="M128.982 7.04102H15.0199C13.9383 7.04102 13.0615 7.91786 13.0615 8.99951V22.853C13.0615 23.9346 13.9383 24.8115 15.0199 24.8115H128.982C130.063 24.8115 130.94 23.9346 130.94 22.853V8.99951C130.94 7.91786 130.063 7.04102 128.982 7.04102Z" stroke="#647891" stroke-width="2"/>
<path d="M37.7422 24.8828V33.5232C37.7403 34.8986 38.0098 36.2609 38.5352 37.5319C39.0607 38.803 39.8317 39.9578 40.8042 40.9304C41.7767 41.9029 42.9315 42.674 44.2025 43.1995C45.4735 43.7249 46.8357 43.9944 48.211 43.9925H94.4638C95.8398 43.9944 97.2027 43.725 98.4745 43.1998C99.7462 42.6745 100.902 41.9036 101.876 40.9313C102.849 39.9589 103.622 38.8041 104.149 37.533C104.676 36.2619 104.947 34.8993 104.947 33.5232V24.8828" stroke="#647891" stroke-width="2"/>
<path d="M58.2336 43.9492V67.9252C58.2297 68.2711 58.2948 68.6143 58.425 68.9348C58.5551 69.2553 58.7478 69.5467 58.9918 69.792C59.2357 70.0373 59.526 70.2315 59.8458 70.3635C60.1656 70.4954 60.5084 70.5623 60.8544 70.5604H81.8352C82.1793 70.5604 82.5201 70.4926 82.8381 70.3609C83.1561 70.2292 83.445 70.0362 83.6883 69.7928C83.9317 69.5494 84.1247 69.2605 84.2565 68.9426C84.3882 68.6246 84.456 68.2838 84.456 67.9396V43.9492" stroke="#647891" stroke-width="2"/>
<path d="M71.4961 70.5596V84.6003" stroke="#647891" stroke-width="2"/>
<path d="M55.0371 84.5859H87.9555" stroke="#647891" stroke-width="2" stroke-linecap="round"/>
<path d="M71.4391 116.57C75.026 116.57 77.9338 113.662 77.9338 110.075C77.9338 106.488 75.026 103.58 71.4391 103.58C67.8521 103.58 64.9443 106.488 64.9443 110.075C64.9443 113.662 67.8521 116.57 71.4391 116.57Z" fill="#7CC694"/>
<path d="M71.4391 138.4C75.026 138.4 77.9338 135.492 77.9338 131.905C77.9338 128.318 75.026 125.41 71.4391 125.41C67.8521 125.41 64.9443 128.318 64.9443 131.905C64.9443 135.492 67.8521 138.4 71.4391 138.4Z" fill="#7CC694"/>
<path d="M49.0758 105.466C52.6627 105.466 55.5705 102.558 55.5705 98.9713C55.5705 95.3844 52.6627 92.4766 49.0758 92.4766C45.4888 92.4766 42.5811 95.3844 42.5811 98.9713C42.5811 102.558 45.4888 105.466 49.0758 105.466Z" fill="#7CC694"/>
<path d="M31.6236 117.807C35.2106 117.807 38.1183 114.899 38.1183 111.312C38.1183 107.725 35.2106 104.817 31.6236 104.817C28.0367 104.817 25.1289 107.725 25.1289 111.312C25.1289 114.899 28.0367 117.807 31.6236 117.807Z" fill="#7CC694"/>
<path d="M111.241 117.807C114.828 117.807 117.736 114.899 117.736 111.312C117.736 107.725 114.828 104.817 111.241 104.817C107.654 104.817 104.746 107.725 104.746 111.312C104.746 114.899 107.654 117.807 111.241 117.807Z" fill="#7CC694"/>
<path d="M49.0758 132.826C52.6627 132.826 55.5705 129.919 55.5705 126.332C55.5705 122.745 52.6627 119.837 49.0758 119.837C45.4888 119.837 42.5811 122.745 42.5811 126.332C42.5811 129.919 45.4888 132.826 49.0758 132.826Z" fill="#7CC694"/>
<path d="M93.7887 105.466C97.3756 105.466 100.283 102.558 100.283 98.9713C100.283 95.3844 97.3756 92.4766 93.7887 92.4766C90.2017 92.4766 87.2939 95.3844 87.2939 98.9713C87.2939 102.558 90.2017 105.466 93.7887 105.466Z" fill="#7CC694"/>
<path d="M93.7887 132.827C97.3756 132.827 100.283 129.92 100.283 126.333C100.283 122.746 97.3756 119.838 93.7887 119.838C90.2017 119.838 87.2939 122.746 87.2939 126.333C87.2939 129.92 90.2017 132.827 93.7887 132.827Z" fill="#7CC694"/>
</svg>
