<svg width="144" height="144" viewBox="0 0 144 144" fill="none" xmlns="http://www.w3.org/2000/svg">
<path d="M84.2235 59L61 58V82.5H84.2235V59Z" fill="#F06E61" stroke="#6B7D94" stroke-width="2" stroke-linecap="round" stroke-linejoin="round"/>
<path d="M72.9502 59.0972V81.5468" stroke="#6B7D94" stroke-width="2" stroke-linecap="round" stroke-linejoin="round"/>
<path d="M83.6648 69.811H72.9219" stroke="#6B7D94" stroke-width="2" stroke-linecap="round" stroke-linejoin="round"/>
<path d="M37.1807 69.0633L49.5503 63.5049L60.9263 88.2009L48.5711 93.5865" stroke="#6B7D94" stroke-width="2" stroke-linecap="round" stroke-linejoin="round"/>
<path d="M37.1953 69.2065L48.4567 93.5281" stroke="#6B7D94" stroke-width="2" stroke-linecap="round" stroke-linejoin="round"/>
<path d="M55.2389 75.8589L43.1279 81.3168" stroke="#6B7D94" stroke-width="2" stroke-linecap="round" stroke-linejoin="round"/>
<path d="M72.3177 112.709C72.9846 110.8 74.1809 109.12 75.767 107.866C77.3531 106.611 79.2635 105.834 81.2749 105.625C83.03 109.329 84.0473 113.339 84.2703 117.433C84.2703 121.911 84.0111 126.62 83.6367 131.329H82.1966C77.3147 131.329 72.1161 131.458 65.751 131.746L72.3177 112.709Z" fill="#F6BD4E"/>
<path d="M65.0144 132.223L71.8647 112.563L71.8654 112.561C72.6055 110.423 73.9836 108.564 75.8137 107.235C77.4753 106.028 79.4368 105.31 81.4765 105.156C83.2599 108.895 83.7134 113.158 83.9601 117.524C83.9433 119.427 83.9998 121.313 84.0554 123.167C84.0755 123.839 84.0956 124.506 84.1119 125.169C84.1665 127.383 84.1815 129.567 84.0346 131.768H82.138C76.4286 131.768 70.7234 131.954 65.0144 132.223Z" stroke="#647891" stroke-width="2"/>
<path d="M84.5423 128.965V131.212C84.5272 131.675 84.3295 132.114 83.9923 132.432C83.6551 132.751 83.2058 132.923 82.7422 132.911V132.911" stroke="#6B7D94" stroke-width="2" stroke-linejoin="round"/>
<path d="M60.4795 128.159V110.519C60.5661 107.405 61.886 104.452 64.1489 102.311C66.4118 100.169 69.4324 99.0144 72.5467 99.0996V99.0996C75.661 99.0144 78.6816 100.169 80.9445 102.311C83.2074 104.452 84.5272 107.405 84.6139 110.519V128.965" stroke="#6B7D94" stroke-width="2" stroke-linejoin="round"/>
<path d="M82.7563 132.897H62.2075C61.7577 132.894 61.3266 132.716 61.0046 132.402C60.6825 132.088 60.4943 131.662 60.4795 131.212V131.212V128.159" stroke="#6B7D94" stroke-width="2" stroke-linejoin="round"/>
<path d="M123.45 56.0029V127.585C123.45 130.552 121.434 133.014 116.653 132.971H26.6388C25.2754 132.971 23.9678 132.429 23.0038 131.465C22.0397 130.501 21.498 129.194 21.498 127.83V56.0029" stroke="#6B7D94" stroke-width="2" stroke-linecap="round" stroke-linejoin="round"/>
<path d="M134.166 63.5621L116.539 49.4351" stroke="#6B7D94" stroke-width="2" stroke-linecap="round" stroke-linejoin="round"/>
<path d="M108.792 43.8339L72.4749 15.8403L11.3037 63.3603" stroke="#6B7D94" stroke-width="2" stroke-linecap="round" stroke-linejoin="round"/>
<path d="M116.279 49.5653L107.884 57.4133L112.06 61.6325L93.6426 77.2421L102.931 61.4309L97.3866 58.6805L109.123 44.1797" stroke="#6B7D94" stroke-width="2" stroke-linecap="round" stroke-linejoin="round"/>
<path d="M93.543 77.4727L98.5545 80.3528L85.9971 95.7471" stroke="#6B7D94" stroke-width="2" stroke-linecap="round" stroke-linejoin="round"/>
<path d="M30.3982 47.2186L30.3838 28.2817L44.2085 27.936L44.2805 37.6997" stroke="#6B7D94" stroke-width="2" stroke-linecap="round" stroke-linejoin="round"/>
</svg>
