<svg width="32" height="32" viewBox="0 0 32 32" fill="none" xmlns="http://www.w3.org/2000/svg">
<path d="M10.1667 25.893C10.1667 26.6175 10.474 27.3123 11.0209 27.8246C11.5679 28.3369 12.3098 28.6247 13.0833 28.6247C13.8569 28.6247 14.5987 28.3369 15.1457 27.8246C15.6927 27.3123 16 26.6175 16 25.893V3.70801" stroke="#4A6382" stroke-width="1.75" stroke-linecap="round" stroke-linejoin="round"/>
<path d="M5.48364 14.9927C6.12933 14.9818 6.76838 15.1245 7.34812 15.409C7.92787 15.6935 8.43172 16.1117 8.81818 16.6291C8.84082 16.6599 8.87039 16.6849 8.9045 16.7022C8.93861 16.7195 8.97631 16.7285 9.01455 16.7285C9.05278 16.7285 9.09048 16.7195 9.12459 16.7022C9.15871 16.6849 9.18828 16.6599 9.21091 16.6291C9.60509 16.1195 10.1107 15.707 10.6891 15.4232C11.2674 15.1395 11.9031 14.9919 12.5473 14.9919C13.1915 14.9919 13.8271 15.1395 14.4055 15.4232C14.9838 15.707 15.4895 16.1195 15.8836 16.6291C15.9071 16.6593 15.9371 16.6837 15.9715 16.7005C16.0058 16.7173 16.0436 16.7261 16.0818 16.7261C16.1201 16.7261 16.1578 16.7173 16.1921 16.7005C16.2265 16.6837 16.2565 16.6593 16.28 16.6291C16.6662 16.1306 17.1591 15.7249 17.7225 15.4417C18.2859 15.1586 18.9055 15.0051 19.536 14.9925C20.1664 14.98 20.7917 15.1087 21.3659 15.3692C21.9401 15.6297 22.4488 16.0155 22.8545 16.4981C22.8781 16.5258 22.9074 16.5479 22.9403 16.5632C22.9733 16.5784 23.0092 16.5862 23.0455 16.5862C23.0818 16.5862 23.1176 16.5784 23.1506 16.5632C23.1835 16.5479 23.2128 16.5258 23.2364 16.4981C23.6225 16.041 24.101 15.6707 24.6404 15.4115C25.1798 15.1524 25.7679 15.0103 26.3661 14.9945C26.9644 14.9787 27.5591 15.0896 28.1115 15.3199C28.6638 15.5502 29.1612 15.8947 29.5709 16.3309C29.6618 16.4218 29.9818 16.3745 30 16.1891C29.6364 9.60724 23.4945 4.37451 16 4.37451C8.50545 4.37451 2.41091 9.57815 2 16.1381C2 16.3091 2.31636 16.3963 2.42545 16.2836C2.81835 15.8688 3.29295 15.5399 3.8193 15.3178C4.34566 15.0956 4.91236 14.9849 5.48364 14.9927V14.9927Z" fill="#4A6382"/>
</svg>
