<svg width="32" height="32" viewBox="0 0 32 32" fill="none" xmlns="http://www.w3.org/2000/svg">
<path fill-rule="evenodd" clip-rule="evenodd" d="M29.8348 16.2015C30.2038 15.3106 29.949 14.3161 29.1229 13.8143C29.1179 13.8113 29.102 13.8032 29.0797 13.7918C28.9858 13.7437 28.7778 13.6372 28.7878 13.6135L29.8239 11.1136C30.2378 10.1145 29.7637 8.9703 28.7647 8.55646C27.7656 8.14262 26.6214 8.61668 26.2075 9.61575L25.3413 11.7065C23.5964 10.8048 21.6384 9.84118 19.432 8.92709C17.2918 8.04075 14.9216 7.20228 13.4143 6.74832L14.2744 4.67146C14.6882 3.67242 14.2142 2.52819 13.2151 2.11593C12.2161 1.70209 11.0718 2.17615 10.658 3.17521L9.63427 5.64583C9.25441 5.54238 9.06294 5.4976 9.02278 5.48833C8.08548 5.2598 7.06019 5.72304 6.69114 6.61557L5.41875 9.68993L4.43051 12.0772C3.27702 11.7961 2.52659 12.0725 2.1637 12.9465C1.74986 13.9456 2.13745 14.7871 3.13649 15.201L4.2699 15.6704L3.74027 21.9675C3.67696 22.8585 4.09234 23.7988 4.84589 24.2775C6.7251 25.4696 8.88229 26.4996 11.3545 27.5233C13.3703 28.4188 18.4023 30.1169 19.823 29.3832C20.7905 28.8799 23.5096 25.6863 24.7483 24.1525L25.9172 24.6373C26.9162 25.0512 28.1469 24.8782 28.5608 23.8807C28.9746 22.8832 28.3106 21.9258 27.588 21.6263L28.5608 19.2761L29.8348 16.2015ZM9.54491 9.74999C8.65237 9.38094 7.62862 9.80557 7.25803 10.6981C6.88743 11.5906 7.31206 12.6159 8.20457 12.9865C9.09866 13.3556 10.1224 12.9309 10.493 12.0384C10.862 11.1443 10.4374 10.1206 9.54491 9.74999ZM24.0013 19.5292C24.8938 19.8998 25.9191 19.4752 26.2882 18.5811C26.6588 17.687 26.2341 16.6633 25.3432 16.2943C24.4491 15.9252 23.4238 16.3498 23.0547 17.2423C22.6841 18.1349 23.1088 19.1602 24.0013 19.5292ZM8.06232 23.4741C7.37671 23.102 5.9931 22.3436 5.9931 22.3436L6.68058 14.6016C10.7309 17.2326 17.8132 20.6439 23.3538 21.7629L18.8034 27.6494C18.8034 27.6494 15.8294 26.9021 12.2268 25.4104C10.5823 24.7295 9.14469 24.0331 8.06232 23.4741Z" fill="#4A6382"/>
<path d="M9.43378 18.992C9.46877 18.6666 9.82072 18.3473 10.1007 18.171L15.1054 14.8755L18.1913 16.2576L12.8368 19.617C13.6873 20.4375 14.4124 21.1411 14.4544 21.1818C14.6923 21.4123 14.9512 21.8644 14.9162 22.1864C14.8812 22.5085 14.7343 22.9007 14.4544 23.077L9.40095 26.2465L6.97559 24.8662L11.6055 21.7644C11.1227 21.3068 10.4789 20.6832 9.60074 19.8326L9.60024 19.8321C9.36702 19.6062 9.39844 19.3171 9.43322 18.9971L9.43378 18.992Z" fill="#4A6382"/>
</svg>
