<svg width="32" height="32" viewBox="0 0 32 32" fill="none" xmlns="http://www.w3.org/2000/svg">
<path d="M20.7904 4.03625C19.5741 2.72313 17.8754 2 16.0004 2C14.1154 2 12.411 2.71875 11.2004 4.02375C9.97661 5.34312 9.38036 7.13625 9.52036 9.0725C9.79786 12.8925 12.7047 16 16.0004 16C19.296 16 22.1979 12.8931 22.4797 9.07375C22.6216 7.155 22.0216 5.36562 20.7904 4.03625V4.03625ZM27.0004 30H5.00036C4.7124 30.0037 4.42722 29.9433 4.16558 29.8229C3.90395 29.7026 3.67242 29.5254 3.48786 29.3044C3.08161 28.8187 2.91786 28.1556 3.03911 27.485C3.56661 24.5587 5.21286 22.1006 7.80036 20.375C10.0991 18.8431 13.011 18 16.0004 18C18.9897 18 21.9016 18.8437 24.2004 20.375C26.7879 22.1 28.4341 24.5581 28.9616 27.4844C29.0829 28.155 28.9191 28.8181 28.5129 29.3037C28.3284 29.5249 28.0969 29.7022 27.8352 29.8226C27.5736 29.9431 27.2884 30.0037 27.0004 30V30Z" fill="#4A6382"/>
</svg>
