<svg width="32" height="32" viewBox="0 0 32 32" fill="none" xmlns="http://www.w3.org/2000/svg">
<path d="M19.7739 1.99796C19.4841 1.78493 19.0977 1.89144 18.8079 2.10447L9.43799 9.56053H2.96597C2.38639 9.56053 2 9.98659 2 10.6257V21.2772C2 21.9163 2.38639 22.3423 2.96597 22.3423H9.43799L18.8079 29.9049C19.0011 30.0114 19.1943 30.1179 19.3875 30.1179C19.5807 30.1179 19.6773 30.1179 19.8705 30.0114C20.1603 29.7984 20.3535 29.4788 20.3535 29.0528V2.95659C20.3535 2.53053 20.1603 2.10447 19.7739 1.99796Z" fill="#4A6382"/>
<path fill-rule="evenodd" clip-rule="evenodd" d="M22.9674 12.5816C23.6652 13.5956 24.0407 14.8064 24.0297 16.0531C24.0187 17.2998 23.6219 18.5037 22.9063 19.5053C22.9044 19.5079 22.9025 19.5106 22.9006 19.5132C22.8525 19.5802 22.8116 19.6514 22.778 19.7252C22.5902 20.138 22.634 20.6337 22.9604 20.9601C23.3451 21.3448 23.9745 21.3481 24.309 20.919C24.3751 20.8343 24.4394 20.7483 24.5018 20.6612C24.5442 20.6021 24.5858 20.5424 24.6265 20.4822C25.502 19.1879 25.9859 17.6552 25.9998 16.0705C26.0138 14.4857 25.5571 12.9447 24.7046 11.6351C24.665 11.5742 24.6245 11.5138 24.5831 11.454C24.5222 11.3658 24.4595 11.2787 24.3949 11.1928C24.068 10.7579 23.4387 10.7501 23.0472 11.1279C22.7151 11.4485 22.6626 11.9434 22.843 12.3594C22.8753 12.4338 22.915 12.5057 22.9619 12.5735C22.9637 12.5762 22.9656 12.5789 22.9674 12.5816Z" fill="#4A6382"/>
</svg>
