<svg width="144" height="144" viewBox="0 0 144 144" fill="none" xmlns="http://www.w3.org/2000/svg">
<path d="M46.9166 95.5011L21.875 70.4595C10.7294 59.3139 10.355 41.5731 21.1406 30.8451L22.1054 29.8803C32.8478 19.1379 50.5742 19.4691 61.7198 30.6147L71.4398 40.3203" stroke="#6B7D94" stroke-width="2" stroke-linecap="round" stroke-linejoin="round"/>
<path d="M120.673 28.1523C120.673 28.1523 139.148 42.9987 127.268 63.3603C127.268 63.3603 123.653 69.1203 112.205 80.2083L81.5621 50.9043L74.3621 56.3619C74.3621 56.3619 65.1461 63.3891 56.5205 55.1379L79.5605 32.6451C79.5605 32.6451 88.7765 21.8307 101.693 21.5571C108.591 21.5023 115.295 23.8321 120.673 28.1523V28.1523Z" fill="#F06E61"/>
<path d="M112.206 80.3811L122.127 70.4595C133.273 59.3139 133.647 41.5731 122.862 30.8451L121.897 29.8803C111.155 19.1379 93.4282 19.4691 82.2826 30.6147L57.2266 55.6563" stroke="#F06E61" stroke-width="2" stroke-linecap="round" stroke-linejoin="round"/>
<path d="M30.6006 79.1143L71.1942 119.722C72.4537 121.082 74.2011 121.886 76.053 121.959C77.9049 122.032 79.7101 121.367 81.0726 120.111L81.5478 119.636C82.8042 118.273 83.4689 116.468 83.396 114.616C83.3231 112.764 82.5186 111.017 81.159 109.757L57.7878 86.4007" stroke="#6B7D94" stroke-width="2" stroke-linecap="round" stroke-linejoin="round"/>
<path d="M68.2705 76.9546L91.6273 100.311C92.9855 101.571 93.7902 103.317 93.8658 105.167C93.9413 107.018 93.2815 108.824 92.0305 110.19L91.5553 110.665C90.1904 111.922 88.3829 112.587 86.5286 112.514C84.6743 112.442 82.9245 111.637 81.6625 110.276" stroke="#6B7D94" stroke-width="2" stroke-linecap="round" stroke-linejoin="round"/>
<path d="M78.2363 66.9868L101.593 90.3436C102.953 91.6031 103.757 93.3505 103.83 95.2024C103.903 97.0543 103.238 98.8596 101.982 100.222L101.507 100.697C100.144 101.954 98.3391 102.618 96.4871 102.545C94.6352 102.473 92.8878 101.668 91.6283 100.308" stroke="#6B7D94" stroke-width="2" stroke-linecap="round" stroke-linejoin="round"/>
<path d="M82.2969 51.8394L111.558 80.3802C112.917 81.6397 113.722 83.387 113.795 85.239C113.868 87.0909 113.203 88.8961 111.946 90.2586L111.471 90.7338C110.109 91.9902 108.304 92.6549 106.452 92.582C104.6 92.5091 102.852 91.7046 101.593 90.345" stroke="#6B7D94" stroke-width="2" stroke-linecap="round" stroke-linejoin="round"/>
<path d="M86.1128 46.0806L76.3208 55.0666C76.3208 55.0666 65.7224 65.0031 57.4424 55.8442" stroke="#F06E61" stroke-width="2" stroke-linecap="round" stroke-linejoin="round"/>
</svg>
