<svg width="32" height="32" viewBox="0 0 32 32" fill="none" xmlns="http://www.w3.org/2000/svg">
<path fill-rule="evenodd" clip-rule="evenodd" d="M23.6891 26.2481H8.26673C2.09781 26.2481 -0.472331 18.451 4.97647 13.9024C4.77092 6.86237 11.1451 3.18011 16.286 8.59531C20.5015 7.72867 22.9693 8.92082 24.6144 13.0358C33.0456 15.5261 30.6805 26.2481 23.6891 26.2481ZM16.3251 15.5956L18.9858 15.3816C19.0734 15.3743 19.1586 15.4156 19.2072 15.4886C19.2559 15.5615 19.2608 15.6564 19.2218 15.7342L15.3767 23.3126C15.3353 23.3977 15.2502 23.4464 15.1602 23.4464C15.1383 23.4464 15.114 23.4439 15.0921 23.4366C14.9802 23.4026 14.9048 23.2956 14.917 23.1788L15.3718 18.4168L13.0102 18.6332C12.9372 18.6381 12.8667 18.6138 12.8156 18.5627C12.7646 18.5141 12.7402 18.4411 12.7451 18.3706L13.2194 12.7208C13.2315 12.5943 13.3361 12.4971 13.4626 12.4971H16.9526C17.028 12.4971 17.101 12.5335 17.1472 12.5968C17.1934 12.66 17.2055 12.7403 17.1837 12.8132L16.3251 15.5956Z" fill="#4A6382"/>
</svg>
