<svg width="32" height="32" viewBox="0 0 32 32" fill="none" xmlns="http://www.w3.org/2000/svg">
<path fill-rule="evenodd" clip-rule="evenodd" d="M7.29549 22.1276C7.71264 21.9014 8.23753 21.982 8.56008 22.3219C10.2177 24.0683 13.0831 24.0683 14.7407 22.3219C14.9352 22.1169 15.2109 22 15.4999 22C15.7889 22 16.0646 22.1169 16.2591 22.3219C17.9167 24.0683 20.7821 24.0683 22.4397 22.3219C22.7623 21.982 23.2872 21.9014 23.7043 22.1276L25.8426 23.2871C26.7289 23.7677 27.7672 23.9231 28.7641 23.7242C29.3192 23.6135 29.8628 23.9551 29.9783 24.4873C30.0938 25.0195 29.7374 25.5407 29.1824 25.6515C27.6979 25.9476 26.1517 25.7163 24.8319 25.0006L23.3578 24.2012C21.1019 26.0242 17.8032 26.0656 15.4999 24.3254C13.1966 26.0656 9.89793 26.0242 7.64197 24.2012L6.13292 25.0196C4.87265 25.703 3.44059 26.0408 1.99348 25.9961C1.42683 25.9786 0.982278 25.5239 1.00054 24.9806C1.01881 24.4373 1.49298 24.0111 2.05962 24.0286C3.13028 24.0617 4.18979 23.8117 5.12221 23.3061L7.29549 22.1276Z" fill="#4A6382"/>
<path fill-rule="evenodd" clip-rule="evenodd" d="M10.7466 1H9.47743V3.51423H8.68419C8.4016 3.51423 8.15372 3.69868 8.07439 3.96693L6.17215 12.4286H7.25651C7.43175 12.4286 7.57381 12.5693 7.57381 12.7429C7.57381 12.9165 7.43175 13.0572 7.25651 13.0572H2.60064L2 20.9969C3.0779 21.0319 4.14458 20.7676 5.0833 20.2328L7.27129 18.9863C7.69126 18.747 8.2197 18.8323 8.54443 19.1917C10.2132 21.039 13.098 21.039 14.7668 19.1917C14.9627 18.9749 15.2402 18.8514 15.5312 18.8514C15.8222 18.8514 16.0997 18.9749 16.2956 19.1917C17.9644 21.039 20.8492 21.039 22.518 19.1917C22.8427 18.8323 23.3711 18.747 23.7911 18.9863L25.4374 19.9242L29.7818 14.1584C30.2173 13.7813 29.9573 13.0755 29.3867 13.0573H12.5831C12.4079 13.0573 12.2658 12.9166 12.2658 12.743C12.2658 12.5694 12.4079 12.4287 12.5831 12.4287H25.3377L22.2745 8.54269H17.0925C16.391 8.54269 15.8233 7.97981 15.8233 7.28557C15.8233 6.59134 16.391 6.02846 17.0925 6.02846H19.5255L17.504 4.18084C17.0355 3.75239 16.4207 3.51423 15.7824 3.51423H10.7466V1ZM12.0158 8.54269C12.7173 8.54269 13.285 7.97981 13.285 7.28557C13.285 6.59134 12.7173 6.02846 12.0158 6.02846C11.3143 6.02846 10.7466 6.59134 10.7466 7.28557C10.7466 7.97981 11.3143 8.54269 12.0158 8.54269Z" fill="#4A6382"/>
</svg>
